<svg width="203" height="100" viewBox="0 0 203 100" fill="none" xmlns="http://www.w3.org/2000/svg">
<path d="M88.5378 39.1609H93.9956V61.0146H99.4533V33.6975H93.9956C90.9938 33.6975 88.5378 36.156 88.5378 39.1609Z" fill="white" fill-opacity="0.3"/>
<path d="M104.911 44.6243V61.0145H110.369V50.0877C110.369 47.0828 107.913 44.6243 104.911 44.6243Z" fill="white" fill-opacity="0.3"/>
<path d="M126.742 44.6243H115.827V61.0145H121.284V50.0877H126.742V55.5511C126.742 58.556 129.198 61.0145 132.2 61.0145V50.0877C132.2 47.0828 129.744 44.6243 126.742 44.6243Z" fill="white" fill-opacity="0.3"/>
<path d="M164.946 44.6243H159.488V39.1609C159.488 36.156 157.032 33.6975 154.031 33.6975V55.5512H143.115V50.0878H148.573V44.6243H143.115C140.113 44.6243 137.657 47.0829 137.657 50.0878V55.5512C137.657 58.556 140.113 61.0146 143.115 61.0146H159.488V50.0878H164.946V55.5512C164.946 58.556 167.402 61.0146 170.404 61.0146V50.0878C170.404 47.0829 167.948 44.6243 164.946 44.6243Z" fill="white" fill-opacity="0.3"/>
<path d="M104.911 33.6975V39.1609H110.369C110.369 36.156 107.913 33.6975 104.911 33.6975Z" fill="white" fill-opacity="0.3"/>
<path fill-rule="evenodd" clip-rule="evenodd" d="M69.4221 33.3698C67.7439 32.2771 66.5568 31.8127 66.5568 31.8127C66.5568 31.8127 67.3346 31.8401 68.467 31.922C68.9037 31.9493 69.3812 31.9903 69.886 32.0449C70.2954 32.0859 70.7047 32.1269 71.1277 32.1679C70.3909 31.5806 69.6541 31.0615 68.9173 30.5835C64.4965 27.7288 60.3486 26.8274 56.883 26.8274C53.8266 26.8274 51.3161 27.524 49.6378 28.1659C48.287 28.6849 47.4684 29.1766 47.3456 29.2449L49.092 26.4723L49.2285 25.1064C49.706 25.1474 50.1154 25.4342 50.32 25.8576C50.4019 26.0352 50.4565 26.2264 50.4565 26.4313C52.1484 25.8986 54.3451 25.4615 56.883 25.4615C61.2082 25.4615 66.475 26.7727 71.96 31.0888C72.4375 31.4713 72.6149 32.1132 72.383 32.6869C72.2602 32.9874 72.0419 33.2196 71.7826 33.3562C72.765 34.1074 73.8293 35.0362 74.8799 36.1562C78.6594 40.1991 82.1523 46.6869 81.2245 56.3571C81.1699 56.9035 80.7879 57.3679 80.2558 57.5318C80.0102 57.6001 79.7646 57.6137 79.5326 57.5454C79.2324 61.684 77.4314 68.5132 69.6677 74.3454C69.2038 74.7005 68.5625 74.7142 68.085 74.3864C67.894 74.2498 67.7302 74.0723 67.6347 73.881C67.5529 73.9493 67.471 74.0313 67.4028 74.0996C65.1924 76.0937 61.8495 78.2791 57.3059 78.9074C57.2377 78.921 57.1831 78.921 57.1149 78.921H57.074C56.5146 78.921 56.0097 78.5796 55.8051 78.0469C55.7778 77.9649 55.7505 77.8693 55.7368 77.7874C54.618 78.0059 53.3082 78.1562 51.7936 78.1562C49.2558 78.1562 46.1994 77.7191 42.611 76.4625C41.9287 76.2166 41.5467 75.4791 41.7514 74.7825C41.956 74.0859 42.6655 73.6762 43.375 73.8401C44.3847 74.0859 45.4081 74.2088 46.4587 74.2088C53.3218 74.2088 58.7113 69.0732 58.7113 62.9405C58.7113 59.9084 57.4287 57.1357 55.2729 55.0869C55.2729 55.1005 55.2593 55.1005 55.2593 55.1142C54.7681 55.7562 54.1677 56.521 53.7448 57.081C53.0625 58.0371 52.8306 58.5698 52.8852 59.0479C53.1171 60.6049 52.6396 62.1347 51.7527 63.2547C51.739 63.2684 51.7254 63.282 51.7118 63.2957C51.357 63.7054 50.7021 64.2791 50.1017 64.7981C50.0744 64.8254 50.0471 64.8391 50.0199 64.8664C49.4195 65.3854 48.8328 65.9044 48.4098 66.3279C48.3962 66.3415 48.3825 66.3552 48.3825 66.3552C47.3319 67.3386 45.9402 67.4888 45.1215 67.4888C44.8896 67.4888 44.6849 67.4752 44.5485 67.4615H44.5348C44.3984 67.4479 44.3438 67.4479 44.3165 67.4479H44.1801C44.1528 67.4479 44.1391 67.4479 44.1255 67.4479C44.0982 67.4615 44.0573 67.4888 43.9754 67.5571C43.8799 67.6391 43.7434 67.7483 43.5797 67.8986C43.2386 68.2127 42.8429 68.3493 42.57 68.4176C42.2562 68.4996 41.9287 68.5269 41.6286 68.5269C40.8372 68.5269 39.923 68.3493 39.1726 68.1581C38.3949 67.9669 37.699 67.7347 37.2897 67.5981C37.276 67.5981 37.2624 67.5844 37.2487 67.5844C36.853 67.4342 36.5665 67.1747 36.3618 66.9562C36.1572 66.724 35.9662 66.4781 35.8161 66.2186C35.5023 65.7132 35.2294 65.1123 34.9974 64.5523C34.5471 63.4596 34.1787 62.1893 34.1105 61.5747C34.0696 61.1649 34.1651 60.7688 34.247 60.5366C34.3288 60.2498 34.4516 59.963 34.5744 59.6898C34.82 59.1435 35.1339 58.5425 35.4204 58.0098L35.434 57.9825C35.625 57.6137 35.8024 57.2859 35.9389 57.0127C36.0071 56.8762 36.048 56.7669 36.089 56.6849C36.1162 56.6303 36.1162 56.603 36.1299 56.5893C36.1981 56.2342 36.4437 54.4996 36.6757 52.6284C36.9076 50.7845 37.1396 48.9542 37.1805 48.5854C37.2214 48.2713 37.2078 48.121 37.1805 47.9708C37.1396 47.8069 37.0577 47.561 36.7848 47.124C36.7848 47.124 36.7848 47.1103 36.7712 47.1103C36.1708 46.0996 36.1435 45.1025 36.3891 43.8732C33.3464 41.7562 25.5964 36.0332 25.1189 35.6371C25.1189 35.6371 25.1189 35.6371 25.1052 35.6235C24.8187 35.3913 24.5322 35.0362 24.4503 34.5581C24.4094 34.3259 24.423 34.0937 24.4776 33.9025C24.5049 33.8069 24.5322 33.7249 24.5731 33.6566C24.5868 33.6157 24.614 33.5884 24.6277 33.561C24.6413 33.5474 24.6413 33.5337 24.655 33.5201C24.655 33.5064 24.6686 33.5064 24.6686 33.4927C24.6686 33.4927 24.6686 33.4927 24.6686 33.4791C24.6686 33.4791 24.6686 33.4791 25.8011 34.2303C25.8011 34.2303 25.7056 34.3669 25.9785 34.5854C26.0058 34.5991 26.0331 34.6401 26.1013 34.681C26.1149 34.681 26.1149 34.6947 26.1286 34.7084C26.265 34.8176 26.4833 34.9815 26.7699 35.2001C27.1519 35.4869 27.6704 35.8693 28.2571 36.3064C31.2998 38.5601 36.471 42.3435 37.9309 43.2996C37.4807 44.9113 37.4807 45.6762 37.9309 46.441C38.5586 47.4654 38.5995 48.0118 38.5177 48.7766C38.4221 49.5415 37.6171 56.1249 37.4397 56.9308C37.3715 57.2586 37.0168 57.9142 36.6347 58.6518C36.0617 59.7308 35.4204 60.9601 35.475 61.4654C35.5705 62.3123 36.7302 65.9454 37.7536 66.3552C38.5177 66.6284 40.4006 67.202 41.6422 67.202C42.0925 67.202 42.4882 67.1064 42.6655 66.9288C43.4296 66.2596 43.6479 66.123 44.1937 66.123H44.3302C44.4393 66.123 44.5485 66.1366 44.6713 66.1366C44.8214 66.1503 44.9714 66.164 45.1352 66.164C45.8447 66.164 46.7861 66.0274 47.4684 65.3991C47.9323 64.9347 48.5599 64.3884 49.1466 63.883C49.8015 63.3093 50.4155 62.7766 50.7021 62.4488C51.3707 61.602 51.7254 60.4274 51.548 59.2664C51.4116 58.1874 51.9983 57.2449 52.6669 56.3025C53.5128 55.1825 55.0819 53.161 55.0819 53.161C55.1911 53.243 55.3002 53.3249 55.4094 53.4069C55.655 53.6118 55.9006 53.8166 56.1325 54.0352C58.6022 56.3298 60.103 59.4986 60.103 62.9679C60.103 69.0186 55.5458 74.0586 49.4331 75.3152C48.4917 75.5064 47.4956 75.6157 46.486 75.6157C45.3262 75.6157 44.2074 75.4791 43.0885 75.2059C44.2892 75.6293 45.4217 75.9435 46.486 76.1893C47.5502 76.4352 48.5463 76.5854 49.4877 76.6947C50.32 76.7766 51.0978 76.8176 51.8209 76.8176C53.7584 76.8176 55.3412 76.5444 56.5555 76.2166C58.5339 75.684 59.5573 74.9737 59.5573 74.9737C59.5573 74.9737 59.298 75.3152 58.8205 75.8479C58.4248 76.2849 57.8927 76.8449 57.2514 77.4459C57.2104 77.4732 57.1831 77.5142 57.1422 77.5415C57.1286 77.5552 57.1149 77.5688 57.1013 77.5825H57.1422C57.9882 77.4596 58.7932 77.282 59.5573 77.0635C63.4459 75.9298 66.1884 73.5805 67.8121 71.8186C68.9992 70.521 69.5859 69.524 69.5859 69.524C69.5859 69.524 69.4767 70.2615 69.313 71.1903C69.2448 71.6001 69.1493 72.0371 69.0674 72.4605C68.9992 72.7474 68.9446 73.0205 68.8764 73.2801C69.4767 72.8293 70.0498 72.3649 70.5819 71.9006C77.1449 66.1503 78.1955 59.7445 78.25 56.3981C78.25 56.2479 78.25 56.0976 78.25 55.961C78.25 55.961 78.25 55.961 78.25 55.9474C78.2364 54.9503 78.1409 54.2947 78.1136 54.1171V54.0898C78.1136 54.0762 78.1136 54.0762 78.1136 54.0625C78.1136 54.0625 78.1272 54.0762 78.1272 54.0898C78.1272 54.0898 78.1409 54.1035 78.1409 54.1171C78.2228 54.2127 78.4138 54.4586 78.6457 54.7454C78.7822 54.9093 78.9323 55.1005 79.0824 55.2781C79.2597 55.4966 79.4508 55.7152 79.6145 55.9201C79.7236 56.043 79.8192 56.1659 79.901 56.2615C79.9556 55.6606 79.9965 55.0732 80.0238 54.5132C80.0238 54.4313 80.0238 54.363 80.0375 54.281C80.3786 42.2752 73.4882 36.0059 69.4221 33.3698ZM38.8724 30.884C38.8997 30.9932 38.9406 31.1025 38.9679 31.2118C39.1726 31.8537 39.4045 32.5776 39.6501 33.1786C39.8821 32.4957 40.1413 31.881 40.4415 31.321C42.3654 27.7425 45.5172 26.7591 47.4411 26.5132C48.4371 26.3903 49.092 26.4449 49.092 26.4449C49.2285 25.0791 49.2285 25.0791 49.2148 25.0791H49.2012H49.1876H49.1739C49.1466 25.0791 49.1193 25.0791 49.092 25.0791C49.0238 25.0791 48.9283 25.0654 48.8055 25.0654C48.5736 25.0654 48.2461 25.0654 47.8504 25.0927C47.059 25.1474 45.9811 25.3249 44.8077 25.7484C43.1431 26.363 41.3147 27.5103 39.8957 29.5454C39.8684 29.4635 39.8548 29.3952 39.8412 29.3269C39.8139 29.2176 39.7866 29.122 39.7729 29.0537C39.7593 29.0264 39.7593 28.9991 39.7593 28.9854V28.9718C39.6365 28.5074 39.2954 28.1386 38.8451 28.002C38.3949 27.8654 37.9037 27.961 37.5353 28.2752L38.4358 29.2996C37.5353 28.2752 37.5353 28.2752 37.5353 28.2752L37.5216 28.2888C37.508 28.3025 37.4943 28.3162 37.467 28.3298C37.4261 28.3708 37.3715 28.4118 37.317 28.4801C37.1942 28.603 37.0304 28.7806 36.853 28.9991C36.4846 29.4498 36.0207 30.1054 35.6114 30.9523C35.0383 32.1679 34.5881 33.7523 34.7245 35.6508C33.2236 35.1045 31.6682 34.5581 30.331 34.0801C29.3077 33.7249 28.4072 33.3971 27.7523 33.1786C27.4248 33.0693 27.1519 32.9737 26.9472 32.9054C26.8517 32.8781 26.7699 32.8508 26.7016 32.8235C26.6607 32.8098 26.5515 32.7688 26.456 32.7552C26.4287 32.7552 26.4015 32.7415 26.3878 32.7415C26.0194 32.6869 25.651 32.7279 25.3099 32.8781C25.1462 32.9464 25.0097 33.042 24.9006 33.1513C24.846 33.2059 24.8051 33.2469 24.7641 33.3015C24.7505 33.3288 24.7232 33.3425 24.7096 33.3698C24.6959 33.3835 24.6959 33.3971 24.6823 33.3971L24.6686 33.4108V33.4245C24.6686 33.4245 24.6686 33.4245 25.8011 34.1893C25.8011 34.1893 25.8966 34.0527 26.2104 34.0937C26.2241 34.0937 26.265 34.1074 26.3196 34.1347C26.4697 34.1893 26.7562 34.2849 27.1383 34.4079C27.6022 34.5718 28.2025 34.7766 28.8984 35.0225C30.6039 35.6235 32.8825 36.443 34.9701 37.1942C35.5159 37.3854 36.0344 37.5766 36.5392 37.7679C36.3618 37.2215 36.239 36.6888 36.1708 36.1835C35.8161 33.6703 36.6484 31.7581 37.3988 30.5971C37.9446 29.7503 38.4631 29.2996 38.4631 29.2996C38.4631 29.2996 38.6132 30.0235 38.8724 30.884Z" fill="white" fill-opacity="0.3"/>
<path d="M49.4058 61.2878C49.2693 61.4654 48.7781 61.9025 48.3278 62.3122C48.1914 62.4351 48.055 62.5581 47.9322 62.6673C47.7411 62.8449 47.5501 63.0088 47.3591 63.1727C47.0043 63.4868 46.6496 63.801 46.3631 64.1015C46.1857 64.279 45.8309 64.3746 45.2852 64.3746H43.948C44.2209 64.0195 44.6984 63.4732 45.2169 62.9132C45.5035 62.6537 45.79 62.3942 46.0492 62.1756C46.5131 61.7932 46.9634 61.5337 47.3727 61.3151C48.1095 60.9054 48.6553 60.6049 48.6553 59.84C48.6826 58.3103 47.6593 58.0234 46.8952 58.0098C47.1271 57.9551 47.3727 57.9142 47.6183 57.9142C46.7724 57.6956 45.6945 57.9142 45.2033 58.4059C44.8485 58.7337 44.7667 59.6215 44.6848 60.5093C44.6439 60.9464 44.6029 61.3971 44.5347 61.7659C44.33 62.8039 43.7024 63.3912 42.7337 64.2654C42.6245 64.361 42.5017 64.4703 42.3925 64.5795C42.3653 64.6068 42.338 64.6342 42.3107 64.6615L39.3499 64.0059C39.3499 64.0059 41.3146 62.9815 41.6285 61.8068C41.915 60.8098 41.1782 57.7093 41.0008 56.9171C40.9735 56.8215 40.9599 56.7668 40.9599 56.7395L40.9735 56.7532C41.11 56.8761 41.915 57.6273 42.297 58.802C43.0065 56.8351 43.948 54.9503 44.2209 54.7727C44.4528 54.6225 47.1681 53.1746 47.9185 52.7649C47.5911 53.6664 47.2636 54.5542 47.0453 55.2098C46.2403 55.4283 45.4352 55.879 44.8485 56.7805C45.1624 56.562 46.1448 56.4254 46.8679 56.3298C47.4955 56.2888 49.4194 57.3132 49.9106 59.239V59.3346C49.9925 60.0859 49.7605 60.7551 49.4058 61.2878Z" fill="white" fill-opacity="0.7"/>
<path d="M47.8914 55.1552C48.8055 55.0733 49.5696 55.2508 49.7743 55.3328C51.5208 52.0138 52.9125 50.2245 53.2672 50.2245C53.3082 50.2245 53.39 50.2245 53.4992 50.2245C54.4952 50.2518 58.0428 50.3747 59.53 46.8099C61.1127 42.9308 58.8887 39.6118 58.725 39.3796V39.366C60.6079 45.5533 56.4464 48.9952 53.622 49.0499C52.0529 49.0499 49.9517 50.0743 49.9517 50.0743L47.8914 55.1552Z" fill="white" fill-opacity="0.7"/>
<path d="M58.7114 39.3796C58.7251 39.3796 58.7251 39.3796 58.7114 39.3796C58.9161 39.4752 62.259 41.1006 63.2277 46.1406C65.4517 48.7357 66.8435 51.9865 67.2255 55.4284C67.2255 55.647 67.5393 55.9611 67.8531 56.2343C68.2625 56.644 68.6582 57.0401 68.6582 57.4499C68.6582 58.5289 68.5627 59.6079 68.3853 60.6323C68.3034 60.9465 67.9487 61.165 67.553 61.3972L67.512 61.4245C67.4984 61.4382 67.4848 61.4382 67.4711 61.4518C67.4438 61.4655 67.4302 61.4791 67.4029 61.4928C67.3483 61.5338 67.2801 61.5748 67.2119 61.6157C66.9799 61.766 66.7343 61.9162 66.6934 62.0255C65.7792 65.2626 63.869 68.1445 61.3175 70.3435C65.5336 67.967 68.6991 63.9787 70.009 59.2391C70.4456 57.3679 70.5138 55.4148 70.1727 53.4206C68.5627 44.2694 59.2572 39.5982 58.7114 39.3796Z" fill="white" fill-opacity="0.7"/>
<path d="M47.9595 39.8303C48.7918 39.8713 50.5519 39.7893 52.2302 38.5737C52.3939 38.9698 52.5713 39.3659 52.735 39.762C50.6747 40.3084 48.8191 40.0215 47.9595 39.8303Z" fill="white" fill-opacity="0.7"/>
<path d="M54.1269 39.2567C55.2457 38.7377 56.3646 37.9455 57.3879 36.7162C56.3919 36.4294 55.3685 36.2245 54.3179 36.1152C54.0041 36.6069 53.6903 37.0577 53.3765 37.4128C53.5811 37.8635 53.8404 38.5328 54.1269 39.2567Z" fill="white" fill-opacity="0.7"/>
<path d="M63.0639 53.2704C63.5141 50.9894 63.555 49.0089 63.4186 47.3972C65.1651 49.7328 66.243 52.5465 66.5568 55.4694C66.5977 55.8245 66.9661 56.1797 67.3209 56.5484C67.6347 56.8216 67.9895 57.1767 67.9895 57.3953C67.9895 58.4197 67.894 59.4577 67.7166 60.4821C67.6756 60.605 67.3073 60.8236 67.0071 60.9875L66.9525 61.0148C66.5022 61.2333 66.1065 61.4655 66.011 61.8206C65.0286 65.2762 62.9274 68.3221 60.103 70.4665C64.2646 66.1367 66.2839 58.966 63.0639 53.2704Z" fill="white" fill-opacity="0.7"/>
<path fill-rule="evenodd" clip-rule="evenodd" d="M43.225 36.2381C43.225 36.2381 42.42 30.4605 46.4451 28.043C46.4314 28.043 46.4042 28.0566 46.3632 28.0703C45.5446 28.3844 39.5547 30.6381 43.225 36.2381ZM51.9165 30.9522C55.0001 29.7913 59.2981 29.163 65.9702 30.4196C63.0094 28.9444 59.9257 28.1796 56.8421 28.1386C55.6823 28.1386 54.6044 28.2342 53.622 28.4117C50.1291 29.04 47.2638 31.5532 46.2814 34.9132C46.2814 34.9132 46.9909 33.7932 48.6964 32.6322L48.7646 32.5366C49.3923 31.6761 50.3337 30.3922 51.2479 29.3132C51.5072 29.8732 51.821 30.5971 51.9165 30.9522ZM67.4028 38.3961C73.7202 42.562 76.5855 47.1786 78.5912 52.601C78.4957 46.8644 76.5719 41.9337 72.8606 37.9864L72.7651 37.8908C69.4904 34.4352 64.7013 32.8235 59.9667 33.4927C58.1792 33.7113 56.3918 34.08 55.0001 34.5171C54.7818 34.5581 54.5498 34.6127 54.3315 34.6947H54.427C54.7818 34.6674 61.3175 34.3532 67.4028 38.3961ZM73.229 66.9015C72.5604 67.803 71.7963 68.7454 70.8958 69.6332C76.6674 58.5152 71.1687 48.3395 70.9367 47.9435C71.3461 48.3532 71.7417 48.7903 72.0965 49.2C76.5309 54.1171 77.0767 61.52 73.229 66.9015ZM37.8901 32.4274C37.7263 33.083 36.2118 38.8469 41.3012 39.0108C38.2585 37.1669 37.9037 32.4274 37.9037 32.3727V32.3864V32.4L37.8901 32.4274ZM46.7589 44.4469L44.4257 48.4352C44.4257 48.4352 46.5815 47.4517 47.4275 46.1952C48.1097 45.1161 46.7589 44.4469 46.7589 44.4469ZM45.2034 62.9269C45.49 62.6674 45.7765 62.4078 46.0358 62.1893C46.4997 61.8069 46.9499 61.5474 47.3593 61.3288C48.0961 60.9191 48.6418 60.6186 48.6418 59.8674C48.6691 58.3376 47.6458 58.0508 46.8817 58.0371C46.8954 58.0371 46.909 58.0371 46.9226 58.0235C46.5133 58.1191 46.1858 58.2556 46.1858 58.2556C46.1858 58.2556 47.4821 58.0371 47.9733 58.9659C48.4645 59.9083 48.0688 60.441 47.2638 60.9874C46.8544 61.2469 45.9812 62.0937 45.2034 62.9269ZM49.4468 49.1044C49.2422 49.282 48.5463 51.0576 47.905 52.7922C47.141 53.202 44.4394 54.6361 44.2074 54.8C43.9345 54.9776 42.9931 56.8625 42.2836 58.8293C41.9015 57.6547 41.0965 56.9035 40.9601 56.7805C40.9464 56.7669 40.9464 56.7669 40.9464 56.7669C40.9464 56.7942 40.9601 56.8488 40.9873 56.9444C41.1784 57.7366 41.9015 60.8234 41.615 61.8342C41.3012 62.9952 39.3364 64.0332 39.3364 64.0332L42.2972 64.6888C41.7105 65.2078 41.2875 65.3717 40.9464 65.3717C40.1823 65.2352 39.2954 65.0166 38.6678 64.7844C38.2175 64.1971 37.549 62.2713 37.3716 61.4654C37.4671 61.1376 37.7673 60.5639 38.0402 60.0722C38.1493 59.881 38.2448 59.6898 38.313 59.5395L38.3813 59.403C38.8725 58.4605 39.159 57.9005 39.2409 57.3952C39.4182 56.6303 40.0049 51.9317 40.2233 49.9513C40.81 50.7161 41.615 51.9727 41.4376 52.7786C42.7338 50.9347 41.7924 49.1454 41.3421 48.4352C40.9328 47.7249 40.4006 46.2771 40.8509 44.761C41.3012 43.2313 42.9112 39.0244 42.9112 39.0244C42.9112 39.0244 43.4433 39.9669 44.2074 39.7893C44.9715 39.6117 51.0978 30.3786 51.0978 30.3786C51.0978 30.3786 52.7488 34.0117 51.0023 36.6478C49.2149 39.2976 47.4684 39.7893 47.4684 39.7893C47.4684 39.7893 47.6458 39.8166 47.946 39.8303C48.8192 40.0215 50.6612 40.3083 52.7079 39.762C53.4446 41.5376 54.045 43.1083 54.0859 43.3678C54.0586 43.4225 53.9904 43.5864 53.8949 43.8322C53.3901 45.0205 52.1348 48.0254 51.9847 48.2576C51.8892 48.3532 51.2752 48.5308 50.8249 48.6127C50.0745 48.8313 49.6242 48.9678 49.4468 49.1044ZM50.6612 33.0557C50.6612 33.0557 51.0705 34.8449 50.0336 36.0605C48.7373 37.5357 47.6185 37.4947 47.6594 37.4947L50.6612 33.0557ZM40.3188 58.5152L39.964 60.3044C39.964 60.3044 40.6735 60.2088 40.6735 61.0147C40.6735 61.643 39.964 62.4898 39.3773 62.5444C38.7906 62.5854 38.5723 61.8752 38.7087 61.4654C38.8452 61.1103 40.3188 58.5152 40.3188 58.5152ZM47.1682 43.5454C48.7373 43.8596 49.1876 45.7035 48.328 46.6869C47.4821 47.6293 45.3263 48.9678 44.071 49.282C43.7981 50.3064 41.5195 49.8693 42.3654 46.5913C42.3654 46.5913 42.7748 48.162 43.1704 48.0254C43.5798 47.8888 48.137 40.7181 48.137 40.7181C48.137 40.7181 47.5639 42.603 47.1682 43.5454ZM45.5718 60.2361C45.5446 60.6732 45.5036 61.3834 45.1898 61.8342C45.2171 61.8069 45.3126 61.6976 45.449 61.5747C45.681 61.3288 46.0221 60.9737 46.2268 60.7688C46.3632 60.6459 46.527 60.5503 46.677 60.4547C47.0045 60.2498 47.3047 60.0586 47.3047 59.6488C47.3047 59.0205 46.4587 58.8839 46.0903 58.9795C45.7356 59.0752 45.6401 59.6488 45.5991 59.963C45.5855 60.0176 45.5855 60.1132 45.5718 60.2361ZM66.3795 61.9708C65.3971 65.5083 63.1594 68.6498 60.2395 70.8898C60.6079 70.7122 60.9627 70.5347 61.3175 70.3298C63.8689 68.1444 65.7792 65.2488 66.6933 62.0117C66.7343 61.9025 66.9799 61.7522 67.2118 61.602C67.28 61.561 67.3483 61.52 67.4028 61.4791C67.4165 61.4654 67.4301 61.4654 67.4438 61.4517L67.4711 61.4381C67.4847 61.4244 67.4983 61.4244 67.512 61.4108L67.5529 61.3835C67.9486 61.1513 68.3034 60.9464 68.3852 60.6186C68.5626 59.5942 68.6581 58.5152 68.6581 57.4361C68.6581 57.0264 68.2488 56.6303 67.8531 56.2205C67.5393 55.9474 67.2255 55.6332 67.2255 55.4147C66.8434 51.9727 65.4517 48.7356 63.2277 46.1269C63.2413 46.2361 63.2686 46.3317 63.2822 46.441C65.3016 48.9952 66.5978 52.082 66.9526 55.36C66.9526 55.5239 67.1572 55.7425 67.3483 55.961C67.4165 56.0293 67.4847 56.0976 67.5393 56.1659C67.9486 56.5756 68.3443 56.9717 68.3443 57.3815C68.3443 58.4605 68.2488 59.5395 68.0714 60.5639C67.9759 60.9191 67.5393 61.1922 67.089 61.4108C67.0344 61.4517 66.9662 61.4927 66.898 61.5337C66.6524 61.6976 66.4068 61.8615 66.3795 61.9708ZM58.7114 39.3796C59.2571 39.6117 68.5626 44.2693 70.1726 53.4069C70.5138 55.401 70.4455 57.3542 70.0089 59.2254C70.4319 57.6683 70.6638 56.0293 70.6638 54.3493C70.6638 45.9766 65.0424 38.9015 57.3879 36.7025C56.3645 37.9317 55.2321 38.7376 54.1269 39.243C54.891 41.1415 55.8051 43.4635 55.8051 43.6274C55.8051 43.9005 54.9592 46.0859 54.8637 46.1815C54.7682 46.2225 53.7448 46.3181 53.3355 46.3181C52.8852 47.3971 52.435 48.4215 52.3531 48.5581C52.2167 48.7356 51.821 48.8722 50.9614 49.0908C50.8659 49.1181 50.7704 49.1454 50.6612 49.1727C50.2519 49.2956 49.8152 49.4186 49.747 49.4869C49.5287 49.76 48.3144 52.9425 47.5093 55.1825C47.6321 55.1688 47.7549 55.1415 47.8641 55.1415L49.9244 50.0742C49.9244 50.0742 52.0256 49.0498 53.5947 49.0498C56.4328 49.0088 60.5943 45.5669 58.7114 39.3796ZM40.0459 41.8381C40.3597 41.2508 40.0868 40.8547 39.8276 40.6225L39.7321 40.5269C39.1999 40.2537 35.8434 38.9971 32.5278 37.8361C35.4341 39.762 38.6678 41.6469 39.1999 41.92C39.5956 42.1113 39.8685 42.1522 40.0459 41.8381Z" fill="white" fill-opacity="0.3"/>
</svg>
