<svg width="203" height="100" viewBox="0 0 203 100" fill="none" xmlns="http://www.w3.org/2000/svg">
<g clip-path="url(#clip0_5803_940)">
<path d="M100.119 44.8641C98.7544 44.0108 97.2139 43.5782 95.5408 43.5782C94.193 43.5782 92.9188 43.8668 91.7529 44.4351C91.0988 44.7545 90.4959 45.1473 89.9484 45.6113V38.3554C89.9484 37.6675 89.7302 37.0968 89.2991 36.6583C88.868 36.2216 88.3074 36 87.6308 36C86.9541 36 86.4262 36.2187 85.9862 36.6512C85.5397 37.0891 85.3137 37.6627 85.3137 38.3554V53.3792C85.3137 55.2054 85.7418 56.8865 86.5849 58.3769C87.4275 59.8683 88.5886 61.0599 90.0345 61.9179C91.4806 62.7771 93.115 63.2127 94.8916 63.2127C96.6681 63.2127 98.3091 62.7777 99.7765 61.9203C101.247 61.0611 102.415 59.8683 103.249 58.3739C104.08 56.883 104.502 55.2031 104.502 53.3792C104.502 51.5552 104.111 49.889 103.339 48.4022C102.562 46.9055 101.479 45.7144 100.119 44.8641ZM99.3787 55.923C98.9357 56.7147 98.3519 57.3167 97.5932 57.7647C96.8387 58.2115 96.0141 58.4284 95.0741 58.4284C94.1341 58.4284 93.31 58.2115 92.5549 57.7647C91.8075 57.3239 91.2136 56.7052 90.7879 55.9278C90.3574 55.1427 90.1392 54.2479 90.1392 53.2689C90.1392 52.2901 90.3568 51.4024 90.7867 50.6273C91.2118 49.8594 91.8064 49.2461 92.5549 48.8035C93.31 48.3572 94.1341 48.1398 95.0741 48.1398C96.0141 48.1398 96.8375 48.3566 97.5932 48.8035C98.3525 49.2526 98.9369 49.8511 99.3798 50.6321C99.8181 51.4072 100.04 52.2942 100.04 53.2683C100.04 54.2425 99.8181 55.1385 99.3787 55.923Z" fill="white" fill-opacity="0.3"/>
<path d="M72.6842 43.5266C67.3445 43.5266 63 47.9424 63 53.3696C63 58.7969 67.3445 63.2127 72.6842 63.2127C74.0856 63.2127 75.2218 62.0577 75.2218 60.6332C75.2218 59.2087 74.0856 58.0543 72.6842 58.0543C70.1425 58.0543 68.0752 55.9526 68.0752 53.3696C68.0752 50.7867 70.1431 48.6848 72.6842 48.6848C75.2254 48.6848 77.2933 50.7867 77.2933 53.3696V60.6338C77.2933 62.0583 78.4294 63.2132 79.8308 63.2132C81.2322 63.2132 82.3684 62.0583 82.3684 60.6338V53.3696C82.3684 47.9424 78.0239 43.5266 72.6842 43.5266Z" fill="white" fill-opacity="0.3"/>
<path d="M130.315 43.5266C124.976 43.5266 120.631 47.9424 120.631 53.3696C120.631 58.7969 124.976 63.2127 130.315 63.2127C131.717 63.2127 132.853 62.0577 132.853 60.6332C132.853 59.2087 131.717 58.0543 130.315 58.0543C127.774 58.0543 125.706 55.9526 125.706 53.3696C125.706 50.7867 127.774 48.6848 130.315 48.6848C132.857 48.6848 134.924 50.7867 134.924 53.3696V60.6338C134.924 62.0583 136.061 63.2132 137.462 63.2132C138.863 63.2132 140 62.0583 140 60.6338V53.3696C140 47.9424 135.655 43.5266 130.315 43.5266Z" fill="white" fill-opacity="0.3"/>
<path d="M119.61 44.1224C118.852 43.7118 117.863 43.5115 116.587 43.5115C115.408 43.5115 114.283 43.7556 113.243 44.2356C112.67 44.5005 112.143 44.8234 111.665 45.2015C111.395 44.2439 110.629 43.7106 109.473 43.7106C108.77 43.7106 108.205 43.9227 107.793 44.3411C107.381 44.7588 107.173 45.333 107.173 46.0482V60.8746C107.173 61.6171 107.384 62.2002 107.802 62.6073C108.211 63.0084 108.774 63.2117 109.472 63.2117C110.171 63.2117 110.776 62.9966 111.178 62.5724C111.572 62.1552 111.772 61.584 111.772 60.8741V51.1887C111.772 50.1665 112.154 49.379 112.941 48.78C113.775 48.1441 114.913 47.8218 116.325 47.8218C116.827 47.8218 117.502 47.8964 118.315 48.0404C118.58 48.0949 118.778 48.1204 118.936 48.1204C119.915 48.1204 120.607 47.5676 120.877 46.5904C120.922 46.4512 120.943 46.2787 120.943 46.0476C120.943 45.4983 120.712 44.7197 119.61 44.1224Z" fill="white" fill-opacity="0.3"/>
</g>
<defs>
<clipPath id="clip0_5803_940">
<rect width="77" height="28" fill="white" transform="translate(63 36)"/>
</clipPath>
</defs>
</svg>
