<svg width="203" height="100" viewBox="0 0 203 100" fill="none" xmlns="http://www.w3.org/2000/svg">
<g clip-path="url(#clip0_5803_918)">
<path fill-rule="evenodd" clip-rule="evenodd" d="M38.4454 59.9984C38.2302 59.9984 38.0071 59.9506 37.7999 59.8467C37.0827 59.4873 36.7958 58.6168 37.1544 57.906L45.6732 40.7987C45.9202 40.3115 46.4143 40 46.9641 40C47.514 40 48.0081 40.3115 48.2551 40.7987L56.7739 57.906C57.1326 58.6168 56.8377 59.4873 56.1285 59.8467C55.4192 60.2061 54.5506 59.9106 54.192 59.1998L46.9641 44.6881L39.7363 59.1998C39.4813 59.7109 38.9713 59.9984 38.4454 59.9984ZM82.0039 42.8911H99.0415C99.8384 42.8911 100.484 42.2442 100.484 41.4456C100.484 40.6469 99.8384 40 99.0415 40H82.0039C81.207 40 80.5615 40.6469 80.5615 41.4456C80.5615 42.2442 81.207 42.8911 82.0039 42.8911ZM119.832 59.5751C120.111 59.8546 120.486 59.9984 120.852 59.9984C121.218 59.9984 121.593 59.8546 121.872 59.5751C122.438 59.008 122.438 58.0976 121.872 57.5305L115.696 51.3329C115.131 50.7739 114.222 50.7659 113.656 51.3329C113.091 51.8999 113.091 52.8104 113.656 53.3775L119.832 59.5751ZM109.99 49.0967C109.624 49.0967 109.249 48.953 108.971 48.6734L102.795 42.4758C102.229 41.9088 102.229 40.9903 102.795 40.4313C103.36 39.8642 104.269 39.8722 104.835 40.4313L111.01 46.6289C111.576 47.1959 111.576 48.1144 111.01 48.6734C110.732 48.953 110.358 49.0967 109.99 49.0967ZM102.787 59.5751C103.066 59.8547 103.44 59.9984 103.807 59.9984C104.174 59.9984 104.548 59.8547 104.827 59.5751L111.003 53.3776C111.568 52.8105 111.568 51.9 111.003 51.333C110.437 50.7659 109.529 50.7659 108.963 51.333L102.787 57.5306C102.221 58.0976 102.221 59.0081 102.787 59.5751ZM114.677 49.0968C114.309 49.0968 113.935 48.9531 113.656 48.6735C113.091 48.1064 113.091 47.196 113.656 46.6289L119.832 40.4313C120.398 39.8643 121.306 39.8643 121.872 40.4313C122.438 40.9984 122.438 41.9089 121.872 42.4759L115.696 48.6735C115.418 48.9531 115.043 49.0968 114.677 49.0968ZM81.9962 59.9984H99.0417C99.8387 59.9984 100.484 59.3515 100.484 58.5528C100.484 57.7541 99.8387 57.1072 99.0417 57.1072H81.9962C81.1993 57.1072 80.5538 57.7541 80.5538 58.5528C80.5538 59.3515 81.1993 59.9984 81.9962 59.9984ZM60.2247 59.9984H77.2624C78.0593 59.9984 78.7048 59.3516 78.7048 58.5529C78.7048 57.7542 78.0593 57.1073 77.2624 57.1073H61.6672V41.4456C61.6672 40.6469 61.0217 40 60.2247 40C59.4278 40 58.7823 40.6469 58.7823 41.4456V58.5529C58.7823 59.3516 59.4278 59.9984 60.2247 59.9984ZM99.0417 51.4608H81.9962C81.1993 51.4608 80.5538 50.8139 80.5538 50.0151C80.5538 49.2165 81.1993 48.5696 81.9962 48.5696H99.0417C99.8387 48.5696 100.484 49.2165 100.484 50.0151C100.484 50.8139 99.8387 51.4608 99.0417 51.4608ZM147.477 59.9984H164.546C165.344 59.9984 165.989 59.3515 165.989 58.5529V46.1736C165.989 45.3749 165.344 44.728 164.546 44.728C163.749 44.728 163.104 45.3749 163.104 46.1736V57.1072H147.477C146.68 57.1072 146.034 57.7541 146.034 58.5529C146.034 59.3515 146.68 59.9984 147.477 59.9984ZM147.477 55.2704C146.68 55.2704 146.034 54.6235 146.034 53.8248V41.4456C146.034 40.6469 146.68 40 147.477 40H164.546C165.344 40 165.989 40.6469 165.989 41.4456C165.989 42.2442 165.344 42.8911 164.546 42.8911H148.919V53.8248C148.919 54.6235 148.274 55.2704 147.477 55.2704ZM125.642 59.9984H142.703C143.5 59.9984 144.146 59.3516 144.146 58.5529V49.9992C144.146 49.2006 143.5 48.5536 142.703 48.5536H135.611C134.814 48.5536 134.168 49.2006 134.168 49.9992C134.168 50.7979 134.814 51.4448 135.611 51.4448H141.261V57.1073H127.084V42.8911H142.711C143.508 42.8911 144.153 42.2442 144.153 41.4456C144.153 40.6469 143.508 40 142.711 40H125.642C124.845 40 124.199 40.6469 124.199 41.4456V58.5529C124.199 59.3516 124.845 59.9984 125.642 59.9984Z" fill="white" fill-opacity="0.3"/>
</g>
<defs>
<clipPath id="clip0_5803_918">
<rect width="129" height="20" fill="white" transform="translate(37 40)"/>
</clipPath>
</defs>
</svg>
