<svg width="203" height="100" viewBox="0 0 203 100" fill="none" xmlns="http://www.w3.org/2000/svg">
<g clip-path="url(#clip0_5877_912)">
<path d="M75.1902 41.4219V59.4031H71.5212V41.4219H75.1902Z" fill="white" fill-opacity="0.3"/>
<path d="M90.1315 47.2699V59.4239C90.1315 63.1908 87.1911 65.5009 83.6002 65.5009C80.1343 65.5009 77.5478 63.3417 77.298 60.3032L80.9409 60.3292C81.0918 61.6091 82.2211 62.1866 83.7303 62.1866C85.1355 62.1866 86.4677 61.4322 86.4677 59.4499V57.9203C85.5362 58.5238 84.334 58.8724 83.0018 58.8724C79.6607 58.8724 76.9753 56.1617 76.9753 53.0451C76.9753 49.4291 79.6607 46.9941 83.0018 46.9941C84.334 46.9941 85.5362 47.3479 86.4677 47.9463V47.2959L90.1315 47.2699ZM86.4677 54.4291V51.4634C85.7131 50.3812 84.6827 50.0066 83.6523 50.0066C81.8412 50.0066 80.6131 51.2137 80.6131 53.0451C80.6131 54.4031 81.8673 55.8599 83.6523 55.8599C84.6827 55.8859 85.7392 55.5061 86.4677 54.4291Z" fill="white" fill-opacity="0.3"/>
<path d="M104.75 53.1945C104.75 56.9354 101.986 59.5993 98.2706 59.5993C94.5288 59.5993 91.7654 56.9354 91.7654 53.1945C91.7654 49.4796 94.5288 46.7637 98.2706 46.7637C101.992 46.7689 104.75 49.4796 104.75 53.1945ZM101.211 53.1945C101.211 51.4359 100.056 50.0051 98.2706 50.0051C96.4596 50.0051 95.3042 51.4359 95.3042 53.1945C95.3042 54.9999 96.4596 56.3578 98.2706 56.3578C100.056 56.337 101.211 55.0051 101.211 53.1945Z" fill="white" fill-opacity="0.3"/>
<path d="M127.508 47.2953V59.3712L123.917 59.3973V58.7209C122.985 59.3244 121.783 59.699 120.451 59.699C117.11 59.699 114.424 56.8634 114.424 53.3723C114.424 49.8551 117.11 47.0195 120.451 47.0195C121.783 47.0195 122.985 47.3941 123.917 47.9977V47.3213L127.508 47.2953ZM123.891 55.2037V51.5148C123.136 50.4326 122.08 50.1361 121.028 50.1361C119.197 50.1361 117.916 51.6189 117.916 53.3775C117.916 55.1101 119.197 56.5929 121.028 56.5929C122.085 56.5877 123.136 56.2859 123.891 55.2037Z" fill="white" fill-opacity="0.3"/>
<path d="M142.277 52.8468V59.4025H138.733V53.2734C138.733 51.2911 137.755 50.2609 135.996 50.2609C135.09 50.2609 134.06 50.7864 133.206 51.7906V59.3973H129.589V47.3213H133.206V48.2266C134.185 47.4462 135.34 47.0195 136.698 47.0195C139.914 47.0195 142.277 49.2776 142.277 52.8468Z" fill="white" fill-opacity="0.3"/>
<path d="M69.8403 59.3762H66.1245L63.6838 50.3595L58.4588 59.3762H54.2902L62.3515 45.4168L61.0452 40.5468L50.1685 59.3814H46L59.791 35.5H63.46L65.042 41.4521H68.8099L66.2494 45.9214L69.8403 59.3762Z" fill="white" fill-opacity="0.3"/>
<path d="M156.87 41.4219V59.4031H153.201V58.7268C152.269 59.3303 151.067 59.7049 149.735 59.7049C146.394 59.7049 143.708 56.8693 143.708 53.3522C143.708 49.861 146.394 47.0254 149.735 47.0254C151.067 47.0254 152.269 47.4 153.201 48.0036V41.4219H156.87ZM153.206 55.2044V51.4895C152.451 50.4073 151.374 50.1107 150.318 50.1107C148.46 50.1107 147.179 51.5936 147.179 53.3522C147.179 55.1368 148.46 56.6144 150.318 56.6144C151.369 56.6144 152.425 56.3126 153.206 55.2044Z" fill="white" fill-opacity="0.3"/>
<path d="M113.743 50.3591C112.941 50.4579 111.078 50.562 109.975 52.0656V59.3965H106.358V47.3466H109.975V48.2519C110.802 47.5495 112.036 47.1229 113.743 47.2998V50.3591Z" fill="white" fill-opacity="0.3"/>
</g>
<defs>
<clipPath id="clip0_5877_912">
<rect width="111" height="31" fill="white" transform="translate(46 35)"/>
</clipPath>
</defs>
</svg>
