<svg width="203" height="100" viewBox="0 0 203 100" fill="none" xmlns="http://www.w3.org/2000/svg">
<g clip-path="url(#clip0_5803_948)">
<path d="M12 56.3371V54.7191C12.7004 42.8315 26.9372 36.6877 36.067 44.6958L42.9732 51.5668L48.2776 46.3821L52.2886 50.1807L46.9788 55.4967L52.203 60.8773L48.2794 64.6958L42.9741 59.4904C39.4948 62.5232 36.5889 66.9016 32.2516 68.7578C23.0028 72.7155 12.5606 66.3128 12 56.3371ZM25.6825 46.6562C16.1507 47.4221 14.5301 60.9663 23.6698 63.9803C30.7824 66.3263 34.4184 59.6764 38.909 55.7097L39.0343 55.4949L32.4183 48.8737C30.5426 47.2432 28.1793 46.4549 25.6825 46.6562Z" fill="white" fill-opacity="0.3"/>
<path d="M192 61.6405C189.483 61.6522 186.546 62.0288 185.983 58.8764C185.958 58.7353 185.871 58.1825 185.871 58.0899V50.5843H184.339V48.2472H185.871V45.0562L186.006 44.9214H188.755V48.2472H192V50.5843H188.755V58.4495C188.755 58.4998 189.035 58.925 189.111 58.9933C189.716 59.5398 191.222 59.2144 192 59.3034V61.6405Z" fill="white" fill-opacity="0.3"/>
<path d="M55.7156 30.0898V41.5955C56.471 41.4202 57.2407 41.2287 58.015 41.1469C67.8848 40.1042 75.8455 49.1991 73.5912 58.8377C71.1324 69.3519 58.2394 73.484 50.0389 66.4494L54.0472 62.5546C59.1101 66.5105 66.741 63.8184 68.1831 57.5802C70.0787 49.386 60.6749 43.3914 54.0481 48.5141L50.0371 44.6076V30.0898H55.7156Z" fill="white" fill-opacity="0.3"/>
<path d="M110.698 59.8427V67.9326H107.814V48.2472H110.698V50.045C114.03 46.5312 119.882 47.787 121.267 52.4935C122.638 57.1497 119.886 62.2445 114.615 61.8238C113.106 61.7034 111.753 60.8692 110.698 59.8427ZM114.011 50.5178C109.172 51.1757 109.607 59.9973 115.239 59.3825C120.21 58.8396 119.966 49.7088 114.011 50.5178Z" fill="white" fill-opacity="0.3"/>
<path d="M162.976 43.6628V50.1348C165.424 47.2934 169.988 47.341 172.396 50.2237C174.892 53.2107 174.332 58.7109 170.99 60.8682C168.504 62.4736 164.858 62.1042 162.976 59.7527V61.6404H160.182V43.6628H162.976ZM166.29 50.5177C161.908 51.1091 161.814 58.9168 166.538 59.3923C172.543 59.9963 172.711 49.6512 166.29 50.5177Z" fill="white" fill-opacity="0.3"/>
<path d="M152.521 50.045V48.2473H155.405V61.5057L155.27 61.6405H152.521V59.7529C150.049 62.5807 145.617 62.5376 143.191 59.6639C141.44 57.5911 141.149 54.2769 142.168 51.8104C143.899 47.6189 149.473 46.7551 152.521 50.045ZM147.812 50.5178C142.92 51.1776 143.446 59.9704 149.04 59.3825C154.049 58.8567 153.659 49.7295 147.812 50.5178Z" fill="white" fill-opacity="0.3"/>
<path d="M92.5809 59.7528C89.0332 63.6494 82.8526 61.8202 81.8062 56.7002C80.492 50.2705 86.3643 45.5119 91.9509 49.4597L92.5809 50.1348V48.2471H95.3751V61.6404H92.5809V59.7528ZM87.8741 50.5195C82.9337 51.119 83.5268 60.0404 89.1008 59.3833C94.051 58.7999 93.7653 49.8049 87.8741 50.5195Z" fill="white" fill-opacity="0.3"/>
<path d="M128.365 49.6853C130.475 47.4453 134.724 47.4426 136.655 49.9118C138.746 52.5869 137.465 58.0979 137.833 61.3303L137.694 61.6404H135.035V53.5954C135.035 50.0503 129.708 49.2431 128.565 52.5365C128.523 52.6552 128.365 53.1676 128.365 53.2359V61.5055L128.229 61.6404H125.615L125.48 61.5055V43.7977L125.615 43.6628H128.229L128.365 43.7977V49.6853Z" fill="white" fill-opacity="0.3"/>
<path d="M103.037 43.6628H100.242V61.6404H103.037V43.6628Z" fill="white" fill-opacity="0.3"/>
<path d="M180.643 48.2471H177.849V61.6403H180.643V48.2471Z" fill="white" fill-opacity="0.3"/>
<path d="M179.266 46.5204C180.253 46.5204 181.054 45.7219 181.054 44.737C181.054 43.7521 180.253 42.9536 179.266 42.9536C178.278 42.9536 177.477 43.7521 177.477 44.737C177.477 45.7219 178.278 46.5204 179.266 46.5204Z" fill="white" fill-opacity="0.3"/>
</g>
<defs>
<clipPath id="clip0_5803_948">
<rect width="180" height="40" fill="white" transform="translate(12 30)"/>
</clipPath>
</defs>
</svg>
