<svg fill="none" height="100" viewBox="0 0 203 100" width="203" xmlns="http://www.w3.org/2000/svg" xmlns:xlink="http://www.w3.org/1999/xlink"><clipPath id="a"><path d="m0 0h203v100h-203z"/></clipPath><g clip-path="url(#a)"><path d="m137.52 48.31v3.6h-11.3v4.73h11.7v3.87h-15.62c.02-4.04.02-8.08.02-12.2zm-84.1-8.77c.22 0 .35.05.44.27 3.04 6.8 6.1 13.6 9.13 20.38.02.07.05.15.1.27h-1.55c-.79 0-1.55-.02-2.34 0-.3 0-.44-.07-.57-.37-1.8-4.11-3.6-8.25-5.4-12.37-.54-1.23-1.09-2.49-1.65-3.79-.07.17-.12.27-.2.39-2.32 5.25-4.61 10.5-6.91 15.74-.12.27-.25.37-.57.37-1.05-.02-2.08 0-3.12-.03l-.78-.02c.07-.12.15-.25.22-.37 3.01-6.7 6.02-13.4 9.03-20.11.12-.27.25-.37.57-.37 1.21.02 2.42.02 3.6 0zm18.31.07c.25 0 .37.07.49.27 2.02 2.78 4.05 5.54 6.07 8.33.07.1.15.22.27.34.1-.12.17-.22.25-.32 2.02-2.78 4.05-5.54 6.07-8.33.17-.22.32-.3.59-.3 1.23.02 2.49 0 3.73 0h.39v20.84h-3.9v-14.98s-.05-.02-.07-.05c-.07.1-.15.2-.22.3-2.1 2.78-4.2 5.57-6.29 8.35-.37.49-.91.49-1.26-.02-2.02-2.78-4.07-5.54-6.1-8.33-.07-.1-.15-.22-.25-.32-.02.02-.05.02-.07.05v15.01h-3.92v-20.82c.1 0 .22-.02.32-.02zm83.8-.12c1.21 0 2.37.25 3.46.76 2.49 1.16 4 3.67 3.85 6.46-.05.89-.17 1.75-.49 2.56-.79 1.97-2.3 3.1-4.29 3.65-.15.02-.27.07-.47.12.2.22.34.42.52.59 1.87 2.09 3.73 4.19 5.6 6.31.1.12.17.3.3.49h-4.49c-.17 0-.37-.1-.49-.22-1.88-2.14-3.75-4.26-5.6-6.43-.22-.25-.44-.34-.77-.34-1.09.02-2.2 0-3.31 0v6.97c-1.36-.02-2.64-.02-3.97-.02v-10.55h.44c3.09 0 6.17.02 9.28.02.54 0 1.11-.05 1.63-.2 1.5-.44 2.34-1.87 2.17-3.62-.15-1.48-1.31-2.66-2.84-2.83-.32-.05-.67-.05-.99-.05h-9.67v-3.65c.07 0 .17-.02.25-.02h9.89zm-48.22 0c1.26 0 2.49.22 3.65.74 2 .91 3.04 2.49 3.23 4.66.2 2.14-.62 3.72-2.62 4.68.05.05.1.07.12.1 2.17.76 3.28 3.23 3.16 4.98-.15 2.41-1.21 4.16-3.5 5.05-.67.25-1.38.44-2.07.54-.77.12-1.55.17-2.32.17h-9.85v-12.39h.44c3.33-.05 6.66-.07 9.97-.15.47-.02.96-.12 1.41-.3 1.26-.47 1.73-1.7 1.14-2.91-.44-.91-1.26-1.36-2.22-1.53-.32-.05-.67-.07-.99-.07-3.11-.02-6.19-.02-9.3-.05h-.44v-3.5c.1 0 .17-.02.27-.02zm-.27 11.88h-5.7c-.12 0-.22.02-.35.02v5.32c2.25 0 4.42.02 6.61 0 .74 0 1.43-.2 2.1-.54.57-.3.99-.71 1.16-1.33.27-.94-.07-1.85-.94-2.51-.84-.64-1.83-.96-2.89-.96zm30.9-11.75v3.77h-15.62v-3.77z" fill="#fff" fill-opacity=".3"/></g></svg>