<svg width="203" height="100" viewBox="0 0 203 100" fill="none" xmlns="http://www.w3.org/2000/svg">
<path fill-rule="evenodd" clip-rule="evenodd" d="M105.953 40.8766C105.943 40.868 105.937 40.8625 105.932 40.8584C105.941 40.866 105.953 40.8766 105.953 40.8766ZM144.98 37.4088C145.007 37.3992 144.999 37.4022 144.98 37.4088ZM75.4763 20.716L78.7533 20.419C79.3739 20.3627 79.7914 19.9222 79.7914 19.3231V17.8204C79.7914 17.3381 79.4699 16.8806 78.7533 16.9457L75.4763 17.2425C74.7597 17.3074 74.439 17.8231 74.439 18.3054V19.8081C74.439 20.4074 74.8558 20.7722 75.4763 20.716ZM136.708 33.5675C137.858 34.4507 139.272 34.8254 140.913 34.6768C143.186 34.4709 144.907 34.094 146.186 33.5262C146.628 33.3247 146.883 32.9527 146.883 32.5046V31.2127C146.884 30.3678 146.18 30.1702 145.682 30.3402C144.476 30.7395 142.918 31.0216 140.913 31.203C140.365 31.2527 139.896 31.1035 139.518 30.7549C139.138 30.4046 138.945 29.9628 138.945 29.4368V23.1868C138.945 22.6632 139.138 22.1841 139.517 21.7674C139.897 21.3505 140.367 21.1158 140.913 21.0663C142.915 20.885 144.519 20.8848 145.674 21.0644C146.243 21.1558 146.883 20.8136 146.883 19.9755V18.6832C146.883 18.2585 146.656 17.9372 146.215 17.7847C144.945 17.4481 143.21 17.3846 140.913 17.5928C139.274 17.7413 137.847 18.3836 136.674 19.5C135.52 20.5938 134.91 21.9969 134.91 23.5523V29.8023C134.91 31.3833 135.514 32.6486 136.708 33.5675ZM83.857 39.8458L85.8166 39.6683C86.4371 39.612 86.8547 39.171 86.8547 38.5723V27.8772C86.8547 27.3765 87.0521 26.8925 87.4282 26.4558C87.8061 26.0412 88.2753 25.8065 88.8238 25.7567L91.4587 25.5181C91.9865 25.4704 92.4395 25.6255 92.8194 25.9959C93.2008 26.3459 93.3923 26.7805 93.3923 27.285V37.98C93.3923 38.5788 93.8111 38.9441 94.4318 38.8879L96.4243 38.7073C96.523 38.6983 96.6185 38.6674 96.7088 38.6195C97.3027 38.3024 97.4281 37.8988 97.4281 37.6145V26.9194C97.4281 26.4167 97.6253 25.9328 98.0022 25.4979C98.3802 25.0831 98.8494 24.8486 99.3974 24.7989L102.031 24.5603C102.564 24.5121 103.021 24.6671 103.427 25.035C103.809 25.3851 104.001 25.8195 104.001 26.3241V37.0191C104.001 37.6178 104.419 37.9832 105.039 37.927L106.997 37.7497C107.618 37.6934 108.036 37.2524 108.036 36.6536V25.9586C108.036 24.3661 107.428 23.1089 106.238 22.227C105.086 21.3397 103.67 20.9671 102.031 21.1155L99.3972 21.3541C97.8441 21.4948 96.5072 22.0536 95.4105 23.0175C94.3189 22.2518 92.992 21.9344 91.4587 22.0733L88.8238 22.312C87.1997 22.459 85.776 23.0867 84.5839 24.1886C83.4302 25.2829 82.8197 26.6851 82.8197 28.2428V38.9379C82.8196 39.5367 83.2367 39.902 83.857 39.8458ZM105.999 40.9162C106.18 41.0867 106.365 41.3112 106.555 41.59C106.744 41.8691 106.94 42.16 107.142 42.4632L114.351 52.7763V41.7671C114.351 41.0518 114.505 40.5024 114.812 40.1191C114.82 40.1092 114.829 40.1005 114.837 40.0907L105.953 40.8766C105.968 40.8902 105.985 40.9022 105.999 40.9162ZM78.1119 23.2824L76.1186 23.4631C75.4019 23.528 75.0805 24.0454 75.0805 24.5283V39.6391C75.0805 40.2378 75.4981 40.6031 76.1186 40.547L78.1119 40.3664C78.7317 40.3102 79.1492 39.8692 79.1492 39.2704V24.1596C79.1492 23.6769 78.8285 23.2174 78.1119 23.2824ZM110.048 21.6738C110.281 21.5461 110.474 21.3721 110.629 21.1747L114.593 25.2595L112.229 26.0596C112.153 25.8302 112.018 25.6237 111.818 25.4698C111.233 25.0194 110.354 25.163 109.85 25.7916C109.348 26.4201 109.412 27.2947 109.996 27.7454C110.58 28.1953 111.461 28.0499 111.962 27.422C112.101 27.2499 112.192 27.0597 112.245 26.8628L114.617 27.9677C114.616 28.0148 114.61 28.0608 114.61 28.1077C114.61 33.186 118.726 36.9302 123.804 36.4702C128.882 36.0101 132.999 31.5201 132.999 26.4418C132.999 21.3635 128.882 17.6198 123.804 18.0798C121.901 18.2523 120.132 18.991 118.665 20.1151L116.662 18.7269C116.81 18.4956 116.906 18.2296 116.92 17.9453C116.959 17.124 116.327 16.4844 115.507 16.5173C114.69 16.5532 113.994 17.2489 113.954 18.0719C113.915 18.893 114.546 19.5326 115.365 19.4968C115.589 19.4882 115.802 19.426 115.997 19.3286L116.435 22.0792L111.018 20.2404C111.054 19.9386 111.014 19.6309 110.881 19.3516C110.49 18.5365 109.484 18.2548 108.633 18.7216C107.783 19.1883 107.41 20.2291 107.802 21.044C108.191 21.8591 109.2 22.1418 110.048 21.6738ZM125.845 30.4089C126.519 30.3479 127.063 30.8467 127.063 31.5178C127.063 32.1918 126.519 32.7873 125.845 32.8484C125.171 32.9095 124.626 32.4125 124.626 31.7387C124.626 31.0674 125.171 30.4701 125.845 30.4089ZM121.604 30.7932C122.279 30.732 122.824 31.2307 122.824 31.9018C122.824 32.5756 122.279 33.1713 121.604 33.2324C120.93 33.2936 120.386 32.7965 120.386 32.1228C120.386 31.4516 120.93 30.854 121.604 30.7932ZM130.936 38.6624C130.904 38.6613 130.891 38.6608 130.886 38.6607C130.893 38.6609 130.916 38.6617 130.936 38.6624ZM128.15 41.7637L125.675 41.968V54.5304L128.516 54.2959C129.139 54.2444 129.627 54.1872 129.981 54.1245C130.334 54.0616 130.7 53.9471 131.079 53.7811C131.458 53.6153 131.786 53.3989 132.064 53.1317C133.318 51.9675 133.945 50.0894 133.945 47.4969C133.945 45.6706 133.669 44.3255 133.118 43.462C132.566 42.5985 131.887 42.0761 131.079 41.8943C130.271 41.7129 129.294 41.6692 128.15 41.7637ZM88.0784 53.3803L93.6081 52.9237L90.8179 45.5158L88.0784 53.3803ZM154.481 40.6666C154.301 40.6666 154.295 40.7948 154.295 40.7948C154.295 40.8105 154.296 40.8262 154.296 40.842C154.296 41.2882 154.138 41.7031 153.823 42.0868C153.507 42.4708 153.114 42.682 152.642 42.7209C152.213 42.7564 151.887 42.676 151.664 42.4797C151.441 42.2836 151.199 41.9522 150.938 41.4854C150.601 40.8148 150.197 40.3031 149.726 39.9505C149.254 39.5982 148.497 39.4648 147.453 39.5511C146.485 39.6312 145.705 39.9083 145.111 40.382C144.518 40.8562 144.221 41.3919 144.221 41.9896C144.221 42.36 144.322 42.6715 144.524 42.9241C144.726 43.177 145.004 43.3854 145.358 43.5497C145.711 43.7144 146.069 43.8363 146.431 43.9157C146.793 43.9952 147.39 44.1059 148.224 44.2474C149.267 44.4055 150.212 44.5966 151.058 44.8214C151.904 45.0462 152.623 45.3445 153.217 45.7163C153.81 46.0882 154.273 46.5823 154.605 47.1988C154.624 47.2334 154.64 47.2703 154.658 47.3058V40.7949C154.658 40.7947 154.635 40.6666 154.481 40.6666ZM123.369 39.2784C123.294 39.3019 123.221 39.3268 123.153 39.3547L123.369 39.3356V39.2784ZM130.966 38.6633C130.958 38.6631 130.953 38.6629 130.946 38.6627C130.957 38.6631 130.966 38.6633 130.966 38.6633ZM151.708 54.9182C150.597 55.515 149.28 55.8764 147.757 56.002C145.93 56.1529 144.424 55.9322 143.237 55.34C142.395 54.9128 141.711 54.3066 141.185 53.5209C140.659 52.7352 140.396 51.951 140.396 51.1683C140.396 50.7136 140.554 50.3115 140.869 49.9613C141.185 49.6112 141.587 49.4159 142.075 49.3756C142.471 49.343 142.805 49.4416 143.079 49.6714C143.352 49.9015 143.586 50.2568 143.78 50.7372C144.015 51.3071 144.27 51.7785 144.543 52.1514C144.817 52.5246 145.202 52.8189 145.698 53.0344C146.195 53.2502 146.847 53.3247 147.655 53.258C148.766 53.1661 149.669 52.8329 150.363 52.2579C151.058 51.6829 151.405 51.0084 151.405 50.2338C151.405 49.6197 151.218 49.1364 150.843 48.7842C150.469 48.4322 149.985 48.1796 149.391 48.0267C148.798 47.8737 148.004 47.7245 147.012 47.5793C145.681 47.378 144.569 47.1055 143.672 46.763C142.776 46.4203 142.064 45.9109 141.539 45.2347C141.012 44.5584 140.749 43.6861 140.749 42.617C140.749 41.5986 141.027 40.6709 141.583 39.8338C142.138 38.9969 142.942 38.3223 143.994 37.8103C144.289 37.6669 144.6 37.5407 144.923 37.4283L130.966 38.6633C131.477 38.68 131.949 38.725 132.379 38.8009C133.288 38.9616 134.113 39.3354 134.854 39.9223C136.781 41.413 137.745 43.8417 137.745 47.2083C137.745 48.3192 137.648 49.3416 137.454 50.2749C137.261 51.2084 136.962 52.06 136.558 52.8298C136.154 53.5996 135.636 54.3011 135.005 54.9339C134.508 55.4213 133.965 55.8237 133.376 56.1417C132.787 56.4598 132.154 56.7015 131.476 56.8666C130.799 57.032 130.035 57.1497 129.185 57.22L124.299 57.6236C123.617 57.6799 123.104 57.6193 122.759 57.4414C122.414 57.2639 122.188 56.9919 122.083 56.6261C121.978 56.2604 121.925 55.7786 121.925 55.1809V41.6085C121.925 40.8004 122.106 40.2006 122.468 39.8089C122.644 39.6191 122.872 39.4683 123.152 39.3549L117.29 39.8737C117.303 39.8865 117.317 39.8978 117.33 39.9112C117.641 40.2434 117.797 40.767 117.797 41.4823V56.0395C117.797 57.664 117.124 58.5317 115.777 58.6429C115.441 58.6708 115.138 58.6472 114.868 58.5729C114.599 58.4982 114.346 58.3655 114.111 58.1746C113.875 57.9837 113.656 57.7557 113.454 57.4901C113.252 57.2248 113.05 56.9534 112.848 56.6753L105.816 46.474V57.3193C105.816 58.0262 105.652 58.5744 105.324 58.9632C104.996 59.3522 104.575 59.5681 104.061 59.6105C103.531 59.6542 103.106 59.5063 102.786 59.1664C102.466 58.8267 102.306 58.3077 102.306 57.6091V43.3296C102.306 42.7236 102.374 42.2427 102.508 41.8862C102.623 41.6048 102.793 41.3553 103.016 41.1364L92.6287 42.0557C92.7673 42.1702 92.8898 42.2998 92.9956 42.4445C93.2103 42.7382 93.3911 43.058 93.5384 43.4034C93.6857 43.7491 93.8731 44.2112 94.1002 44.7901L98.9357 56.3343C99.3145 57.2121 99.5039 57.8571 99.5039 58.2696C99.5039 58.6988 99.3249 59.1071 98.9673 59.4945C98.6096 59.8815 98.1783 60.0961 97.6732 60.1378C97.3785 60.1623 97.126 60.1303 96.9159 60.0426C96.7054 59.9546 96.5287 59.8265 96.3856 59.6571C96.2423 59.488 96.0889 59.223 95.9247 58.8618C95.7605 58.5011 95.6196 58.1822 95.5018 57.9056L94.6181 55.6557L87.0937 56.277L86.2098 58.7237C85.8646 59.6781 85.57 60.3274 85.3261 60.6714C85.0818 61.0153 84.6822 61.2107 84.1267 61.2564C83.6552 61.2953 83.2387 61.1572 82.8768 60.842C82.5149 60.5268 82.3341 60.1503 82.3341 59.7127C82.3341 59.4601 82.376 59.1958 82.4602 58.9193C82.5442 58.6432 82.6832 58.257 82.8768 57.7615L87.6112 45.351C87.7457 44.9949 87.9078 44.567 88.0972 44.0673C88.2867 43.5678 88.4885 43.1492 88.7032 42.8115C88.8043 42.6525 88.9209 42.5065 89.0517 42.3721L76.9058 43.447C77.0089 43.4771 77.1101 43.5096 77.2082 43.5462C77.7889 43.7424 78.3022 44.0492 78.7484 44.4668C79.1945 44.8845 79.5331 45.3849 79.7647 45.9674C79.9961 46.5501 80.1119 47.1781 80.1119 47.8514C80.1119 49.2318 79.7225 50.3666 78.944 51.2558C78.1653 52.1451 76.985 52.8274 75.4028 53.3032C76.0676 53.6018 76.7032 54.0713 77.3092 54.7112C77.9153 55.3514 78.4559 56.0412 78.9315 56.7804C79.4069 57.5199 79.7774 58.1921 80.0425 58.7972C80.3077 59.4025 80.4401 59.8229 80.4401 60.0583C80.4401 60.3025 80.3623 60.5509 80.2066 60.8038C80.0507 61.0565 79.8383 61.2634 79.569 61.4245C79.2995 61.5856 78.9883 61.6808 78.6348 61.71C78.2138 61.7448 77.8602 61.6749 77.5743 61.5008C77.2879 61.3267 77.0419 61.0964 76.8358 60.8106C76.6294 60.5247 76.3497 60.1016 75.9961 59.5417L74.4938 57.1658C73.9551 56.2929 73.4733 55.6341 73.0483 55.1895C72.6232 54.7448 72.1917 54.4523 71.7542 54.3116C71.3165 54.1709 70.7651 54.1281 70.1003 54.1829L68.7874 54.2914V60.238C68.7874 61.0208 68.6148 61.6117 68.2698 62.0105C67.9246 62.4093 67.4744 62.6317 66.9189 62.6776C66.3212 62.7269 65.8584 62.5715 65.5301 62.2114C65.2019 61.8515 65.0378 61.2969 65.0378 60.5477V46.3063C65.0378 45.4982 65.2186 44.8984 65.5806 44.5065C65.6011 44.4844 65.625 44.4645 65.6468 44.4433L58.2369 45.0991C58.4147 45.1633 58.5864 45.2371 58.7506 45.3231C59.1881 45.5479 59.5753 45.8464 59.9121 46.2182C60.2486 46.5904 60.5054 47.0111 60.6822 47.4803C60.8589 47.9497 60.9474 48.4539 60.9474 48.9924C60.9474 50.8442 60.0213 52.2757 58.1699 53.2871C60.6022 53.8606 61.8185 55.2669 61.8185 57.5057C61.8185 58.541 61.5533 59.4951 61.0231 60.3679C60.4928 61.2409 59.7774 61.9123 58.877 62.3821C58.313 62.6644 57.6649 62.8843 56.9326 63.0413C56.2004 63.1988 55.346 63.3176 54.3697 63.3982L48.7137 63.8652C47.8971 63.9327 47.3142 63.7978 46.9651 63.4603C46.9315 63.4279 46.8999 63.3925 46.8694 63.3556V64.0886C46.8694 64.0886 46.9394 64.2236 47.0756 64.2593C51.7143 65.4754 133.098 86.8131 133.098 86.8131L154.658 52.8326V51.7906C154.541 52.072 154.403 52.3467 154.239 52.6134C153.663 53.5535 152.819 54.3215 151.708 54.9182ZM154.688 51.719C154.68 51.7373 154.672 51.7576 154.662 51.7801C154.668 51.7677 154.677 51.7449 154.688 51.719ZM161.876 17.1861C160.724 16.2989 159.309 15.9263 157.67 16.0747C155.617 16.2606 154.071 16.5296 153.049 16.8838C152.32 17.1624 152.241 17.7073 152.241 17.9281V19.2793C152.241 19.5413 152.311 19.7574 152.446 19.9213C152.619 20.1288 152.877 20.2278 153.174 20.2008C153.223 20.1964 153.343 20.1753 153.391 20.1608C154.183 19.9194 155.623 19.705 157.67 19.5195C158.198 19.4717 158.651 19.627 159.031 19.9972C159.413 20.3471 159.605 20.7817 159.605 21.2863V22.1799L155.036 22.5938C153.394 22.7426 151.968 23.3829 150.795 24.4992C149.625 25.6113 149.032 26.9648 149.032 28.5227C149.032 30.1013 149.636 31.3679 150.83 32.2882C151.98 33.1711 153.395 33.5458 155.036 33.3973L162.636 32.7088C163.227 32.6553 163.64 32.2048 163.64 31.6159V20.9207C163.64 19.3652 163.03 18.073 161.876 17.1861ZM159.605 29.5095L155.036 29.9234C154.488 29.973 154.019 29.8237 153.641 29.4751C153.259 29.1249 153.066 28.6833 153.066 28.1571C153.066 27.6521 153.259 27.1826 153.641 26.7661C154.019 26.3514 154.488 26.1167 155.036 26.0671L159.605 25.653V29.5095ZM68.7874 51.6023L72.1456 51.3252C73.0462 51.2507 73.8038 51.1104 74.4181 50.9038C75.0324 50.6974 75.5018 50.3936 75.8258 49.9921C76.1497 49.591 76.3118 49.0619 76.3118 48.4053C76.3118 47.892 76.1811 47.4502 75.9204 47.0803C75.6595 46.7106 75.2975 46.4481 74.8346 46.2926C74.3969 46.1438 73.5342 46.1222 72.2465 46.2285L68.7872 46.5141V51.6023H68.7874ZM57.0336 55.5904C56.3771 55.2239 55.3964 55.0943 54.092 55.202L50.1909 55.5242V60.9277L54.2183 60.5952C56.7516 60.386 58.0184 59.3682 58.0184 57.5416C58.0183 56.6075 57.6901 55.9571 57.0336 55.5904ZM57.8418 42.2027L59.8014 42.0251C60.4218 41.9689 60.8382 41.5281 60.8382 40.9292V30.2341C60.8382 29.7336 61.0353 29.2495 61.4123 28.8124C61.7902 28.398 62.2593 28.1633 62.8073 28.1136L65.4428 27.8749C65.9705 27.8272 66.4229 27.9826 66.8035 28.3527C67.1847 28.7027 67.377 29.1371 67.377 29.6417V40.3368C67.377 40.9355 67.7944 41.3009 68.4149 41.2448L70.409 41.064C70.9996 41.0106 71.4128 40.56 71.4128 39.9712V29.2761C71.4128 27.6838 70.8043 26.4267 69.6147 25.5447C68.4635 24.6573 67.06 24.2836 65.4428 24.4301L62.8073 24.6688C61.1845 24.816 59.76 25.4437 58.568 26.5455C57.4142 27.6398 56.8037 29.042 56.8037 30.5997V41.2948C56.8039 41.8934 57.2213 42.2589 57.8418 42.2027ZM58.2369 45.0991C58.229 45.0963 58.2248 45.0948 58.2187 45.0925C58.2289 45.0961 58.2369 45.0991 58.2369 45.0991ZM50.1908 52.8349L53.6248 52.5515C54.5591 52.4743 55.2806 52.3263 55.79 52.1074C56.2991 51.8886 56.6885 51.5199 56.9578 51.001C57.1681 50.63 57.2734 50.2258 57.2734 49.7881C57.2734 48.8538 56.9408 48.2607 56.2761 48.0082C55.6112 47.7559 54.597 47.686 53.2335 47.7986L50.1909 48.0498V52.8349H50.1908ZM53.1022 41.6301V30.9351C53.1022 29.3796 52.492 28.0874 51.3374 27.2005C50.1854 26.3133 48.7694 25.9407 47.1312 26.0891C45.0786 26.275 43.5322 26.544 42.5093 26.8982C41.7806 27.1769 41.7023 27.7217 41.7023 27.9425V29.2937C41.7023 29.5557 41.7717 29.7718 41.906 29.9357C42.0791 30.1432 42.3382 30.2422 42.6355 30.2152C42.6844 30.2108 42.8039 30.1897 42.8518 30.1752C43.6447 29.9337 45.0837 29.7194 47.1312 29.5339C47.6581 29.4861 48.1125 29.6414 48.4932 30.0116C48.8738 30.3617 49.066 30.7961 49.066 31.3007V32.1945L44.4971 32.6082C42.8556 32.757 41.4294 33.3973 40.2572 34.5133C39.086 35.6257 38.4922 36.9792 38.4922 38.537C38.4922 40.1156 39.0975 41.3833 40.2914 42.3023C41.4415 43.1854 42.8563 43.56 44.4971 43.4114L52.0973 42.723C52.6891 42.6694 53.1022 42.2189 53.1022 41.6301ZM49.0658 39.5239L44.4969 39.9378C43.949 39.9874 43.4792 39.8382 43.102 39.4895C42.72 39.1395 42.5278 38.6975 42.5278 38.1715C42.5278 37.6665 42.72 37.197 43.102 36.7805C43.4792 36.3659 43.949 36.1311 44.4969 36.0815L49.0658 35.6676V39.5239Z" fill="white" fill-opacity="0.3"/>
</svg>
