<svg width="203" height="100" viewBox="0 0 203 100" fill="none" xmlns="http://www.w3.org/2000/svg">
<g clip-path="url(#clip0_5803_1027)">
<g clip-path="url(#clip1_5803_1027)">
<path d="M136.909 56.1899C134.654 58.9655 130.238 59.0256 127.264 57.4199C120.298 53.659 120.848 40.981 128.426 38.1999C133.123 36.476 138.391 38.5129 139.816 43.4482L136.507 44.5371C136.385 44.5062 136.071 43.4919 135.957 43.2672C134.662 40.6999 131.417 40.1368 129.024 41.5277C125.347 43.6647 125.115 50.4031 127.674 53.4616C130.168 56.4428 135.234 55.9452 136.458 52.0534C136.53 51.8223 136.913 50.3676 136.591 50.3676H131.451V47.2745H140.185V58.1913H136.91V56.1899H136.909Z" fill="white" fill-opacity="0.3"/>
<path d="M147.898 43.117C153.641 42.5284 156.689 47.4883 155.698 52.7365C154.32 60.0289 144.1 60.5084 142.049 53.4607C140.744 48.9784 142.808 43.6383 147.898 43.117ZM148.352 45.9353C143.448 46.4985 144.054 56.9549 149.737 55.5085C153.814 54.4705 153.48 45.3467 148.352 45.9353Z" fill="white" fill-opacity="0.3"/>
<path d="M118.259 38.9958V43.3626H121.352V46.2737H118.259V54.3249C118.259 54.3876 118.468 54.7861 118.531 54.8716C119.112 55.6485 120.777 55.3501 121.625 55.2801V58.0548C121.567 58.1512 121.498 58.1676 121.395 58.1885C119.911 58.4878 116.888 58.5087 115.802 57.3015C115.519 56.9858 114.984 55.9078 114.984 55.5075V46.2737H112.892V43.3626H114.984V38.9958H118.259Z" fill="white" fill-opacity="0.3"/>
<path d="M111.709 43.3628H108.343V58.1915H111.709V43.3628Z" fill="white" fill-opacity="0.3"/>
<path d="M111.8 37.9043H108.343V41.3613H111.8V37.9043Z" fill="white" fill-opacity="0.3"/>
<path d="M91.6951 37.9043C94.5199 38.0308 97.4874 37.7369 100.296 37.9007C102.66 38.038 105.249 38.8841 106.023 41.3613C106.801 43.8494 106.017 46.5422 103.522 47.593C105.079 48.2443 106.315 49.3142 106.75 51.0054C107.894 55.4476 104.671 57.9567 100.569 58.195C97.6712 58.3633 94.609 58.0613 91.6951 58.1914V37.9043ZM95.1521 46.2739H100.292C100.44 46.2739 101.309 46.0091 101.492 45.9272C103.206 45.1576 103.431 42.5094 101.856 41.5259C101.61 41.3731 100.631 40.9974 100.383 40.9974H95.1521V46.2739ZM95.1521 55.0983H100.747C103.034 55.0983 104.399 52.0934 102.841 50.3658C102.507 49.9956 101.401 49.3669 100.929 49.3669H95.1521V55.0983Z" fill="white" fill-opacity="0.3"/>
<path d="M79.8558 35.2786L79.8722 52.8737C79.5401 57.9446 73.696 62.5014 69.7623 65.0523C68.0884 66.1377 66.3508 67.1302 64.555 68.0008C60.2347 65.7829 55.6914 63.0309 52.4382 59.3756C50.6069 57.3169 49.3533 55.1453 49.206 52.3279C48.9203 46.8658 49.4334 41.1582 49.206 35.6707C49.2014 35.5378 49.2078 35.4141 49.2933 35.3031C49.3788 35.1921 51.4676 34.367 51.7878 34.2497C60.8806 30.9064 71.0387 31.323 79.8558 35.2786ZM63.4024 37.9041H61.31V39.8145H59.3995V56.2807H61.1735C61.2008 56.2807 61.2436 56.1651 61.31 56.1897V58.1911H63.4024V56.1897C63.9764 56.3389 64.7351 56.3389 65.3128 56.1897V58.1911H67.3142V56.0078C71.7301 55.5456 73.0137 49.2321 68.4978 47.8192L69.9561 46.8686C71.8192 44.7798 70.9632 41.4793 68.4386 40.3731C68.0629 40.2084 67.6572 40.1575 67.3142 39.951V37.9041H65.3128V39.8145H63.4024V37.9041Z" fill="white" fill-opacity="0.3"/>
<path d="M62.4926 53.5516V49.0029H65.4493C65.6776 49.0029 66.3508 49.1412 66.6055 49.2113C67.7591 49.5306 68.1257 50.373 68.0456 51.5083C67.9774 52.4736 67.3897 53.044 66.4927 53.3214C66.3281 53.3724 65.5675 53.5516 65.4493 53.5516H62.4926Z" fill="white" fill-opacity="0.3"/>
<path d="M62.4926 46.5467V42.4529H65.6312C65.7194 42.4529 66.4272 42.6558 66.5591 42.7076C68.1184 43.3253 68.1057 45.7507 66.4936 46.3174C66.3071 46.3829 65.6075 46.5467 65.4493 46.5467H62.4926Z" fill="white" fill-opacity="0.3"/>
</g>
</g>
<defs>
<clipPath id="clip0_5803_1027">
<rect width="203" height="100" fill="white"/>
</clipPath>
<clipPath id="clip1_5803_1027">
<rect width="106.766" height="36" fill="white" transform="translate(49.1168 32)"/>
</clipPath>
</defs>
</svg>
