<svg width="203" height="100" viewBox="0 0 203 100" fill="none" xmlns="http://www.w3.org/2000/svg">
<g clip-path="url(#clip0_5803_20163)">
<path d="M61.04 65.28C60.65 65.24 60.27 65.2 59.88 65.15C56.79 64.76 54.06 63.54 51.72 61.49C49.17 59.25 47.55 56.47 46.83 53.15C46.61 52.12 46.5 51.07 46.5 50.01C46.5 45.01 46.5 40.01 46.5 35.01C46.5 34.73 46.52 34.71 46.8 34.71C49.56 34.71 52.31 34.71 55.07 34.71C55.43 34.71 55.47 34.75 55.47 35.1C55.47 40.06 55.47 45.01 55.47 49.97C55.47 51.95 56.21 53.6 57.71 54.89C58.98 55.98 60.47 56.48 62.15 56.4C62.67 56.37 63.19 56.33 63.71 56.31C64.21 56.29 64.43 56.51 64.43 57.01C64.43 59.58 64.43 62.14 64.43 64.71C64.43 65.01 64.41 65.04 64.11 65.08C63.62 65.14 63.13 65.18 62.64 65.23C62.55 65.23 62.47 65.26 62.39 65.27H61.04V65.28Z" fill="white" fill-opacity="0.3"/>
<path d="M68.03 63.7601C68.03 63.6301 68.02 63.5301 68.02 63.4301C68.02 58.9601 68.04 54.4901 68.02 50.0101C68.01 47.3901 66.8 45.4601 64.49 44.2301C63.36 43.6301 62.13 43.4901 60.87 43.6101C60.44 43.6501 60 43.6801 59.57 43.6701C59.44 43.6701 59.26 43.5701 59.18 43.4601C59.09 43.3401 59.06 43.1501 59.06 42.9901C59.06 40.4101 59.06 37.8301 59.06 35.2501C59.06 35.0201 59.14 34.9301 59.36 34.9001C63.58 34.3001 67.45 35.1601 70.88 37.7001C74.22 40.1701 76.24 43.5001 76.89 47.6001C77.96 54.2801 74.48 60.7801 68.33 63.6301C68.25 63.6701 68.16 63.7001 68.04 63.7401L68.03 63.7601Z" fill="white" fill-opacity="0.3"/>
<path d="M85.36 39.72C85.43 39.72 85.48 39.72 85.54 39.72C88.38 39.72 91.21 39.71 94.05 39.73C95.62 39.74 97.18 39.91 98.68 40.45C99.77 40.85 100.72 41.44 101.38 42.42C102.43 43.98 102.68 46.84 100.57 48.74C100.24 49.03 99.88 49.28 99.53 49.55C99.47 49.6 99.4 49.64 99.36 49.67C99.81 49.94 100.28 50.17 100.7 50.47C101.96 51.36 102.59 52.6 102.67 54.13C102.73 55.23 102.58 56.31 102.05 57.3C101.4 58.51 100.35 59.24 99.08 59.69C97.73 60.17 96.33 60.29 94.92 60.29C91.81 60.29 88.7 60.29 85.59 60.29C85.53 60.29 85.46 60.29 85.39 60.29V39.72H85.36ZM90.44 56.83C90.59 56.85 90.74 56.87 90.88 56.87C92.17 56.89 93.45 56.92 94.74 56.92C95.34 56.92 95.94 56.85 96.53 56.78C96.65 56.77 96.8 56.67 96.88 56.57C97.31 56.03 97.54 55.41 97.65 54.73C97.83 53.57 97.3 52.66 96.17 52.32C95.71 52.18 95.22 52.08 94.75 52.07C93.38 52.03 92 52.04 90.63 52.03C90.57 52.03 90.51 52.04 90.45 52.05V56.83H90.44ZM90.35 43.69V48.37C90.35 48.37 90.42 48.38 90.45 48.39C92.16 48.52 93.87 48.55 95.58 48.31C95.7 48.29 95.86 48.28 95.94 48.2C96.22 47.92 96.53 47.65 96.73 47.32C97.59 45.91 96.95 44.29 95.37 43.82C95.25 43.79 95.13 43.76 95.01 43.73C93.94 43.51 92.87 43.57 91.79 43.62C91.31 43.64 90.84 43.66 90.35 43.69Z" fill="white" fill-opacity="0.3"/>
<path d="M157.5 51.6999C157.49 53.2899 157.29 54.7799 156.7 56.1899C155.74 58.4599 154.04 59.8499 151.63 60.3599C149.94 60.7199 148.25 60.6999 146.6 60.1399C144.46 59.4099 143.07 57.9299 142.34 55.8099C141.88 54.4699 141.76 53.0799 141.84 51.6699C141.9 50.4699 142.1 49.2899 142.54 48.1599C143.54 45.6099 145.41 44.1199 148.1 43.6399C149.58 43.3799 151.05 43.3899 152.5 43.8399C154.65 44.4899 156.08 45.9099 156.87 47.9899C157.34 49.2099 157.5 50.4799 157.5 51.6999ZM152.62 52.5099C152.62 52.2399 152.63 51.9599 152.62 51.6899C152.58 50.8999 152.47 50.1199 152.1 49.4099C151.74 48.6999 151.19 48.1999 150.4 48.0499C149.98 47.9699 149.53 47.9399 149.11 47.9999C147.76 48.1699 147.19 48.6299 146.84 49.7899C146.51 50.8899 146.45 52.0199 146.52 53.1599C146.57 53.8899 146.7 54.6099 147.02 55.2799C147.4 56.0899 147.99 56.6899 148.9 56.8699C149.76 57.0399 150.59 56.9299 151.4 56.5699C151.7 56.4299 151.9 56.2299 152.03 55.9299C152.51 54.8399 152.66 53.6999 152.62 52.5299V52.5099Z" fill="white" fill-opacity="0.3"/>
<path d="M139.03 48.54C138.48 48.42 137.94 48.28 137.41 48.18C135.69 47.87 133.97 47.73 132.23 47.98C132.03 48.01 131.83 48.07 131.64 48.1C131.42 48.13 131.29 48.26 131.22 48.46C130.94 49.27 131.15 49.73 131.81 49.95C132.47 50.16 133.16 50.32 133.84 50.46C135.07 50.7 136.31 50.94 137.46 51.47C138.39 51.9 139.15 52.5 139.58 53.45C139.86 54.07 139.96 54.74 139.96 55.41C139.97 56.63 139.69 57.76 138.83 58.68C138.17 59.38 137.35 59.8 136.45 60.08C135.23 60.46 133.97 60.58 132.7 60.59C131 60.61 129.32 60.45 127.68 59.99C127.03 59.81 127.03 59.81 127.03 59.14C127.03 58.2 127.03 57.26 127.03 56.32V56.04C127.37 56.13 127.67 56.21 127.98 56.29C129.51 56.66 131.06 56.88 132.64 56.83C133.44 56.81 134.22 56.71 134.99 56.49C135.14 56.45 135.22 56.38 135.27 56.23C135.56 55.37 135.32 54.85 134.6 54.62C133.85 54.37 133.08 54.18 132.3 54.01C131.26 53.79 130.21 53.63 129.22 53.23C128.27 52.84 127.46 52.29 126.99 51.34C126.73 50.82 126.6 50.26 126.55 49.68C126.43 48.25 126.66 46.91 127.58 45.76C128.33 44.83 129.33 44.26 130.45 43.91C131.57 43.56 132.71 43.46 133.88 43.48C135.3 43.51 136.71 43.68 138.05 44.16C138.33 44.26 138.61 44.39 138.88 44.52C138.95 44.55 139.02 44.65 139.02 44.72C139.02 45.96 139.02 47.19 139.02 48.43C139.02 48.46 139.02 48.49 139 48.53L139.03 48.54Z" fill="white" fill-opacity="0.3"/>
<path d="M115.21 40.12C116.77 39.98 118.32 39.85 119.89 39.71V43.77H123.95V47.64H123.7C122.54 47.64 121.39 47.64 120.23 47.64C120.04 47.64 119.99 47.69 119.99 47.88C119.99 50.36 119.99 52.84 119.99 55.32C119.99 55.44 119.99 55.55 120.01 55.67C120.09 56.27 120.45 56.59 121.05 56.62C121.97 56.66 122.87 56.53 123.73 56.21C123.8 56.19 123.86 56.16 123.95 56.13C123.95 56.21 123.96 56.27 123.96 56.33C123.96 57.44 123.96 58.56 123.96 59.67C123.96 59.83 123.91 59.89 123.77 59.95C122.33 60.46 120.86 60.7 119.34 60.55C118.34 60.45 117.39 60.19 116.61 59.52C115.89 58.9 115.5 58.08 115.35 57.16C115.27 56.69 115.22 56.2 115.22 55.72C115.22 50.6 115.22 45.47 115.22 40.35C115.22 40.28 115.22 40.21 115.22 40.12H115.21Z" fill="white" fill-opacity="0.3"/>
<path d="M106.05 60.27V43.8H110.89V60.27H106.05Z" fill="white" fill-opacity="0.3"/>
<path d="M106.05 41.11V37.37C107.66 37.24 109.27 37.1 110.89 36.96V41.1H106.05V41.11Z" fill="white" fill-opacity="0.3"/>
</g>
<defs>
<clipPath id="clip0_5803_20163">
<rect width="203" height="100" fill="white"/>
</clipPath>
</defs>
</svg>
