<svg width="203" height="100" viewBox="0 0 203 100" fill="none" xmlns="http://www.w3.org/2000/svg">
<g clip-path="url(#clip0_5803_20187)">
<path d="M36 57.39V54.69C38.48 53.74 39.09 53.01 39.03 51.04C38.98 49.29 38.26 48.51 36 47.8V45.39C38.26 44.64 39.08 43.72 39.02 42.05C38.96 40.44 38.03 39.48 36 39V36.24C36.23 36.23 36.42 36.2 36.61 36.2C40.14 36.2 43.68 36.19 47.21 36.2C48.89 36.2 50.44 36.62 51.8 37.66C54.34 39.59 54.72 44.27 51.08 46.3C51.1 46.33 51.11 46.37 51.13 46.39C53.72 47.76 54.74 49.59 54.45 52.36C54.22 54.6 52.49 56.47 49.94 57.16C49.24 57.35 48.48 57.44 47.75 57.44C44.02 57.47 40.28 57.45 36.55 57.45C36.38 57.45 36.2 57.42 35.99 57.4L36 57.39ZM42.07 54.23C43.98 54.23 45.86 54.34 47.72 54.2C49.32 54.08 50.34 52.85 50.37 51.38C50.41 49.55 49.59 48.25 47.87 48.08C45.97 47.89 44.03 48.04 42.07 48.04V54.24V54.23ZM42.07 45.15C43.58 45.15 45.04 45.15 46.49 45.15C46.71 45.15 46.93 45.14 47.15 45.1C48.74 44.84 49.66 43.86 49.72 42.35C49.78 40.88 48.97 39.59 47.52 39.44C45.74 39.25 43.92 39.4 42.07 39.4V45.16V45.15Z" fill="white" fill-opacity="0.3"/>
<path d="M137.36 44.2201C138.86 42.4101 140.66 41.4101 142.97 41.4401C146.1 41.4801 148.45 43.4501 148.6 46.5701C148.77 50.1401 148.64 53.7201 148.64 57.3501H144.64C144.63 57.1101 144.6 56.8601 144.6 56.6101C144.6 53.7701 144.6 50.9401 144.6 48.1001C144.6 46.1101 143.57 44.9201 141.79 44.8301C139.97 44.7401 138.33 46.0201 138.26 47.8501C138.14 50.7001 138.19 53.5601 138.16 56.4101C138.16 56.7101 138.16 57.0001 138.16 57.3501H134.16C134.15 57.1301 134.12 56.9001 134.12 56.6701C134.12 53.8101 134.12 50.9601 134.12 48.1001C134.12 46.1401 133.14 44.9501 131.45 44.8301C129.64 44.7001 128.04 45.8801 127.83 47.6801C127.68 48.9401 127.73 50.2301 127.71 51.5101C127.69 53.3901 127.71 55.2701 127.7 57.1401C127.7 57.2001 127.67 57.2501 127.65 57.3601H123.71V41.8701H126.91C127.06 42.4901 127.22 43.1301 127.4 43.8701C128.78 42.3001 130.44 41.4101 132.5 41.4501C134.58 41.4901 136.25 42.2901 137.37 44.2201H137.36Z" fill="white" fill-opacity="0.3"/>
<path d="M156.42 55.77V64.94H152.46V41.87H155.63C155.78 42.45 155.94 43.04 156.1 43.65C156.18 43.62 156.25 43.62 156.28 43.59C158.7 40.35 164.8 40.55 167.12 45.47C168.8 49.04 168 53.81 165.31 56.09C162.68 58.32 159.62 58.24 156.41 55.77H156.42ZM163.94 49.18C163.79 48.65 163.64 47.69 163.25 46.84C162.54 45.28 160.96 44.49 159.38 44.74C157.76 45 156.59 46.18 156.41 47.95C156.29 49.05 156.28 50.19 156.41 51.29C156.74 53.82 159.08 55.17 161.36 54.14C163.27 53.28 163.78 51.53 163.93 49.18H163.94Z" fill="white" fill-opacity="0.3"/>
<path d="M121.18 54.71C121.27 55.65 121.36 56.59 121.44 57.52C119.39 58.41 117.42 57.79 115.98 55.81C114.39 57.29 112.51 57.92 110.35 57.78C106.95 57.55 104.76 54.53 105.76 51.34C106.46 49.1 108.31 48.21 110.42 47.96C112.08 47.77 113.79 47.92 115.49 47.92C115.86 46.1 114.69 44.53 112.72 44.62C110.95 44.7 109.2 45.11 107.3 45.4C107.06 44.73 106.73 43.82 106.34 42.73C107.68 42.39 108.94 41.99 110.24 41.76C112.04 41.45 113.84 41.35 115.62 42.02C117.87 42.87 119.29 44.78 119.33 47.17C119.36 49.05 119.34 50.92 119.34 52.8C119.34 54.59 119.4 54.65 121.2 54.71H121.18ZM115.48 50.37C113.92 50.05 112.38 49.85 110.88 50.5C109.78 50.97 109.25 51.98 109.46 53.06C109.64 54.04 110.59 54.81 111.71 54.88C114.27 55.05 115.89 53.15 115.48 50.37Z" fill="white" fill-opacity="0.3"/>
<path d="M79.11 53.78C80.59 54.1 81.98 54.47 83.39 54.65C84.11 54.74 84.93 54.62 85.59 54.32C86.01 54.13 86.41 53.46 86.44 52.98C86.47 52.57 86.06 51.93 85.67 51.74C84.73 51.28 83.69 51.04 82.69 50.7C82.03 50.47 81.36 50.26 80.74 49.95C77.5 48.37 77.89 44.14 80.5 42.48C82.37 41.28 84.44 41.27 86.52 41.62C87.65 41.81 88.76 42.14 89.98 42.42C89.66 43.48 89.38 44.42 89.11 45.32C87.84 45.04 86.63 44.7 85.4 44.54C84.72 44.45 83.93 44.53 83.31 44.79C82.9 44.96 82.48 45.6 82.46 46.05C82.44 46.45 82.86 47.09 83.24 47.26C84.25 47.71 85.34 48 86.42 48.27C89.55 49.05 91.18 51.47 90.29 54.19C89.59 56.33 87.9 57.3 85.79 57.63C83.58 57.98 80.48 57.48 78.34 56.47C78.61 55.54 78.88 54.6 79.12 53.77L79.11 53.78Z" fill="white" fill-opacity="0.3"/>
<path d="M91.94 41.96H94.7V37.46H98.67V41.88H102.85V45H98.71C98.71 45.62 98.71 46.15 98.71 46.69C98.71 48.43 98.71 50.16 98.71 51.9C98.71 54.03 99.51 54.74 101.63 54.52C101.98 54.48 102.33 54.42 102.77 54.36C102.86 54.88 102.95 55.36 103.04 55.84C103.13 56.33 103.21 56.82 103.29 57.3C99.88 58.5 96.36 57.96 95.15 55.04C94.87 54.38 94.75 53.61 94.73 52.89C94.68 50.56 94.71 48.22 94.71 45.88C94.71 45.64 94.71 45.41 94.71 45.1H91.94V41.96Z" fill="white" fill-opacity="0.3"/>
<path d="M65.05 45.09V41.98H67.83V37.47H71.81V41.86H75.98V45H71.89C71.89 47.7 71.83 50.29 71.92 52.88C71.96 53.99 72.96 54.65 74.14 54.57C74.7 54.53 75.25 54.44 75.9 54.36C76.07 55.35 76.25 56.34 76.43 57.38C74.36 57.86 72.36 58.27 70.4 57.29C68.76 56.47 67.89 55.07 67.86 53.25C67.81 50.79 67.84 48.34 67.84 45.88C67.84 45.64 67.84 45.41 67.84 45.08H65.04L65.05 45.09Z" fill="white" fill-opacity="0.3"/>
<path d="M58.33 41.96H62.36V57.36H58.33V41.96Z" fill="white" fill-opacity="0.3"/>
<path d="M60.38 35.05C61.86 35.05 62.87 36.05 62.86 37.52C62.85 38.94 61.83 39.92 60.37 39.92C58.87 39.92 57.89 38.93 57.9 37.45C57.91 36.01 58.91 35.05 60.38 35.05Z" fill="white" fill-opacity="0.3"/>
</g>
<defs>
<clipPath id="clip0_5803_20187">
<rect width="203" height="100" fill="white"/>
</clipPath>
</defs>
</svg>
