<svg width="203" height="100" viewBox="0 0 203 100" fill="none" xmlns="http://www.w3.org/2000/svg">
<g clip-path="url(#clip0_5803_20206)">
<path d="M140.284 58.5538L143.225 49.1699H144.446L147.204 58.5558L149.76 49.1699C149.756 49.1836 151.395 49.1699 151.395 49.1699L148.056 60.6793L146.344 60.6871L143.697 51.9055L141.241 60.6871L139.482 60.5894L136.19 49.168H137.802L140.285 58.5518L140.284 58.5538Z" fill="white" fill-opacity="0.3"/>
<path d="M178.978 49.168C180.019 49.3322 181.308 50.3334 181.674 51.3521C182.491 53.6262 181.185 55.6696 178.883 56.1076L182 60.7028L180.088 60.6656L177.282 56.2464L174.785 56.2073V60.7047H173.225V49.168H178.976H178.978ZM178.588 50.5367H174.787V54.8386H178.588C178.672 54.8386 179.234 54.5394 179.368 54.4475C180.893 53.4072 180.421 50.8652 178.588 50.5367Z" fill="white" fill-opacity="0.3"/>
<path d="M88.8159 49.168V54.8386L93.8845 49.2657L95.8339 49.1699L90.9739 54.7154L96.2238 60.7028L94.2744 60.607L89.8881 55.6227C89.7399 55.8202 88.8159 56.616 88.8159 56.6942V60.7028H87.2563V49.166H88.8159V49.168Z" fill="white" fill-opacity="0.3"/>
<path d="M79.8464 51.5104L78.6202 51.8819C75.0605 48.2352 69.8184 51.4811 70.9744 56.4067C71.61 59.111 75.0313 60.3155 77.3784 59.111C77.7508 58.9213 78.5676 57.9749 78.7372 57.9906L79.8464 58.6573C77.4856 62.3022 71.3429 61.3538 69.7034 57.4861C67.3485 51.925 73.3021 46.8879 78.3512 49.7897C78.6807 49.9794 80.1505 51.0998 79.8464 51.5124V51.5104Z" fill="white" fill-opacity="0.3"/>
<path d="M166.404 39H135.993V40.1732H166.404V39Z" fill="white" fill-opacity="0.3"/>
<path d="M111.625 49.168V50.5367H107.921V60.7047H106.361V50.5367H102.462V49.168H111.625Z" fill="white" fill-opacity="0.3"/>
<path d="M38.13 49.168V59.336H43.7834V60.7047H36.5704V49.168H38.13Z" fill="white" fill-opacity="0.3"/>
<path d="M166.404 44.084H148.274V45.2572H166.404V44.084Z" fill="white" fill-opacity="0.3"/>
<path d="M157.242 55.6207L157.437 54.252H166.112V55.6207H157.242Z" fill="white" fill-opacity="0.3"/>
<path d="M166.209 59.5315V60.7047H155.682L155.877 59.5315H166.209Z" fill="white" fill-opacity="0.3"/>
<path d="M158.606 50.5367L158.996 49.168H166.112V50.5367H158.606Z" fill="white" fill-opacity="0.3"/>
<path d="M133.848 39H128.975V40.1732H133.848V39Z" fill="white" fill-opacity="0.3"/>
<path d="M145.935 44.084L145.933 45.4528H143.208L143.206 44.084H145.935Z" fill="white" fill-opacity="0.3"/>
<path d="M126.635 39H123.906V40.1732H126.635V39Z" fill="white" fill-opacity="0.3"/>
<path d="M62.0713 54.9618C62.0713 58.2957 59.3771 60.9981 56.0533 60.9981C52.7295 60.9981 50.0353 58.2957 50.0353 54.9618C50.0353 51.6279 52.7295 48.9255 56.0533 48.9255C59.3771 48.9255 62.0713 51.6279 62.0713 54.9618ZM55.2384 50.3921C50.4388 51.0784 50.6377 58.8882 55.2053 59.5139C62.2272 60.476 62.0479 49.4163 55.2384 50.3921Z" fill="white" fill-opacity="0.3"/>
<path d="M129.987 54.9677C129.987 58.2996 127.294 61 123.972 61C120.651 61 117.958 58.2996 117.958 54.9677C117.958 51.6357 120.651 48.9353 123.972 48.9353C127.294 48.9353 129.987 51.6357 129.987 54.9677ZM128.511 54.9677C128.511 52.4511 126.477 50.4116 123.969 50.4116C121.46 50.4116 119.426 52.4511 119.426 54.9677C119.426 57.4842 121.46 59.5237 123.969 59.5237C126.477 59.5237 128.511 57.4842 128.511 54.9677Z" fill="white" fill-opacity="0.3"/>
<path d="M26.1408 49.1681C28.6478 49.4614 29.7122 52.7093 27.6165 54.3635C27.289 54.6216 26.8621 54.5278 26.8251 54.8367C29.2677 55.5289 29.7219 58.7866 27.5951 60.2081C27.4489 60.3059 26.6048 60.7048 26.5307 60.7048H20V49.1681C20 49.1681 25.6183 49.1074 26.1408 49.1681ZM21.5596 54.252H25.1661C25.2986 54.252 26.2441 53.8747 26.4254 53.7554C27.2305 53.2313 27.2793 51.6455 26.6184 51.0335C26.5385 50.9611 25.7996 50.5368 25.749 50.5368H21.5596V54.252ZM21.5596 59.336H25.9458C26.7315 59.336 27.4508 58.0162 27.404 57.2946C27.3436 56.3893 26.2168 55.4253 25.361 55.4253H21.5596V59.336Z" fill="white" fill-opacity="0.3"/>
</g>
<defs>
<clipPath id="clip0_5803_20206">
<rect width="162" height="22" fill="white" transform="translate(20 39)"/>
</clipPath>
</defs>
</svg>
