<svg width="203" height="100" viewBox="0 0 203 100" fill="none" xmlns="http://www.w3.org/2000/svg">
<g clip-path="url(#clip0_5803_20236)">
<path d="M44.6112 45.1687C41.2564 42.4589 37.7066 41.2042 33.1967 40.5709C29.1443 40.0052 26.6971 39.1952 23.143 36.735L21 39.9313C24.1802 42.2993 27.1621 43.4672 31.2027 44.1733C34.0592 44.6694 36.2976 44.7004 39.2666 46.2809C38.6816 47.0416 38.148 48.1549 37.8255 48.9167C36.3415 48.0381 34.1525 47.3652 31.2305 47.3342V51.1401C32.6524 51.2001 33.9264 51.3758 35.644 52.1226C36.9361 52.6945 38.1335 53.4602 39.1949 54.3931C40.8685 48.5064 44.6112 45.1687 44.6112 45.1687ZM62.1653 44.2611C66.5102 43.6461 69.6325 42.2993 72.8126 39.9281L70.6697 36.7318C67.1166 39.1962 64.6694 40.002 60.617 40.5677C56.1072 41.1978 52.4041 42.551 49.045 45.2608C43.8226 49.3828 41.3678 55.4399 41.3678 61.557V63.4685H52.0559V61.5602C52.0141 55.9446 56.2464 53.2123 56.2464 53.2123C57.7615 52.1901 60.0331 51.0415 62.5757 51.1401V47.3342C59.7138 47.3063 56.7575 48.2138 53.9792 50.1425C50.9062 52.4258 48.9904 55.8514 48.4782 59.6455H45.3366C47.066 45.8416 59.7534 44.6019 62.1653 44.2611ZM96.3821 49.4214C98.6172 48.1356 99.7508 46.253 99.7508 43.8133C99.7585 42.907 99.5644 42.0104 99.1827 41.1885C98.8009 40.3666 98.241 39.6399 97.5436 39.0612C96.0435 37.799 93.9348 37.1326 91.4479 37.1326H81.5977V63.6228H92.0522C94.8263 63.6228 97.1535 62.8964 98.7843 61.5238C100.415 60.1512 101.261 58.2226 101.261 55.9232C101.261 52.4441 98.75 50.1296 96.3821 49.4214ZM85.3019 40.3834H91.7875C94.6977 40.3834 96.2363 41.7646 96.2363 44.379C96.2363 46.9934 94.6977 48.3746 91.7875 48.3746H85.3019V40.3834ZM93.0326 60.2198H85.3019V51.6254H93.0326C96.0328 51.6254 97.7471 53.192 97.7471 55.9232C97.7471 58.6544 96.0274 60.2198 93.0326 60.2198ZM117.62 57.3815C116.029 59.6991 114.034 60.9752 112.002 60.9752C109.547 60.9752 108.195 59.6091 108.195 57.1296V44.6769H104.797V57.734C104.797 59.6412 105.354 61.2216 106.405 62.3038C107.485 63.4128 109.094 64 111.06 64C113.916 64 116.359 62.5256 117.621 61.2313V63.6228H121.023V44.6769H117.62V57.3815ZM125.549 63.6228H128.871V36H125.549V63.6228ZM156.76 52.3723C153.575 51.5237 151.848 50.7908 151.848 49.356C151.848 48.3403 152.84 47.2474 155.015 47.2474C157.158 47.2474 158.531 48.3617 158.784 50.3054V50.3407H162.148V50.2957C161.814 46.4845 159.215 44.2954 155.015 44.2954C153.216 44.2954 151.572 44.8365 150.386 45.8191C149.233 46.7727 148.598 48.0553 148.598 49.43C148.598 52.278 150.265 53.9152 154.169 54.902C157.829 55.8353 159.572 56.5757 159.572 58.2579C159.572 59.5276 158.393 60.8948 155.802 60.8948C153.135 60.8948 151.693 59.9037 151.126 57.6804L151.118 57.6493H147.911V57.6943C148.29 61.6395 151.211 63.9946 155.724 63.9946C157.816 63.9946 159.615 63.3839 160.928 62.2299C161.554 61.6829 162.053 61.0071 162.393 60.2487C162.732 59.4904 162.903 58.6676 162.894 57.8368C162.899 55.1238 161.122 53.5359 156.757 52.3744L156.76 52.3723ZM176.894 44.2976C174.064 44.2976 171.465 45.6766 170.107 47.0663V36H166.705V63.6228H170.107V50.6922C171.567 48.6456 173.857 47.3245 175.95 47.3245C178.476 47.3245 179.985 48.7614 179.985 51.169V63.6228H183.387V50.5657C183.383 46.7009 180.895 44.2997 176.891 44.2997L176.894 44.2976ZM143.055 37.2804C142.599 37.2804 142.153 37.4156 141.774 37.6688C141.395 37.9221 141.1 38.2821 140.925 38.7032C140.751 39.1243 140.705 39.5877 140.794 40.0348C140.883 40.4819 141.103 40.8926 141.425 41.2149C141.747 41.5372 142.158 41.7567 142.605 41.8457C143.052 41.9346 143.516 41.8889 143.937 41.7145C144.358 41.5401 144.718 41.2447 144.971 40.8656C145.224 40.4866 145.36 40.041 145.36 39.5852C145.358 38.9739 145.115 38.3881 144.682 37.9563C144.249 37.5246 143.663 37.2823 143.052 37.2826L143.055 37.2804ZM133.392 63.6228H136.714V36H133.392V63.6228ZM141.351 63.6228H144.753V44.6769H141.351V63.6228Z" fill="white" fill-opacity="0.3"/>
</g>
<defs>
<clipPath id="clip0_5803_20236">
<rect width="203" height="100" fill="white"/>
</clipPath>
</defs>
</svg>
