<svg width="203" height="100" viewBox="0 0 203 100" fill="none" xmlns="http://www.w3.org/2000/svg">
<g clip-path="url(#clip0_5803_20248)">
<g clip-path="url(#clip1_5803_20248)">
<path d="M123.951 59.8319V33.5293H129.238V59.8319H123.951Z" fill="white" fill-opacity="0.3"/>
<path d="M62.3342 67.6451H51V41.3425H61.8784C67.1654 41.3425 70.246 44.2239 70.246 48.7311C70.246 51.6486 68.2675 53.534 66.8981 54.1618C68.5327 54.9003 70.6251 56.5623 70.6251 60.0735C70.6251 64.9851 67.1654 67.6451 62.3342 67.6451ZM61.46 45.9242H56.2869V51.9826H61.46C63.7036 51.9826 64.9591 50.7633 64.9591 48.9524C64.9591 47.1435 63.7036 45.9242 61.46 45.9242ZM61.8018 56.6005H56.2869V63.0655H61.8018C64.1987 63.0655 65.3381 61.5886 65.3381 59.8139C65.3381 58.0412 64.1966 56.6005 61.8018 56.6005Z" fill="white" fill-opacity="0.3"/>
<path d="M86.7509 56.858V67.6451H81.5012V56.858L73.3616 41.3425H79.1043L84.1633 51.9444L89.1458 41.3425H94.8885L86.7509 56.858Z" fill="white" fill-opacity="0.3"/>
<path d="M109.877 67.6451H98.543V41.3425H109.421C114.708 41.3425 117.789 44.2239 117.789 48.7311C117.789 51.6486 115.811 53.534 114.441 54.1618C116.076 54.9003 118.168 56.5623 118.168 60.0735C118.168 64.9851 114.708 67.6451 109.877 67.6451ZM109.003 45.9242H103.83V51.9826H109.003C111.247 51.9826 112.502 50.7633 112.502 48.9524C112.502 47.1435 111.247 45.9242 109.003 45.9242ZM109.345 56.6005H103.83V63.0655H109.345C111.742 63.0655 112.881 61.5886 112.881 59.8139C112.881 58.0412 111.742 56.6005 109.345 56.6005Z" fill="white" fill-opacity="0.3"/>
<path d="M146.278 45.9242V67.6471H140.991V45.9242H133.916V41.3425H153.352V45.9242H146.278Z" fill="white" fill-opacity="0.3"/>
</g>
</g>
<defs>
<clipPath id="clip0_5803_20248">
<rect width="203" height="100" fill="white"/>
</clipPath>
<clipPath id="clip1_5803_20248">
<rect width="102.353" height="40" fill="white" transform="translate(51 30)"/>
</clipPath>
</defs>
</svg>
