<svg width="316" height="24" viewBox="0 0 316 24" fill="none" xmlns="http://www.w3.org/2000/svg">
<path d="M18.0758 24C17.3916 24 16.7207 23.9429 16.0671 23.8335C15.3762 23.7184 14.7045 23.5443 14.0585 23.3169C13.3571 23.0705 12.6853 22.7603 12.0498 22.3949C11.3303 21.9801 10.6576 21.4929 10.0412 20.944C9.2787 20.2647 8.60309 19.4902 8.03452 18.6387V23.3169C7.33313 23.0705 6.6613 22.7603 6.02584 22.3949C5.30631 21.9801 4.6336 21.4929 4.01726 20.944C3.25375 20.2637 2.57811 19.4874 2.00858 18.6349C0.739574 16.7349 0 14.4542 0 12.0005C2.18809e-06 9.54673 0.739595 7.26615 2.00858 5.36614C2.57811 4.51365 3.25375 3.73723 4.01726 3.05696C4.63264 2.50799 5.30535 2.02084 6.02584 1.60601C6.6613 1.24066 7.33313 0.931497 8.03452 0.684124V5.36131C8.60404 4.51074 9.2787 3.73535 10.0412 3.05603C10.6566 2.50706 11.3293 2.01991 12.0498 1.60509C12.6853 1.23973 13.3571 0.930476 14.0585 0.683102C14.7045 0.455716 15.3753 0.281624 16.0671 0.166501C16.7207 0.0580377 17.3916 0 18.0758 0V24Z" fill="#0E171B"/>
<path d="M35.1331 1.0371C39.0013 1.03711 42.4739 2.978 44.3019 6.04163L40.6774 8.13479C39.6109 6.22431 37.5699 5.10162 35.1331 5.10162C33.0614 5.10162 31.3863 5.73807 30.1067 7.04249C28.8578 8.3469 28.2185 10.0148 28.2185 12.0775C28.2185 14.1402 28.8578 15.7777 30.1067 17.0821C31.3863 18.3865 33.0614 19.023 35.1331 19.023C37.5699 19.023 39.6721 17.8708 40.6774 16.0203L44.3019 18.1134C42.4739 21.1771 39.0319 23.118 35.1331 23.118C31.9348 23.118 29.285 22.0562 27.1827 19.9335V19.9317C25.0804 17.809 24.0455 15.2001 24.0455 12.0766C24.0455 8.953 25.0814 6.31374 27.1827 4.22154C29.285 2.09888 31.9348 1.0371 35.1331 1.0371Z" fill="#0E171B"/>
<path d="M99.148 1.0371C103.016 1.03711 106.489 2.97801 108.317 6.04163L104.692 8.13479C103.626 6.22431 101.586 5.10163 99.148 5.10162C97.0763 5.10162 95.4011 5.73807 94.1216 7.04249C92.8727 8.3469 92.2334 10.0148 92.2334 12.0775C92.2334 14.1402 92.8727 15.7777 94.1216 17.0821C95.4011 18.3865 97.0763 19.023 99.148 19.023C101.585 19.023 103.687 17.8708 104.692 16.0203L108.317 18.1134C106.489 21.1771 103.047 23.118 99.148 23.118C95.9497 23.118 93.2998 22.0562 91.1976 19.9335V19.9317C89.0953 17.809 88.0604 15.2001 88.0604 12.0766C88.0604 8.95301 89.0963 6.31374 91.1976 4.22154C93.2998 2.09888 95.9497 1.0371 99.148 1.0371Z" fill="#0E171B"/>
<path fill-rule="evenodd" clip-rule="evenodd" d="M53.5987 7.10252C55.8529 7.10252 57.7717 7.89119 59.3254 9.43725C60.8792 10.9843 61.6714 12.8644 61.6714 15.1088C61.6714 17.3532 60.8792 19.2637 59.3254 20.8107C57.7717 22.3578 55.8529 23.1161 53.5987 23.1161C51.3445 23.1161 49.4257 22.3578 47.8719 20.8107C46.3182 19.2637 45.5565 17.3532 45.5565 15.1088C45.5565 12.8644 46.3182 10.9843 47.8719 9.43725C49.4257 7.89024 51.3445 7.10252 53.5987 7.10252ZM53.5987 10.9234C52.4109 10.9234 51.4362 11.3174 50.644 12.1061C49.8824 12.8948 49.4868 13.8957 49.4868 15.1088C49.4868 16.3219 49.8824 17.3228 50.644 18.1116C51.4362 18.9003 52.4109 19.2942 53.5987 19.2942C54.7865 19.2942 55.7612 18.9003 56.5533 18.1116C57.3455 17.3228 57.7411 16.3219 57.7411 15.1088C57.7411 13.8957 57.3455 12.8948 56.5533 12.1061C55.7612 11.3174 54.7865 10.9234 53.5987 10.9234Z" fill="#0E171B"/>
<path fill-rule="evenodd" clip-rule="evenodd" d="M117.614 7.10252C119.868 7.10252 121.787 7.89119 123.34 9.43725C124.894 10.9843 125.685 12.8644 125.685 15.1088C125.685 17.3532 124.893 19.2637 123.34 20.8107C121.787 22.3578 119.868 23.1161 117.614 23.1161C115.359 23.1161 113.441 22.3578 111.887 20.8107C110.333 19.2637 109.571 17.3532 109.571 15.1088C109.571 12.8644 110.333 10.9843 111.887 9.43725C113.441 7.89024 115.359 7.10252 117.614 7.10252ZM117.614 10.9234C116.426 10.9234 115.451 11.3174 114.659 12.1061C113.897 12.8948 113.502 13.8957 113.502 15.1088C113.502 16.3219 113.897 17.3228 114.659 18.1116C115.451 18.9003 116.426 19.2942 117.614 19.2942C118.801 19.2942 119.776 18.9003 120.568 18.1116C121.36 17.3228 121.756 16.3219 121.756 15.1088C121.756 13.8957 121.36 12.8948 120.568 12.1061C119.776 11.3174 118.801 10.9234 117.614 10.9234Z" fill="#0E171B"/>
<path fill-rule="evenodd" clip-rule="evenodd" d="M149.74 7.10159C151.964 7.10159 153.823 7.85984 155.254 9.40687C156.716 10.9539 157.447 12.8339 157.447 15.1088C157.447 15.6245 157.386 16.1402 157.295 16.7168H145.811C146.329 18.6273 147.76 19.5673 150.106 19.5673C151.599 19.5673 152.756 19.0515 153.518 18.0506L156.686 19.8708C155.193 22.0239 152.969 23.1161 150.045 23.1161C147.517 23.1161 145.506 22.3578 143.983 20.8412C142.46 19.3246 141.698 17.4141 141.698 15.1088C141.698 12.8035 142.46 10.9235 143.952 9.40687C145.445 7.85983 147.395 7.10159 149.74 7.10159ZM149.74 10.62C147.638 10.62 146.207 11.7417 145.75 13.6836H153.518C153.061 11.6209 151.538 10.62 149.74 10.62Z" fill="#0E171B"/>
<path d="M67.9464 22.6918H64.017V7.52676H67.9464V22.6918Z" fill="#0E171B"/>
<path d="M79.6695 7.10252C81.3446 7.10252 82.7159 7.64858 83.7814 8.77032C84.8784 9.89206 85.4259 11.4087 85.4259 13.38V22.6908H81.4966V13.8652C81.4966 11.833 80.3087 10.7418 78.4807 10.7418C76.4396 10.7418 75.1305 11.9852 75.1305 14.5027V22.6918H71.2011V7.52685H74.4616L75.1305 9.22513C76.0746 7.79988 77.5978 7.10252 79.6695 7.10252Z" fill="#0E171B"/>
<path d="M133.654 18.3323L137.37 7.52685H141.696L135.908 22.6918H131.43L125.642 7.52685H129.968L133.654 18.3323Z" fill="#0E171B"/>
<path d="M168.373 11.5904C167.185 11.4392 166.088 11.6817 165.144 12.3182C164.2 12.9547 163.743 13.9861 163.743 15.4418V22.6908H159.814V7.52685H163.17L163.743 10.1347C164.474 8.19376 166.302 7.2233 168.373 7.2233V11.5904Z" fill="#0E171B"/>
<path d="M65.9664 0.884818C67.2755 0.884818 68.4031 2.00656 68.4031 3.31098C68.4031 4.6154 67.3061 5.70667 65.9664 5.70667C64.6266 5.70666 63.5602 4.61444 63.5602 3.31098C63.5602 2.00657 64.6572 0.884835 65.9664 0.884818Z" fill="#0E171B"/>
<path d="M185.077 0V24H183.741V0H185.077Z" fill="#0E171B" fill-opacity="0.3"/>
<path d="M202.666 1.29999H213.113C215.035 1.29999 216.564 1.75465 217.701 2.66399C218.838 3.55266 219.406 4.92699 219.406 6.78699C219.406 7.71699 219.22 8.54366 218.848 9.26699C218.497 9.99032 218.001 10.5897 217.36 11.065C216.699 11.5403 215.934 11.8813 215.066 12.088C215.913 12.2327 216.616 12.5013 217.174 12.894C217.732 13.2867 218.156 13.824 218.445 14.506C218.734 15.1673 218.91 16.0147 218.972 17.048C218.993 17.296 219.003 17.5337 219.003 17.761C219.024 17.9883 219.044 18.2157 219.065 18.443C219.148 19.5797 219.23 20.5097 219.313 21.233C219.396 21.9357 219.52 22.5247 219.685 23H217.236C217.112 22.566 217.009 22.0287 216.926 21.388C216.864 20.7267 216.812 19.8897 216.771 18.877C216.75 18.505 216.73 18.226 216.709 18.04C216.688 17.8333 216.668 17.544 216.647 17.172C216.585 16.304 216.42 15.5807 216.151 15.002C215.882 14.4027 215.438 13.948 214.818 13.638C214.219 13.3073 213.413 13.142 212.4 13.142H205.022V23H202.666V1.29999ZM205.022 11.158H212.4C213.805 11.158 214.921 10.8273 215.748 10.166C216.595 9.48399 217.019 8.45066 217.019 7.06599C217.019 5.74332 216.626 4.79266 215.841 4.21399C215.056 3.61465 213.96 3.31499 212.555 3.31499H205.022V11.158Z" fill="#0E171B"/>
<path d="M221.997 14.971C221.997 13.297 222.307 11.84 222.927 10.6C223.568 9.33932 224.457 8.37832 225.593 7.71699C226.73 7.03499 228.042 6.69399 229.53 6.69399C230.936 6.69399 232.176 6.99366 233.25 7.59299C234.325 8.19232 235.152 9.07065 235.73 10.228C236.33 11.3853 236.629 12.739 236.629 14.289V15.405H224.353C224.395 16.6243 224.591 17.6577 224.942 18.505C225.335 19.4763 225.924 20.21 226.709 20.706C227.495 21.1813 228.466 21.419 229.623 21.419C230.987 21.419 232.062 21.0987 232.847 20.458C233.653 19.8173 234.17 18.8873 234.397 17.668L236.536 18.009C236.309 19.063 235.885 19.993 235.265 20.799C234.666 21.605 233.881 22.225 232.909 22.659C231.938 23.093 230.822 23.31 229.561 23.31C227.991 23.31 226.637 22.9793 225.5 22.318C224.364 21.6567 223.496 20.706 222.896 19.466C222.297 18.226 221.997 16.7277 221.997 14.971ZM224.415 13.576H234.366C234.304 12.708 234.139 11.9433 233.87 11.282C233.498 10.3933 232.94 9.72166 232.196 9.26699C231.473 8.79166 230.574 8.55399 229.499 8.55399C228.404 8.55399 227.464 8.81232 226.678 9.32899C225.914 9.82499 225.335 10.5483 224.942 11.499C224.694 12.119 224.519 12.8113 224.415 13.576Z" fill="#0E171B"/>
<path d="M246.687 23.31C245.117 23.31 243.742 22.9793 242.564 22.318C241.386 21.6567 240.477 20.706 239.836 19.466C239.196 18.2053 238.875 16.707 238.875 14.971C238.875 13.2557 239.196 11.778 239.836 10.538C240.477 9.27732 241.366 8.31632 242.502 7.65499C243.66 6.99366 244.993 6.67332 246.501 6.69399C247.824 6.69399 248.971 6.94199 249.942 7.43799C250.934 7.93399 251.699 8.63666 252.236 9.54599C252.794 10.4347 253.125 11.4577 253.228 12.615L251.089 12.925C250.965 11.561 250.521 10.4967 249.756 9.73199C248.992 8.94665 247.917 8.55399 246.532 8.55399C245.416 8.57465 244.466 8.83299 243.68 9.32899C242.895 9.80432 242.296 10.5173 241.882 11.468C241.469 12.4187 241.262 13.5863 241.262 14.971C241.262 16.335 241.469 17.5027 241.882 18.474C242.296 19.4247 242.916 20.1583 243.742 20.675C244.569 21.171 245.571 21.419 246.749 21.419C247.617 21.419 248.372 21.264 249.012 20.954C249.653 20.644 250.159 20.1997 250.531 19.621C250.924 19.0217 251.182 18.3087 251.306 17.482L253.414 17.854C253.249 18.9287 252.877 19.8793 252.298 20.706C251.74 21.512 250.986 22.1527 250.035 22.628C249.085 23.0827 247.969 23.31 246.687 23.31Z" fill="#0E171B"/>
<path d="M263.019 23.248C261.531 23.248 260.198 22.9173 259.02 22.256C257.842 21.5947 256.922 20.644 256.261 19.404C255.6 18.1433 255.269 16.6657 255.269 14.971C255.269 13.2557 255.6 11.778 256.261 10.538C256.922 9.27732 257.842 8.31632 259.02 7.65499C260.198 6.99366 261.531 6.66299 263.019 6.66299C264.486 6.66299 265.809 6.99366 266.987 7.65499C268.165 8.31632 269.085 9.27732 269.746 10.538C270.407 11.778 270.738 13.2557 270.738 14.971C270.738 16.6657 270.407 18.1433 269.746 19.404C269.085 20.644 268.165 21.5947 266.987 22.256C265.809 22.9173 264.486 23.248 263.019 23.248ZM263.019 21.357C264.114 21.357 265.065 21.109 265.871 20.613C266.677 20.0963 267.297 19.3627 267.731 18.412C268.165 17.4407 268.382 16.2937 268.382 14.971C268.382 13.6277 268.165 12.4807 267.731 11.53C267.297 10.5587 266.677 9.82499 265.871 9.32899C265.065 8.83299 264.114 8.57465 263.019 8.55399C261.924 8.55399 260.973 8.80199 260.167 9.29799C259.361 9.79399 258.741 10.5277 258.307 11.499C257.873 12.4703 257.656 13.6277 257.656 14.971C257.656 16.2937 257.873 17.4407 258.307 18.412C258.741 19.3833 259.361 20.1273 260.167 20.644C260.973 21.14 261.924 21.3777 263.019 21.357Z" fill="#0E171B"/>
<path d="M271.928 7.06599H274.408L279.616 21.419L284.731 7.06599H287.211L281.135 23H278.004L271.928 7.06599Z" fill="#0E171B"/>
<path d="M288.178 14.971C288.178 13.297 288.488 11.84 289.108 10.6C289.748 9.33932 290.637 8.37832 291.774 7.71699C292.91 7.03499 294.223 6.69399 295.711 6.69399C297.116 6.69399 298.356 6.99366 299.431 7.59299C300.505 8.19232 301.332 9.07065 301.911 10.228C302.51 11.3853 302.81 12.739 302.81 14.289V15.405H290.534C290.575 16.6243 290.771 17.6577 291.123 18.505C291.515 19.4763 292.104 20.21 292.89 20.706C293.675 21.1813 294.646 21.419 295.804 21.419C297.168 21.419 298.242 21.0987 299.028 20.458C299.834 19.8173 300.35 18.8873 300.578 17.668L302.717 18.009C302.489 19.063 302.066 19.993 301.446 20.799C300.846 21.605 300.061 22.225 299.09 22.659C298.118 23.093 297.002 23.31 295.742 23.31C294.171 23.31 292.817 22.9793 291.681 22.318C290.544 21.6567 289.676 20.706 289.077 19.466C288.477 18.226 288.178 16.7277 288.178 14.971ZM290.596 13.576H300.547C300.485 12.708 300.319 11.9433 300.051 11.282C299.679 10.3933 299.121 9.72166 298.377 9.26699C297.653 8.79166 296.754 8.55399 295.68 8.55399C294.584 8.55399 293.644 8.81232 292.859 9.32899C292.094 9.82499 291.515 10.5483 291.123 11.499C290.875 12.119 290.699 12.8113 290.596 13.576Z" fill="#0E171B"/>
<path d="M305.893 7.06599H315.41V8.86399H308.156V23H305.893V7.06599Z" fill="#0E171B"/>
</svg>
