<svg width="203" height="100" viewBox="0 0 203 100" fill="none" xmlns="http://www.w3.org/2000/svg">
<g clip-path="url(#clip0_5803_20257)">
<path d="M190 40.7925H187.626V59.9434H190V40.7925Z" fill="white" fill-opacity="0.3"/>
<path d="M58.635 59.9435L59.8801 41.8412C60.0001 41.6682 62.1618 41.6669 62.5338 41.7104C62.7237 41.7329 62.8793 41.725 62.9743 41.9297L68.13 56.6429L73.407 41.7184H76.4405L77.6276 59.9448H75.2535L74.3962 44.0944L68.5982 59.822L66.9588 59.7969L61.6699 44.0957L60.8772 59.9448H58.635V59.9435Z" fill="white" fill-opacity="0.3"/>
<path d="M133.022 59.151C126.454 61.3434 118.217 59.9672 117.718 51.694C117.207 43.257 125.403 39.8653 132.496 42.3787L131.967 44.2264C128.314 43.0074 123.446 43.0959 121.263 46.7794C119.502 49.7498 119.933 54.3896 122.667 56.6442C124.803 58.4061 128.237 58.5104 130.763 57.6796L130.713 52.4151L130.457 52.2038L126.957 52.283V50.434H133.024V59.151H133.022Z" fill="white" fill-opacity="0.3"/>
<path d="M160.852 40.7925V48.9812C161.972 47.3329 163.792 46.481 165.796 46.6064C172.619 47.0344 173.018 58.55 166.397 60.0147C163.801 60.5893 162.5 59.8932 160.828 58.0534C160.711 57.9253 160.711 57.7695 160.457 57.8315L160.324 59.9434H158.346L158.478 40.7925H160.852ZM163.851 48.4846C162.396 48.7302 161.007 50.3798 160.852 51.8208C160.588 54.2576 160.589 57.1553 163.288 58.0996C169.933 60.4268 170.807 47.3117 163.851 48.4846Z" fill="white" fill-opacity="0.3"/>
<path d="M109.942 42.2467L109.408 44.0892C108.435 43.9016 107.578 43.5344 106.561 43.4512C100.83 42.9758 97.8268 46.6633 98.3359 52.2158C98.8437 57.7471 104.917 59.4007 109.411 57.4341L109.797 59.406C108.854 59.6265 107.924 59.9395 106.955 60.0584C99.1879 61.0133 93.9861 55.5731 96.2203 47.8559C97.9257 41.9693 104.668 40.3567 109.94 42.2467H109.942Z" fill="white" fill-opacity="0.3"/>
<path d="M94.3739 42.2545L93.8424 44.0891C89.726 42.623 84.5756 43.4643 83.1749 48.1306C82.1884 51.4153 82.9204 55.6945 86.1953 57.3732C88.6696 58.6411 91.4077 58.2489 93.9822 57.5647L94.3238 59.2896C94.1761 59.4798 92.7556 59.8483 92.4298 59.9077C84.3989 61.3672 78.2434 56.0775 80.7257 47.7911C82.4614 41.993 89.1589 40.3447 94.3739 42.2559V42.2545Z" fill="white" fill-opacity="0.3"/>
<path d="M55.4642 44.0904C49.62 42.0551 44.0463 44.727 44.3852 51.4298C44.6991 57.64 50.3982 59.4626 55.6001 57.4339L55.9377 59.2896C55.8137 59.5036 54.3735 59.8509 54.049 59.9077C49.016 60.79 43.8128 59.4402 42.3185 54.029C40.2003 46.3607 45.7147 40.6234 53.4093 41.6021C53.8419 41.6575 55.604 41.9811 55.8691 42.1805C56.1725 42.4104 55.4932 43.7192 55.4642 44.0904Z" fill="white" fill-opacity="0.3"/>
<path d="M148.296 46.6435C156.886 45.9527 157.768 58.6016 150.068 60.0412C140.65 61.8031 139.315 47.3659 148.296 46.6435ZM148.293 48.3591C142.81 49.0103 143.929 59.9105 149.778 58.2991C154.396 57.0273 153.756 47.7106 148.293 48.3591Z" fill="white" fill-opacity="0.3"/>
<path d="M183.801 59.9434H181.691L181.426 58.2264C179.892 59.917 177.828 60.6592 175.593 59.9077C172.586 58.896 172.465 54.7145 174.973 53.0187C176.867 51.7389 179.102 51.9158 181.237 51.4945C181.435 47.7053 177.171 47.7211 174.765 49.2426L174.162 47.7462C175.439 46.9128 177.332 46.5298 178.862 46.5972C185.886 46.9089 182.953 55.4132 183.801 59.9434ZM181.295 53.2075C179.528 53.1138 175.947 53.4255 175.636 55.6628C175.235 58.5434 178.126 59.1998 180.098 57.7536C180.481 57.4723 181.295 56.5002 181.295 56.0472V53.2075Z" fill="white" fill-opacity="0.3"/>
<path d="M139.09 40.7925H136.715V59.9434H139.09V40.7925Z" fill="white" fill-opacity="0.3"/>
<path d="M19.0671 47.3962H13V53.3396H19.0671V47.3962Z" fill="white" fill-opacity="0.3"/>
<path d="M19.0671 55.0566H13V61H19.0671V55.0566Z" fill="white" fill-opacity="0.3"/>
<path d="M34.6304 55.0566H28.4314V61H34.6304V55.0566Z" fill="white" fill-opacity="0.3"/>
<path d="M34.6304 40H28.4314V45.9434H34.6304V40Z" fill="white" fill-opacity="0.3"/>
<path d="M34.6304 47.3962H28.4314V53.3396H34.6304V47.3962Z" fill="white" fill-opacity="0.3"/>
<path d="M26.9806 47.3962H20.9136V53.3396H26.9806V47.3962Z" fill="white" fill-opacity="0.3"/>
<path d="M26.9806 55.0566H20.9136V61H26.9806V55.0566Z" fill="white" fill-opacity="0.3"/>
</g>
<defs>
<clipPath id="clip0_5803_20257">
<rect width="177" height="21" fill="white" transform="translate(13 40)"/>
</clipPath>
</defs>
</svg>
