<svg width="203" height="100" viewBox="0 0 203 100" fill="none" xmlns="http://www.w3.org/2000/svg">
<g clip-path="url(#clip0_5803_20286)">
<path d="M113.45 64.41C113.17 64.38 112.88 64.35 112.6 64.32C110.4 64.08 108.45 63.25 106.76 61.83C104.66 60.06 103.4 57.8 102.96 55.09C102.86 54.48 102.82 53.85 102.82 53.23C102.81 48.19 102.82 43.15 102.82 38.11C102.82 36.75 103.78 35.7 105.14 35.58C106.35 35.47 107.56 36.45 107.71 37.66C107.73 37.85 107.74 38.03 107.74 38.22C107.74 40.07 107.74 41.91 107.74 43.76V44.08C111.03 42.08 114.46 41.66 118 43.13C121.54 44.6 123.66 47.32 124.57 51.06C124.65 50.98 124.73 50.93 124.79 50.86C126.55 49.1 128.31 47.34 130.06 45.58C131.66 43.97 133.57 42.89 135.8 42.49C139.71 41.8 143.09 42.88 145.86 45.73C147.52 47.44 148.45 49.51 148.78 51.87C148.82 52.19 148.85 52.51 148.89 52.83V53.87C148.87 53.94 148.85 54.01 148.84 54.09C148.78 54.57 148.74 55.05 148.65 55.52C147.56 61.25 142.05 65.18 136.27 64.25C132.26 63.61 129.43 61.35 127.76 57.64C127.68 57.46 127.71 57.35 127.85 57.21C129.11 55.95 130.37 54.69 131.63 53.43C131.68 53.38 131.74 53.33 131.8 53.27C131.83 53.6 131.84 53.91 131.88 54.21C132.3 57.15 134.78 59.37 137.74 59.42C139.8 59.46 141.5 58.65 142.7 57C144.25 54.87 144.36 52.59 143.09 50.29C141.76 47.89 138.76 46.73 136.14 47.55C135.11 47.87 134.24 48.43 133.48 49.19C129.58 53.11 125.67 57.02 121.77 60.94C121.43 61.28 121.08 61.62 120.71 61.92C119.04 63.28 117.13 64.09 114.98 64.33C114.71 64.36 114.43 64.39 114.16 64.42H113.44L113.45 64.41ZM107.75 53.37C107.75 56.72 110.46 59.45 113.8 59.46C117.15 59.46 119.87 56.73 119.87 53.37C119.87 50.02 117.16 47.29 113.82 47.28C110.47 47.28 107.75 50.01 107.75 53.37Z" fill="white" fill-opacity="0.3"/>
<path d="M89.7199 64.41C89.3399 64.36 88.9599 64.33 88.5799 64.27C85.8799 63.86 83.6299 62.61 81.8399 60.55C81.0699 59.67 80.4799 58.68 80.0299 57.61C79.9799 57.48 79.9499 57.39 80.0699 57.27C81.3799 55.97 82.6799 54.66 83.9899 53.35C84.0099 53.33 84.0399 53.31 84.0799 53.28C84.0999 53.56 84.1099 53.83 84.1399 54.09C84.4599 56.84 86.6099 59.03 89.3599 59.39C92.5999 59.82 95.6299 57.55 96.1199 54.33C96.6199 51.03 94.4899 48 91.1999 47.41C89.0799 47.03 87.2499 47.69 85.7399 49.21C81.7999 53.16 77.8699 57.11 73.9399 61.06C72.4699 62.54 70.7399 63.55 68.7199 64.07C63.7799 65.34 58.4699 62.88 56.2299 58.3C55.4299 56.67 55.0399 54.95 55.0799 53.14C55.1899 48.37 58.2899 44.2 62.8699 42.87C67.0199 41.66 70.7099 42.63 73.8399 45.63C74.5599 46.32 74.7799 47.18 74.4999 48.13C74.2199 49.06 73.5699 49.65 72.6199 49.84C71.7799 50.01 71.0399 49.78 70.4299 49.17C69.6699 48.41 68.7899 47.86 67.7599 47.55C64.2599 46.51 60.5899 48.85 60.0599 52.46C59.5799 55.76 61.7199 58.8 64.9999 59.37C66.9699 59.72 68.7399 59.21 70.1799 57.82C71.9299 56.14 73.6099 54.39 75.3299 52.67C77.7699 50.22 80.1999 47.74 82.6699 45.32C84.3299 43.69 86.3699 42.75 88.6799 42.44C94.2599 41.68 99.3899 45.22 100.77 50.53C102.31 56.48 98.8999 62.36 93.1599 63.99C92.4199 64.2 91.6399 64.26 90.8799 64.39C90.7899 64.4 90.6999 64.42 90.6199 64.44H89.7199V64.41Z" fill="white" fill-opacity="0.3"/>
</g>
<defs>
<clipPath id="clip0_5803_20286">
<rect width="203" height="100" fill="white"/>
</clipPath>
</defs>
</svg>
