<svg width="203" height="100" viewBox="0 0 203 100" fill="none" xmlns="http://www.w3.org/2000/svg">
<g clip-path="url(#clip0_5804_20392)">
<mask id="mask0_5804_20392" style="mask-type:luminance" maskUnits="userSpaceOnUse" x="0" y="0" width="203" height="100">
<path d="M203 0H0V100H203V0Z" fill="white"/>
</mask>
<g mask="url(#mask0_5804_20392)">
<mask id="mask1_5804_20392" style="mask-type:luminance" maskUnits="userSpaceOnUse" x="35" y="32" width="134" height="36">
<path d="M168.47 32H35.53V68H168.47V32Z" fill="white"/>
</mask>
<g mask="url(#mask1_5804_20392)">
<path d="M53.522 66C62.3546 66 69.5148 58.8366 69.5148 50C69.5148 41.1634 62.3546 34 53.522 34C44.6894 34 37.5292 41.1634 37.5292 50C37.5292 58.8366 44.6894 66 53.522 66Z" fill="white" fill-opacity="0.1"/>
<path d="M95.3448 43.1748C91.1864 43.1748 87.8163 46.546 87.8163 50.7034C87.8163 54.8608 91.1874 58.2319 95.3448 58.2319C99.5022 58.2319 102.873 54.8608 102.873 50.7034C102.873 46.546 99.5022 43.1748 95.3448 43.1748ZM94.7616 56.3495C88.2989 55.7611 88.391 45.2227 95.2118 45.0719C102.82 44.9044 102.435 57.0478 94.7616 56.3495Z" fill="white" fill-opacity="0.3"/>
<path d="M119.574 44.3087C117.398 42.4158 113.868 42.9979 111.873 44.8835C111.621 45.1211 111.489 45.5399 111.143 45.5671V43.6826H109.416C109.404 43.6826 109.259 43.8281 109.259 43.8397V57.5545C109.259 57.5661 109.404 57.7116 109.416 57.7116H111.248V49.4931C111.248 48.9644 111.648 47.4945 111.888 46.993C113.069 44.5317 117.463 44.1579 118.667 46.679C118.801 46.9595 119.099 47.8641 119.099 48.1321V57.7116H121.088V47.0852C121.088 46.2371 120.211 44.8636 119.572 44.3087H119.574Z" fill="white" fill-opacity="0.3"/>
<path d="M85.1079 53.8517C84.9173 53.837 84.441 54.6442 84.2421 54.8379C79.8879 59.078 73.3476 54.1919 75.2332 48.6557C76.6811 44.4062 82.1189 43.7529 84.8126 47.2245C84.9016 47.2245 86.1234 46.1441 86.159 46.0624C86.2689 45.808 85.9601 45.4877 85.7727 45.2908C82.4539 41.8066 76.2728 42.6798 73.8564 46.7545C70.4005 52.5817 75.565 59.5585 82.1492 58.0834C83.4611 57.7892 85.7601 56.4292 86.4438 55.2566C86.7558 54.7206 85.5277 54.0883 85.11 53.8517H85.1079Z" fill="white" fill-opacity="0.3"/>
<path d="M125.691 47.7197C124.799 45.1746 128.508 44.1769 130.149 45.8792C130.387 46.1252 130.659 46.8487 130.901 46.9157C131.076 46.9649 132.543 46.2624 132.594 46.1839C132.713 45.9944 132.395 45.4154 132.275 45.2196C130.116 41.6475 122.773 42.6588 123.507 48.0202C123.939 51.1715 130.055 51.3097 130.673 53.7323C131.411 56.6239 127.067 57.3589 125.34 55.2964C125.108 55.02 124.809 54.2149 124.414 54.2735C124.233 54.3008 122.806 55.1519 122.791 55.2493C123.37 57.0197 125.19 58.187 127.007 58.3409C130.512 58.6372 133.462 56.7066 132.665 52.8926C131.927 49.3592 126.476 49.9602 125.692 47.7208L125.691 47.7197Z" fill="white" fill-opacity="0.3"/>
<path d="M106.642 43.6838H104.653V57.7128H106.642V43.6838Z" fill="white" fill-opacity="0.3"/>
<path d="M136.481 57.6431C137.261 57.5165 137.791 56.7814 137.665 56.0012C137.538 55.221 136.803 54.6911 136.023 54.8178C135.242 54.9444 134.713 55.6796 134.839 56.4598C134.966 57.24 135.701 57.7698 136.481 57.6431Z" fill="white" fill-opacity="0.3"/>
<path d="M105.676 38.4763C103.769 38.5328 103.761 41.525 106.06 41.1638C107.579 40.9251 107.373 38.426 105.676 38.4763Z" fill="white" fill-opacity="0.3"/>
<path d="M168.41 48.2389C168.16 44.205 165.36 42.1038 161.374 43.2942C160.042 43.692 159.504 44.4773 158.467 45.2541L158.361 33.1096H156.476V57.5032H158.466C158.712 54.4598 158.016 50.7264 158.75 47.7898C159.628 44.2762 164.816 43.6994 165.981 46.7962C166.071 47.0349 166.319 47.9321 166.319 48.1332V57.5032H168.413C168.274 54.4629 168.599 51.2604 168.413 48.2389H168.41Z" fill="white" fill-opacity="0.3"/>
<path d="M150.684 44.0847C147.771 42.374 144.663 42.9697 141.747 44.292C141.103 44.5841 140.768 45.2385 140.877 43.9978H139.097V62.8427H140.772V56.3517C143.82 58.0132 146.995 59.0779 150.304 57.3505C155.565 54.6033 155.826 47.1051 150.684 44.0847ZM150.82 54.5164C148.369 57.295 143.763 56.7495 142.011 53.4904C140.047 49.8366 142.239 45.139 146.51 44.8668C151.464 44.5517 154.048 50.8584 150.82 54.5164Z" fill="white" fill-opacity="0.3"/>
<path d="M53.53 32C43.5894 32 35.53 40.0593 35.53 50C35.53 59.9406 43.5894 68 53.53 68C63.4707 68 71.53 59.9406 71.53 50C71.53 40.0593 63.4718 32 53.53 32ZM53.529 65.8276C44.7871 65.8276 37.7014 58.7408 37.7014 50C37.7014 41.2591 44.7871 34.1724 53.529 34.1724C62.2709 34.1724 69.3566 41.2591 69.3566 50C69.3566 58.7408 62.2699 65.8276 53.529 65.8276Z" fill="white" fill-opacity="0.3"/>
<path d="M59.7415 53.4203C57.9491 56.937 53.5373 58.0645 50.2405 55.8513C46.6412 53.435 46.192 47.7585 49.3067 44.7663C52.3187 41.8715 57.1597 42.6211 59.4232 46.0425L59.5761 46.0875L62.0385 43.8398C55.6323 35.8192 42.8942 40.5775 43.7233 51.0615C44.1683 56.6847 49.6846 60.7897 55.1727 60.1071C58.0277 59.7522 60.9203 57.8928 62.4363 55.4597L59.8912 53.4234L59.7415 53.4203Z" fill="white" fill-opacity="0.3"/>
</g>
</g>
</g>
<defs>
<clipPath id="clip0_5804_20392">
<rect width="203" height="100" fill="white"/>
</clipPath>
</defs>
</svg>
