<svg width="302" height="25" viewBox="0 0 302 25" fill="none" xmlns="http://www.w3.org/2000/svg">
<path d="M18.0758 24.3594C17.3916 24.3594 16.7207 24.3023 16.0671 24.1929C15.3762 24.0778 14.7045 23.9037 14.0585 23.6763C13.3571 23.4299 12.6853 23.1196 12.0498 22.7543C11.3303 22.3395 10.6576 21.8523 10.0412 21.3033C9.2787 20.624 8.60309 19.8496 8.03452 18.9981V23.6763C7.33313 23.4299 6.6613 23.1196 6.02584 22.7543C5.30631 22.3395 4.6336 21.8523 4.01726 21.3033C3.25375 20.6231 2.57811 19.8467 2.00858 18.9943C0.739574 17.0942 0 14.8136 0 12.3598C2.18809e-06 9.90611 0.739595 7.62552 2.00858 5.72552C2.57811 4.87303 3.25375 4.09661 4.01726 3.41633C4.63264 2.86736 5.30535 2.38021 6.02584 1.96539C6.6613 1.60004 7.33313 1.29087 8.03452 1.0435V5.72069C8.60404 4.87011 9.2787 4.09472 10.0412 3.4154C10.6566 2.86643 11.3293 2.37928 12.0498 1.96446C12.6853 1.59911 13.3571 1.28985 14.0585 1.04248C14.7045 0.815091 15.3753 0.640999 16.0671 0.525876C16.7207 0.417413 17.3916 0.359375 18.0758 0.359375V24.3594Z" fill="#0E171B"/>
<path d="M35.1331 1.39648C39.0013 1.39649 42.4739 3.33738 44.3019 6.401L40.6774 8.49416C39.6109 6.58368 37.5699 5.461 35.1331 5.46099C33.0614 5.46099 31.3863 6.09745 30.1067 7.40187C28.8578 8.70628 28.2185 10.3742 28.2185 12.4369C28.2185 14.4996 28.8578 16.1371 30.1067 17.4415C31.3863 18.7459 33.0614 19.3824 35.1331 19.3824C37.5699 19.3823 39.6721 18.2302 40.6774 16.3797L44.3019 18.4728C42.4739 21.5364 39.0319 23.4773 35.1331 23.4773C31.9348 23.4773 29.285 22.4156 27.1827 20.2929V20.2911C25.0804 18.1684 24.0455 15.5595 24.0455 12.4359C24.0455 9.31238 25.0814 6.67312 27.1827 4.58091C29.285 2.45826 31.9348 1.39648 35.1331 1.39648Z" fill="#0E171B"/>
<path d="M99.148 1.39648C103.016 1.39649 106.489 3.33738 108.317 6.401L104.692 8.49416C103.626 6.58368 101.586 5.461 99.148 5.46099C97.0763 5.46099 95.4011 6.09745 94.1216 7.40187C92.8727 8.70628 92.2334 10.3742 92.2334 12.4369C92.2334 14.4996 92.8727 16.1371 94.1216 17.4415C95.4011 18.7459 97.0763 19.3824 99.148 19.3824C101.585 19.3823 103.687 18.2302 104.692 16.3797L108.317 18.4728C106.489 21.5364 103.047 23.4773 99.148 23.4773C95.9497 23.4773 93.2998 22.4156 91.1976 20.2929V20.2911C89.0953 18.1684 88.0604 15.5595 88.0604 12.4359C88.0604 9.31238 89.0963 6.67312 91.1976 4.58091C93.2998 2.45826 95.9497 1.39648 99.148 1.39648Z" fill="#0E171B"/>
<path fill-rule="evenodd" clip-rule="evenodd" d="M53.5987 7.46189C55.8529 7.46189 57.7717 8.25056 59.3254 9.79663C60.8792 11.3437 61.6714 13.2237 61.6714 15.4682C61.6714 17.7126 60.8792 19.6231 59.3254 21.1701C57.7717 22.7171 55.8529 23.4755 53.5987 23.4755C51.3445 23.4755 49.4257 22.7171 47.8719 21.1701C46.3182 19.6231 45.5565 17.7126 45.5565 15.4682C45.5565 13.2237 46.3182 11.3437 47.8719 9.79663C49.4257 8.24962 51.3445 7.46189 53.5987 7.46189ZM53.5987 11.2828C52.4109 11.2828 51.4362 11.6767 50.644 12.4655C49.8824 13.2542 49.4868 14.2551 49.4868 15.4682C49.4868 16.6813 49.8824 17.6822 50.644 18.471C51.4362 19.2597 52.4109 19.6536 53.5987 19.6536C54.7865 19.6536 55.7612 19.2597 56.5533 18.471C57.3455 17.6822 57.7411 16.6813 57.7411 15.4682C57.7411 14.2551 57.3455 13.2542 56.5533 12.4655C55.7612 11.6767 54.7865 11.2828 53.5987 11.2828Z" fill="#0E171B"/>
<path fill-rule="evenodd" clip-rule="evenodd" d="M117.614 7.46189C119.868 7.46189 121.787 8.25056 123.34 9.79663C124.894 11.3437 125.685 13.2237 125.685 15.4682C125.685 17.7126 124.893 19.6231 123.34 21.1701C121.787 22.7171 119.868 23.4755 117.614 23.4755C115.359 23.4755 113.441 22.7171 111.887 21.1701C110.333 19.6231 109.571 17.7126 109.571 15.4682C109.571 13.2237 110.333 11.3437 111.887 9.79663C113.441 8.24962 115.359 7.46189 117.614 7.46189ZM117.614 11.2828C116.426 11.2828 115.451 11.6767 114.659 12.4655C113.897 13.2542 113.502 14.2551 113.502 15.4682C113.502 16.6813 113.897 17.6822 114.659 18.471C115.451 19.2597 116.426 19.6536 117.614 19.6536C118.801 19.6536 119.776 19.2597 120.568 18.471C121.36 17.6822 121.756 16.6813 121.756 15.4682C121.756 14.2551 121.36 13.2542 120.568 12.4655C119.776 11.6767 118.801 11.2828 117.614 11.2828Z" fill="#0E171B"/>
<path fill-rule="evenodd" clip-rule="evenodd" d="M149.74 7.46096C151.964 7.46096 153.823 8.21921 155.254 9.76624C156.716 11.3133 157.447 13.1933 157.447 15.4682C157.447 15.9839 157.386 16.4996 157.295 17.0761H145.811C146.329 18.9866 147.76 19.9266 150.106 19.9266C151.599 19.9266 152.756 19.4109 153.518 18.41L156.686 20.2302C155.193 22.3833 152.969 23.4755 150.045 23.4755C147.517 23.4755 145.506 22.7172 143.983 21.2006C142.46 19.684 141.698 17.7735 141.698 15.4682C141.698 13.1629 142.46 11.2828 143.952 9.76624C145.445 8.21921 147.395 7.46096 149.74 7.46096ZM149.74 10.9793C147.638 10.9793 146.207 12.1011 145.75 14.043H153.518C153.061 11.9803 151.538 10.9793 149.74 10.9793Z" fill="#0E171B"/>
<path d="M67.9464 23.0512H64.017V7.88613H67.9464V23.0512Z" fill="#0E171B"/>
<path d="M79.6695 7.46189C81.3446 7.46189 82.7159 8.00795 83.7814 9.12969C84.8784 10.2514 85.4259 11.7681 85.4259 13.7394V23.0502H81.4966V14.2246C81.4966 12.1924 80.3087 11.1011 78.4807 11.1011C76.4396 11.1011 75.1305 12.3446 75.1305 14.8621V23.0512H71.2011V7.88623H74.4616L75.1305 9.58451C76.0746 8.15925 77.5978 7.46189 79.6695 7.46189Z" fill="#0E171B"/>
<path d="M133.654 18.6916L137.37 7.88623H141.696L135.908 23.0512H131.43L125.642 7.88623H129.968L133.654 18.6916Z" fill="#0E171B"/>
<path d="M168.373 11.9498C167.185 11.7985 166.088 12.0411 165.144 12.6776C164.2 13.3141 163.743 14.3455 163.743 15.8012V23.0502H159.814V7.88623H163.17L163.743 10.494C164.474 8.55313 166.302 7.58268 168.373 7.58268V11.9498Z" fill="#0E171B"/>
<path d="M65.9664 1.24419C67.2755 1.24419 68.4031 2.36594 68.4031 3.67036C68.4031 4.97478 67.3061 6.06605 65.9664 6.06605C64.6266 6.06603 63.5602 4.97382 63.5602 3.67036C63.5602 2.36595 64.6572 1.24421 65.9664 1.24419Z" fill="#0E171B"/>
<path d="M185.077 0.359375V24.3594H183.741V0.359375H185.077Z" fill="#0E171B" fill-opacity="0.3"/>
<path d="M284.263 6.98698C288.043 7.01764 290.226 9.34834 290.749 13.2734L288.567 13.5807C288.106 10.7287 286.937 8.94994 284.263 8.91927C281.097 8.95009 279.254 11.0663 279.284 15.0221C279.315 19.0698 281.159 21.2472 284.263 21.2474C286.783 21.2167 288.198 19.7133 288.567 17.444L290.749 17.7513C290.226 20.9713 288.043 23.149 284.263 23.1797C279.714 23.2102 277.01 20.1738 277.01 15.0833C277.01 10.0235 279.714 6.95647 284.263 6.98698Z" fill="#0E171B"/>
<path fill-rule="evenodd" clip-rule="evenodd" d="M239.274 6.98698C243.761 7.01764 246.742 9.93084 246.742 15.1133C246.742 19.9279 244.068 23.1477 239.274 23.1784C234.787 23.1476 231.805 20.2345 231.805 15.1133C231.806 10.2682 234.479 7.01772 239.274 6.98698ZM239.274 8.91927C236.139 8.95002 234.049 11.1882 234.08 15.1133C234.111 18.8239 235.985 21.278 239.274 21.2474C242.409 21.2167 244.499 19.0079 244.499 15.1133C244.499 11.3722 242.624 8.88861 239.274 8.91927Z" fill="#0E171B"/>
<path fill-rule="evenodd" clip-rule="evenodd" d="M267.526 6.98698C271.768 6.98698 274.258 9.80895 274.258 14.0716V15.543H262.455C262.64 18.9775 264.453 21.2778 267.526 21.2474C270.2 21.2167 271.553 19.9591 271.922 17.6901L274.105 17.9961C273.582 21.2161 271.307 23.1477 267.526 23.1784C263.04 23.2088 260.212 20.2963 260.212 15.0833C260.212 10.4222 262.732 6.98721 267.526 6.98698ZM267.526 8.91927C264.791 8.88879 262.886 10.3604 262.487 13.6107H272.107C271.984 10.3295 270.17 8.94994 267.526 8.91927Z" fill="#0E171B"/>
<path fill-rule="evenodd" clip-rule="evenodd" d="M211.753 1.5599C215.503 1.5599 218.177 4.22767 218.178 7.96875C218.178 11.7714 215.503 14.4701 211.753 14.4701L204.869 14.5013V23.026H202.595V1.5599H211.753ZM204.869 12.3242H211.385C214.213 12.3241 215.78 10.514 215.78 7.96875C215.78 5.48505 214.212 3.7071 211.385 3.70703H204.869V12.3242Z" fill="#0E171B"/>
<path d="M230.45 9.31771H223.349V23.026H221.167V7.38542H230.45V9.31771Z" fill="#0E171B"/>
<path d="M253.679 7.38672H258.013V9.31771H253.679V21.0938H258.32V23.026H251.497V9.31771H248.885V7.38672H251.497V3.1849H253.679V7.38672Z" fill="#0E171B"/>
<path d="M297.36 7.38672H301.693V9.31771H297.36V21.0938H302V23.026H295.178V9.31771H292.565V7.38672H295.178V3.1849H297.36V7.38672Z" fill="#0E171B"/>
</svg>
