<svg width="203" height="100" viewBox="0 0 203 100" fill="none" xmlns="http://www.w3.org/2000/svg">
<g clip-path="url(#clip0_5804_20306)">
<path d="M105.748 61.9048H101.948V50.828C101.948 50.7063 101.561 49.9476 101.456 49.7993C100.52 48.4739 98.413 48.5214 96.9636 48.6906C96.2892 48.7686 95.4191 48.9131 94.8245 49.2117V61.9048H91.1201V46.6445C91.8116 46.2547 92.7463 46.0132 93.5289 45.823C97.2542 44.9255 103.362 44.201 105.222 48.5005C105.387 48.8808 105.748 49.9837 105.748 50.3507V61.9029V61.9048Z" fill="white" fill-opacity="0.3"/>
<path d="M53.8234 49.9572C49.4009 54.386 55.5692 61.382 60.5255 57.4742C63.4796 55.1466 66.0936 51.4176 68.9849 48.9227C74.4351 44.222 82.0396 50.1569 78.9773 56.358C76.7869 60.7925 70.82 60.899 67.9477 57.0863L68.8424 56.1031C69.3515 56.5367 69.7999 57.1642 70.3223 57.5674C72.5848 59.3092 75.9682 58.6912 77.5145 56.3218C80.7269 51.3967 74.4047 45.7832 69.7429 49.9686C66.9484 52.4768 64.3952 55.8464 61.5305 58.2919C56.0594 62.9641 48.3428 56.4245 51.9427 50.3109C54.3401 46.2396 59.9727 46.3042 62.7083 49.9838L61.8249 50.8681C61.711 50.8471 60.801 49.8222 60.5749 49.6415C58.5841 48.0423 55.6395 48.1336 53.8196 49.9572H53.8234Z" fill="white" fill-opacity="0.3"/>
<path d="M72.2941 45.1975C80.6509 44.3874 85.0506 54.5115 78.8177 59.9044C75.0164 63.1941 69.5091 62.2966 66.4259 58.5276L67.4081 57.632C68.28 58.4649 69.0513 59.3833 70.1588 59.9234C75.6167 62.5837 81.6254 57.7347 80.2272 51.8416C78.8291 45.9486 71.6254 44.5205 67.9457 48.9284C65.2006 51.2122 62.6873 54.6236 59.9651 56.8181C55.7268 60.2352 50.5103 53.7698 54.6934 50.3051C56.8781 48.4967 59.6326 49.3924 61.1904 51.505L60.307 52.3893C59.0855 50.9859 57.6873 49.9895 55.8484 51.0848C52.4404 53.1138 55.9567 58.3793 59.2033 55.7741C62.9438 52.7696 67.3739 45.6767 72.2903 45.1994L72.2941 45.1975Z" fill="white" fill-opacity="0.3"/>
<path d="M56.3367 45.1974C59.5965 44.8818 62.1554 46.1102 64.2375 48.5443L63.337 49.4456C60.6129 45.979 55.5388 45.2602 52.3283 48.5062C46.0137 54.8899 55.0905 64.8827 62.1041 58.8623C65.0316 56.3503 67.7006 52.6859 70.6528 50.3051C73.7797 47.7836 78.2421 50.558 77.3986 54.4905C76.8325 57.1337 73.8044 58.4706 71.3937 57.2593C70.932 57.0273 69.8397 56.0955 69.5528 55.6771C69.3515 55.3843 70.0981 54.848 70.3526 54.6826C71.6083 56.1868 73.4814 57.206 75.212 55.7247C78.0179 53.3211 74.5566 48.82 71.3614 51.3947C68.432 53.7565 65.7706 57.4133 62.864 59.9082C58.8576 63.3462 52.6683 62.2585 50.0696 57.6871C47.1725 52.5908 50.4571 45.766 56.3348 45.1955L56.3367 45.1974Z" fill="white" fill-opacity="0.3"/>
<path d="M126.359 49.925C127.068 47.2285 129.049 45.6997 131.753 45.2927C135.081 44.7907 139.826 45.3745 140.041 49.5884L140.028 61.1349C138.582 61.4829 137.106 61.7833 135.619 61.9031C132.159 62.1846 126.456 61.8727 126.071 57.2956C125.609 51.8209 132.285 51.3379 136.238 51.5394C136.23 50.1646 136.32 48.9 134.878 48.2896C133.166 47.5651 130.852 48.0881 130.111 49.9231H126.359V49.925ZM136.238 54.2036H132.961C132.621 54.2036 131.473 54.582 131.139 54.7569C130.001 55.3597 129.427 56.6642 130.212 57.809C131.301 59.4025 134.416 59.0964 136.08 58.9404L136.238 58.813V54.2017V54.2036Z" fill="white" fill-opacity="0.3"/>
<path d="M124.266 50.5867L120.725 51.7391C119.125 48.204 113.96 48.0176 112.328 51.6174C110.047 56.6528 116.878 60.6803 120.128 56.3827C120.313 56.1393 120.573 55.4567 120.803 55.4358L124.266 56.5843C122.423 61.7776 115.892 63.6316 111.454 60.3266C106.044 56.2991 107.425 47.6963 113.825 45.6007C118.007 44.2316 122.845 46.3766 124.266 50.5848V50.5867Z" fill="white" fill-opacity="0.3"/>
<path d="M146.971 38.04H143.172V62.0001H146.971V38.04Z" fill="white" fill-opacity="0.3"/>
<path d="M154 38.04H150.201V62.0001H154V38.04Z" fill="white" fill-opacity="0.3"/>
<path d="M87.8905 45.1709H83.9961V61.9049H87.8905V45.1709Z" fill="white" fill-opacity="0.3"/>
<path d="M85.9433 42.6855C87.2359 42.6855 88.2838 41.6366 88.2838 40.3428C88.2838 39.0489 87.2359 38 85.9433 38C84.6508 38 83.6029 39.0489 83.6029 40.3428C83.6029 41.6366 84.6508 42.6855 85.9433 42.6855Z" fill="white" fill-opacity="0.3"/>
</g>
<defs>
<clipPath id="clip0_5804_20306">
<rect width="105" height="24" fill="white" transform="translate(49 38)"/>
</clipPath>
</defs>
</svg>
