<svg width="203" height="100" viewBox="0 0 203 100" fill="none" xmlns="http://www.w3.org/2000/svg">
<g clip-path="url(#clip0_5804_20414)">
<g clip-path="url(#clip1_5804_20414)">
<path fill-rule="evenodd" clip-rule="evenodd" d="M102.473 48.9125C102.473 46.7573 101.054 45.2487 99.1503 45.2487C97.2466 45.2487 95.8277 46.7573 95.8277 48.9125C95.8277 51.0677 97.2466 52.5764 99.1503 52.5764C101.036 52.5764 102.473 51.0498 102.473 48.9125ZM93.008 48.9125C93.008 45.4103 95.6841 42.7163 99.1503 42.7163C102.617 42.7163 105.293 45.4103 105.293 48.9125C105.293 52.4148 102.617 55.1088 99.1503 55.1088C95.6841 55.1088 93.008 52.4148 93.008 48.9125Z" fill="white" fill-opacity="0.3"/>
<path fill-rule="evenodd" clip-rule="evenodd" d="M109.19 48.8763C109.19 51.0674 110.645 52.5761 112.495 52.5761C114.345 52.5761 115.799 51.0854 115.799 48.8763C115.799 46.6672 114.345 45.1765 112.495 45.1765C110.645 45.1945 109.19 46.6852 109.19 48.8763ZM109.28 53.528H109.226V59.3111H106.514V42.8776H109.226V44.2426H109.28C110.052 43.4703 111.219 42.6621 113.033 42.6621C116.158 42.6621 118.601 45.1586 118.601 48.8943C118.601 52.63 116.158 55.1264 113.033 55.1264C111.237 55.1084 110.052 54.3002 109.28 53.528Z" fill="white" fill-opacity="0.3"/>
<path fill-rule="evenodd" clip-rule="evenodd" d="M122.642 48.8763C122.642 51.0674 124.097 52.5761 125.947 52.5761C127.797 52.5761 129.251 51.0854 129.251 48.8763C129.251 46.6672 127.797 45.1765 125.947 45.1765C124.097 45.1765 122.642 46.6852 122.642 48.8763ZM122.732 53.528H122.678V59.3111H119.966V42.8776H122.678V44.2426H122.732C123.504 43.4703 124.672 42.6621 126.486 42.6621C129.611 42.6621 132.053 45.1586 132.053 48.8943C132.053 52.63 129.611 55.1264 126.486 55.1264C124.69 55.1084 123.504 54.3002 122.732 53.528Z" fill="white" fill-opacity="0.3"/>
<path fill-rule="evenodd" clip-rule="evenodd" d="M135.951 47.6734H141.841C141.554 46.1647 140.333 45.0691 138.896 45.0691C137.459 45.0691 136.238 46.1647 135.951 47.6734ZM141.752 51.0319L144.589 51.4091C143.458 54.1569 141.482 55.1088 139.058 55.1088C135.591 55.1088 133.041 52.6124 133.041 48.8767C133.041 45.141 135.591 42.6445 138.86 42.6445C142.129 42.6445 144.859 44.9075 144.859 49.7567H135.986C136.184 51.6785 137.549 52.7022 139.094 52.7022C140.333 52.7022 141.285 52.0736 141.752 51.0319Z" fill="white" fill-opacity="0.3"/>
<path fill-rule="evenodd" clip-rule="evenodd" d="M148.864 42.8776V44.2426H148.918C149.528 43.4703 150.408 42.7878 152.025 42.7878C152.222 42.7878 152.635 42.8417 152.905 42.9315V45.6435C152.546 45.5537 152.061 45.4998 151.755 45.4998C149.726 45.4998 148.882 46.3799 148.882 48.3375V54.875H146.17V42.8776H148.864Z" fill="white" fill-opacity="0.3"/>
<path fill-rule="evenodd" clip-rule="evenodd" d="M88.7514 50.7802C88.2485 51.9296 87.2787 52.6121 86.0035 52.6301C84.8541 52.6121 83.9381 52.0374 83.3993 51.0675C83.2916 50.852 83.1838 50.6006 83.112 50.3312H83.094C82.9683 49.9001 82.8964 49.4152 82.8964 48.8764C82.8964 48.3376 82.9683 47.8527 83.094 47.4216H83.112C83.1838 47.1522 83.2916 46.9188 83.3993 46.6853C83.9381 45.7154 84.8541 45.1407 86.0035 45.1227C87.2607 45.1407 88.2485 45.8412 88.7514 46.9906C88.8053 47.1163 88.8592 47.26 88.8951 47.4216C88.8951 47.4396 88.8951 47.4576 88.9131 47.4576H91.7867C91.7148 47.0624 91.6071 46.6673 91.4634 46.3081C90.6193 44.0811 88.6616 42.6802 86.1293 42.6802H85.8778C83.6508 42.6802 81.8727 43.7757 80.9029 45.5897C80.382 46.5236 80.0947 47.6372 80.0947 48.9123C80.0947 50.1875 80.382 51.301 80.9029 52.2349C81.8727 54.0489 83.6508 55.1445 85.8778 55.1445H86.1293C88.6616 55.1445 90.6013 53.7256 91.4454 51.4806C91.5352 51.2651 91.6071 51.0316 91.661 50.8161H88.7514V50.7802Z" fill="white" fill-opacity="0.3"/>
<path fill-rule="evenodd" clip-rule="evenodd" d="M150.911 53.2585C150.911 52.3246 151.755 51.4446 152.725 51.4446C153.695 51.4446 154.539 52.3246 154.539 53.2585C154.539 54.1925 153.677 55.0725 152.725 55.0725C151.773 55.0725 150.911 54.2104 150.911 53.2585Z" fill="white" fill-opacity="0.3"/>
<path fill-rule="evenodd" clip-rule="evenodd" d="M177.582 48.9125C177.582 46.7573 176.163 45.2487 174.259 45.2487C172.356 45.2487 170.937 46.7573 170.937 48.9125C170.937 51.0677 172.356 52.5764 174.259 52.5764C176.163 52.5764 177.582 51.0498 177.582 48.9125ZM168.099 48.9125C168.099 45.4103 170.775 42.7163 174.241 42.7163C177.708 42.7163 180.384 45.4103 180.384 48.9125C180.384 52.4148 177.708 55.1088 174.241 55.1088C170.775 55.1088 168.099 52.4148 168.099 48.9125Z" fill="white" fill-opacity="0.3"/>
<path fill-rule="evenodd" clip-rule="evenodd" d="M163.771 50.7802C163.268 51.9296 162.298 52.6121 161.023 52.6301C159.873 52.6121 158.957 52.0374 158.419 51.0675C158.311 50.852 158.203 50.6006 158.131 50.3312H158.113C157.988 49.9001 157.916 49.4152 157.916 48.8764C157.916 48.3376 157.988 47.8527 158.113 47.4216H158.131C158.203 47.1522 158.311 46.9188 158.419 46.6853C158.957 45.7154 159.873 45.1407 161.023 45.1227C162.28 45.1407 163.268 45.8412 163.771 46.9906C163.825 47.1163 163.878 47.26 163.914 47.4216C163.914 47.4396 163.914 47.4576 163.932 47.4576H166.806C166.734 47.0624 166.626 46.6673 166.483 46.3081C165.621 44.0811 163.681 42.6802 161.149 42.6802H160.897C158.67 42.6802 156.892 43.7757 155.922 45.5897C155.401 46.5236 155.114 47.6372 155.114 48.9123C155.114 50.1875 155.401 51.301 155.922 52.2349C156.892 54.0489 158.67 55.1445 160.897 55.1445H161.149C163.681 55.1445 165.621 53.7256 166.465 51.4806C166.555 51.2651 166.626 51.0316 166.68 50.8161H163.771V50.7802Z" fill="white" fill-opacity="0.3"/>
<path fill-rule="evenodd" clip-rule="evenodd" d="M61.488 61.3049C59.5663 63.4781 57.4291 64.5916 55.9743 65.1484C51.9153 66.675 47.8025 66.6211 43.7794 64.9688C39.6665 63.2805 35.9847 59.7783 34.1887 55.8451C33.3805 54.085 32.9495 52.2351 32.8956 50.3493C32.8776 49.9541 32.8776 49.5051 32.8776 49.4153V48.8227C32.9315 46.1286 34.0091 43.5244 35.877 41.5129C36.7211 40.6149 37.6909 39.9145 38.8044 39.4295C39.9 38.9446 41.1033 38.6932 42.3965 38.6573C41.9475 39.0165 41.5344 39.3936 41.1393 39.8247C38.8942 42.2313 37.655 45.536 37.655 49.1459C37.655 52.7559 38.8942 56.0606 41.1393 58.4672C42.4324 59.8502 43.977 60.8739 45.737 61.4845C46.9763 61.9156 48.3233 62.1311 49.7242 62.1311C52.077 62.1311 55.4714 61.5025 58.2552 58.4852C59.2071 57.4615 59.9794 56.2581 60.5541 54.9291H65.1519C64.3617 57.3178 63.1224 59.5089 61.488 61.3049ZM30.8481 61.3049C27.8668 58.126 26.2144 53.7976 26.2144 49.11C26.2144 44.4224 27.8668 40.0581 30.8481 36.8433C33.8654 33.5925 38.0501 31.8145 42.594 31.8145C43.7255 31.8145 44.857 31.9222 45.9346 32.1377C51.6818 33.3051 56.2078 37.5258 58.0397 43.3269H53.4419C52.8672 41.9978 52.0949 40.8125 51.143 39.7708C49.8679 38.3879 48.3413 37.3821 46.5991 36.7714C45.3599 36.3404 44.0129 36.1249 42.612 36.1249C40.8878 36.1249 39.2714 36.4482 37.7807 37.1127C36.3619 37.7413 35.1047 38.6393 34.0271 39.7887C33.7577 40.0761 33.5062 40.3635 33.2727 40.6688C31.7641 42.3391 30.7942 44.5482 30.471 47.2781C30.3991 47.763 30.3632 48.2479 30.3632 48.7329V49.11V49.2357V49.3076V49.3435C30.3632 49.6488 30.3632 49.9541 30.3812 50.2415V50.3672C30.435 52.5943 30.9379 54.7854 31.8898 56.8508C33.596 60.5865 36.775 63.963 40.4747 66.1003C36.739 65.6692 33.3805 63.9989 30.8481 61.3049ZM60.0512 35.4783C62.4938 37.5258 64.1821 40.2198 65.0082 43.3448H60.6439C59.3149 38.4777 56.3515 34.5085 52.3823 32.0479C55.2559 32.479 57.8781 33.6464 60.0512 35.4783ZM51.1251 58.4493C52.077 57.4255 52.8492 56.2222 53.424 54.8932H57.7344C57.3572 55.5757 56.9082 56.1863 56.3874 56.7431C54.286 59.006 51.7357 59.5448 49.9038 59.5808C50.3348 59.2575 50.7479 58.8624 51.1251 58.4493ZM68.0435 52.3967H51.6818L51.3765 53.2408C50.8916 54.5879 50.1911 55.7732 49.2752 56.761C48.3592 57.7488 47.2996 58.4852 46.0962 58.9522C44.8929 58.4672 43.8333 57.7309 42.9353 56.761C41.1213 54.8213 40.1335 52.1094 40.1335 49.1459C40.1335 46.1825 41.1213 43.4885 42.9353 41.5309C43.7794 40.6329 44.7492 39.9324 45.8628 39.4475C45.9526 39.4116 46.0603 39.3577 46.1501 39.3218C47.3355 39.8067 48.3772 40.5251 49.2752 41.4949C50.1911 42.4828 50.8916 43.6681 51.3765 45.0151L51.6818 45.8592H68.0614C68.0614 40.9202 64.9184 36.2686 61.6856 33.5566C58.363 30.7728 54.2142 29.318 49.6883 29.318C48.5029 29.318 47.3355 29.4258 46.186 29.6413C45.0186 29.4258 43.8153 29.3 42.594 29.3C37.3497 29.3 32.5184 31.3655 29.0162 35.1371C25.5858 38.8189 23.7 43.7759 23.7 49.11C23.7 54.4442 25.5858 59.3832 29.0162 63.0111C32.5005 66.7109 37.3138 68.7584 42.5761 68.7584C43.7794 68.7584 45.5395 68.7584 46.8506 68.471C47.9282 68.6686 49.0058 68.7584 50.0834 68.7584C52.3464 68.7584 54.5914 68.3273 56.8543 67.4832C58.5785 66.8366 61.0929 65.5255 63.3379 62.9752L63.3559 62.9572C65.6189 60.4967 67.7741 56.8329 68.0435 52.3967Z" fill="white" fill-opacity="0.3"/>
</g>
</g>
<defs>
<clipPath id="clip0_5804_20414">
<rect width="203" height="100" fill="white"/>
</clipPath>
<clipPath id="clip1_5804_20414">
<rect width="156.684" height="40.5" fill="white" transform="translate(23.7 29.3)"/>
</clipPath>
</defs>
</svg>
