<svg width="203" height="100" viewBox="0 0 203 100" fill="none" xmlns="http://www.w3.org/2000/svg">
<g clip-path="url(#clip0_5804_20429)">
<path fill-rule="evenodd" clip-rule="evenodd" d="M53.8525 61.0401H55.687L56.0539 62.1801H56.9712L55.3201 57.3201H54.3417L52.6295 62.1801H53.4856L53.8525 61.0401ZM55.4424 60.2601H54.0971L54.7698 58.3401L55.4424 60.2601ZM60.8237 62.1801H62.8417C64.6151 62.1801 65.1654 61.0401 65.1654 59.7201C65.1654 58.3401 64.4316 57.3201 62.8417 57.3201H60.8237V62.1801ZM61.741 58.0401H62.9029C63.759 58.0401 64.2482 58.6401 64.2482 59.6601C64.2482 60.8001 63.759 61.3401 62.9029 61.3401H61.741V58.0401ZM70.0575 59.8401C70.6079 59.7201 70.9748 59.3601 70.9748 58.6401C70.9748 57.6801 70.1798 57.2601 69.2626 57.2601H66.9388V62.1201H67.8561V60.1401H68.9568C69.6906 60.1401 69.8741 60.4401 69.9352 61.1601C69.9964 61.7601 70.0575 62.0001 70.1187 62.1801H71.0359C70.9136 62.0001 70.8525 61.7001 70.7913 61.1001C70.7913 60.3801 70.4856 60.0201 70.0575 59.8401ZM67.7949 59.3601V58.0401H69.2626C69.6906 58.0401 70.0575 58.2201 70.0575 58.6401C70.0575 59.1201 69.7518 59.3001 69.2014 59.3001C69.2014 59.3601 67.7949 59.3601 67.7949 59.3601ZM75.5611 58.4601L76.6007 62.1201H77.518L78.9244 57.2601H78.0072L77.0288 60.8001L76.0503 57.2601H75.0719L74.0935 60.8001L73.1762 57.2601H72.1978L73.5431 62.1201H74.5216C74.5216 62.1801 75.5611 58.4601 75.5611 58.4601ZM86.9964 60.9201L86.2014 60.5001C86.018 61.0401 85.6511 61.4001 84.9172 61.4001C83.8165 61.4001 83.4496 60.7401 83.4496 59.6601C83.4496 58.6401 83.8777 57.9201 84.9172 57.9201C85.6511 57.9201 85.9568 58.3401 86.1403 58.8801L86.9352 58.4601C86.6295 57.6201 85.9568 57.1401 84.9172 57.1401C83.3273 57.1401 82.4712 58.2201 82.4712 59.6601C82.4712 61.1601 83.2662 62.1801 84.8561 62.1801C86.1403 62.2401 86.7518 61.6401 86.9964 60.9201ZM88.3417 59.7201C88.3417 61.2201 89.3201 62.2401 90.8489 62.2401C92.4388 62.2401 93.2949 61.1601 93.2949 59.7201C93.2949 58.2801 92.3165 57.2001 90.7877 57.2001C89.3201 57.2001 88.3417 58.2801 88.3417 59.7201ZM90.8489 57.9801C91.8273 57.9801 92.3777 58.6401 92.3777 59.6601C92.3777 60.8601 91.8885 61.4001 90.8489 61.4001C89.8705 61.4001 89.3201 60.7401 89.3201 59.6601C89.3201 58.7001 89.8705 57.9801 90.8489 57.9801ZM99.9604 57.2601H98.7374L97.4532 60.6201L96.2302 57.2601H94.946V62.1201H95.741V58.4601L97.0863 62.1201H97.6978L99.0431 58.4601V62.1201H99.8993V57.2601H99.9604ZM104.608 57.2601H102.101V62.1201H103.018V60.0801H104.608C105.586 60.0801 106.259 59.6001 106.259 58.6401C106.259 57.7401 105.464 57.2601 104.608 57.2601ZM103.018 59.3601V58.1001H104.547C104.975 58.1001 105.281 58.2801 105.281 58.7001C105.281 59.1801 104.975 59.3601 104.547 59.3601H103.018ZM108.155 61.0401H109.989L110.356 62.1801H111.273L109.622 57.3201H108.644L106.932 62.1801H107.788L108.155 61.0401ZM109.745 60.2601H108.46L109.133 58.3401L109.745 60.2601ZM116.043 60.6201L113.903 57.2601H112.863V62.1201H113.658V58.4601L115.982 62.1201H116.899V57.2601H116.104L116.043 60.6201ZM120.14 60.3201V62.1201H121.058V60.2601L122.77 57.2601H121.791L120.629 59.3601L119.406 57.2601H118.367L120.14 60.3201ZM57.6439 50.3001C60.518 50.3001 61.9856 48.9801 62.964 47.3001L60.3957 45.8001C59.9064 46.9401 58.9892 47.7201 57.6439 47.7201C55.8705 47.7201 54.6475 46.5801 54.6475 44.3601C54.6475 42.2001 55.8093 41.0601 57.5827 41.0601C58.928 41.0601 59.723 41.6601 60.2734 42.9201L62.7194 41.4801C61.8021 39.8001 60.3345 38.6001 57.5827 38.6001C54.0359 38.6001 51.5899 41.0601 51.5899 44.4201C51.5899 47.7801 53.669 50.3001 57.6439 50.3001ZM70.669 50.3001C74.0323 50.3001 76.1726 48.8001 76.1726 45.4401V38.8401H73.2374V45.2601C73.2374 47.0601 72.687 47.7201 70.7302 47.7201C68.7734 47.7201 68.223 47.0001 68.223 45.2601V38.7801H65.2877V45.3801C65.1654 48.6801 67.0611 50.3001 70.669 50.3001ZM79.2302 50.0601H81.9208V42.5001L84.8561 50.0001H86.9352L89.8705 42.5001V50.0001H92.7446V38.7801H88.7086L85.9568 46.1601L83.2662 38.7801H79.2302V50.0601ZM95.9244 50.0601H102.59C105.831 50.0601 106.809 48.7401 106.809 46.8201C106.809 45.3201 106.137 44.6601 105.097 44.2401C106.137 43.7601 106.565 43.1001 106.565 41.8401C106.565 40.4001 105.647 38.7801 102.529 38.7801H95.8633L95.9244 50.0601ZM98.9208 45.3801H102.406C103.629 45.3801 103.996 45.7401 103.996 46.5201C103.996 47.3001 103.691 47.6601 102.529 47.6601H98.9208V45.3801ZM98.9208 43.1601V41.2401H102.406C103.507 41.2401 103.813 41.5401 103.813 42.2001C103.813 42.9801 103.446 43.1601 102.406 43.1601H98.9208ZM109.622 50.0601H119.773V47.7801H112.619V45.3801H117.817V43.1601H112.619V41.0001H119.529V38.7801H109.622V50.0601ZM125.277 45.9801H127.845C129.313 45.9801 129.863 46.4601 129.863 47.7801C129.924 49.2201 129.986 49.7001 130.108 50.0601H133.165V49.9401C133.043 49.8201 132.982 49.5201 132.921 49.0401C132.799 48.0201 132.799 46.8801 132.493 46.0401C132.309 45.5601 131.698 45.0801 131.025 44.9601C132.126 44.6601 133.104 43.8801 133.104 42.2001C133.104 40.0401 131.82 38.9001 128.763 38.9001H122.342V50.1201H125.338L125.277 45.9801ZM125.277 43.6401V41.1801H128.518C129.68 41.1801 130.108 41.5401 130.108 42.3201C130.108 43.1601 129.68 43.6401 128.518 43.6401H125.277ZM135.856 50.0601H143.928L144.784 47.7201H138.791V38.7801H135.856V50.0601ZM149.737 47.9601H154.446L155.18 50.0601H158.299L153.957 38.8401H150.41L146.068 50.0601H148.942L149.737 47.9601ZM153.59 45.8001H150.471L152 41.4801L153.59 45.8001ZM160.378 50.0601H163.191L163.068 42.1401L167.96 50.0601H171.446V38.7801H168.633L168.755 46.2801L164.169 38.7801H160.439L160.378 50.0601ZM174.626 50.0601H179.579C183.676 50.0601 185.817 47.7201 185.817 44.3601C185.817 40.8801 183.432 38.8401 179.64 38.8401H174.626V50.0601ZM177.622 47.6601V41.1801H179.824C181.536 41.1801 182.759 42.1401 182.759 44.3601C182.759 46.5801 181.597 47.6001 179.824 47.6001H177.622V47.6601Z" fill="white" fill-opacity="0.3"/>
<path fill-rule="evenodd" clip-rule="evenodd" d="M18.813 52.5201H28.7194L22.1763 58.9401C23.9497 60.7401 26.2122 62.0001 28.6583 62.5401V56.2401H29.9425L32.5108 58.7601L29.9425 61.2801H32.0216C32.6331 60.9801 33.1835 60.6201 33.7338 60.2001V56.3001H32.5108V55.0401H29.9425L32.5108 52.5201L29.9425 50.0001H33.7338V56.2401H35.018L36.3633 57.5601C36.9748 56.7801 37.464 55.9401 37.8309 55.0401H35.0791L37.6475 52.5201L35.0791 50.0001H38.8705V47.4801H28.7194L38.8705 37.5801H28.7194V43.8201H27.4353L24.8669 41.3001L27.4353 38.7801H24.8669V37.5801H23.5827V43.8201H24.8669V45.0801H27.4353L24.8669 47.6001L27.4353 50.1201H23.6439V43.8201H22.3597L19.7914 41.3001L22.3597 38.7801H19.7914V37.5801H18.5684V43.8201H19.8525V45.0801H22.4209L19.8525 47.6001L22.4209 50.1201H18.5684C18.5684 50.9001 18.6295 51.7401 18.813 52.5201Z" fill="white" fill-opacity="0.3"/>
<path fill-rule="evenodd" clip-rule="evenodd" d="M40.1547 50.0601C40.1547 56.8401 35.2626 62.4801 28.7194 63.7401C22.1763 62.4201 17.2842 56.7801 17.2842 50.0601V36.3201H40.1547V50.0601ZM16 35.0601V50.0001C16 53.6001 17.2842 57.0201 19.5468 59.7201C20.6475 61.0401 21.9928 62.1801 23.5216 63.0201C25.0504 63.9201 26.7014 64.5801 28.4748 64.8801L28.7194 64.9401L28.964 64.8801C30.7374 64.5201 32.3885 63.9201 33.9173 63.0201C35.3849 62.1201 36.7302 61.0401 37.8921 59.7201C40.2158 57.0201 41.4388 53.5401 41.4388 50.0001V35.0601H16Z" fill="white" fill-opacity="0.3"/>
</g>
<defs>
<clipPath id="clip0_5804_20429">
<rect width="170" height="30" fill="white" transform="translate(16 35)"/>
</clipPath>
</defs>
</svg>
