<svg width="203" height="100" viewBox="0 0 203 100" fill="none" xmlns="http://www.w3.org/2000/svg">
<g clip-path="url(#clip0_5804_20449)">
<g clip-path="url(#clip1_5804_20449)">
<path d="M43.8593 29V35.9809H50.8452V29H57.6058V35.9821C58.5602 35.9683 59.5281 35.9821 60.4768 36.0977C69.2927 37.1643 74.9085 46.2143 71.8865 54.7779C69.7693 60.7792 63.8402 64.4562 57.6047 64.0191V71H50.7314V64.0191H43.8581V71H36.9848V64.0191H30V57.0381H36.986V43.1335L36.5972 42.9561L30 42.9619V35.9809H36.9871V29H43.8604H43.8593ZM43.8593 57.0381H59.9157C62.2808 57.0381 64.9884 54.1451 65.5991 51.9386C66.7056 47.9469 63.6769 42.9619 59.465 42.9619H43.8593V57.0381Z" fill="white" fill-opacity="0.3"/>
<path d="M174.226 60.2426C171.843 60.5905 168.252 60.6763 167.124 58.0144C167.025 57.7798 166.677 56.7063 166.677 56.5232V49.7712L166.508 49.5995H164.198V45.4224L164.367 45.2507H166.677V42.3897L171.071 41.1309V45.2507H174.114V49.5995H171.071V54.921C171.071 55.9419 172.124 56.1891 172.933 56.2348C173.399 56.2612 173.819 56.0769 174.226 56.2371V60.2426Z" fill="white" fill-opacity="0.3"/>
<path d="M82.5074 60.2426V39.2998H92.254C92.5503 39.2998 93.7075 39.6374 94.0602 39.7541C102.399 42.511 103.322 54.8467 95.6929 59.0444C94.921 59.469 92.9762 60.2437 92.1413 60.2437H82.5074V60.2426ZM87.2398 55.6649H91.3526C91.4258 55.6649 92.0602 55.5322 92.2033 55.499C98.2078 54.1291 97.3887 43.8775 91.0145 43.8775H87.2398V55.6649Z" fill="white" fill-opacity="0.3"/>
<path d="M143.691 39.2998V46.6241C144.281 46.0507 144.918 45.5769 145.69 45.2782C149.51 43.7985 153.541 46.1194 154.785 49.9474C156.785 56.1021 151.798 62.6367 145.418 60.1476L143.692 58.9837V60.2414H139.297V39.2998H143.691ZM146.706 49.1715C142.766 49.7128 142.797 55.7267 146.466 56.3367C152.162 57.2831 152.082 48.4334 146.706 49.1715Z" fill="white" fill-opacity="0.3"/>
<path d="M117.888 54.6349H107.409C108.419 57.2132 112.005 57.0462 113.868 55.5722C114.962 56.2165 116.102 56.799 117.179 57.4719C117.241 57.5108 117.405 57.4719 117.323 57.6664C117.3 57.7225 116.645 58.4813 116.539 58.5877C114.057 61.0722 109.542 61.3011 106.545 59.6909C100.619 56.5071 101.624 46.8689 108.223 45.1053C114.325 43.4745 119.163 48.5294 117.888 54.636V54.6349ZM113.606 51.2016C112.913 48.0717 108.047 48.0991 107.296 51.2016H113.606Z" fill="white" fill-opacity="0.3"/>
<path d="M129.494 45.0219V50.0573H127.86C126.876 50.0573 125.099 51.5817 125.099 52.6323V60.1854L124.93 60.357H120.592V45.2508H124.93L125.099 45.4224V47.5396L125.665 46.6836C126.602 45.5266 128.011 44.9143 129.494 45.0219Z" fill="white" fill-opacity="0.3"/>
<path d="M162.17 45.2507V60.357H157.832L157.663 60.1853V45.2507H162.17Z" fill="white" fill-opacity="0.3"/>
<path d="M136.029 45.2507V60.1853L135.86 60.357H131.691L131.522 60.1853V45.2507H136.029Z" fill="white" fill-opacity="0.3"/>
<path d="M133.641 38.5237C137.228 38.3246 137.406 43.9322 133.832 43.9998C130.258 44.0673 130.14 38.7171 133.641 38.5237Z" fill="white" fill-opacity="0.3"/>
<path d="M158.042 39.3408C160.76 36.5794 164.739 41.307 161.42 43.5157C158.736 45.301 155.792 41.6262 158.042 39.3408Z" fill="white" fill-opacity="0.3"/>
</g>
</g>
<defs>
<clipPath id="clip0_5804_20449">
<rect width="203" height="100" fill="white"/>
</clipPath>
<clipPath id="clip1_5804_20449">
<rect width="144.226" height="42" fill="white" transform="translate(30 29)"/>
</clipPath>
</defs>
</svg>
