<svg width="203" height="100" viewBox="0 0 203 100" fill="none" xmlns="http://www.w3.org/2000/svg">
<path d="M29 41.7766V44.9174H41.3054C41.8246 44.9174 42.2072 44.651 42.4499 44.1199L43.3276 41.7783H29V41.7766ZM29 48.9791V59.2237H32.5333V52.6445C32.5333 52.462 32.5944 52.3139 32.7165 52.1972C32.8371 52.0804 32.9802 52.0213 33.1425 52.0213H38.0888C38.608 52.0213 38.9905 51.74 39.2333 51.1744L39.9888 48.9791H29Z" fill="white" fill-opacity="0.3"/>
<path d="M57.9893 43.0226C57.6003 42.1922 56.9992 41.7761 56.1873 41.7761H53.4096L46.3913 59.2233H50.0709L55.382 45.3149L60.5967 59.2233H64.4225L57.9893 43.0226Z" fill="white" fill-opacity="0.3"/>
<path d="M73.5195 56.0331V43.0226C73.5195 42.6723 73.4021 42.3796 73.1674 42.1362C72.9327 41.8962 72.6433 41.7761 72.3025 41.7761H69.9878V59.2233H80.8062C81.2933 59.2233 81.6678 58.9585 81.9282 58.4274L82.8525 56.0331H73.5195Z" fill="white" fill-opacity="0.3"/>
<path d="M101.2 54.6784C100.957 54.6784 100.712 54.7622 100.469 54.9283C99.4132 55.7423 98.2271 56.1484 96.9106 56.1484C95.3192 56.1484 93.9946 55.6041 92.9384 54.5156C91.8824 53.427 91.3551 52.095 91.3551 50.5147C91.3551 48.9345 91.8791 47.5318 92.9256 46.4514C93.9721 45.371 95.2694 44.83 96.8109 44.83C98.1612 44.83 99.3778 45.2625 100.466 46.1258C100.709 46.2919 100.953 46.3741 101.196 46.3741C101.439 46.3741 101.677 46.3001 101.904 46.1505L103.877 44.7544C103.099 43.7907 102.084 43.0097 100.833 42.4111C99.5809 41.8142 98.2416 41.5149 96.8109 41.5149C95.1391 41.5149 93.612 41.9096 92.2296 42.6972C90.8503 43.4865 89.7524 44.5587 88.9407 45.9137C88.1288 47.2687 87.7222 48.7996 87.7222 50.5114C87.7222 52.1229 88.108 53.6111 88.8779 54.9743C89.6495 56.3359 90.717 57.4278 92.0817 58.2516C93.4464 59.0738 95.0218 59.4849 96.8077 59.4849C98.158 59.4849 99.4522 59.1939 100.695 58.6118C101.937 58.0297 102.972 57.2502 103.802 56.2685L101.9 54.8987C101.673 54.749 101.439 54.6734 101.193 54.6734" fill="white" fill-opacity="0.3"/>
<path d="M126.256 45.8385C125.428 44.4934 124.327 43.4344 122.955 42.6615C122.014 42.132 121.012 41.7834 119.953 41.6174V45.0032C120.875 45.2449 121.673 45.7267 122.346 46.4486C123.36 47.5372 123.869 48.8889 123.869 50.4988C123.869 52.1087 123.36 53.4637 122.346 54.5506C121.673 55.2725 120.875 55.756 119.953 55.9977V59.3901C121.086 59.2191 122.133 58.8491 123.089 58.2785C124.452 57.4645 125.529 56.3759 126.317 55.0127C127.104 53.6511 127.498 52.1464 127.498 50.4988C127.498 48.7393 127.083 47.1853 126.256 45.8385ZM110.624 45.9882C109.837 47.3514 109.443 48.8544 109.443 50.4988C109.443 52.2616 109.861 53.8205 110.698 55.1738C111.534 56.5288 112.639 57.5878 114.011 58.3508C114.953 58.8754 115.945 59.2207 116.99 59.3851V55.9928C116.091 55.751 115.301 55.2692 114.621 54.5506C113.589 53.4637 113.072 52.1119 113.072 50.4988C113.072 48.8856 113.589 47.5175 114.621 46.4371C115.301 45.7235 116.091 45.2466 116.99 45.0048V41.6091C115.86 41.7785 114.815 42.1485 113.854 42.7224C112.489 43.538 111.414 44.6266 110.624 45.9882Z" fill="white" fill-opacity="0.3"/>
<path d="M148.219 41.7761H144.905V54.3114C143.198 51.7807 139.34 46.0072 137.514 43.2725C136.892 42.3418 135.862 41.7827 134.759 41.7794L133.063 41.7761V59.2233H136.402V47.5595L142.933 57.6857C143.552 58.6461 144.602 59.2233 145.727 59.2233H148.22V41.7761H148.219Z" fill="white" fill-opacity="0.3"/>
<path d="M157.945 41.8201H153.785L159.833 50.6209L153.977 59.1784H158.138L163.893 50.6226L157.945 41.8201ZM165.808 41.8201L163.35 45.4115L165.397 48.3878L169.944 41.8201H165.808ZM165.398 52.6123L163.346 55.5969L165.809 59.18H169.945L165.398 52.6139V52.6123Z" fill="white" fill-opacity="0.3"/>
</svg>
