<svg width="203" height="100" viewBox="0 0 203 100" fill="none" xmlns="http://www.w3.org/2000/svg">
<g clip-path="url(#clip0_5804_20492)">
<path d="M51.36 39.1699V44.8999H60.98V48.4299H51.36V57.0299H47.5V35.6399H62.15V39.1699H51.36Z" fill="white" fill-opacity="0.3"/>
<path d="M64.99 57.0301V41.3401H68.79V57.0301H64.99Z" fill="white" fill-opacity="0.3"/>
<path d="M86.56 59.1099C86.56 60.1399 86.33 60.9899 85.87 61.6699C85.41 62.3499 84.82 62.8899 84.11 63.2799C83.39 63.6699 82.58 63.9499 81.69 64.1099C80.79 64.2699 79.92 64.3499 79.06 64.3499C78.1 64.3499 77.15 64.2799 76.21 64.1399C75.26 63.9999 74.38 63.6399 73.56 63.0499C72.96 62.6299 72.5 62.1399 72.17 61.5699C71.84 61.0099 71.68 60.3499 71.68 59.6099C71.68 58.9299 71.84 58.2999 72.16 57.7199C72.48 57.1499 72.94 56.7099 73.53 56.4099C73.03 56.1299 72.65 55.7399 72.38 55.2499C72.11 54.7599 71.98 54.2499 71.98 53.7199C71.98 52.3699 72.6 51.3199 73.83 50.5499C73.35 50.0699 72.97 49.5099 72.7 48.8599C72.42 48.2199 72.28 47.4899 72.28 46.6899C72.28 45.7599 72.45 44.9399 72.79 44.2099C73.13 43.4799 73.59 42.8799 74.17 42.3999C74.75 41.9199 75.42 41.5499 76.19 41.2999C76.96 41.0499 77.78 40.9199 78.65 40.9199C79.29 40.9199 79.91 41.0099 80.5 41.1799C81.1 41.3499 81.65 41.5899 82.17 41.8899C82.51 41.2099 82.96 40.7099 83.51 40.3999C84.07 40.0899 84.68 39.9299 85.33 39.9299H85.84C86.06 39.9299 86.23 39.9499 86.35 39.9899V42.9199L86.05 42.8899C85.61 42.8899 85.22 42.9599 84.87 43.0999C84.52 43.2399 84.29 43.4999 84.17 43.8799C84.71 44.7699 84.98 45.7099 84.98 46.7199C84.98 47.6299 84.8 48.4299 84.46 49.1299C84.11 49.8399 83.65 50.4299 83.07 50.9099C82.49 51.3899 81.82 51.7699 81.05 52.0299C80.28 52.2899 79.48 52.4199 78.64 52.4199C77.76 52.4199 76.93 52.2799 76.13 51.9999C75.95 52.0999 75.78 52.2499 75.61 52.4399C75.44 52.6299 75.36 52.8599 75.36 53.1199C75.36 53.5799 75.54 53.8899 75.91 54.0399C76.28 54.1899 76.66 54.2699 77.06 54.2699H79.63C80.01 54.2699 80.42 54.2699 80.85 54.2799C81.29 54.2899 81.73 54.3299 82.18 54.3999C82.63 54.4699 83.07 54.5799 83.5 54.7199C83.93 54.8599 84.32 55.0599 84.68 55.3199C85.36 55.7799 85.84 56.3399 86.13 56.9799C86.41 57.6299 86.55 58.3399 86.55 59.0999L86.56 59.1099ZM83.04 59.1999C83.04 58.7199 82.91 58.3399 82.65 58.0799C82.39 57.8199 82.08 57.6299 81.71 57.5099C81.34 57.3899 80.94 57.3199 80.51 57.2999C80.08 57.2799 79.69 57.2699 79.33 57.2699H76.4C76 57.3899 75.67 57.6199 75.4 57.9499C75.13 58.2799 75 58.6999 75 59.1999C75 59.6999 75.13 60.0899 75.4 60.3799C75.67 60.6599 76 60.8799 76.4 61.0299C76.8 61.1799 77.23 61.2699 77.69 61.3199C78.15 61.3599 78.56 61.3799 78.91 61.3799C79.29 61.3799 79.72 61.3699 80.2 61.3399C80.68 61.3099 81.13 61.2199 81.54 61.0799C81.96 60.9399 82.31 60.7199 82.6 60.4299C82.89 60.1299 83.03 59.7299 83.03 59.2099L83.04 59.1999ZM81.39 46.7099C81.39 45.8699 81.14 45.1699 80.66 44.6099C80.17 44.0599 79.5 43.7799 78.64 43.7799C77.78 43.7799 77.11 44.0599 76.62 44.6099C76.13 45.1599 75.89 45.8599 75.89 46.7099C75.89 47.5599 76.13 48.2499 76.62 48.7899C77.11 49.3299 77.78 49.5999 78.64 49.5999C79.5 49.5999 80.17 49.3299 80.66 48.7899C81.15 48.2499 81.39 47.5499 81.39 46.7099Z" fill="white" fill-opacity="0.3"/>
<path d="M107.07 57.03V47.29C107.07 46.33 106.91 45.58 106.58 45.04C106.25 44.51 105.62 44.24 104.68 44.24C104.14 44.24 103.68 44.37 103.31 44.62C102.93 44.87 102.62 45.2 102.37 45.61C102.12 46.02 101.94 46.48 101.82 46.98C101.7 47.48 101.64 47.97 101.64 48.46V57.03H97.93V47.29C97.93 46.33 97.77 45.58 97.44 45.04C97.11 44.51 96.48 44.24 95.54 44.24C95 44.24 94.54 44.37 94.17 44.62C93.79 44.87 93.47 45.2 93.21 45.61C92.95 46.02 92.76 46.48 92.64 46.98C92.52 47.48 92.46 47.97 92.46 48.46V57.03H88.75V41.35H91.86L92.16 43.43C92.6 42.71 93.19 42.11 93.92 41.65C94.66 41.19 95.55 40.96 96.58 40.96C97.68 40.96 98.59 41.19 99.33 41.64C100.07 42.09 100.64 42.72 101.03 43.53C101.49 42.71 102.12 42.07 102.93 41.63C103.74 41.19 104.67 40.97 105.72 40.97C107.39 40.97 108.65 41.48 109.5 42.5C110.35 43.52 110.77 44.84 110.77 46.47V57.06H107.06L107.07 57.03Z" fill="white" fill-opacity="0.3"/>
<path d="M127.75 49.31C127.73 49.45 127.72 49.58 127.72 49.7V50.36H117.32C117.32 50.96 117.41 51.54 117.6 52.08C117.79 52.62 118.08 53.07 118.45 53.44C118.73 53.7 119.06 53.93 119.42 54.12C119.79 54.31 120.23 54.41 120.75 54.41C121.27 54.41 121.73 54.35 122.08 54.24C122.43 54.13 122.74 53.93 123.02 53.65C123.38 53.29 123.63 52.84 123.77 52.32H127.36C127.32 52.78 127.16 53.29 126.9 53.85C126.63 54.4 126.35 54.86 126.05 55.22C125.39 56 124.61 56.57 123.69 56.91C122.77 57.25 121.82 57.42 120.82 57.42C119.74 57.42 118.81 57.24 118.03 56.89C117.24 56.54 116.54 56.07 115.92 55.49C115.14 54.73 114.55 53.81 114.14 52.75C113.73 51.68 113.53 50.51 113.53 49.22C113.53 47.93 113.71 46.78 114.08 45.71C114.45 44.63 115.01 43.72 115.77 42.95C116.35 42.35 117.05 41.86 117.88 41.5C118.71 41.14 119.66 40.96 120.74 40.96C121.9 40.96 122.97 41.2 123.97 41.67C124.96 42.14 125.78 42.87 126.42 43.86C127 44.72 127.36 45.61 127.52 46.5C127.67 47.39 127.76 48.33 127.76 49.31H127.75ZM124.01 47.62C123.99 46.48 123.67 45.56 123.05 44.88C122.79 44.6 122.47 44.38 122.08 44.22C121.69 44.06 121.23 43.98 120.69 43.98C120.11 43.98 119.61 44.09 119.16 44.31C118.72 44.53 118.36 44.82 118.08 45.19C117.8 45.53 117.6 45.9 117.48 46.28C117.36 46.66 117.29 47.11 117.27 47.64H124L124.01 47.62Z" fill="white" fill-opacity="0.3"/>
<path d="M140.15 57.03V47.41C140.15 46.49 139.97 45.76 139.61 45.24C139.25 44.72 138.58 44.46 137.58 44.46C136.92 44.46 136.37 44.65 135.93 45.02C135.49 45.39 135.14 45.87 134.88 46.45C134.62 47.03 134.47 47.71 134.43 48.49C134.39 49.27 134.37 49.98 134.37 50.65V57.05H130.63V41.36H133.77L134.04 43.38C134.5 42.56 135.15 41.95 136 41.55C136.85 41.16 137.72 40.96 138.61 40.96C139.45 40.96 140.19 41.1 140.84 41.38C141.49 41.66 142.04 42.05 142.49 42.54C142.94 43.03 143.28 43.63 143.52 44.32C143.76 45.01 143.88 45.76 143.88 46.57V57.04H140.14L140.15 57.03Z" fill="white" fill-opacity="0.3"/>
<path d="M156.5 56.8199C155.42 57.0999 154.36 57.2399 153.3 57.2399C151.73 57.2399 150.55 56.8099 149.77 55.9599C148.99 55.1099 148.6 53.9199 148.6 52.4199V44.4499H145.76V41.3399H148.6V37.3599L152.34 36.4199V41.3399H156.26V44.4499H152.34V52.0799C152.34 52.6799 152.48 53.1199 152.76 53.3899C153.04 53.6599 153.48 53.7999 154.07 53.7999C154.47 53.7999 154.84 53.7999 155.19 53.7699C155.54 53.7499 155.97 53.7099 156.49 53.6499V56.8199H156.5Z" fill="white" fill-opacity="0.3"/>
<path fill-rule="evenodd" clip-rule="evenodd" d="M69.09 37.8599C69.09 36.6899 68.15 35.6499 66.87 35.6499C65.59 35.6499 64.65 36.6799 64.65 37.8599C64.65 39.0399 65.56 40.0099 66.87 40.0099C68.18 40.0099 69.09 39.0899 69.09 37.8599Z" fill="white" fill-opacity="0.3"/>
</g>
<defs>
<clipPath id="clip0_5804_20492">
<rect width="203" height="100" fill="white"/>
</clipPath>
</defs>
</svg>
