<svg width="203" height="100" viewBox="0 0 203 100" fill="none" xmlns="http://www.w3.org/2000/svg">
<g clip-path="url(#clip0_5804_20517)">
<path d="M107.725 42.2944V47.7812C108.62 46.5858 109.918 45.9838 111.621 45.9838C112.421 45.9838 113.117 46.087 113.719 46.3794C114.416 46.5772 115.018 46.9814 115.517 47.4802C116.119 47.979 116.514 48.581 116.815 49.2776C117.116 49.9742 117.211 50.8772 117.211 51.8748C117.211 52.9756 117.013 53.9732 116.609 54.9708C116.213 55.8652 115.611 56.665 114.717 57.267C113.823 57.869 112.825 58.1614 111.526 58.1614C109.729 58.1614 108.43 57.5594 107.631 56.4672V57.8604H104.139V42.2944H107.734H107.725ZM94.4554 45.6828C101.241 45.6828 100.639 52.967 100.639 52.967H91.4626C91.8582 54.3602 93.0622 55.3578 94.7564 55.3578C96.8548 55.3578 97.947 54.1624 97.947 54.1624L99.9422 56.1576C98.9446 57.1552 97.5514 58.0496 94.7564 58.0496C90.465 58.0496 88.1688 55.16 88.1688 52.1586C88.1688 49.1572 89.7684 45.6742 94.4554 45.6742V45.6828ZM178.374 45.5796C181.264 45.5796 183.164 46.6804 183.164 46.6804L181.866 49.2776C177.97 47.2824 176.276 48.6756 176.276 49.3808C176.276 50.086 176.972 50.1806 179.664 50.6794C182.356 51.1782 183.56 52.279 183.56 54.0678C183.56 55.8566 181.96 57.8604 178.168 57.8604C174.375 57.8604 172.681 56.665 172.681 56.665L173.876 54.171C176.869 56.063 180.266 55.4696 180.266 54.3688C180.266 53.569 179.165 53.3712 177.97 53.1734L177.471 53.0702C177.273 53.0702 176.972 52.967 176.775 52.967C175.278 52.7692 172.982 51.8662 172.982 49.5786C172.879 47.1878 175.476 45.5882 178.374 45.5882V45.5796ZM161.415 41.3914V50.774L166.506 45.9838H170.6L165.612 50.774L171.099 57.955H167.005L163.212 53.0616L161.415 54.7558V57.9464H158.027V41.3828H161.415V41.3914ZM149.341 45.5796C151.731 45.5796 153.83 46.775 155.025 48.5724L152.136 50.2666C151.637 49.269 150.536 48.5724 149.341 48.5724C147.543 48.5724 146.15 49.9656 146.15 51.763C146.15 53.5604 147.543 54.9536 149.341 54.9536C150.536 54.9536 151.534 54.3516 152.032 53.354L154.922 54.9536C153.727 56.6478 151.731 57.8432 149.332 57.8432C145.643 57.8432 142.744 55.0482 142.744 51.6598C142.641 48.2714 145.634 45.571 149.332 45.571L149.341 45.5796ZM133.671 45.5796C137.361 45.5796 140.259 48.3746 140.259 51.763C140.259 55.1514 137.266 57.9464 133.671 57.9464C130.077 57.9464 127.084 55.1514 127.084 51.763C126.981 48.2714 129.973 45.5796 133.671 45.5796ZM73.7036 45.8806V57.7572H70.0142V45.8806H73.7036ZM66.815 42.2858V45.2786H58.6364V49.269H65.8174V52.1586H58.6364V57.7486H54.947V42.2858H66.8236H66.815ZM81.5812 47.377C81.5812 47.377 82.8798 45.3818 85.5716 45.6828V48.9766C85.5716 48.9766 82.682 48.28 81.5812 51.2728V57.8604H78.0896V45.8892H81.3834L81.5812 47.3856V47.377ZM123.489 41.3914V57.7572H119.8V41.3914H123.489ZM110.615 48.5724C108.62 48.5724 107.622 49.7678 107.622 52.2618C107.622 53.1562 107.923 53.956 108.422 54.6526C108.921 55.2546 109.72 55.547 110.813 55.547C111.509 55.547 112.111 55.3492 112.507 55.0482C112.902 54.6526 113.203 54.2484 113.401 53.7496C113.599 53.2508 113.702 52.6488 113.702 52.15C113.702 51.1524 113.504 50.258 113.006 49.656C112.404 48.8562 111.612 48.5552 110.615 48.5552V48.5724ZM133.663 48.4692C131.865 48.4692 130.472 49.8624 130.472 51.6598C130.472 53.4572 131.865 54.8504 133.663 54.8504C135.46 54.8504 136.853 53.4572 136.853 51.6598C136.75 49.9656 135.357 48.4692 133.663 48.4692ZM94.4468 48.1682C92.6494 48.1682 91.6518 49.269 91.3508 50.6622H97.3364C97.3364 50.3612 96.7344 48.1682 94.4468 48.1682ZM71.8976 40.282C73.093 40.282 74.0906 41.1764 74.0906 42.2772C74.0906 43.378 73.093 44.2724 71.8976 44.2724C70.7022 44.2724 69.7046 43.378 69.7046 42.2772C69.7046 41.1764 70.7022 40.282 71.8976 40.282Z" fill="white" fill-opacity="0.3"/>
<path d="M42.6833 37.53C43.2853 37.53 43.6809 37.9256 43.6809 38.5276V61.481C43.6809 62.083 43.2853 62.4786 42.6833 62.4786H19.4375C18.8355 62.4786 18.4399 62.083 18.4399 61.481V38.5276C18.4399 37.9256 18.8355 37.53 19.4375 37.53H42.6833ZM31.1077 44.4186L24.1245 55.4954H38.1941L31.1077 44.4186Z" fill="white" fill-opacity="0.3"/>
</g>
<defs>
<clipPath id="clip0_5804_20517">
<rect width="203" height="100" fill="white"/>
</clipPath>
</defs>
</svg>
