<svg width="203" height="100" viewBox="0 0 203 100" fill="none" xmlns="http://www.w3.org/2000/svg">
<g clip-path="url(#clip0_5804_20529)">
<path d="M106.138 44.9901C106.484 45.0751 106.016 45.9819 106.076 46.2584C106.987 45.481 108.238 44.7454 109.458 44.6249C116.317 43.9476 115.933 53.007 112.37 56.6622C110.154 58.9363 106.147 59.9167 103.916 57.1657L102.707 62.9999H98.576L102.198 44.9901H106.138ZM108.466 47.8083C105.761 47.9617 104.653 51.5117 104.964 53.7718C105.237 55.7605 107.097 56.1219 108.609 55.0642C110.586 53.683 111.689 47.6244 108.466 47.8083Z" fill="white" fill-opacity="0.3"/>
<path d="M89.2978 39.7903L88.5225 43.5812L79.3764 43.651L78.6214 47.6537H85.9932L85.2395 51.5309L77.7381 51.5917L76.3972 58.4342H71.7581L75.3168 39.7903H89.2978Z" fill="white" fill-opacity="0.3"/>
<path d="M140.9 52.8536C140.443 56.0941 144.656 56.6331 145.921 54.1219H150.179C148.735 57.7036 145.365 59.1786 141.601 58.8133C135.983 58.2692 135.713 51.026 138.615 47.4659C141.837 43.5139 150.317 43.0484 150.818 49.3607C150.902 50.421 150.895 51.9125 150.495 52.8536H140.899H140.9ZM146.747 50.1902C146.8 49.1007 146.826 48.2002 145.637 47.8096C143.718 47.178 141.928 48.4108 141.282 50.1902H146.747Z" fill="white" fill-opacity="0.3"/>
<path d="M65.6573 37L62.1621 42.5805H41L44.5588 37H65.6573Z" fill="white" fill-opacity="0.3"/>
<path d="M123.996 49.1757C124.441 47.0183 120.165 46.8636 120.197 48.6087C120.216 49.6627 123.284 50.2486 124.157 50.6012C125.441 51.1212 126.8 51.8759 127.142 53.3293C128.75 60.1718 114.108 61.057 114.845 53.8683H118.467C118.935 55.0948 119.053 55.7403 120.516 55.8811C122.176 56.0409 124.211 54.8563 122.22 53.6743C120.47 52.6343 116.428 52.4441 116.116 49.7464C115.405 43.6294 126.688 42.7885 127.846 48.057C127.894 48.2764 128.04 49.1757 127.745 49.1757H123.996Z" fill="white" fill-opacity="0.3"/>
<path d="M135.943 41.3123L135.308 44.9904H137.469L136.898 48.1624L134.545 48.2879L133.403 54.8069C133.511 56.0283 135.525 55.2521 135.688 55.3904L135.054 58.3708C133.367 58.7843 130.238 59.1293 129.347 57.2142C128.373 55.1215 130.179 50.6076 130.35 48.2866H128.57L129.14 45.1134L130.972 44.9751L131.811 41.311H135.942L135.943 41.3123Z" fill="white" fill-opacity="0.3"/>
<path d="M95.1443 39.7903L91.5855 58.4342H87.2642L90.95 39.7903H95.1443Z" fill="white" fill-opacity="0.3"/>
<path d="M157.36 44.9904C157.741 45.0956 157.187 46.6531 157.17 47.0196C158.392 45.5116 159.997 44.5642 162 44.9904L161.241 48.7432C155.173 47.7793 156.228 54.7372 154.818 58.4343H150.687L153.42 44.9904H157.36Z" fill="white" fill-opacity="0.3"/>
<path d="M50.9139 43.9756L49.5158 47.4H56.5062L54.2184 51.839H42.3982L45.5121 43.9756H50.9139Z" fill="white" fill-opacity="0.3"/>
<path d="M97.5593 58.4341H93.365L95.9705 44.9902H99.9106C100.008 44.9902 100.153 45.2832 100.097 45.4176L97.5593 58.4341Z" fill="white" fill-opacity="0.3"/>
<path d="M49.5158 53.1074L42.3359 60.9721L44.5589 53.1074H49.5158Z" fill="white" fill-opacity="0.3"/>
<path d="M101.118 39.7903L100.292 43.5952H96.3518C96.2336 43.5051 96.1891 43.4633 96.1853 43.3085C96.1586 42.441 96.8805 40.7567 96.9237 39.7903H101.118Z" fill="white" fill-opacity="0.3"/>
</g>
<defs>
<clipPath id="clip0_5804_20529">
<rect width="121" height="26" fill="white" transform="translate(41 37)"/>
</clipPath>
</defs>
</svg>
