<svg width="203" height="100" viewBox="0 0 203 100" fill="none" xmlns="http://www.w3.org/2000/svg">
<g clip-path="url(#clip0_5804_20549)">
<g clip-path="url(#clip1_5804_20549)">
<path d="M74.555 42.8019V39.2415H62.6096V58.1185H66.5484V50.8343H74.3228V47.2739H66.5484V42.8019H74.5464H74.555Z" fill="white" fill-opacity="0.3"/>
<path d="M87.6356 58.5054C93.6298 58.5054 98.4372 54.1882 98.4372 48.6842C98.4372 43.1802 93.6298 38.863 87.6356 38.863C81.6414 38.863 76.8684 43.1544 76.8684 48.6842C76.8684 54.214 81.6414 58.5054 87.6356 58.5054ZM87.6356 54.859C83.8688 54.859 80.9276 52.2962 80.9276 48.6756C80.9276 45.055 83.8688 42.4664 87.6356 42.4664C91.4024 42.4664 94.3436 45.0292 94.3436 48.6756C94.3436 52.322 91.4024 54.859 87.6356 54.859Z" fill="white" fill-opacity="0.3"/>
<path d="M112.619 58.1185H116.927L112.447 50.9977C114.76 50.0001 116.351 47.8673 116.351 45.4937C116.351 42.0451 113.341 39.2415 109.617 39.2415H101.525V58.1185H105.515V51.5653H108.551L112.627 58.1185H112.619ZM105.506 42.7245H109.609C111.114 42.7245 112.352 43.9371 112.352 45.5023C112.352 47.0675 111.105 48.3059 109.609 48.3059H105.506V42.7245Z" fill="white" fill-opacity="0.3"/>
<path d="M127.806 39.2415H119.619V58.1185H127.806C133.491 58.1185 137.731 53.9905 137.731 48.6843C137.731 43.3781 133.491 39.2501 127.806 39.2501V39.2415ZM127.806 54.5581H123.687V42.8019H127.806C131.367 42.8019 133.843 45.2013 133.843 48.6843C133.843 52.1673 131.367 54.5667 127.806 54.5667V54.5581Z" fill="white" fill-opacity="0.3"/>
<path d="M144.86 54.5581V50.3269H152.643V46.8181H144.86V42.8019H153.374V39.2415H140.809V58.1185H153.52V54.5581H144.86Z" fill="white" fill-opacity="0.3"/>
<path d="M168.931 42.8019V39.2415H156.608V58.1185H160.675V50.8343H168.699V47.2739H160.675V42.8019H168.931Z" fill="white" fill-opacity="0.3"/>
<path d="M172.397 39.2415V58.1185H176.25V39.2415H172.397Z" fill="white" fill-opacity="0.3"/>
<path d="M38.0738 55.0054H25.75V58.0498C25.75 60.1998 27.4958 61.9456 29.6544 61.9456H34.6252L38.0824 55.014L38.0738 55.0054Z" fill="white" fill-opacity="0.3"/>
<path d="M25.75 46.9211H49.2452L46.519 52.7003H25.75V46.9211Z" fill="white" fill-opacity="0.3"/>
<path d="M33.9888 38.0547H25.75V44.5993H53.872V38.0547H45.6332V42.9481H43.9304V38.0547H35.6916V42.9481H33.9888V38.0547Z" fill="white" fill-opacity="0.3"/>
</g>
</g>
<defs>
<clipPath id="clip0_5804_20549">
<rect width="203" height="100" fill="white"/>
</clipPath>
<clipPath id="clip1_5804_20549">
<rect width="172" height="172" fill="white" transform="translate(15 -36)"/>
</clipPath>
</defs>
</svg>
