<svg width="203" height="100" viewBox="0 0 203 100" fill="none" xmlns="http://www.w3.org/2000/svg">
<g clip-path="url(#clip0_5804_20578)">
<path fill-rule="evenodd" clip-rule="evenodd" d="M138.377 58.5536H141.615V46.1458H138.377V58.5536Z" fill="white" fill-opacity="0.3"/>
<path fill-rule="evenodd" clip-rule="evenodd" d="M138.377 44.7271H141.615V41.5024H138.377V44.7271Z" fill="white" fill-opacity="0.3"/>
<path fill-rule="evenodd" clip-rule="evenodd" d="M133.433 58.5523H136.671V55.3269H133.433V58.5523Z" fill="white" fill-opacity="0.3"/>
<path fill-rule="evenodd" clip-rule="evenodd" d="M110.535 56.8688C110.724 57.368 111.012 57.759 111.354 58.0641C111.701 58.374 112.109 58.6153 112.591 58.7526C113.082 58.8892 113.623 58.9432 114.195 58.9432C114.768 58.9432 115.315 58.8822 115.766 58.7609C116.184 58.6493 116.585 58.4905 116.958 58.2894V56.0104C116.364 56.2663 115.81 56.3585 115.177 56.3883C114.509 56.4195 114.113 56.2288 113.784 55.9168C113.44 55.5896 113.256 55.1632 113.256 54.4484V47.5552H116.958V44.7271H113.256V41.5024H110.248V44.7271H108.445V47.5552H110.248V54.9566C110.248 55.7213 110.344 56.364 110.535 56.8688Z" fill="white" fill-opacity="0.3"/>
<path fill-rule="evenodd" clip-rule="evenodd" d="M91.0222 48.9233H82.9609V52.2582H87.4875C87.2512 53.2108 86.784 54.065 86.1139 54.7473C85.1032 55.7762 83.7019 56.3426 82.1677 56.3426C78.9834 56.3426 76.3934 53.762 76.3934 50.5907C76.3934 47.4194 78.9834 44.8388 82.1677 44.8388C83.8729 44.8388 85.4404 45.5655 86.5275 46.8197L89.1197 44.7099C87.4013 42.7041 84.8516 41.5039 82.1677 41.5039C77.1378 41.5039 73.0457 45.58 73.0457 50.5907C73.0457 55.6015 77.1378 59.6776 82.1677 59.6776C84.6097 59.6776 86.8605 58.8012 88.5066 57.1261C89.8878 55.72 90.8032 53.7586 90.9791 51.793C91.0646 50.8341 91.0723 49.8821 91.0222 48.9233Z" fill="white" fill-opacity="0.3"/>
<path fill-rule="evenodd" clip-rule="evenodd" d="M125.23 47.3002C127.087 47.3002 128.671 48.4629 129.29 50.0978H121.17C121.788 48.4629 123.373 47.3002 125.23 47.3002ZM132.496 52.7338C132.551 52.3712 132.581 52.0003 132.581 51.6224C132.581 47.5789 129.289 44.3015 125.23 44.3015C121.17 44.3015 117.88 47.5789 117.88 51.6224C117.88 55.6659 121.172 58.9433 125.23 58.9433C128.015 58.9433 130.437 57.4007 131.685 55.1272L128.969 53.8147C128.214 55.0891 126.822 55.9447 125.23 55.9447C123.218 55.9447 121.526 54.5795 121.035 52.729H129.424C129.424 52.729 129.424 52.7324 129.424 52.7338H132.496Z" fill="white" fill-opacity="0.3"/>
<path fill-rule="evenodd" clip-rule="evenodd" d="M99.452 55.9453C97.0552 55.9453 95.1123 54.0102 95.1123 51.6224C95.1123 49.2346 97.0552 47.2995 99.452 47.2995C101.849 47.2995 103.792 49.2346 103.792 51.6224C103.792 54.0102 101.849 55.9453 99.452 55.9453ZM99.4513 44.314C95.3932 44.314 92.1031 47.5914 92.1031 51.6342C92.1031 55.677 95.3932 58.9544 99.4513 58.9544C103.509 58.9544 106.799 55.677 106.799 51.6342C106.799 47.5914 103.509 44.314 99.4513 44.314Z" fill="white" fill-opacity="0.3"/>
<path fill-rule="evenodd" clip-rule="evenodd" d="M103.791 58.5529H106.799V44.7153H103.791V58.5529Z" fill="white" fill-opacity="0.3"/>
<path fill-rule="evenodd" clip-rule="evenodd" d="M150.65 55.9447C148.253 55.9447 146.311 54.0096 146.311 51.6224C146.311 49.2353 148.253 47.3002 150.65 47.3002C153.047 47.3002 154.989 49.2353 154.989 51.6224C154.989 54.0096 153.046 55.9447 150.65 55.9447ZM150.65 44.3015C146.591 44.3015 143.3 47.5789 143.3 51.6224C143.3 55.6659 146.591 58.9433 150.65 58.9433C154.709 58.9433 158 55.6659 158 51.6224C158 47.5789 154.709 44.3015 150.65 44.3015Z" fill="white" fill-opacity="0.3"/>
<path fill-rule="evenodd" clip-rule="evenodd" d="M57.0502 57.1497C53.0859 57.1497 49.8724 53.9485 49.8724 50C49.8724 46.0515 53.0859 42.8503 57.0502 42.8503V37C49.8425 37 44 42.8205 44 50C44 57.1795 49.8425 63 57.0502 63C64.2579 63 70.1004 57.1802 70.1004 50H64.228C64.228 53.9485 61.0145 57.1497 57.0502 57.1497Z" fill="white" fill-opacity="0.3"/>
<path fill-rule="evenodd" clip-rule="evenodd" d="M57.0496 49.9993H64.2274V42.8496H57.0496V49.9993Z" fill="white" fill-opacity="0.3"/>
</g>
<defs>
<clipPath id="clip0_5804_20578">
<rect width="114" height="26" fill="white" transform="translate(44 37)"/>
</clipPath>
</defs>
</svg>
