<svg width="203" height="100" viewBox="0 0 203 100" fill="none" xmlns="http://www.w3.org/2000/svg">
<g clip-path="url(#clip0_5804_20633)">
<path d="M37 60.8217C37.1347 60.3219 37.092 59.7355 37.1847 59.1996C37.2009 59.1074 37.2097 58.8362 37.3622 58.8972L40.7558 62.7479C40.8308 62.8418 40.7647 62.8795 40.7154 62.9501C40.3242 63.5164 39.3595 64.0435 38.8916 64.5874C38.623 64.8281 38.9577 65.3231 39.1118 65.5806C41.1309 68.9564 45.7473 68.2472 48.9385 67.3599C49.4515 67.2171 50.0807 66.9067 50.5736 66.8176C50.6405 66.8056 50.7881 66.7326 50.7922 66.8786C50.7946 66.9588 50.1597 68.1389 50.0525 68.3074C49.0078 69.9391 47.1421 71.1433 45.29 71.6736C44.4462 71.915 43.5968 71.9608 42.7474 72.1541L41.4745 74.86L41.4447 75.1729C41.51 75.1745 41.61 75.2619 41.6383 75.2619H43.8969C44.134 75.2619 43.7428 74.7164 43.7138 74.5616C43.3153 72.4261 45.0544 73.0205 46.3967 72.9347C50.9261 72.6443 55.5135 70.0394 58.1674 66.4302C58.732 65.6632 59.3766 64.1687 60.2002 63.7988C60.397 63.7106 60.6212 63.6592 60.835 63.628C60.9278 63.6336 60.864 63.8004 60.839 63.8726C60.2937 65.4538 58.9732 66.7254 58.0988 68.0467C57.6995 68.6499 58.0303 69.262 58.0569 69.9231C58.0835 70.5841 58.0867 71.4144 58.0569 72.0955C58.0407 72.4541 57.7842 72.9724 58.0182 73.2507L60.76 75.0165L72.9759 75.1809C72.9751 74.9411 72.7226 74.7766 72.6872 74.5447C72.663 74.3875 72.742 74.2359 72.7178 74.0418C72.4403 71.85 68.3885 69.6383 66.5517 68.7751C65.1328 68.1084 63.6405 67.6215 62.2031 66.9997C62.1902 66.4614 62.4136 65.9151 62.4144 65.3544C62.4144 64.7615 61.9933 63.6047 62.4047 63.1843C63.1622 62.4102 63.3639 64.4318 63.38 64.8698C63.3993 65.3945 63.2364 65.8598 63.3356 66.3588C65.737 67.3688 68.2191 68.2994 70.3721 69.7899C71.5304 70.5921 73.1478 71.9744 73.5648 73.3534C73.7148 73.8492 73.7011 74.7983 74.2206 75.1079C74.4763 75.2603 74.9547 75.1601 75.2741 75.1833C76.1679 75.2491 76.9713 75.2299 77.8594 75.2595C78.1425 75.2692 78.483 75.4802 78.7016 75.2226C78.6975 75.1312 77.7884 74.6755 77.6279 74.6073C77.1399 74.4004 76.6341 74.3482 76.2009 74.1813C75.8484 74.0458 74.3053 71.8998 73.9584 71.4377C72.5895 69.611 71.3287 67.6993 69.9437 65.8838C68.4143 63.8791 65.4329 60.9685 64.7884 58.6565C64.4319 57.3753 64.5577 56.2273 64.9086 54.967C58.4215 54.5378 52.7886 50.5523 50.7905 44.3382C49.0732 38.997 50.1162 33.3163 53.9381 29.1744V26.5663C49.103 30.0553 46.3112 35.5594 47.1872 41.5834C47.4994 43.7334 48.2915 45.7807 49.1789 47.7445C49.0651 47.8304 48.198 47.2768 48.0245 47.1685C46.9025 46.4698 45.8312 45.5921 44.9431 44.6174C44.7842 44.4433 44.051 43.4301 43.9751 43.4133C43.8428 43.3844 43.8082 43.5192 43.7678 43.6074C43.5629 44.0575 43.3653 45.118 43.3 45.629C42.7829 49.7132 44.8003 52.9045 48.0237 55.1909C48.4585 55.4997 49.0619 55.7701 49.4475 56.1014C49.5306 56.1728 49.6169 56.1792 49.5814 56.3284C46.2039 57.5679 42.7442 56.3284 40.0621 54.2017L39.9023 54.2843C40.4146 57.4588 42.3675 60.1952 45.3884 61.4218C45.8353 61.6031 46.3322 61.6753 46.7589 61.9064C46.8186 62.1823 45.3085 63.709 45.0262 63.9521C44.4906 64.4133 43.7251 64.7615 43.2612 65.165C43.1822 65.234 43.0612 65.2549 43.2072 65.3552C43.8929 65.8261 45.9482 65.599 46.7589 65.4346C49.0619 64.9685 51.5722 63.5782 52.8903 61.624C53.3654 61.7323 53.4485 62.2425 53.3347 62.6693C53.1702 63.2854 51.2576 64.6283 50.655 64.9773C47.6809 66.7005 43.8606 67.3567 40.8703 65.3126C40.8413 65.1779 40.9066 65.1498 41.0018 65.084C41.3914 64.8161 42.3667 64.5281 42.8878 64.232C43.1644 64.0748 43.4581 63.8782 43.7186 63.6945C43.9792 63.5108 45.1157 62.6685 45.0681 62.3885C43.1701 61.5277 41.514 60.208 40.4017 58.4391C39.1417 56.4359 38.7335 54.0116 38.7738 51.6755C40.5025 53.4043 42.6095 55.1034 45.0641 55.6473C45.386 55.7187 46.9541 56.0156 47.0816 55.7259C43.0144 52.8451 41.3624 48.3253 42.7668 43.4927C42.8531 43.1951 43.6089 41.1486 43.7356 41.0868C43.8622 41.025 43.9308 41.2753 43.963 41.3371C44.593 42.5476 45.3214 43.7325 46.3548 44.6567C46.4209 44.7161 46.9493 45.1549 47.0009 45.0963C46.8928 44.3864 46.6266 43.7133 46.4758 43.0121C44.9834 36.0512 47.9455 29.2923 53.8316 25.3766C54.0575 25.2266 54.6657 24.8014 54.8666 24.7212C55.0069 24.6651 54.9755 24.7589 54.9868 24.8391C55.0545 25.3494 55.0029 26.2222 54.99 26.7693C54.9851 26.9554 54.7552 28.0898 55.0271 28.0882C57.6245 25.8355 60.8834 24.3073 64.3455 24C62.2491 28.5278 61.7368 33.898 62.8524 38.7611C63.4695 41.4494 64.7102 44.0855 66.3348 46.2941L67.6528 45.6579L66.7857 44.2364C66.4574 43.1445 65.9927 41.2849 67.4544 40.8485C67.911 41.1766 68.253 41.7149 68.7015 42.0912C69.15 42.4674 69.972 42.9865 70.5366 43.0739C72.6436 43.4004 75.0087 41.1461 76.8527 42.9696C77.131 43.2448 77.3367 43.747 77.6142 43.9772C77.8917 44.2075 78.4063 44.3463 78.7306 44.5516C79.7115 45.1742 81.2683 47.3947 80.352 48.4625C79.7325 49.1845 79.4259 48.3189 78.7895 48.1833C78.0304 48.0213 77.4109 48.3237 76.7664 48.6679C75.8791 49.1404 74.5699 50.0477 74.87 51.1989C75.0281 51.8054 75.7734 52.8804 76.0557 53.5495C76.8503 55.4291 76.8269 57.0328 75.7194 58.7849C75.9001 59.9553 75.917 61.0239 75.679 62.1879C75.2604 64.2401 73.9601 65.9472 72.2871 67.1618L72.2491 67.2781C73.0429 68.4879 73.8931 69.7097 74.7659 70.8769C75.141 71.3791 76.1558 72.8761 76.5655 73.1785C76.9519 73.4633 78.0248 73.6631 78.5967 73.9663C78.8766 74.1148 79.2275 74.3394 79.4679 74.5439C79.7083 74.7485 80.0567 75.2636 80.2705 75.3502C80.6956 75.5235 81.5474 75.3911 82.0508 75.4248L82.7372 75.5836C80.6529 75.635 78.5677 75.6831 76.4825 75.7417C63.9414 76.0915 51.3439 76.1356 38.8182 75.5812C38.3762 75.562 37.9268 75.6029 37.484 75.5836C37.4792 75.509 37.9035 75.424 37.9268 75.424H39.9435C39.979 75.424 40.4154 75.2956 40.4331 75.2692C40.6388 73.8292 41.56 72.5368 42.1021 71.1922C42.7038 71.043 43.3258 71.0919 43.955 70.9892C45.1964 70.7871 46.6347 70.1902 47.6406 69.4401C47.7511 69.3575 48.6537 68.6323 48.5343 68.5248C45.2843 69.2701 41.2535 69.668 38.8529 66.8818C37.6518 65.4883 37.0815 63.4154 37 61.6248V60.8225V60.8217ZM62.6508 25.2836C56.93 26.4532 52.082 31.2682 51.1285 37.0483C50.5574 40.51 51.3786 44.3864 53.2605 47.3378C56.1346 51.8447 61.511 54.3557 66.8462 53.9233C66.3106 54.7368 65.6491 55.5166 65.5571 56.5314C65.3184 59.1491 66.8567 60.3982 68.2965 62.2281C68.6974 62.7383 71.3255 66.2858 71.582 66.3491C71.7643 66.3941 72.5629 65.6865 72.7347 65.5148C74.7554 63.4964 75.3685 60.8161 74.5675 58.0773C74.3489 57.3304 73.7382 56.468 73.981 55.6834C74.0189 55.5615 74.2682 55.2157 74.4319 55.324L75.3572 57.2109C75.6564 56.7496 75.6823 56.038 75.6298 55.4973C75.3798 52.927 72.1773 51.0241 75.0329 48.6262C75.5443 48.197 76.18 47.986 76.6672 47.6081C76.7341 47.5568 76.814 47.6097 76.7688 47.4244C75.9501 47.3434 75.1281 47.1677 74.3077 47.1035C72.3726 46.9519 70.4019 47.207 68.5934 46.3214L67.0438 47.1003C66.8978 47.3225 67.7593 47.9106 67.6536 48.2251C66.4638 48.708 65.6289 47.1116 65.0699 46.2628C62.0563 41.682 60.8285 36.2429 61.4529 30.7877C61.6675 28.9129 62.1579 27.0942 62.6524 25.2828L62.6508 25.2836ZM79.5098 47.3442C79.3864 46.5588 78.7838 45.7293 78.1151 45.3226C77.7892 45.1244 77.3649 45.0354 77.0632 44.8444C76.8398 44.7024 76.6906 44.4562 76.4833 44.2981C73.9851 42.3984 72.771 44.4618 70.3761 44.0342C69.2339 43.8304 68.3562 43.0739 67.4923 42.3704C67.3995 43.2937 67.79 44.404 68.5014 45.0161C70.1131 46.4008 72.6597 45.982 74.6296 46.1417C76.301 46.2772 77.9965 46.6254 79.5098 47.3442ZM38.0495 61.3031C38.0301 61.8197 38.0599 62.3348 38.1535 62.8434C38.185 63.0118 38.2632 63.6801 38.4915 63.628L39.4014 62.7872C39.4087 62.6998 38.4229 61.5798 38.2769 61.4371C38.2059 61.3673 38.2092 61.2614 38.0503 61.3023L38.0495 61.3031ZM56.4807 75.0213H58.699C58.7441 74.8344 58.6627 74.8889 58.5965 74.8376C58.0883 74.4405 57.1195 74.0201 56.959 73.3422C56.8445 72.856 57.0663 72.2095 57.0889 71.6952C57.0978 71.485 57.0953 69.3214 56.9631 69.3238L54.577 71.2075L54.6221 73.6567L56.4791 75.0205L56.4807 75.0213ZM53.6977 73.136C53.7518 72.7453 53.6582 72.2568 53.6977 71.8525L53.5332 71.7666C51.4827 72.836 48.9723 73.7433 46.6387 73.8973C46.3144 73.919 44.8036 73.8235 44.6979 73.9728C44.3906 74.4052 45.1795 74.706 45.4174 74.8721C45.5521 74.9659 45.565 75.1601 45.7506 75.1825L54.6649 75.0205C54.7149 74.8344 54.6205 74.8865 54.5625 74.8368C54.3785 74.6803 53.5437 74.1605 53.492 74.0578C53.3622 73.7979 53.6614 73.3903 53.6969 73.1352L53.6977 73.136Z" fill="white" fill-opacity="0.3"/>
<path d="M97.4183 40.4852C97.057 43.6901 93.5295 45.0419 90.6868 44.2918C85.805 43.0034 85.3194 36.0665 89.9423 34.093C92.359 33.0613 95.5517 33.7536 96.7682 36.186L95.6147 36.7612C93.7029 33.7191 88.8251 34.6473 88.1628 38.1796C87.8514 39.8386 88.4072 41.5353 89.8584 42.4691C92.0114 43.8554 95.6703 43.2208 96.0478 40.3648L92.2558 40.2838L92.8608 39.1615H97.4183C97.3845 39.5859 97.4651 40.0696 97.4183 40.4852Z" fill="white" fill-opacity="0.3"/>
<path d="M148.479 41.4879V33.8667H149.73L149.775 44.2604C149.497 44.303 148.876 44.3679 148.663 44.1923L143.398 36.6336L143.236 36.7146V43.8946L141.946 44.2155V33.8667L143.114 33.9485L148.252 41.3531L148.479 41.4879Z" fill="white" fill-opacity="0.3"/>
<path d="M105.364 33.8667C106.263 33.987 107.21 34.7796 107.596 35.5779C108.469 37.3789 107.648 39.3684 105.805 40.0864L108.147 44.2957H106.816L104.315 40.2846H101.855V44.1754L101.721 44.2829C101.335 44.2612 100.79 44.4161 100.484 44.1754V33.8667H105.364ZM101.855 35.0701V38.9609L101.976 39.0812H104.88C104.909 39.0812 105.353 38.932 105.424 38.9007C106.882 38.2702 107.026 36.0841 105.591 35.3252C105.511 35.2826 104.994 35.0701 104.961 35.0701H101.855Z" fill="white" fill-opacity="0.3"/>
<path d="M127.749 38.5197H132.064L132.185 38.64V39.8032H127.87L127.749 39.9236V43.7743C127.373 44.0527 126.835 44.1698 126.377 44.2155V33.8667H132.306C132.504 34.1338 132.501 34.8125 132.306 35.0701H127.87L127.749 35.1904V38.5197Z" fill="white" fill-opacity="0.3"/>
<path d="M123.07 33.8667V35.0701H118.472C118.498 35.1487 118.391 35.2441 118.391 35.2706V38.3993L118.512 38.5197H122.788L122.909 38.64V39.8032H118.593C118.491 39.8032 118.402 40.0543 118.387 40.1602C118.238 41.2633 118.504 42.7009 118.395 43.8417L117.1 44.2957V33.8667H123.069H123.07Z" fill="white" fill-opacity="0.3"/>
<path d="M137.186 33.8667V43.8946L135.896 44.2155V33.8667H137.186Z" fill="white" fill-opacity="0.3"/>
<path d="M112.745 33.8667V43.8946L111.454 44.2155V33.8667H112.745Z" fill="white" fill-opacity="0.3"/>
<path d="M134.202 72.8552V65.3543C134.604 65.0639 135.109 65.1923 135.572 65.2348V75.6638C135.195 75.6117 134.682 75.805 134.399 75.5066C132.768 73.2643 131.296 70.9026 129.669 68.6587C129.506 68.4341 129.293 68.0274 129.038 67.9624V75.1424C128.692 75.4472 128.107 75.4962 127.667 75.6638V65.2348L128.585 65.177L128.92 65.3928C130.588 67.6294 132.026 70.0458 133.683 72.2872C133.829 72.4854 133.985 72.7309 134.2 72.856L134.202 72.8552Z" fill="white" fill-opacity="0.3"/>
<path d="M115.568 75.6632H114.156L111.656 71.652H109.317L109.196 71.7723V75.5428L109.075 75.6632H107.905C107.931 75.5846 107.824 75.4891 107.824 75.4626V65.3545L107.945 65.2341H112.704C113.017 65.2341 113.852 65.7002 114.117 65.9152C116.148 67.5622 115.48 70.5778 113.15 71.5317L115.568 75.6632ZM109.317 66.4375L109.196 66.5578V70.3283L109.317 70.4487H112.22C113.889 70.4487 114.667 67.6874 113.044 66.7415C112.928 66.6733 112.311 66.4375 112.22 66.4375H109.317Z" fill="white" fill-opacity="0.3"/>
<path d="M156.385 75.6632H154.973L152.472 71.652H150.133L150.012 71.7723V75.6632H148.722V65.2341H153.521C153.836 65.2341 154.667 65.7002 154.934 65.9152C156.966 67.5462 156.304 70.5955 153.966 71.5317L156.385 75.6632ZM150.012 66.5177V70.3283L150.133 70.4487H153.037C153.442 70.4487 154.165 69.9713 154.403 69.6408C155.332 68.3532 154.522 66.6172 152.946 66.4471C152.598 66.4094 150.091 66.3942 150.012 66.5169V66.5177Z" fill="white" fill-opacity="0.3"/>
<path d="M95.9665 75.6632L99.9562 65.2285L101.461 65.2815L105.291 75.4971L105.202 75.6632H103.871L103.073 73.384L98.2348 73.3471L97.4168 75.6624H95.9648L95.9665 75.6632ZM98.7897 72.0531H102.5L100.685 66.9982L100.479 67.1948C99.9554 68.8249 99.2019 70.3981 98.7897 72.0531Z" fill="white" fill-opacity="0.3"/>
<path d="M164.539 67.8766C164.041 66.5465 162.329 65.875 161.059 66.5537C159.934 67.1554 159.954 68.5569 161.089 69.1794C163.073 70.2681 166.223 70.0868 165.988 73.2195C165.754 76.3394 160.803 76.5752 159.094 74.5327C158.945 74.3546 158.493 73.6487 158.481 73.4489C158.463 73.1633 159.504 72.6475 159.615 72.7277C160.149 74.3274 162.072 74.9098 163.586 74.3603C164.391 74.0691 164.892 73.3326 164.639 72.467C164.112 70.6684 159.343 71.1642 158.922 68.5264C158.257 64.3556 164.463 63.8213 165.655 67.2669L164.539 67.8758V67.8766Z" fill="white" fill-opacity="0.3"/>
<path d="M87.8192 75.6632V65.2341H92.6995C93.0455 65.2341 93.9425 65.7211 94.2305 65.9577C95.9995 67.413 95.7365 70.4198 93.6812 71.5052C93.4948 71.6031 92.864 71.8927 92.6995 71.8927H89.3115L89.1905 72.013V75.1417C88.8316 75.4907 88.2709 75.4955 87.8192 75.6632ZM89.1905 70.6091C89.856 70.5626 90.5054 70.7022 91.1701 70.6925C91.4959 70.6877 92.2114 70.6404 92.5188 70.5898C94.1297 70.3251 94.5838 67.8374 93.2988 66.8835C93.1181 66.7487 92.4155 66.4367 92.2155 66.4367H89.3115L89.1905 66.557V70.6083V70.6091Z" fill="white" fill-opacity="0.3"/>
<path d="M145.334 66.4375H140.776C140.732 66.4375 140.597 66.5618 140.494 66.5177V69.7266H144.809L144.93 69.847V71.0102H140.615L140.494 71.1305V74.2593L140.615 74.3796H145.293L145.414 74.4999V75.6632H139.203V65.2341H145.213C145.463 65.5358 145.28 66.0572 145.334 66.4375Z" fill="white" fill-opacity="0.3"/>
<path d="M125.006 65.2341C125.074 65.6633 125.074 66.0083 125.006 66.4375H122.142C122.129 66.4375 122 66.561 121.983 66.5995L121.868 75.23L120.57 75.664V66.5185C120.467 66.5626 120.331 66.4383 120.288 66.4383H117.505C117.4 66.0187 117.4 65.6545 117.505 65.2349H125.007L125.006 65.2341Z" fill="white" fill-opacity="0.3"/>
<path d="M112.543 49.5101C112.6 49.5197 112.708 49.5959 112.748 49.6497L115.932 54.9661C116.109 54.9661 116.238 54.6877 116.327 54.5569C117.423 52.9613 118.277 51.1025 119.4 49.5101H120.892V59.4979L119.601 59.9391V52.0371C119.601 52.0002 119.46 51.8574 119.402 51.9986L116.012 57.457L112.422 51.916V59.4971L111.131 59.9383V49.5093H112.543V49.5101Z" fill="white" fill-opacity="0.3"/>
<path d="M150.617 54.8049C150.799 54.8611 150.749 55.5478 150.737 55.7267C150.343 61.8654 140.443 61.6744 140.011 55.0849C139.718 50.618 144.634 47.803 148.392 50.1191C148.761 50.3461 149.961 51.3264 150.002 51.7307C150.023 51.9409 149.146 52.3838 148.934 52.4688C146.197 48.6261 140.313 51.1965 141.502 55.9288C142.435 59.6432 148.511 59.9913 149.368 56.0893C149.288 56.1141 149.196 56.0083 149.166 56.0083H145.576L146.181 54.8049H150.618H150.617Z" fill="white" fill-opacity="0.3"/>
<path d="M97.4183 56.2088C97.0675 59.3135 93.6166 60.6741 90.8506 60.013C84.5046 58.4984 85.7549 48.6365 93.0124 49.3593C94.2103 49.4789 96.1858 50.5122 96.7004 51.6321C96.8722 52.0059 95.9656 52.2594 95.6953 52.4704C94.4257 50.7071 92.2356 50.0894 90.2488 51.0849C87.9361 52.2442 87.3763 55.3913 88.9872 57.3729C90.8683 59.6865 95.4178 59.3552 96.0527 56.1422C96.0382 56.0909 95.8607 56.0083 95.8446 56.0083H92.255L92.8599 54.8049H97.4175C97.3812 55.2542 97.4676 55.7684 97.4175 56.2088H97.4183Z" fill="white" fill-opacity="0.3"/>
<path d="M136.057 57.2117V49.6305L136.191 49.523C136.577 49.5447 137.122 49.3899 137.428 49.6305V59.9393C137.069 59.8887 136.489 60.0628 136.215 59.8221L130.895 52.2378V59.4178C130.551 59.7283 129.973 59.8334 129.523 59.9393V49.5102C130.074 49.5503 130.412 49.3337 130.811 49.7934C132.626 51.8816 134.012 54.9181 135.817 57.0095C135.881 57.0841 135.959 57.1868 136.057 57.2117Z" fill="white" fill-opacity="0.3"/>
<path d="M108.469 59.9392H107.138L106.13 57.6528H101.531C101.227 57.7972 100.849 59.6135 100.523 59.9392H99.1921L103.024 49.5903C103.13 49.4628 104.528 49.4588 104.638 49.5903C104.704 49.669 104.914 50.2859 104.981 50.4527C106.117 53.3047 107.29 56.378 108.288 59.2773C108.362 59.4923 108.466 59.7065 108.469 59.9392ZM105.727 56.3291L103.792 51.275L101.936 56.3291H105.727Z" fill="white" fill-opacity="0.3"/>
<path d="M126.055 49.5103V59.4981C125.685 59.7387 125.192 59.8262 124.764 59.9393V49.5103H126.055Z" fill="white" fill-opacity="0.3"/>
</g>
<defs>
<clipPath id="clip0_5804_20633">
<rect width="129" height="52" fill="white" transform="translate(37 24)"/>
</clipPath>
</defs>
</svg>
