<svg width="203" height="100" viewBox="0 0 203 100" fill="none" xmlns="http://www.w3.org/2000/svg">
<g clip-path="url(#clip0_5804_20670)">
<path d="M131.1 43.0063L127.967 56.9906H110.427L113.403 43.0063H131.1ZM127.028 46.306H116.143L114.499 53.691H125.462L127.028 46.306Z" fill="white" fill-opacity="0.3"/>
<path d="M148.797 48.3486H145.665L148.017 51.5776L146.918 56.9906H143.629L144.725 51.6483H133.762L132.666 56.9906H129.377L132.36 43.0141L144.81 43C147.762 43.2341 149.414 45.4386 148.797 48.3486ZM145.508 48.3486C145.665 47.3021 145.358 46.5841 144.296 46.3437L134.996 46.3987L134.545 48.3502H145.508V48.3486Z" fill="white" fill-opacity="0.3"/>
<path d="M148.327 56.9906L151.304 43.0063L158.021 43.0221L162.424 56.6764L165.789 43.0063H169L165.639 57.0001L159.312 56.9686L154.593 43.1635L151.616 56.9906H148.327Z" fill="white" fill-opacity="0.3"/>
<path d="M110.897 48.3486H107.764L110.089 51.4471C110.377 52.4323 108.67 54.6902 107.909 55.3266C107.033 56.0572 105.057 56.9906 103.929 56.9906H91.4783L94.4602 43.0141L106.909 43C109.887 43.2357 111.461 45.4276 110.897 48.3486ZM107.608 48.3486C107.764 47.3021 107.458 46.5841 106.396 46.3437L97.096 46.3987L96.645 48.3502H107.608V48.3486ZM106.825 51.6483H95.8619L95.5487 53.6909H104.867C105.431 53.6909 106.97 52.371 106.825 51.6483Z" fill="white" fill-opacity="0.3"/>
<path d="M52.7935 56.9905L61.5153 43.0361L68.768 43.0046L71.1172 56.9905H67.8283L64.9326 43.1618L56.0041 56.9905H52.7935Z" fill="white" fill-opacity="0.3"/>
<path d="M78.7912 43.0063L76.5986 53.691H90.6937L90.0673 56.9906H72.5267L75.5023 43.0063H78.7912Z" fill="white" fill-opacity="0.3"/>
<path d="M54.5162 43.0063L51.5406 56.9906H48.2517L49.348 51.6483H41.7523L39.1682 48.3487H50.1311L51.2274 43.0063H54.5162Z" fill="white" fill-opacity="0.3"/>
<path d="M40.2645 43.0063L37.2889 56.9906H34L36.9756 43.0063H40.2645Z" fill="white" fill-opacity="0.3"/>
</g>
<defs>
<clipPath id="clip0_5804_20670">
<rect width="135" height="14" fill="white" transform="translate(34 43)"/>
</clipPath>
</defs>
</svg>
