<svg width="203" height="100" viewBox="0 0 203 100" fill="none" xmlns="http://www.w3.org/2000/svg">
<g clip-path="url(#clip0_5804_20734)">
<g clip-path="url(#clip1_5804_20734)">
<path d="M61.158 66.24H60.3244C51.9151 63.5801 48.0786 54.7889 52.5927 46.915C54.8483 42.9808 58.763 40.6136 60.6506 36.3142C61.8439 33.5957 62.251 30.7016 62.4127 27.76C65.2957 29.9738 67.2977 35.4638 67.2977 39.0522C67.2977 44.676 60.606 49.1483 58.802 54.2563C57.196 58.8011 59.1059 62.2668 61.1608 66.24H61.158Z" fill="white" fill-opacity="0.3"/>
<path d="M88.686 41.425V50.9049H98.4168V41.425H103.422V64.846H98.4168V55.3661H88.686V64.846H83.6812V41.425H88.686Z" fill="white" fill-opacity="0.3"/>
<path d="M134.008 41.425L150.69 64.846H145.267C143.24 62.766 141.776 59.5121 139.841 57.4628C139.649 57.2593 139.501 56.9526 139.155 57.039L133.311 64.846H127.888L136.456 52.9989L128.167 41.425H134.005H134.008Z" fill="white" fill-opacity="0.3"/>
<path d="M126.778 41.425V46.165H119.549V64.846H114.544V46.165H107.314V41.425H126.778Z" fill="white" fill-opacity="0.3"/>
<path d="M72.4336 61.9434C71.0283 63.4825 69.6063 63.9119 68.1119 64.9937C67.5905 65.3701 67.663 66.2763 66.885 65.9389C66.7652 65.8859 65.5495 64.3719 65.3738 64.1043C60.2965 56.3586 68.505 50.2552 71.0283 43.3823C76.6298 48.2366 77.5388 56.3475 72.4336 61.9434Z" fill="white" fill-opacity="0.3"/>
<path d="M150.411 41.425L143.602 50.3501C143.198 49.3575 141.132 47.5563 141.221 46.5972L144.991 41.425H150.414H150.411Z" fill="white" fill-opacity="0.3"/>
</g>
</g>
<defs>
<clipPath id="clip0_5804_20734">
<rect width="203" height="100" fill="white"/>
</clipPath>
<clipPath id="clip1_5804_20734">
<rect width="100.01" height="38.48" fill="white" transform="translate(50.68 27.76)"/>
</clipPath>
</defs>
</svg>
