<svg width="203" height="100" viewBox="0 0 203 100" fill="none" xmlns="http://www.w3.org/2000/svg">
<g clip-path="url(#clip0_5804_20745)">
<g clip-path="url(#clip1_5804_20745)">
<path fill-rule="evenodd" clip-rule="evenodd" d="M73.0353 57.9008H75.7833V42.0994H73.0353V57.9008Z" fill="white" fill-opacity="0.3"/>
<path fill-rule="evenodd" clip-rule="evenodd" d="M92.2966 46.449C90.7657 46.449 89.3576 47.0869 88.5197 48.4185C87.8937 47.1203 86.6421 46.449 85.0219 46.449C83.6473 46.449 82.3733 47.0533 81.6022 48.2953V46.6727H78.6297V58.1315H81.6022V51.7642C81.6022 50.1641 82.6862 48.9668 84.0608 48.9668H84.2395C85.4576 48.9668 86.0276 49.7389 86.0276 51.2608V58.1315H89V51.7642C89 50.1641 90.0728 48.9668 91.4474 48.9668H91.6262C92.8442 48.9668 93.3919 49.7389 93.3919 51.2608V58.1315H96.3645V50.9139C96.3645 49.5599 96.0404 48.4743 95.3922 47.6575C94.7329 46.8519 93.7047 46.449 92.2966 46.449Z" fill="white" fill-opacity="0.3"/>
<path fill-rule="evenodd" clip-rule="evenodd" d="M112.066 46.449C110.535 46.449 109.127 47.0869 108.289 48.4185C107.663 47.1203 106.411 46.449 104.791 46.449C103.417 46.449 102.143 47.0533 101.372 48.2953V46.6727H98.3989V58.1315H101.372V51.7642C101.372 50.1641 102.455 48.9668 103.83 48.9668H104.009C105.227 48.9668 105.797 49.7389 105.797 51.2608V58.1315H108.769V51.7642C108.769 50.1641 109.842 48.9668 111.217 48.9668H111.395C112.614 48.9668 113.161 49.7389 113.161 51.2608V58.1315H116.134V50.9139C116.134 49.5599 115.81 48.4743 115.162 47.6575C114.502 46.8519 113.474 46.449 112.066 46.449Z" fill="white" fill-opacity="0.3"/>
<path fill-rule="evenodd" clip-rule="evenodd" d="M134.585 54.3489V49.0784H137.144V46.6725H134.585V42.9573H131.612V46.6725H128.237H125.356H125.265V53.0398C125.265 54.6399 124.203 55.9492 122.906 55.9492H122.728C121.644 55.9492 121.029 55.1436 121.029 53.6664V46.6725H118.056V54.0022C118.056 55.3336 118.38 56.3855 119.029 57.1689C119.666 57.9634 120.638 58.355 121.923 58.355C123.342 58.355 124.56 57.6277 125.265 56.4527V58.1311H128.237V49.0784H131.612V55.1547C131.612 57.0906 132.652 58.1311 134.585 58.1311H137.491V55.6135H135.848C134.797 55.6135 134.585 55.4009 134.585 54.3489Z" fill="white" fill-opacity="0.3"/>
<path fill-rule="evenodd" clip-rule="evenodd" d="M145.213 53.454C145.213 54.8976 144.017 55.9494 142.665 55.9494H142.486C141.671 55.9494 141.067 55.4906 141.067 54.7857C141.067 54.3492 141.235 54.0248 141.57 53.7897C141.905 53.5547 142.297 53.4204 142.732 53.3868L145.213 53.1295V53.454ZM148.097 50.567C148.097 47.9261 146.174 46.449 143.291 46.449C140.475 46.449 138.609 48.0491 138.363 50.2201H141.347C141.414 49.5263 142.118 48.855 143.191 48.855H143.38C144.476 48.855 145.213 49.6493 145.213 50.6788V50.9586L142.33 51.2161C141.101 51.3168 140.095 51.6748 139.313 52.3014C138.531 52.9281 138.139 53.8233 138.139 54.987C138.106 57.0014 139.838 58.3776 141.894 58.3552C143.358 58.3552 144.565 57.7287 145.28 56.7328C145.303 57.337 145.347 57.807 145.414 58.1315H148.208C148.13 57.5944 148.097 56.755 148.097 55.6136V50.567Z" fill="white" fill-opacity="0.3"/>
<path fill-rule="evenodd" clip-rule="evenodd" d="M155.92 55.9493H155.741C154.378 55.9829 153.104 54.5059 153.126 52.4021C153.104 50.2983 154.378 48.8211 155.741 48.8549H155.92C157.417 48.8549 158.535 50.2311 158.535 52.3796C158.535 54.5281 157.406 55.9493 155.92 55.9493ZM156.423 46.4489C154.892 46.4489 153.618 47.3217 153.126 48.1609V42.0847H150.153V58.1314H153.126V56.6431C153.618 57.4823 154.892 58.3551 156.423 58.3551C159.63 58.4111 161.541 55.5352 161.507 52.4021C161.541 49.2687 159.63 46.3929 156.423 46.4489Z" fill="white" fill-opacity="0.3"/>
<mask id="mask0_5804_20745" style="mask-type:luminance" maskUnits="userSpaceOnUse" x="23" y="30" width="156" height="40">
<path d="M23.57 69.5799H178.149V30.4199H23.57V69.5799Z" fill="white"/>
</mask>
<g mask="url(#mask0_5804_20745)">
<path fill-rule="evenodd" clip-rule="evenodd" d="M162.994 58.1311H165.967V42.0845H162.994V58.1311Z" fill="white" fill-opacity="0.3"/>
</g>
<mask id="mask1_5804_20745" style="mask-type:luminance" maskUnits="userSpaceOnUse" x="23" y="30" width="156" height="40">
<path d="M23.57 69.5799H178.149V30.4199H23.57V69.5799Z" fill="white"/>
</mask>
<g mask="url(#mask1_5804_20745)">
<path fill-rule="evenodd" clip-rule="evenodd" d="M170.371 51.048C170.438 49.694 171.477 48.8548 172.729 48.8548H172.907C174.159 48.8548 175.198 49.694 175.265 51.048H170.371ZM172.93 46.4488C169.577 46.4041 167.454 48.9778 167.487 52.402C167.432 56.0611 170.058 58.3999 172.93 58.3552C175.735 58.3552 177.545 56.7886 178.104 54.5058H175.154C174.941 55.345 174.215 55.9494 173.142 55.9494H172.952C171.712 55.9494 170.482 54.8752 170.371 53.342H178.104C178.137 52.8496 178.148 52.4916 178.148 52.2677C178.182 48.922 176.271 46.4154 172.93 46.4488Z" fill="white" fill-opacity="0.3"/>
</g>
<mask id="mask2_5804_20745" style="mask-type:luminance" maskUnits="userSpaceOnUse" x="23" y="30" width="156" height="40">
<path d="M23.57 69.5799H178.149V30.4199H23.57V69.5799Z" fill="white"/>
</mask>
<g mask="url(#mask2_5804_20745)">
<path fill-rule="evenodd" clip-rule="evenodd" d="M54.001 51.541C53.9957 52.2824 53.5972 52.8021 52.9637 53.1667C50.5065 54.5814 48.0533 56.0029 45.5982 57.4217C45.1497 57.6808 44.7005 57.9389 44.2189 58.2162C44.2114 58.0949 44.2021 58.0131 44.202 57.9314C44.2009 57.2263 44.2089 56.521 44.1965 55.8161C44.193 55.6157 44.2597 55.5086 44.4328 55.4092C46.6656 54.1265 48.8901 52.8293 51.1263 51.5528C51.5243 51.3256 51.6989 51.0477 51.6956 50.5802C51.6783 48.1463 51.6876 45.712 51.6876 43.2778V42.852C52.2709 43.2046 52.8167 43.4936 53.3162 43.848C53.7716 44.171 54.001 44.6606 54.003 45.2237C54.0109 47.3295 54.0158 49.4353 54.001 51.541ZM53.9853 56.0453C53.933 56.6967 53.5515 57.1593 52.9883 57.4836C50.832 58.7252 48.6791 59.9724 46.5247 61.2173C45.8484 61.6081 45.172 61.999 44.4952 62.389C44.4137 62.4359 44.3292 62.4771 44.2185 62.5355C44.2116 62.4231 44.2023 62.341 44.2021 62.2587C44.2009 61.5439 44.2056 60.8291 44.1981 60.1144C44.1965 59.9529 44.2371 59.8529 44.3858 59.7671C47.5277 57.9569 50.6665 56.1411 53.8062 54.3269C53.8541 54.2991 53.9059 54.2781 53.9952 54.2351C53.9952 54.8696 54.0322 55.4608 53.9853 56.0453ZM39.8345 43.0183C39.4571 42.796 39.1349 42.7982 38.7575 43.019C36.6434 44.2557 34.5201 45.4766 32.3996 46.7025C32.3098 46.7544 32.2174 46.8022 32.059 46.8887C32.1151 46.0816 31.9429 45.3204 32.2174 44.5839C32.3675 44.1812 32.6476 43.8776 33.0188 43.6628C34.7879 42.6387 36.5562 41.6126 38.3293 40.5951C38.9766 40.2234 39.6361 40.2324 40.283 40.6055C42.2962 41.7665 44.308 42.9294 46.317 44.0978C46.4028 44.1478 46.5094 44.258 46.5109 44.3418C46.5254 45.1706 46.5196 45.9998 46.5196 46.8894C45.789 46.4671 45.1142 46.0775 44.4396 45.6874C42.9035 44.7995 41.3633 43.9186 39.8345 43.0183ZM41.8885 58.2279C41.6941 58.117 41.5532 58.0376 41.413 57.9566C39.6348 56.9292 37.8584 55.8984 36.0758 54.8785C35.8834 54.7685 35.8116 54.6509 35.8141 54.4265C35.8267 53.2676 35.8221 52.1087 35.8174 50.9499C35.8167 50.7932 35.8416 50.6846 35.9965 50.5981C36.6529 50.2313 37.3008 49.849 37.9523 49.4733C37.9994 49.4459 38.0505 49.4257 38.137 49.3844V50.6857C38.137 51.3908 38.1482 52.0959 38.1327 52.8006C38.1239 53.2026 38.2779 53.4734 38.6283 53.6712C39.6359 54.2402 40.6304 54.8322 41.639 55.3989C41.8375 55.5104 41.8974 55.6341 41.8936 55.8533C41.8803 56.6241 41.8885 57.3954 41.8885 58.2279ZM41.8887 62.5448C41.771 62.4839 41.682 62.4419 41.5969 62.3928C38.7989 60.777 36.0058 59.1523 33.2005 57.5493C32.4136 57.0995 32.0552 56.4591 32.0625 55.5599C32.0779 53.6473 32.0741 51.7344 32.0645 49.8216C32.0599 48.9578 32.4113 48.3328 33.1679 47.9018C35.1375 46.7801 37.0967 45.6401 39.0559 44.5002C39.2252 44.4016 39.3491 44.3856 39.5253 44.4916C40.2019 44.8989 40.89 45.2874 41.6097 45.7035C41.4728 45.785 41.3686 45.8485 41.2631 45.9095C39.1422 47.1359 37.0236 48.366 34.8978 49.5839C34.5492 49.7835 34.3878 50.0421 34.3909 50.4468C34.4018 51.9537 34.4029 53.4608 34.3903 54.9677C34.3868 55.3845 34.5516 55.6476 34.9102 55.8529C37.1533 57.1372 39.3877 58.4374 41.6294 59.7242C41.8191 59.8332 41.9 59.9459 41.8949 60.1739C41.8783 60.9459 41.8887 61.7187 41.8887 62.5448ZM42.2772 38.3313C42.8199 38.0649 43.393 38.0829 43.9189 38.3829C45.7446 39.4245 47.5651 40.4752 49.3778 41.5389C49.9613 41.8814 50.259 42.432 50.2621 43.1066C50.2731 45.4724 50.2685 47.8385 50.2623 50.2043C50.2621 50.2921 50.2055 50.4193 50.1353 50.461C49.433 50.8798 48.7221 51.2846 47.9525 51.7287V51.3567C47.9525 48.9231 47.9456 46.4896 47.9585 44.0562C47.9609 43.5889 47.7996 43.2876 47.3856 43.052C45.2655 41.8458 43.1579 40.6174 41.0464 39.3962C40.9551 39.3435 40.8658 39.2871 40.7279 39.2034C41.27 38.8952 41.7598 38.5853 42.2772 38.3313ZM43.1237 30.4199C32.3245 30.4199 23.57 39.1862 23.57 49.9999C23.57 60.8136 32.3245 69.5799 43.1237 69.5799C53.9228 69.5799 62.6773 60.8136 62.6773 49.9999C62.6773 39.1862 53.9228 30.4199 43.1237 30.4199Z" fill="white" fill-opacity="0.3"/>
</g>
</g>
</g>
<defs>
<clipPath id="clip0_5804_20745">
<rect width="203" height="100" fill="white"/>
</clipPath>
<clipPath id="clip1_5804_20745">
<rect width="155.134" height="39.16" fill="white" transform="translate(23.57 30.4199)"/>
</clipPath>
</defs>
</svg>
