<svg width="203" height="100" viewBox="0 0 203 100" fill="none" xmlns="http://www.w3.org/2000/svg">
<g clip-path="url(#clip0_5804_20773)">
<path d="M123.328 37.481C123.612 37.481 123.841 37.7098 123.841 37.9934V64.1101C123.841 64.3937 123.612 64.6226 123.328 64.6226H118.716C118.433 64.6226 118.204 64.3937 118.204 64.1101V37.9934C118.204 37.7098 118.433 37.481 118.716 37.481H123.328Z" fill="white" fill-opacity="0.3"/>
<path d="M115.432 44.2671C115.716 44.2671 115.945 44.496 115.945 44.7795V64.11C115.945 64.3935 115.716 64.6224 115.432 64.6224H110.821C110.537 64.6224 110.308 64.3935 110.308 64.11V44.7795C110.308 44.496 110.537 44.2671 110.821 44.2671H115.432Z" fill="white" fill-opacity="0.3"/>
<path d="M129.51 44.2671C127.622 44.2671 126.093 45.7958 126.093 47.6833V64.11C126.093 64.3935 126.322 64.6224 126.605 64.6224H131.217C131.501 64.6224 131.73 64.3935 131.73 64.11V50.7749C131.73 50.3035 132.112 49.9209 132.584 49.9209H136.507C136.979 49.9209 137.361 50.3035 137.361 50.7749V64.11C137.361 64.3935 137.59 64.6224 137.874 64.6224H142.486C142.769 64.6224 142.998 64.3935 142.998 64.11V47.6833C142.998 45.7958 141.469 44.2671 139.581 44.2671H129.508H129.51Z" fill="white" fill-opacity="0.3"/>
<path d="M113.129 36C111.419 36 110.028 37.387 110.028 39.1002C110.028 40.8134 111.417 42.2004 113.129 42.2004C114.841 42.2004 116.23 40.8134 116.23 39.1002C116.23 37.387 114.84 36 113.129 36Z" fill="white" fill-opacity="0.3"/>
<path d="M62.7937 47.8353C62.9936 47.6355 63.3199 47.6355 63.5198 47.8353L73.1652 57.51C73.3652 57.7115 73.6915 57.7115 73.8914 57.51L83.5368 47.8353C83.7367 47.6355 84.0614 47.6338 84.263 47.8353L86.4552 50.0268C87.2566 50.8279 87.2566 52.1244 86.4552 52.9255L74.9781 64.3987C74.1768 65.1998 72.8799 65.1998 72.0785 64.3987L60.5997 52.9272C59.7984 52.1261 59.7984 50.8296 60.5997 50.0285L62.792 47.837L62.7937 47.8353Z" fill="white" fill-opacity="0.3"/>
<path d="M69.1089 49.5145C68.909 49.7161 68.5826 49.7161 68.3827 49.5145L65.1157 46.2384C64.9158 46.0386 64.9158 45.714 65.1157 45.5142L72.0785 38.5537C72.8799 37.7526 74.1768 37.7526 74.9781 38.5537L81.9392 45.5125C82.1391 45.7123 82.1391 46.0369 81.9392 46.2367L78.6723 49.5128C78.4724 49.7144 78.146 49.7144 77.9461 49.5128L73.8897 45.4442C73.6898 45.2426 73.3635 45.2426 73.1635 45.4442L69.1072 49.5128L69.1089 49.5145Z" fill="white" fill-opacity="0.3"/>
<path d="M103.197 54.6199C103.123 54.5089 103.12 54.3671 103.19 54.2527L108.798 45.0426C109.006 44.701 108.76 44.2637 108.36 44.2637L103.357 44.2603C103.178 44.2603 103.014 44.3526 102.92 44.5046C101.673 46.5509 100.442 48.6074 99.1762 50.6418C98.814 51.2259 97.9118 50.968 97.9118 50.2797V38.8423C97.9118 38.5587 97.6846 38.3333 97.4009 38.3333H92.7858C92.5022 38.3333 92.2749 38.5587 92.2749 38.8423V64.1203C92.2749 64.4039 92.5039 64.6242 92.7875 64.6242H97.3992C97.6828 64.6242 97.9118 64.3953 97.9118 64.1118V58.2735C97.9118 57.5852 98.8157 57.3289 99.1813 57.9114C100.564 60.1063 102.048 62.2397 103.484 64.3987C103.579 64.5422 103.738 64.6276 103.911 64.6276H108.887C109.295 64.6276 109.539 64.1733 109.314 63.8317C107.275 60.7605 105.237 57.6911 103.197 54.6216V54.6199Z" fill="white" fill-opacity="0.3"/>
</g>
<defs>
<clipPath id="clip0_5804_20773">
<rect width="83" height="29" fill="white" transform="translate(60 36)"/>
</clipPath>
</defs>
</svg>
