<svg width="203" height="100" viewBox="0 0 203 100" fill="none" xmlns="http://www.w3.org/2000/svg">
<g clip-path="url(#clip0_5804_20808)">
<path d="M145.625 68.361V71.0098H163.78V59.0816H161.131V68.361H145.625ZM145.625 28.9988V31.6476H161.131V40.9356H163.78V29.0074H145.625V28.9988ZM136.269 49.4582V43.3092H140.414C142.435 43.3092 143.166 43.98 143.166 45.8204V46.9126C143.166 48.8046 142.469 49.4496 140.414 49.4496H136.269V49.4582ZM142.856 50.5504C144.748 50.0602 146.073 48.2972 146.073 46.1902C146.073 44.8658 145.557 43.679 144.568 42.7158C143.321 41.5204 141.661 40.927 139.511 40.927H133.68V59.0816H136.277V51.849H140.164C142.16 51.849 142.968 52.6746 142.968 54.7558V59.0902H145.617V55.1772C145.617 52.322 144.946 51.2384 142.865 50.9202V50.559L142.856 50.5504ZM121.021 51.1438H129.01V48.7616H121.021V43.3178H129.784V40.9356H118.372V59.0902H130.171V56.708H121.021V51.161V51.1438ZM112.335 52.107V53.354C112.335 55.977 111.372 56.8284 108.964 56.8284H108.396C105.988 56.8284 104.818 56.0544 104.818 52.4424V47.5662C104.818 43.937 106.04 43.1802 108.448 43.1802H108.964C111.32 43.1802 112.077 44.066 112.103 46.4998H114.958C114.7 42.9222 112.309 40.669 108.731 40.669C106.994 40.669 105.541 41.2108 104.457 42.2514C102.823 43.7822 101.92 46.3708 101.92 50.0086C101.92 53.6464 102.694 56.106 104.302 57.7142C105.395 58.7806 106.9 59.3482 108.37 59.3482C109.927 59.3482 111.354 58.729 112.077 57.3788H112.438V59.0902H114.82V49.7334H107.794V52.1156H112.335V52.107ZM89.4673 43.3178H92.2967C94.9713 43.3178 96.4161 43.9886 96.4161 47.6264V52.3994C96.4161 56.0286 94.9627 56.708 92.2967 56.708H89.4673V43.3264V43.3178ZM92.5289 59.0816C97.4825 59.0816 99.3229 55.3234 99.3229 50.0086C99.3229 44.6938 97.3535 40.9356 92.4773 40.9356H86.8787V59.0902H92.5289V59.0816ZM74.3485 51.1438H82.3379V48.7616H74.3485V43.3178H83.1119V40.9356H71.6997V59.0902H83.4989V56.708H74.3485V51.161V51.1438ZM59.0491 40.927H56.4003V59.0816H68.3285V56.6994H59.0405V40.9356L59.0491 40.927ZM38.2285 59.0816V71.0098H56.3831V68.361H40.8773V59.0816H38.2285ZM38.2285 28.9988V40.927H40.8773V31.639H56.3831V28.9902H38.2285V28.9988Z" fill="white" fill-opacity="0.3"/>
</g>
<defs>
<clipPath id="clip0_5804_20808">
<rect width="203" height="100" fill="white"/>
</clipPath>
</defs>
</svg>
