<svg width="203" height="100" viewBox="0 0 203 100" fill="none" xmlns="http://www.w3.org/2000/svg">
<g clip-path="url(#clip0_5804_20813)">
<path d="M93.1011 37.448V58.168H102.985V61.656H89.0702V41.576L93.093 37.448H93.1011Z" fill="white" fill-opacity="0.3"/>
<path d="M112.749 62.1359C107.586 62.1359 104.102 58.3439 104.102 52.7679C104.102 47.1919 107.763 43.5039 112.749 43.5039C118.643 43.5039 121.036 48.1519 121.068 53.1759C121.068 53.4239 121.068 53.6799 121.036 53.9279H107.787C108.084 57.0399 110.019 58.9519 112.741 58.9519C114.701 58.9519 116.371 58.1679 116.965 56.4159H120.795C119.799 60.0079 116.837 62.1279 112.741 62.1279L112.749 62.1359ZM117.278 51.1279C117.045 48.5919 115.616 46.5759 112.757 46.5759C109.899 46.5759 108.197 48.3919 107.835 51.1279H117.286H117.278Z" fill="white" fill-opacity="0.3"/>
<path d="M136.71 47.16H136.742V37.24H140.668V61.656H136.678V58.616H136.646C135.706 60.776 133.546 62.16 131.186 62.104C126.488 62.104 123.196 58.376 123.196 52.768C123.196 47.16 126.456 43.536 131.186 43.536C133.602 43.488 135.794 44.936 136.71 47.16ZM131.98 58.92C135.377 58.92 136.967 55.984 136.967 52.768C136.967 49.552 135.305 46.72 131.98 46.72C128.656 46.72 127.026 49.352 127.026 52.768C127.026 56.184 128.72 58.928 131.98 58.928V58.92Z" fill="white" fill-opacity="0.3"/>
<path d="M147.654 43.9761V47.0881C148.554 45.0721 150.151 43.4961 152.817 43.4961C157.274 43.4961 159.008 46.5361 159.008 50.6081V61.6481H155.178V51.4241C155.178 48.6881 154.279 46.9121 151.886 46.9121C149.493 46.9121 147.726 49.0321 147.726 53.4481V61.6561H143.864V43.9761H147.662H147.654Z" fill="white" fill-opacity="0.3"/>
<path d="M67.4304 58.856L60.9184 65.608H44V41.136L50.8733 34V58.856H67.4304Z" fill="white" fill-opacity="0.3"/>
<path d="M51.7244 41.1521L58.2364 34.3921H75.1628V58.8641L68.2814 66.0001V41.1521H51.7244Z" fill="white" fill-opacity="0.3"/>
</g>
<defs>
<clipPath id="clip0_5804_20813">
<rect width="115" height="32" fill="white" transform="translate(44 34)"/>
</clipPath>
</defs>
</svg>
