<svg width="28" height="28" viewBox="0 0 28 28" fill="none" xmlns="http://www.w3.org/2000/svg">
<g clip-path="url(#clip0_1969_259533)">
<path d="M7.28235 19.2626C7.66223 18.8827 8.28303 18.8734 8.67218 19.2626C9.05207 19.6425 9.05207 20.2725 8.67218 20.6524C8.28303 21.0416 7.66223 21.0323 7.28235 20.6524C6.8932 20.2633 6.8932 19.6517 7.28235 19.2626ZM10.2936 16.2513C10.6735 15.8714 11.2943 15.8621 11.6835 16.2513C12.0634 16.6312 12.0634 17.2612 11.6835 17.6411C11.3036 18.021 10.6735 18.021 10.2936 17.6411C9.90449 17.252 9.91376 16.6312 10.2936 16.2513ZM13.3049 13.24C13.6848 12.8601 14.3056 12.8508 14.6948 13.24C15.0747 13.6199 15.0747 14.2499 14.6948 14.6298C14.3149 15.0097 13.6848 15.0097 13.3049 14.6298C12.9158 14.2407 12.9251 13.6199 13.3049 13.24ZM16.3162 10.2287C16.6961 9.84879 17.3169 9.83952 17.7061 10.2287C18.086 10.6086 18.086 11.2386 17.7061 11.6185C17.3262 11.9984 16.6961 11.9984 16.3162 11.6185C15.9271 11.2294 15.9364 10.6086 16.3162 10.2287ZM19.3275 7.21738C19.7074 6.83749 20.3282 6.82822 20.7174 7.21738C21.0973 7.59726 21.0973 8.22732 20.7174 8.60721C20.3375 8.98709 19.7074 8.98709 19.3275 8.60721C18.9384 8.21805 18.9477 7.59726 19.3275 7.21738Z" fill="#1C1C77"/>
<path d="M19.3273 19.2626C19.7072 18.8827 20.328 18.8734 20.7172 19.2626C21.0971 19.6425 21.0971 20.2725 20.7172 20.6524C20.3373 21.0323 19.7072 21.0323 19.3273 20.6524C18.9382 20.2633 18.9474 19.6425 19.3273 19.2626ZM16.316 16.2513C16.6959 15.8714 17.3167 15.8621 17.7059 16.2513C18.0858 16.6312 18.0858 17.2612 17.7059 17.6411C17.326 18.021 16.6959 18.021 16.316 17.6411C15.9269 17.252 15.9361 16.6312 16.316 16.2513ZM13.3047 13.24C13.6846 12.8601 14.3054 12.8508 14.6946 13.24C15.0745 13.6199 15.0745 14.2499 14.6946 14.6298C14.3147 15.0097 13.6846 15.0097 13.3047 14.6298C12.9156 14.2407 12.9248 13.6199 13.3047 13.24ZM10.2934 10.2287C10.6733 9.84879 11.3034 9.84879 11.6833 10.2287C12.0632 10.6086 12.0632 11.2386 11.6833 11.6185C11.3034 11.9984 10.6733 11.9984 10.2934 11.6185C9.91355 11.2386 9.91355 10.6086 10.2934 10.2287ZM7.28214 7.21738C7.66202 6.83749 8.28281 6.82822 8.67197 7.21738C9.05185 7.59726 9.05185 8.22732 8.67197 8.60721C8.29208 8.98709 7.66202 8.98709 7.28214 8.60721C6.89298 8.21805 6.90225 7.59726 7.28214 7.21738Z" fill="#1C1C77"/>
</g>
<defs>
<clipPath id="clip0_1969_259533">
<rect width="19" height="19" fill="white" transform="translate(14 0.5) rotate(45)"/>
</clipPath>
</defs>
</svg>
