<svg width="203" height="100" viewBox="0 0 203 100" fill="none" xmlns="http://www.w3.org/2000/svg">
<g clip-path="url(#clip0_5804_20902)">
<path d="M162.37 58.3163L157.046 46.0957H160.607L164.244 54.8591L168.441 46.0957H171.941L163.66 62.9345H160.099L162.361 58.3249L162.37 58.3163ZM149.409 55.7879C149.728 55.7191 150.029 55.6073 150.312 55.4525C150.588 55.3063 150.846 55.1257 151.069 54.9193C151.301 54.7129 151.499 54.4635 151.663 54.1969C151.835 53.9131 151.964 53.6121 152.05 53.3025C152.144 52.9585 152.196 52.6059 152.187 52.2447C152.187 51.8835 152.144 51.5223 152.05 51.1783C151.964 50.8601 151.826 50.5591 151.663 50.2839C151.499 50.0173 151.301 49.7679 151.069 49.5615C150.846 49.3465 150.588 49.1745 150.312 49.0283C150.029 48.8821 149.719 48.7789 149.409 48.7015C149.083 48.6241 148.747 48.5897 148.403 48.5897C148.068 48.5897 147.732 48.6241 147.406 48.7015C147.096 48.7703 146.795 48.8821 146.511 49.0283C146.236 49.1745 145.978 49.3465 145.754 49.5615C145.522 49.7765 145.324 50.0173 145.161 50.2839C144.989 50.5677 144.86 50.8687 144.774 51.1783C144.679 51.5223 144.636 51.8835 144.636 52.2447C144.636 52.5973 144.679 52.9585 144.774 53.3025C144.86 53.6207 144.989 53.9217 145.161 54.1969C145.324 54.4635 145.522 54.7043 145.754 54.9193C145.987 55.1257 146.245 55.3063 146.511 55.4525C146.795 55.6073 147.087 55.7191 147.406 55.7879C147.732 55.8653 148.068 55.8997 148.403 55.8997C148.739 55.8997 149.074 55.8653 149.409 55.7879ZM145.815 58.5227C145.264 58.3851 144.74 58.1701 144.249 57.8949C143.295 57.3531 142.504 56.5619 141.97 55.6073C141.695 55.1085 141.48 54.5839 141.343 54.0335C141.05 52.8553 141.05 51.6169 141.343 50.4387C141.48 49.8883 141.695 49.3637 141.97 48.8735C142.512 47.9189 143.295 47.1277 144.249 46.5945C144.74 46.3193 145.264 46.1043 145.815 45.9667C146.399 45.8205 147.001 45.7431 147.603 45.7517C147.93 45.7517 148.257 45.7689 148.575 45.8119C148.876 45.8463 149.169 45.9065 149.452 45.9925C149.719 46.0699 149.986 46.1645 150.235 46.2677C150.476 46.3709 150.708 46.4913 150.923 46.6289C151.129 46.7579 151.327 46.9127 151.499 47.0761C151.663 47.2309 151.817 47.4029 151.964 47.5835V46.1129H155.352V58.4109H151.964V56.9403C151.749 57.2155 151.499 57.4563 151.224 57.6713C150.923 57.9121 150.588 58.1099 150.235 58.2647C149.839 58.4367 149.435 58.5657 149.014 58.6431C148.549 58.7291 148.068 58.7721 147.595 58.7721C146.993 58.7721 146.391 58.7033 145.806 58.5571M133.517 49.2433C133.998 49.2519 134.488 49.2003 134.953 49.0799C135.323 48.9853 135.658 48.8133 135.959 48.5811C136.226 48.3575 136.432 48.0737 136.552 47.7469C136.681 47.3771 136.75 46.9901 136.742 46.6031C136.742 46.2161 136.681 45.8291 136.552 45.4679C136.432 45.1497 136.226 44.8659 135.959 44.6509C135.667 44.4187 135.323 44.2467 134.953 44.1521C134.48 44.0317 133.998 43.9801 133.517 43.9887H130.188V49.2519H133.517V49.2433ZM126.688 41.0819H133.852C134.979 41.0819 135.95 41.2195 136.776 41.4947C137.602 41.7699 138.281 42.1483 138.814 42.6385C139.347 43.1201 139.76 43.7221 140.01 44.3929C140.276 45.0981 140.414 45.8549 140.405 46.6117C140.405 47.3685 140.276 48.1167 140.01 48.8219C139.752 49.4927 139.339 50.0861 138.814 50.5677C138.281 51.0579 137.602 51.4449 136.776 51.7201C135.95 51.9953 134.979 52.1329 133.852 52.1329H130.197V58.4195H126.697V41.0733L126.688 41.0819ZM111.638 46.1301H115.001V47.6007C115.207 47.3169 115.457 47.0589 115.732 46.8439C116.024 46.6117 116.342 46.4225 116.686 46.2677C117.065 46.0957 117.452 45.9753 117.865 45.8979C118.312 45.8119 118.768 45.7689 119.223 45.7775C119.937 45.7689 120.642 45.8893 121.313 46.1301C121.907 46.3537 122.448 46.6977 122.896 47.1535C123.343 47.6265 123.678 48.1855 123.885 48.7961C124.125 49.5013 124.237 50.2409 124.229 50.9891V58.4195H120.866V51.8577C120.866 51.3761 120.806 50.9031 120.668 50.4387C120.548 50.0603 120.359 49.7077 120.092 49.4153C119.843 49.1401 119.524 48.9251 119.18 48.7961C118.785 48.6499 118.363 48.5811 117.942 48.5897C117.521 48.5897 117.099 48.6499 116.695 48.7961C116.342 48.9251 116.024 49.1401 115.775 49.4153C115.517 49.7163 115.319 50.0603 115.199 50.4387C115.061 50.8945 114.992 51.3761 115.001 51.8577V58.4195H111.638V46.1215V46.1301ZM103.365 55.7879C103.683 55.7105 103.993 55.5987 104.294 55.4439C104.578 55.2977 104.827 55.1171 105.051 54.8935C105.274 54.6785 105.463 54.4291 105.627 54.1625C105.79 53.8873 105.911 53.5863 105.979 53.2767C106.057 52.9413 106.1 52.5973 106.1 52.2533C106.1 51.9093 106.065 51.5653 105.979 51.2299C105.833 50.6107 105.506 50.0517 105.051 49.6131C104.827 49.3981 104.569 49.2089 104.294 49.0627C104.001 48.9079 103.692 48.7875 103.365 48.7187C103.012 48.6413 102.66 48.5983 102.299 48.5983C101.946 48.5983 101.585 48.6327 101.241 48.7187C100.923 48.7961 100.613 48.9079 100.321 49.0627C100.045 49.2089 99.7874 49.3981 99.5638 49.6131C99.3402 49.8281 99.151 50.0775 99.0048 50.3441C98.85 50.6193 98.7296 50.9203 98.6522 51.2213C98.5662 51.5567 98.5232 51.9007 98.5232 52.2447C98.5232 52.5887 98.5662 52.9327 98.6522 53.2681C98.7296 53.5777 98.85 53.8701 99.0048 54.1539C99.1596 54.4205 99.3402 54.6699 99.5638 54.8849C99.7874 55.1085 100.045 55.2891 100.321 55.4353C100.613 55.5815 100.923 55.7019 101.241 55.7793C101.585 55.8653 101.937 55.9083 102.299 55.8997C102.66 55.8997 103.021 55.8567 103.365 55.7793M100.312 58.5485C99.7014 58.4109 99.1166 58.1959 98.5576 57.9207C98.033 57.6627 97.5514 57.3273 97.1128 56.9317C96.6914 56.5533 96.3302 56.1147 96.0292 55.6245C95.7282 55.1343 95.496 54.6011 95.3412 54.0421C95.023 52.8639 95.023 51.6255 95.3412 50.4473C95.496 49.8883 95.7282 49.3637 96.0292 48.8735C96.3302 48.3919 96.6914 47.9533 97.1128 47.5663C97.5428 47.1707 98.033 46.8353 98.5576 46.5773C99.1166 46.3021 99.7014 46.0871 100.312 45.9495C101.628 45.6485 102.987 45.6485 104.302 45.9495C104.904 46.0871 105.489 46.3021 106.04 46.5773C106.564 46.8439 107.046 47.1793 107.484 47.5663C107.914 47.9447 108.284 48.3833 108.585 48.8735C108.895 49.3637 109.127 49.8969 109.282 50.4473C109.609 51.6255 109.609 52.8639 109.282 54.0421C109.127 54.6011 108.895 55.1343 108.585 55.6245C108.284 56.1061 107.906 56.5447 107.484 56.9317C107.046 57.3187 106.564 57.6541 106.04 57.9207C105.489 58.1959 104.904 58.4109 104.302 58.5485C102.987 58.8495 101.619 58.8495 100.312 58.5485ZM87.1884 55.7793C87.5066 55.7019 87.8162 55.5901 88.1172 55.4353C88.401 55.2891 88.6504 55.1085 88.874 54.8849C89.0976 54.6699 89.2868 54.4205 89.4502 54.1539C89.6136 53.8787 89.734 53.5777 89.8028 53.2681C89.8802 52.9327 89.9232 52.5887 89.9232 52.2447C89.9232 51.9007 89.8888 51.5567 89.8028 51.2213C89.6566 50.6021 89.3298 50.0431 88.874 49.6045C88.6504 49.3895 88.3924 49.2003 88.1172 49.0541C87.8248 48.8993 87.5152 48.7789 87.1884 48.7101C86.8358 48.6327 86.4832 48.5897 86.122 48.5897C85.7694 48.5897 85.4082 48.6241 85.0642 48.7101C84.746 48.7875 84.4364 48.8993 84.144 49.0541C83.8688 49.2089 83.6108 49.3895 83.3872 49.6045C83.1636 49.8195 82.9744 50.0689 82.8282 50.3355C82.6734 50.6107 82.5616 50.9117 82.4756 51.2127C82.3896 51.5481 82.3466 51.8921 82.3466 52.2361C82.3466 52.5801 82.3896 52.9241 82.4756 53.2595C82.553 53.5691 82.6734 53.8615 82.8282 54.1453C82.983 54.4119 83.1636 54.6613 83.3872 54.8763C83.6108 55.0999 83.8688 55.2805 84.144 55.4267C84.4364 55.5729 84.746 55.6933 85.0642 55.7707C85.4082 55.8567 85.7608 55.8997 86.122 55.8911C86.4832 55.8911 86.8444 55.8481 87.1884 55.7707M84.1354 58.5399C83.5248 58.4023 82.94 58.1873 82.381 57.9121C81.8564 57.6541 81.3748 57.3187 80.9362 56.9231C80.5148 56.5447 80.1536 56.1061 79.8526 55.6159C79.5516 55.1257 79.3194 54.5925 79.1646 54.0335C78.8464 52.8553 78.8464 51.6169 79.1646 50.4387C79.3194 49.8797 79.5516 49.3551 79.8526 48.8649C80.1536 48.3833 80.5148 47.9447 80.9362 47.5577C81.3662 47.1621 81.8564 46.8267 82.381 46.5687C82.94 46.2935 83.5248 46.0785 84.1354 45.9409C85.4512 45.6399 86.81 45.6399 88.1258 45.9409C88.7278 46.0785 89.3126 46.2935 89.863 46.5687C90.3876 46.8353 90.8692 47.1707 91.3078 47.5577C91.7378 47.9361 92.1076 48.3747 92.4086 48.8649C92.7182 49.3551 92.9504 49.8883 93.1052 50.4387C93.4234 51.6169 93.4234 52.8553 93.1052 54.0335C92.9504 54.5925 92.7182 55.1257 92.4086 55.6159C92.1076 56.0975 91.7292 56.5361 91.3078 56.9231C90.8692 57.3101 90.3876 57.6455 89.863 57.9121C89.3126 58.1873 88.7278 58.4023 88.1258 58.5399C86.81 58.8409 85.4426 58.8409 84.1354 58.5399ZM57.5958 41.0647H61.139L67.1934 50.3183L73.2736 41.0647H76.8168V58.4109H73.3166V46.5171L68.2942 54.1883H66.1442L61.1218 46.5171V58.4109H57.6216V41.0647H57.5958Z" fill="white" fill-opacity="0.3"/>
<path d="M49.5291 44.1521C51.4813 44.1521 53.0722 42.5697 53.0722 40.6089C53.0722 38.6481 51.4899 37.0657 49.5291 37.0657C47.5683 37.0657 45.9858 38.6481 45.9858 40.6089C45.9858 42.5611 47.5683 44.1521 49.5291 44.1521ZM38.6758 60.0965C33.9114 60.0965 30.05 56.2351 30.05 51.4707C30.05 46.7063 33.9114 42.8449 38.6758 42.8449C43.4402 42.8449 47.3017 46.7063 47.3017 51.4707C47.3017 56.2351 43.4402 60.0965 38.6758 60.0965Z" fill="white" fill-opacity="0.3"/>
</g>
<defs>
<clipPath id="clip0_5804_20902">
<rect width="203" height="100" fill="white"/>
</clipPath>
</defs>
</svg>
