<svg width="203" height="100" viewBox="0 0 203 100" fill="none" xmlns="http://www.w3.org/2000/svg">
<g clip-path="url(#clip0_5804_20909)">
<path d="M36.0183 64.8782V62.6336C41.0063 63.3646 45.1945 61.937 48.4453 58.0928C50.1567 56.0632 51.0941 53.6724 51.2919 51.0236C51.5241 47.9792 50.7673 45.1756 49.0129 42.6644C47.9465 41.1336 45.8825 39.276 44.8849 38.9578V50.5506C40.5935 48.0738 36.3795 45.6486 32.1483 43.2062V40.5574C35.6055 42.5526 39.0369 44.5306 42.5371 46.543V35.4834C47.1725 36.9368 50.4749 39.7748 52.3755 44.1694C54.7835 49.7422 53.4763 56.4158 49.1333 60.6556C45.4869 64.216 41.0923 65.5576 36.0097 64.8782H36.0183Z" fill="white" fill-opacity="0.3"/>
<path d="M40.9461 35.208V37.3751C35.9151 36.6441 31.6925 38.0975 28.4417 42.0449C26.5927 44.2895 25.6897 46.9211 25.6467 49.8107C25.5607 55.3749 29.0523 59.546 32.1139 61.0682V49.484C36.4139 51.9608 40.6279 54.3946 44.8505 56.8284V59.4771C41.3761 57.4733 37.9361 55.4953 34.4101 53.4571V64.5167C30.0327 63.1579 26.8507 60.5349 24.8985 56.5015C22.2583 51.0491 23.1613 44.4014 27.4183 39.7832C31.6065 35.251 37.4287 34.434 40.9461 35.208Z" fill="white" fill-opacity="0.3"/>
<path d="M60.3909 43.3179H62.4721C64.6393 46.0613 66.8151 48.8133 69.0511 51.6427V43.3265H71.6139V56.7941H70.0229C67.6923 53.8013 65.3445 50.7913 62.9967 47.7813L62.9193 47.8071V56.7941H60.3909V43.3179Z" fill="white" fill-opacity="0.3"/>
<path d="M159.583 43.3179H162.129V56.7941H160.538C158.224 53.8271 155.885 50.8257 153.537 47.8157C153.512 47.8157 153.494 47.8243 153.469 47.8329V56.8027H150.923V43.3351H153.004C155.163 46.0613 157.339 48.8219 159.514 51.5739C159.54 51.5739 159.557 51.5653 159.583 51.5567V43.3265V43.3179Z" fill="white" fill-opacity="0.3"/>
<path d="M123.807 50.086C123.859 47.9188 124.564 45.9666 126.336 44.496C127.342 43.6618 128.511 43.2318 129.801 43.0942C131.272 42.9394 132.708 43.0856 134.058 43.7564C135.641 44.5476 136.707 45.8118 137.266 47.463C137.98 49.5528 137.877 51.634 136.879 53.6206C135.813 55.7534 134.007 56.837 131.676 57.0778C130.214 57.2326 128.787 57.0778 127.454 56.4328C125.381 55.4266 124.306 53.698 123.919 51.4792C123.885 51.3072 123.867 51.1266 123.85 50.946C123.833 50.6794 123.824 50.4128 123.807 50.0688V50.086ZM126.318 49.8366C126.336 52.3822 127.522 54.5666 130.317 54.7816C132.631 54.9622 134.445 53.8528 135.022 51.5136C135.228 50.6536 135.245 49.7936 135.082 48.925C134.445 45.7086 130.747 44.2294 128.124 46.173C126.826 47.1362 126.37 48.5208 126.318 49.8452V49.8366Z" fill="white" fill-opacity="0.3"/>
<path d="M79.5689 51.247V54.3H87.1111V56.794H77.0319V43.335H87.1111V45.743H79.5689V48.8734H86.8187V51.2384H79.5603L79.5689 51.247Z" fill="white" fill-opacity="0.3"/>
<path d="M178.159 45.5366C177.48 45.8806 176.818 46.2246 176.173 46.56C174.943 45.1668 173.421 44.8486 171.701 45.2098C171.185 45.3216 170.729 45.5452 170.411 45.9924C169.903 46.6976 170.049 47.592 170.832 47.9618C171.408 48.2284 172.062 48.366 172.69 48.5036C173.722 48.7358 174.788 48.8476 175.803 49.14C177.058 49.5012 178.056 50.2408 178.409 51.5738C178.959 53.6464 178.34 55.7534 175.889 56.665C173.902 57.4046 171.864 57.3874 169.869 56.6908C168.501 56.2178 167.461 55.1342 167.039 53.8442C167.727 53.4916 168.424 53.1304 169.138 52.752C169.456 53.4572 169.938 54.0162 170.626 54.3516C172.019 55.031 173.446 55.0826 174.891 54.5322C175.485 54.3 175.915 53.8786 176.035 53.225C176.181 52.451 175.906 51.806 175.158 51.4792C174.53 51.204 173.851 51.032 173.171 50.9202C172.113 50.7396 171.038 50.6364 170.032 50.2322C167.968 49.4238 167.065 47.3942 167.891 45.399C168.192 44.6766 168.682 44.109 169.361 43.7478C171.761 42.4922 174.195 42.4836 176.585 43.7564C177.299 44.1348 177.807 44.754 178.168 45.528L178.159 45.5366Z" fill="white" fill-opacity="0.3"/>
<path d="M119.662 45.0379C119.12 45.6313 118.596 46.1989 118.062 46.7837C116.936 45.7517 115.654 45.3647 114.21 45.4937C113.04 45.5969 112.017 46.0269 111.225 46.9213C109.703 48.6585 109.72 51.6771 111.225 53.3541C112.61 54.9107 115.895 55.4267 118.14 53.3971C118.707 53.9647 119.275 54.5323 119.877 55.1343C119.696 55.2977 119.516 55.4697 119.318 55.6245C118.183 56.5103 116.884 56.9833 115.457 57.0951C114.33 57.1811 113.221 57.0951 112.137 56.7597C110.219 56.1663 108.86 54.9451 108.129 53.0789C107.347 51.0923 107.347 49.0799 108.181 47.1019C109.015 45.1153 110.503 43.8339 112.593 43.3093C114.906 42.7331 117.082 43.0169 119.026 44.4961C119.266 44.6767 119.481 44.8831 119.662 45.0379Z" fill="white" fill-opacity="0.3"/>
<path d="M103.313 43.3264V45.5882H99.0393V56.794H96.4937V45.6054H92.2367V43.3264H103.313Z" fill="white" fill-opacity="0.3"/>
<path d="M142.701 43.3179H145.195V56.8027H142.701V43.3179Z" fill="white" fill-opacity="0.3"/>
<path d="M32.1399 47.6693V45.0205C36.4055 47.4801 40.6281 49.9139 44.8507 52.3477V54.9965C40.5937 52.5369 36.3711 50.1117 32.1399 47.6693Z" fill="white" fill-opacity="0.3"/>
</g>
<defs>
<clipPath id="clip0_5804_20909">
<rect width="203" height="100" fill="white"/>
</clipPath>
</defs>
</svg>
