<svg width="203" height="100" viewBox="0 0 203 100" fill="none" xmlns="http://www.w3.org/2000/svg">
<g clip-path="url(#clip0_5804_20924)">
<path d="M123.28 49.7675C123.196 50.0473 119.796 49.8094 119.273 50.0018C119.283 50.2852 119.19 50.5552 119.169 50.8332C119.047 52.4426 119.045 55.8269 119.46 57.3222C119.683 58.1304 120.847 58.682 121.631 58.6383C121.941 58.6214 123.392 58.1224 123.459 58.1883L123.979 63.0751C123.943 63.1312 122.91 63.559 122.766 63.6009C119.687 64.5098 115.406 63.9047 113.929 60.7502C113.853 60.589 113.369 59.2131 113.369 59.124V49.9012H110.109L105.061 63.5768L99.748 63.5376L96.5815 52.8418C96.361 53.2428 96.3306 53.6954 96.1984 54.1089C95.2778 56.9916 94.4375 59.8565 93.473 62.7062C93.3489 63.0715 93.5418 63.5287 92.8783 63.6276C92.2657 63.7185 88.4268 63.7318 87.8749 63.6205C87.3124 63.5073 87.4624 63.0003 87.3632 62.7053C85.4737 57.1181 83.4868 51.351 81.8044 45.5294C81.7437 45.3191 81.3811 45.1463 81.7107 44.9101H87.6937C87.8142 45.0821 88.0008 45.3236 88.0705 45.5143C88.6384 47.0853 88.9367 48.863 89.3635 50.4617C89.7207 51.7983 90.2619 53.143 90.4128 54.583C90.4289 54.7389 90.386 54.8717 90.5512 54.9777C90.7146 54.8717 90.6753 54.7407 90.6896 54.5839C90.8736 52.6413 92.6738 47.2029 93.5195 45.378C93.5659 45.2773 93.5239 45.1088 93.5829 44.9957L93.765 44.9101L99.7543 44.9939L101.082 49.9065C101.407 50.9758 101.826 52.0986 102.091 53.1768C102.154 53.4317 102.025 54.3504 102.518 54.3344C102.948 54.3201 102.882 53.3827 102.94 53.175C103.595 50.8056 104.428 48.2901 105.222 45.918C105.348 45.5428 105.102 45.0126 105.816 44.9066C108.392 44.5225 112.16 45.8805 113.813 42.9952C113.991 42.6833 114.648 41.2067 114.704 40.9439C114.759 40.681 114.572 39.1189 114.929 39.1189H119.036L119.17 39.2526V44.5991C119.17 44.633 119.374 44.911 119.394 44.911H123.144L123.278 45.0447V49.7675H123.28ZM102.651 54.6248H102.473V55.1586C102.663 55.1577 102.698 54.6783 102.65 54.6248H102.651Z" fill="white" fill-opacity="0.3"/>
<path d="M45.0992 36C47.6192 40.026 50.1035 44.0849 52.6387 48.1011C53.1897 48.9735 53.7451 49.9376 54.3452 50.8332C54.5943 51.2048 54.4488 51.4569 55.1051 51.4979L55.0569 52.0397L55.2373 51.7305L55.3194 36.3074C55.3007 36.2165 55.3837 36 55.4578 36H61.2622C61.3042 36 61.5408 36.1595 61.5587 36.2308L61.4855 63.624H55.2792C55.1515 63.4849 55.0006 63.3673 54.8783 63.2221C53.8469 61.9968 52.4976 59.5517 51.5769 58.1393C49.0471 54.2585 46.6789 50.3903 44.0732 46.604L43.849 63.624H38.1339L38 63.4903V36.1337L38.1339 36H45.0992Z" fill="white" fill-opacity="0.3"/>
<path d="M69.1205 55.7822C68.6231 55.9355 69.3661 57.4548 69.5741 57.7355C69.8545 58.1142 70.8404 58.7683 71.2824 58.8823C72.6246 59.229 75.0231 59.049 76.1027 58.0696C76.3438 57.8513 76.6162 57.3015 76.8136 57.0217C77.0582 57.0805 77.3413 57.0805 77.5788 57.1438C78.103 57.2819 78.8746 57.6927 79.4309 57.8798C79.9051 58.0393 81.5303 58.2871 81.7125 58.7255C81.8786 59.1265 80.9624 60.3571 80.6677 60.7135C79.7497 61.8212 78.3218 62.878 76.9511 63.328C72.7335 64.7119 67.0872 63.8858 64.577 59.7814C62.4865 56.3623 62.5205 50.7448 65.2378 47.5654C69.0839 43.0654 76.9252 43.1126 80.4123 48.0119C81.5892 49.6657 82.0866 51.6939 82.209 53.6828C82.225 53.9519 82.2661 55.7822 82.0697 55.7822H69.1214H69.1205ZM76.1304 52.0396C76.3644 50.9088 75.2598 49.7727 74.24 49.426C72.5763 48.8593 70.184 49.205 69.3384 50.9213C69.2973 51.0042 69.0089 51.701 69.0008 51.7447C68.9508 52.0218 69.2509 52.0396 69.4777 52.0396H76.1304Z" fill="white" fill-opacity="0.3"/>
<path d="M145.649 63.624L145.599 44.9503L151.084 44.9235L151.217 45.0581L151.455 46.4277C151.888 46.2512 152.111 45.8413 152.477 45.5758C156.066 42.9765 162.752 44.347 163.727 49.1491C163.771 49.371 164 50.3253 164 50.3913V63.4904L163.866 63.624H158.151C158.08 63.624 157.958 63.3113 157.958 63.2115C157.931 59.9982 158.196 56.7163 158.021 53.5065C157.913 51.5488 157.37 50.0126 155.199 49.7283C154.442 49.6294 152.929 50.1266 152.372 50.7032C152.237 50.844 151.498 52.2581 151.498 52.3517V63.4904L151.364 63.624H145.649Z" fill="white" fill-opacity="0.3"/>
<path d="M139.95 45.7423C146.742 49.6507 145.776 60.8143 138.306 63.3361C131.503 65.6325 124.021 61.8168 123.986 54.222C123.948 45.8956 133.135 41.8206 139.95 45.7423ZM137.087 50.2031C135.398 49.0082 132.335 49.1383 130.924 50.712C128.841 53.0368 129.427 57.405 132.453 58.6133C136.439 60.2066 139.845 56.2938 138.599 52.4799C138.346 51.7073 137.761 50.6781 137.087 50.2023V50.2031Z" fill="white" fill-opacity="0.3"/>
</g>
<defs>
<clipPath id="clip0_5804_20924">
<rect width="126" height="28" fill="white" transform="translate(38 36)"/>
</clipPath>
</defs>
</svg>
