<svg width="203" height="100" viewBox="0 0 203 100" fill="none" xmlns="http://www.w3.org/2000/svg">
<g clip-path="url(#clip0_5804_20944)">
<path d="M107.34 40.4401V59.5601C107.34 59.7501 107.19 59.9001 107.01 59.9001H105.15C104.67 59.9001 104.21 59.7001 103.87 59.3601L89.22 44.2901V59.5701C89.22 59.7601 89.07 59.9101 88.89 59.9101H86.34C86.16 59.9101 86.01 59.7601 86.01 59.5701V40.4401C86.01 40.2501 86.16 40.1001 86.34 40.1001H88.81C89.29 40.1001 89.75 40.3001 90.09 40.6501L104.1 55.1301V40.4401C104.1 40.2501 104.25 40.1001 104.43 40.1001H107.01C107.19 40.1001 107.34 40.2501 107.34 40.4401Z" fill="white" fill-opacity="0.3"/>
<path d="M132.48 57.2801V59.5601C132.48 59.7501 132.33 59.9001 132.14 59.9001H113.65C113.11 59.9001 112.67 59.4601 112.67 58.9101V41.0901C112.67 40.5401 113.11 40.1001 113.65 40.1001H131.86C132.05 40.1001 132.2 40.2501 132.2 40.4401V42.7201C132.2 42.9101 132.05 43.0601 131.86 43.0601H116V48.3501H129.34C129.53 48.3501 129.68 48.5001 129.68 48.6901V50.9701C129.68 51.1601 129.53 51.3101 129.34 51.3101H116V56.9101H132.14C132.33 56.9101 132.48 57.0601 132.48 57.2501V57.2801Z" fill="white" fill-opacity="0.3"/>
<path d="M147.46 49.8901L156.03 59.4801C156.18 59.6401 156.06 59.9001 155.85 59.9001H152.53C152.36 59.9001 152.19 59.8301 152.07 59.7001L145.34 52.2101L138.93 59.3101C138.59 59.6901 138.1 59.9101 137.6 59.9101H135C134.79 59.9101 134.68 59.6501 134.82 59.4901L143.36 49.9201L134.9 40.5301C134.75 40.3701 134.86 40.1101 135.08 40.1101H138.39C138.56 40.1101 138.73 40.1801 138.84 40.3101L145.49 47.6901L151.76 40.7101C152.1 40.3301 152.59 40.1101 153.09 40.1101H155.71C155.92 40.1101 156.03 40.3701 155.89 40.5301L147.44 49.9001L147.46 49.8901Z" fill="white" fill-opacity="0.3"/>
<path d="M157.57 50.0001C157.57 43.3601 162.22 39.3301 169.75 39.3301C177.28 39.3301 181.93 43.3501 181.93 50.0001C181.93 56.6501 177.28 60.6701 169.75 60.6701C162.22 60.6701 157.57 56.6501 157.57 50.0001ZM178.5 50.0001C178.5 45.1101 175.08 42.3801 169.76 42.3801C164.44 42.3801 160.99 45.1101 160.99 50.0001C160.99 54.8901 164.41 57.6201 169.76 57.6201C175.11 57.6201 178.5 54.8901 178.5 50.0001Z" fill="white" fill-opacity="0.3"/>
<path d="M69.79 34.87C69.72 34.76 69.61 34.69 69.49 34.66L68.33 34.41C68.1 34.41 67.92 34.56 67.89 34.77L64.88 50.61C64.82 50.81 64.5 50.77 64.52 50.55L65.44 34.44C65.44 34.21 65.27 34.02 65.05 34C64.95 33.99 64.84 33.98 64.71 33.98C64.49 33.98 64.32 34.15 64.3 34.36L62.7 52.96C62.69 53.19 62.37 53.18 62.35 52.96L61.34 34.59C61.32 34.39 61.17 34.25 60.91 34.25L60.66 34.29C60.48 34.31 60.34 34.47 60.34 34.66L60.64 54.31C60.64 54.53 60.32 54.55 60.28 54.33L57.03 35.8C57 35.59 56.83 35.44 56.62 35.44C56.57 35.44 56.52 35.44 56.41 35.49C56.21 35.57 56.11 35.75 56.14 35.93L58.62 55.25C58.64 55.47 58.33 55.53 58.26 55.32L52.67 38.05C52.61 37.89 52.46 37.78 52.29 37.78C52.21 37.78 52.13 37.81 52.06 37.85C51.94 37.93 51.88 38.05 51.9 38.28L56.46 55.58C56.5 55.78 56.22 55.89 56.12 55.69V55.67L48.93 41.29C48.87 41.17 48.76 41.1 48.64 41.1C48.54 41.1 48.45 41.14 48.39 41.21C48.33 41.27 48.3 41.35 48.3 41.44C48.3 41.46 48.32 41.56 48.32 41.57L54.35 55.41C54.44 55.61 54.16 55.77 54.03 55.58L54.01 55.55L46.34 44.87C46.28 44.8 46.19 44.75 46.1 44.75C46.07 44.75 45.95 44.8 45.92 44.81C45.85 44.86 45.81 44.93 45.81 45.02C45.81 45.05 45.84 45.16 45.86 45.18L51.67 54.03C51.79 54.22 51.54 54.41 51.38 54.25C51.38 54.25 33.2 35.91 33.19 35.91C32.55 35.3 31.71 34.97 30.84 34.97C29.3 34.97 27.99 36.03 27.66 37.55L22.01 64.77C21.98 64.89 22.01 65.02 22.08 65.13C22.15 65.24 22.26 65.31 22.38 65.34L23.54 65.59C23.76 65.59 23.94 65.44 23.98 65.23L26.98 49.4C27.03 49.19 27.36 49.23 27.35 49.45L26.43 65.56C26.43 65.79 26.6 65.98 26.82 66C26.9 66.01 27 66.01 27.08 66.01H27.15C27.36 66.01 27.54 65.84 27.56 65.63L29.16 47.03C29.17 46.79 29.5 46.8 29.52 47.03L30.52 65.39C30.54 65.59 30.69 65.73 30.95 65.73L31.2 65.69C31.38 65.67 31.52 65.51 31.52 65.32L31.22 45.67C31.22 45.44 31.54 45.42 31.58 45.64L34.83 64.17C34.86 64.38 35.03 64.53 35.24 64.53C35.29 64.53 35.34 64.53 35.45 64.48C35.65 64.4 35.75 64.22 35.72 64.04L33.23 44.72C33.2 44.5 33.52 44.43 33.59 44.64L39.18 61.9C39.24 62.06 39.39 62.17 39.56 62.17C39.64 62.17 39.72 62.14 39.79 62.1C39.91 62.02 39.97 61.9 39.95 61.66L35.39 44.37C35.34 44.16 35.63 44.05 35.73 44.25L42.92 58.65C42.98 58.76 43.09 58.83 43.21 58.83C43.31 58.83 43.4 58.79 43.46 58.72C43.52 58.66 43.55 58.58 43.55 58.49C43.55 58.47 43.53 58.37 43.53 58.36L37.5 44.52C37.41 44.32 37.69 44.16 37.82 44.35L37.84 44.37L45.51 55.06C45.57 55.13 45.66 55.18 45.75 55.18C45.78 55.18 45.9 55.13 45.92 55.12C45.99 55.07 46.03 55 46.03 54.9C46.03 54.87 46 54.76 45.98 54.74L40.17 45.89C40.05 45.7 40.3 45.51 40.46 45.66C57.86 63.05 58.63 64 58.65 64C59.29 64.61 60.13 64.94 61 64.94C62.54 64.94 63.84 63.88 64.18 62.36L69.87 35.22C69.9 35.1 69.87 34.97 69.8 34.86L69.79 34.87Z" fill="white" fill-opacity="0.3"/>
</g>
<defs>
<clipPath id="clip0_5804_20944">
<rect width="159.94" height="32" fill="white" transform="translate(22 34)"/>
</clipPath>
</defs>
</svg>
