<svg width="203" height="100" viewBox="0 0 203 100" fill="none" xmlns="http://www.w3.org/2000/svg">
<g clip-path="url(#clip0_5804_21035)">
<path d="M33.57 60C31.34 60 29.52 59.48 28.1 58.44C26.7 57.38 26 55.88 26 53.94C26 53.53 26.05 53.03 26.14 52.44C26.38 51.11 26.73 49.5 27.18 47.63C28.45 42.55 31.73 40 37.02 40C38.46 40 39.75 40.24 40.89 40.72C42.03 41.18 42.93 41.89 43.58 42.83C44.23 43.76 44.56 44.87 44.56 46.16C44.56 46.55 44.51 47.04 44.42 47.63C44.14 49.28 43.8 50.88 43.41 52.44C42.76 54.98 41.62 56.88 40.02 58.13C38.41 59.37 36.26 59.99 33.57 59.99V60ZM33.97 56C35.02 56 35.91 55.69 36.63 55.08C37.38 54.47 37.91 53.53 38.23 52.27C38.66 50.53 38.99 49.01 39.21 47.71C39.28 47.32 39.32 46.92 39.32 46.52C39.32 44.83 38.43 43.99 36.66 43.99C35.61 43.99 34.72 44.3 33.97 44.91C33.24 45.52 32.72 46.46 32.4 47.72C32.06 48.96 31.73 50.48 31.39 52.28C31.32 52.65 31.28 53.04 31.28 53.45C31.28 55.15 32.18 56.01 33.97 56.01V56Z" fill="white" fill-opacity="0.3"/>
<path d="M47.4199 59.72C47.2099 59.72 47.0599 59.66 46.9399 59.53C46.8499 59.38 46.8199 59.22 46.8599 59.03L50.7299 40.97C50.7699 40.77 50.8699 40.6 51.0399 40.47C51.2099 40.34 51.3899 40.28 51.5699 40.28H59.0299C61.1099 40.28 62.7699 40.71 64.0199 41.56C65.2899 42.41 65.9299 43.64 65.9299 45.25C65.9299 45.71 65.8699 46.19 65.7599 46.69C65.2899 48.82 64.3499 50.39 62.9299 51.41C61.5299 52.43 59.5999 52.94 57.1499 52.94H53.3599L52.0699 59.02C52.0299 59.22 51.9299 59.39 51.7599 59.52C51.5899 59.65 51.4099 59.71 51.2299 59.71H47.4099L47.4199 59.72ZM57.3499 49.11C58.1399 49.11 58.8199 48.9 59.3999 48.47C59.9999 48.04 60.3899 47.43 60.5799 46.64C60.6399 46.33 60.6599 46.05 60.6599 45.81C60.6599 45.27 60.4999 44.87 60.1799 44.59C59.8599 44.29 59.3199 44.15 58.5499 44.15H55.1799L54.1099 49.12H57.3399L57.3499 49.11Z" fill="white" fill-opacity="0.3"/>
<path d="M72.25 59.72C72.04 59.72 71.89 59.66 71.77 59.53C71.66 59.38 71.62 59.22 71.66 59.03L74.77 44.64H69.78C69.57 44.64 69.42 44.58 69.3 44.45C69.21 44.3 69.18 44.14 69.22 43.95L69.87 40.98C69.91 40.78 70.01 40.61 70.18 40.48C70.35 40.35 70.53 40.29 70.71 40.29H85.8C86.01 40.29 86.16 40.35 86.28 40.48C86.35 40.59 86.39 40.7 86.39 40.81C86.39 40.87 86.39 40.92 86.36 40.98L85.71 43.95C85.67 44.15 85.57 44.32 85.4 44.45C85.25 44.58 85.07 44.64 84.87 44.64H79.9L76.79 59.03C76.75 59.23 76.65 59.4 76.48 59.53C76.31 59.66 76.13 59.72 75.95 59.72H72.25Z" fill="white" fill-opacity="0.3"/>
<path d="M87.11 59.72C86.9 59.72 86.75 59.66 86.63 59.53C86.52 59.38 86.48 59.22 86.52 59.03L90.42 40.97C90.46 40.77 90.56 40.6 90.73 40.47C90.9 40.34 91.08 40.28 91.26 40.28H95.05C95.26 40.28 95.41 40.34 95.53 40.47C95.6 40.58 95.64 40.69 95.64 40.8C95.64 40.86 95.64 40.91 95.61 40.97L91.74 59.03C91.7 59.23 91.6 59.4 91.43 59.53C91.26 59.66 91.08 59.72 90.9 59.72H87.11Z" fill="white" fill-opacity="0.3"/>
<path d="M97.79 59.72C97.58 59.72 97.43 59.66 97.31 59.53C97.2 59.4 97.16 59.23 97.2 59.03L101.07 40.97C101.11 40.77 101.21 40.6 101.38 40.47C101.55 40.34 101.74 40.28 101.94 40.28H104.97C105.42 40.28 105.71 40.48 105.84 40.89L108.9 49.64L115.72 40.89C115.81 40.74 115.94 40.6 116.11 40.47C116.3 40.34 116.52 40.28 116.78 40.28H119.84C120.05 40.28 120.2 40.34 120.32 40.47C120.39 40.58 120.43 40.69 120.43 40.8C120.43 40.86 120.43 40.91 120.4 40.97L116.53 59.03C116.49 59.23 116.39 59.4 116.22 59.53C116.05 59.66 115.87 59.72 115.69 59.72H112.3C112.09 59.72 111.94 59.66 111.82 59.53C111.73 59.38 111.7 59.22 111.74 59.03L113.93 48.78L109.64 54.42C109.45 54.62 109.28 54.78 109.11 54.89C108.94 55 108.75 55.06 108.52 55.06H107.06C106.67 55.06 106.4 54.85 106.25 54.42L104.26 48.53L102.02 59.03C101.98 59.23 101.88 59.4 101.71 59.53C101.54 59.66 101.36 59.72 101.18 59.72H97.81H97.79Z" fill="white" fill-opacity="0.3"/>
<path d="M122.55 59.72C122.34 59.72 122.19 59.66 122.07 59.53C121.96 59.38 121.92 59.22 121.96 59.03L125.86 40.97C125.9 40.77 126 40.6 126.17 40.47C126.34 40.34 126.52 40.28 126.7 40.28H130.49C130.7 40.28 130.85 40.34 130.97 40.47C131.05 40.58 131.08 40.69 131.08 40.8C131.08 40.86 131.08 40.91 131.05 40.97L127.18 59.03C127.14 59.23 127.04 59.4 126.87 59.53C126.7 59.66 126.52 59.72 126.34 59.72H122.55Z" fill="white" fill-opacity="0.3"/>
<path d="M140.16 60C138.51 60 137.1 59.78 135.92 59.33C134.76 58.89 133.88 58.29 133.28 57.55C132.7 56.81 132.41 55.99 132.41 55.08C132.41 54.93 132.43 54.71 132.47 54.41C132.51 54.24 132.58 54.1 132.69 53.99C132.82 53.88 132.97 53.82 133.14 53.82H136.73C136.95 53.82 137.12 53.86 137.23 53.93C137.36 54 137.49 54.13 137.62 54.32C137.75 54.8 138.05 55.2 138.52 55.51C139.01 55.82 139.67 55.98 140.51 55.98C141.58 55.98 142.44 55.81 143.09 55.48C143.75 55.15 144.14 54.69 144.27 54.12C144.29 54.05 144.3 53.93 144.3 53.79C144.3 53.33 144.01 52.97 143.43 52.71C142.85 52.43 141.78 52.11 140.23 51.74C138.42 51.35 137.04 50.77 136.11 49.99C135.17 49.19 134.71 48.16 134.71 46.88C134.71 46.44 134.77 45.98 134.88 45.52C135.25 43.8 136.18 42.45 137.66 41.46C139.16 40.48 141.08 39.99 143.44 39.99C144.86 39.99 146.12 40.24 147.23 40.74C148.33 41.24 149.18 41.88 149.78 42.66C150.4 43.42 150.71 44.18 150.71 44.94C150.71 45.16 150.71 45.32 150.68 45.41C150.64 45.58 150.56 45.72 150.43 45.83C150.32 45.94 150.18 46 150.01 46H146.25C145.84 46 145.56 45.84 145.41 45.53C145.39 45.1 145.17 44.74 144.74 44.45C144.31 44.15 143.75 44.01 143.06 44.01C142.24 44.01 141.56 44.16 141.01 44.45C140.49 44.75 140.16 45.18 140.03 45.76C140.01 45.85 140 45.97 140 46.12C140 46.56 140.26 46.93 140.79 47.23C141.33 47.51 142.28 47.79 143.62 48.09C145.72 48.5 147.24 49.08 148.19 49.84C149.16 50.6 149.65 51.61 149.65 52.87C149.65 53.3 149.59 53.76 149.48 54.26C149.07 56.15 148.07 57.58 146.48 58.57C144.91 59.53 142.81 60.01 140.17 60.01L140.16 60Z" fill="white" fill-opacity="0.3"/>
<path d="M153.36 59.72C153.15 59.72 153 59.66 152.88 59.53C152.77 59.4 152.73 59.23 152.77 59.03L156.64 40.97C156.68 40.77 156.78 40.6 156.95 40.47C157.12 40.34 157.3 40.28 157.51 40.28H160.54C160.99 40.28 161.28 40.48 161.41 40.89L164.47 49.64L171.29 40.89C171.38 40.74 171.51 40.6 171.68 40.47C171.87 40.34 172.09 40.28 172.35 40.28H175.41C175.62 40.28 175.78 40.34 175.89 40.47C175.96 40.58 176 40.69 176 40.8C176 40.86 176 40.91 175.97 40.97L172.1 59.03C172.06 59.23 171.96 59.4 171.79 59.53C171.62 59.66 171.44 59.72 171.26 59.72H167.87C167.66 59.72 167.5 59.66 167.39 59.53C167.3 59.38 167.27 59.22 167.31 59.03L169.5 48.78L165.21 54.42C165.02 54.62 164.85 54.78 164.68 54.89C164.51 55 164.31 55.06 164.09 55.06H162.63C162.24 55.06 161.97 54.85 161.82 54.42L159.83 48.53L157.59 59.03C157.55 59.23 157.45 59.4 157.28 59.53C157.11 59.66 156.93 59.72 156.75 59.72H153.38H153.36Z" fill="white" fill-opacity="0.3"/>
</g>
<defs>
<clipPath id="clip0_5804_21035">
<rect width="150" height="20" fill="white" transform="translate(26 40)"/>
</clipPath>
</defs>
</svg>
