<svg width="203" height="100" viewBox="0 0 203 100" fill="none" xmlns="http://www.w3.org/2000/svg">
<g clip-path="url(#clip0_5804_21086)">
<path d="M137.012 45.0918V46.5604H128.521V49.1884H134.156V50.657H128.521V53.285H137.012V54.7536H126.977V45.0918H137.012Z" fill="white" fill-opacity="0.3"/>
<path d="M97.256 52.9759V45.2077L97.3718 45.0918H98.7614L98.8771 45.2077V54.7536H96.9086L89.5364 46.8696V54.7536H87.9924V45.0918H89.8837L97.256 52.9759Z" fill="white" fill-opacity="0.3"/>
<path d="M153.725 45.0918C157 45.4234 157.665 49.9142 154.185 50.9646C154.1 50.9902 154.047 50.9113 154.073 51.0806L156.543 54.7536H154.806L152.104 51.0435H147.279V54.7536H145.735V45.0918H153.725ZM153.88 46.5604H147.279V49.6522H153.725C153.912 49.6522 154.523 49.3121 154.663 49.1614C155.452 48.3119 155.024 46.7505 153.88 46.5604Z" fill="white" fill-opacity="0.3"/>
<path d="M164.88 54.7537L169.936 45.1684L171.87 45.0864L177 54.7537H175.34L174.17 52.6018L167.925 52.5848L167.667 52.7131L166.656 54.7537H164.88ZM168.508 51.1208H173.372L170.941 46.5597L168.508 51.1208Z" fill="white" fill-opacity="0.3"/>
<path d="M118.331 46.5604H113.699V54.7536H112.155V46.5604H107.523V45.2077L107.639 45.0918H118.215L118.331 45.2077V46.5604Z" fill="white" fill-opacity="0.3"/>
<path d="M67.1493 54.7537L72.2049 45.1684L74.1387 45.0864L79.2691 54.7537H77.6094L76.4978 52.6397L70.0565 52.6018L68.9248 54.7537H67.1493ZM70.7775 51.1208H75.6409L73.2856 46.5597L70.7775 51.1208Z" fill="white" fill-opacity="0.3"/>
<path d="M25 42H40.9797V58H25V42ZM30.5582 44.8599H29.0914V51.8937H30.5582V44.8599ZM33.7232 44.8599H32.2565V55.0628H33.7232V44.8599ZM36.8883 44.8599H35.4215V51.8937H36.8883V44.8599Z" fill="white" fill-opacity="0.3"/>
<path d="M51.324 51.0435V54.7536H49.78V45.0918H57.7699C59.198 45.0918 60.5567 46.6006 60.5899 47.995C60.62 49.2541 59.4211 51.0435 58.0787 51.0435H51.324ZM51.324 49.6522H57.7699C57.8038 49.6522 58.1528 49.5208 58.2246 49.4891C59.3215 49.0052 59.4528 47.4555 58.4523 46.8046C58.3844 46.7606 57.9582 46.5604 57.9243 46.5604H51.324V49.6522Z" fill="white" fill-opacity="0.3"/>
</g>
<defs>
<clipPath id="clip0_5804_21086">
<rect width="152" height="16" fill="white" transform="translate(25 42)"/>
</clipPath>
</defs>
</svg>
