<svg width="203" height="100" viewBox="0 0 203 100" fill="none" xmlns="http://www.w3.org/2000/svg">
<g clip-path="url(#clip0_5804_21108)">
<g clip-path="url(#clip1_5804_21108)">
<path d="M26.2794 65.48C31.0243 65.48 34.5888 61.3543 36.7173 58.0938C36.4588 58.8153 36.3151 59.5368 36.3151 60.2293C36.3151 62.1339 37.407 63.4897 39.5645 63.4897C42.5265 63.4897 45.6888 60.8927 47.328 58.0938C47.2133 58.4974 47.1553 58.8734 47.1553 59.2189C47.1553 60.5458 47.903 61.3833 49.4261 61.3833C54.2277 61.3833 59.0583 52.8721 59.0583 45.4279C59.0583 39.627 56.1254 34.52 48.7641 34.52C35.8258 34.52 21.88 50.3317 21.88 60.5458C21.88 64.5567 24.0361 65.48 26.2794 65.48ZM44.308 44.7921C44.308 43.3491 45.1124 42.3402 46.2914 42.3402C47.4704 42.3402 48.2471 43.3505 48.2471 44.7921C48.2471 46.2337 47.4427 47.2731 46.2914 47.2731C45.1401 47.2731 44.308 46.2337 44.308 44.7921ZM50.4613 44.7921C50.4613 43.3491 51.2657 42.3402 52.4447 42.3402C53.6237 42.3402 54.4004 43.3505 54.4004 44.7921C54.4004 46.2337 53.596 47.2731 52.4447 47.2731C51.2934 47.2731 50.4613 46.2337 50.4613 44.7921Z" fill="white" fill-opacity="0.3"/>
<path d="M64.808 62.3343H69.1203V58.0925C69.1203 56.1022 68.9475 55.3517 67.9413 53.331L68.4872 53.0421C69.9537 56.4754 72.0242 57.7165 74.1513 57.7165C77.5735 57.7165 80.3046 54.7159 80.3046 50.0705C80.3046 45.4251 77.8029 42.3665 74.2093 42.3665C72.0822 42.3665 69.9537 43.5786 68.4872 47.0409L67.9413 46.752C68.631 45.3671 69.1203 44.0693 69.1203 42.8281H64.808V62.3329V62.3343ZM69.1203 50.0429C69.1203 48.1383 70.5577 46.0319 72.6862 46.0319C74.4111 46.0319 75.8209 47.4458 75.8209 50.0139C75.8209 52.5819 74.4692 54.0539 72.6586 54.0539C70.6462 54.0539 69.1217 52.0055 69.1217 50.0429H69.1203Z" fill="white" fill-opacity="0.3"/>
<path d="M81.8802 57.2561H86.1925V52.1781C86.1925 48.5997 87.4572 46.0607 89.8151 46.0607C91.3106 46.0607 91.7709 47.0711 91.7709 49.5811V57.2561H96.0845V48.8886C96.0845 44.3303 94.4453 42.3677 91.312 42.3677C88.1787 42.3677 87.0274 44.5321 85.7917 47.1568L85.2458 46.8679C85.9935 45.2522 86.1939 44.2709 86.1939 42.8279V37.8384H81.8816V57.2575L81.8802 57.2561Z" fill="white" fill-opacity="0.3"/>
<path d="M102.387 57.7178C105.176 57.7178 106.815 55.8712 108.051 53.505L108.568 53.7648C108.022 54.8899 107.504 56.1891 107.504 57.2561H111.73V49.4083C111.73 44.7339 109.775 42.3677 105.204 42.3677C100.633 42.3677 98.5046 44.6178 98.0734 46.984L102.214 47.7055C102.358 46.4643 103.364 45.6282 104.974 45.6282C106.585 45.6282 107.505 46.4367 107.505 47.4166C107.505 48.3966 106.556 48.8596 104.026 48.8886C100.288 48.9467 97.5275 50.3026 97.5275 53.1871C97.5275 55.5533 99.3961 57.7178 102.387 57.7178ZM101.812 52.8996C101.812 50.6205 105.435 52.2072 107.419 50.4477V50.9674C107.419 53.0157 105.607 54.5167 103.797 54.5167C102.849 54.5167 101.813 54.1131 101.813 52.901L101.812 52.8996Z" fill="white" fill-opacity="0.3"/>
<path d="M113.441 57.2561H117.755V52.1781C117.755 48.5998 119.02 46.0608 121.378 46.0608C122.873 46.0608 123.333 47.0711 123.333 49.5811V57.2561H127.647V48.8886C127.647 44.3303 126.008 42.3677 122.875 42.3677C119.741 42.3677 118.59 44.5321 117.354 47.1568L116.808 46.8679C117.556 45.2522 117.758 44.2709 117.758 42.8279H113.444V57.2547L113.441 57.2561Z" fill="white" fill-opacity="0.3"/>
<path d="M139.133 57.3143V53.736C138.212 54.0539 135.654 54.6012 135.654 52.4948V46.2917H139.104V42.8295H135.654V38.9636L131.313 40.2615V42.8295H128.725V46.2917H131.313L131.342 52.8417C131.342 57.6599 135.626 58.3523 139.134 57.3143H139.133Z" fill="white" fill-opacity="0.3"/>
<path d="M147.894 57.7178C152.264 57.7178 155.6 54.3702 155.6 50.0137C155.6 45.6572 152.264 42.3677 147.894 42.3677C143.524 42.3677 140.16 45.6862 140.16 50.0137C140.16 54.3412 143.524 57.7178 147.894 57.7178ZM144.616 50.0427C144.616 47.6475 145.967 45.9737 147.894 45.9737C149.821 45.9737 151.144 47.6475 151.144 50.0427C151.144 52.438 149.821 54.1104 147.894 54.1104C145.967 54.1104 144.616 52.4366 144.616 50.0427Z" fill="white" fill-opacity="0.3"/>
<path d="M156.936 57.2561H161.248V52.1781C161.248 48.456 162.427 46.0608 164.325 46.0608C165.562 46.0608 165.964 47.0421 165.964 49.5811V57.2561H170.278V52.1781C170.278 48.6868 171.543 46.0608 173.355 46.0608C174.561 46.0608 174.992 47.1858 174.992 49.5811V57.2561H179.306V48.8886C179.306 44.3013 177.811 42.3677 174.878 42.3677C171.945 42.3677 170.738 44.5321 169.674 47.1858L169.156 46.926C170.163 43.8963 167.977 42.3677 165.821 42.3677C162.975 42.3677 161.94 44.5321 160.79 47.1568L160.271 46.8679C160.99 45.2522 161.248 44.2709 161.248 42.8279H156.936V57.2547V57.2561Z" fill="white" fill-opacity="0.3"/>
</g>
</g>
<defs>
<clipPath id="clip0_5804_21108">
<rect width="203" height="100" fill="white"/>
</clipPath>
<clipPath id="clip1_5804_21108">
<rect width="157.426" height="30.96" fill="white" transform="translate(21.88 34.52)"/>
</clipPath>
</defs>
</svg>
