<svg width="203" height="100" viewBox="0 0 203 100" fill="none" xmlns="http://www.w3.org/2000/svg">
<g clip-path="url(#clip0_5804_21132)">
<path d="M25.7002 56.6632C25.6443 56.9284 25.2246 57.082 24.9798 57.1169C24.2944 57.2077 22.6786 57.1867 21.9652 57.1274C21.5281 57.0925 21.1539 57.0297 21.0385 56.5445L21 39.9372C21.0385 39.4206 21.0769 38.9703 21.7134 38.9738C25.2141 39.3089 30.0437 38.1815 33.1947 39.9127C37.1395 42.0803 36.9017 48.1257 32.7505 49.8883L36.4051 56.4956C36.3387 56.9738 35.9959 57.0855 35.5658 57.1274C34.7964 57.1972 33.3171 57.1902 32.5442 57.1239C31.579 57.0366 31.4881 56.6771 31.0614 55.9267C30.0927 54.2339 29.3163 52.4049 28.3896 50.6876H25.7037V56.6667L25.7002 56.6632ZM25.7002 47.0052H29.3513C29.4457 47.0052 30.0857 46.7574 30.2081 46.6876C31.4986 45.9372 31.4321 43.5009 30.0822 42.8482C29.8968 42.7574 29.3583 42.5724 29.1834 42.5724H25.7002V47.0052Z" fill="white" fill-opacity="0.3"/>
<path d="M66.8936 44.8342C69.0548 42.7191 72.9437 42.8238 74.8601 45.2112C76.7766 47.5986 76.7206 52.9564 74.979 55.3613C73.136 57.9093 68.7995 58.0315 66.7222 55.7034C66.7222 56.3281 66.8061 56.932 66.0542 57.089C65.5366 57.1972 63.795 57.1868 63.239 57.1274C62.8088 57.0786 62.4067 56.9215 62.4381 56.4189L62.4591 39.124C62.5465 38.7889 62.7634 38.754 63.0676 38.726C63.7706 38.6632 65.771 38.6318 66.4214 38.7365C66.5858 38.7644 66.8866 38.9425 66.8866 39.1065V44.8342H66.8936ZM68.8869 46.8622C66.7537 47.1205 66.7572 49.6545 66.8936 51.3089C67.0125 52.7784 67.7574 53.8988 69.3696 53.8674C71.5168 53.8255 71.7651 51.5917 71.6742 49.8918C71.5798 48.0873 70.9992 46.6074 68.8869 46.8622Z" fill="white" fill-opacity="0.3"/>
<path d="M137.949 55.3682V61.5986C137.949 62.0733 136.334 62.2304 136.362 61.5113L136.351 44.2024C136.344 43.6021 137.058 43.4695 137.537 43.6195C137.628 43.6475 137.953 43.9127 137.953 43.9581V45.3368L138.624 44.6248C140.849 42.712 144.647 42.8935 146.511 45.2147C148.396 47.5602 148.385 53.2112 146.472 55.5393C144.374 58.0908 139.988 57.9197 137.956 55.3717L137.949 55.3682ZM141.286 44.9389C139.229 45.1972 138.1 47.3508 137.953 49.2251C137.677 52.7155 138.61 56.2024 142.849 55.7766C146.217 55.4415 146.553 51.2705 146.161 48.6492C145.748 45.8848 144.115 44.5829 141.286 44.9389Z" fill="white" fill-opacity="0.3"/>
<path d="M117.501 44.7261C117.351 44.583 117.075 43.337 116.935 42.9949C115.361 39.2218 108.685 39.3404 107.265 43.2218C106.587 45.0752 106.576 51.0298 107.29 52.8588C108.5 55.9617 112.819 56.5516 115.41 54.9356C116.924 53.9897 116.767 52.9844 117.354 51.6057C117.627 50.9635 119.04 50.9425 118.991 51.8954C118.69 58.1397 108.118 59.5778 105.754 53.4696C104.803 51.0158 104.842 44.6912 105.887 42.2689C108.104 37.145 116.945 37.5534 118.69 42.8308C118.823 43.2357 119.117 44.2654 118.893 44.6179C118.708 44.9076 117.701 44.9216 117.498 44.7296L117.501 44.7261Z" fill="white" fill-opacity="0.3"/>
<path d="M130.651 55.3684C129.804 56.433 128.594 57.0892 127.244 57.2811C124.566 57.6616 121.215 56.2759 121.422 53.1485C121.691 49.0577 127.559 49.3754 130.35 48.7506C130.434 48.7331 130.633 48.7227 130.658 48.6214C130.84 46.5796 130.011 45.0787 127.846 44.9111C126.353 44.796 124.852 45.0089 124.01 46.3597C123.803 46.6912 123.887 47.0857 123.394 47.1659C121.743 47.4277 122.345 45.8675 122.978 45.0787C125.391 42.0874 132.095 42.8867 132.249 47.3789V56.6563C132.12 57.3509 130.658 57.1136 130.658 56.7436V55.3649L130.651 55.3684ZM130.651 50.1851C128.727 50.5447 124.88 50.5063 123.52 52.07C122.541 53.1974 123.037 54.6738 124.272 55.33C127.056 56.8099 130.651 54.8693 130.651 51.6511V50.1886V50.1851Z" fill="white" fill-opacity="0.3"/>
<path d="M174.694 55.3683L173.547 56.4398C170.75 58.4224 165.13 57.11 165.469 53.0716C165.808 49.0332 171.862 49.2252 174.684 48.6702C174.995 45.7592 173.341 44.726 170.624 44.9145C169.9 44.9669 169.004 45.274 168.487 45.7941C167.805 46.4782 168.064 47.4171 166.773 47.1728C166.056 47.0367 166.497 45.8953 166.745 45.4765C168.746 42.0978 176.044 42.6841 176.286 47.2287L176.293 56.6632C176.163 57.3613 174.701 57.1588 174.701 56.6632V55.3683H174.694ZM174.694 50.185C172.767 50.5445 168.928 50.5026 167.564 52.0698C166.616 53.1588 167.067 54.6213 168.26 55.302C170.952 56.8377 174.694 54.918 174.694 51.7313V50.185Z" fill="white" fill-opacity="0.3"/>
<path d="M159.761 43.5776H163.077C163.71 43.5776 163.762 45.1658 163.077 45.1658H159.761V53.0681C159.761 53.3787 159.982 54.2478 160.115 54.555C160.748 56 162.157 55.3612 163.322 55.5393C164.052 55.6509 164.094 56.9354 163.29 57.0855C162.255 57.281 160.342 57.0855 159.482 56.4398C158.761 55.8988 158.167 54.4503 158.167 53.5707V45.1658H156.026C155.446 45.1658 155.337 43.5776 156.11 43.5776H158.167V39.1064C158.167 38.5375 159.761 38.6422 159.761 39.0227V43.5811V43.5776Z" fill="white" fill-opacity="0.3"/>
<path d="M180.709 38.7435C181.066 38.6353 182.014 38.6422 181.996 39.1832L181.947 56.7888C181.745 57.2391 180.695 57.2147 180.44 56.7888L180.461 39.0017C180.517 38.9005 180.587 38.7819 180.706 38.7469L180.709 38.7435Z" fill="white" fill-opacity="0.3"/>
<path d="M152.861 43.7661C152.959 43.8708 152.963 44.0628 152.97 44.2024L152.924 56.7888C152.697 57.2984 151.33 57.2391 151.372 56.4991V44.2024C151.333 43.4904 152.522 43.4031 152.861 43.7661Z" fill="white" fill-opacity="0.3"/>
<path d="M50.5337 44.8342C52.695 42.7191 56.5839 42.8238 58.5003 45.2112C60.4168 47.5986 60.3294 52.6632 58.7906 55.11C57.035 57.8988 52.5341 58.1082 50.3659 55.7034C50.3659 56.3281 50.4498 56.932 49.6979 57.089C49.1803 57.1973 47.4387 57.1868 46.8827 57.1274C46.4525 57.0786 46.0503 56.9215 46.0818 56.4189L46.1028 39.124C46.1902 38.7889 46.407 38.754 46.7113 38.726C47.4142 38.6632 49.4146 38.6318 50.0651 38.7365C50.2295 38.7644 50.5302 38.9425 50.5302 39.1065V44.8342H50.5337ZM52.5306 46.8622C50.3973 47.1205 50.4008 49.6545 50.5372 51.3089C50.6561 52.7784 51.401 53.8988 53.0132 53.8674C55.1465 53.8255 55.3808 51.665 55.3179 49.9756C55.2514 48.1501 54.6779 46.6039 52.5306 46.8622Z" fill="white" fill-opacity="0.3"/>
<path d="M39.2693 43.5986C39.7694 43.5079 41.9272 43.5044 42.4343 43.5847C42.7245 43.63 42.9623 43.8709 43.0498 44.1396L43.0707 56.4154C43.0043 56.9843 42.6056 57.0855 42.1055 57.1274C41.6054 57.1693 39.2938 57.1868 38.9616 56.9948C38.8357 56.9215 38.7657 56.7819 38.7237 56.6457L38.7028 44.1187C38.7098 43.8115 39.007 43.6475 39.2728 43.5986H39.2693Z" fill="white" fill-opacity="0.3"/>
<path d="M39.1014 38.0768C39.563 37.9756 41.9061 37.9965 42.4412 38.0558C42.7035 38.0873 42.9483 38.2094 43.0322 38.4712C43.1267 38.7749 43.1162 40.719 43.0707 41.1099C43.0287 41.4695 42.8958 41.5881 42.5496 41.6789C42.053 41.808 39.9897 41.801 39.4196 41.7347C39.035 41.6928 38.6922 41.5148 38.6258 41.103C38.5558 40.6667 38.5628 39.2216 38.6188 38.7644C38.6538 38.4852 38.7971 38.1396 39.1014 38.0733V38.0768Z" fill="white" fill-opacity="0.3"/>
<path d="M92.0628 43.5776H95.3781C95.6684 43.5776 95.8922 43.9266 95.9237 44.2024C95.9726 44.6107 95.9901 46.1744 95.9202 46.5444C95.8957 46.6666 95.5914 47.0052 95.546 47.0052H92.0628V52.2303C92.0628 52.3385 92.353 52.9982 92.444 53.1064C93.0595 53.8498 94.8605 53.3682 95.7103 53.5287C95.9901 53.5811 96.1475 53.8987 96.1755 54.1535C96.2244 54.5654 96.2384 56.1989 96.1545 56.5619C96.0705 56.9249 95.7103 57.0715 95.3641 57.1134C93.8568 57.2949 91.0486 57.0924 89.7371 56.3001C88.6635 55.6509 87.6948 54.0837 87.6948 52.8167V47.0052H85.3866C85.2852 47.0052 85.0369 46.5968 85.0124 46.4572C84.946 46.0313 84.953 44.6456 85.0054 44.2024C85.0369 43.9406 85.3027 43.5776 85.551 43.5776H87.6913V39.1901C87.6913 38.9528 88.083 38.7469 88.3138 38.7259C89.342 38.6247 90.5415 38.8097 91.5872 38.7329C91.734 38.7189 92.0523 39.1134 92.0523 39.1901V43.5811L92.0628 43.5776Z" fill="white" fill-opacity="0.3"/>
<path d="M79.3716 43.5986C79.8821 43.5079 82.0119 43.5044 82.533 43.5847C82.7813 43.6231 83.0961 43.7941 83.1485 44.0559L83.1031 56.6841C82.9667 56.9494 82.7848 57.0332 82.5015 57.0855C81.9455 57.1902 80.1025 57.1937 79.5254 57.117C79.2492 57.0786 78.8854 56.9529 78.8225 56.6457L78.8015 44.2025C78.8225 43.8464 79.0288 43.658 79.3681 43.5986H79.3716Z" fill="white" fill-opacity="0.3"/>
<path d="M78.9134 38.2513C79.0253 38.1187 79.2561 38.0698 79.4275 38.0558C80.1444 37.9895 81.837 37.9755 82.54 38.0593C82.7428 38.0837 83.0366 38.2059 83.124 38.3979C83.2114 38.5899 83.2079 40.7888 83.1695 41.1169C83.1275 41.4764 82.9946 41.5951 82.6484 41.6858C82.1518 41.815 80.0884 41.808 79.5184 41.7417C78.9484 41.6754 78.77 41.4241 78.7175 40.8656C78.6721 40.3944 78.6511 38.5619 78.9134 38.2513Z" fill="white" fill-opacity="0.3"/>
<path d="M151.435 38.7471C151.609 38.6982 152.645 38.6947 152.84 38.7331C153.47 38.8518 153.442 40.4608 153.096 40.7401C152.806 40.9739 151.501 40.9949 151.249 40.7366C151.036 40.5167 150.976 38.8797 151.435 38.7471Z" fill="white" fill-opacity="0.3"/>
</g>
<defs>
<clipPath id="clip0_5804_21132">
<rect width="161" height="24" fill="white" transform="translate(21 38)"/>
</clipPath>
</defs>
</svg>
