<svg width="203" height="100" viewBox="0 0 203 100" fill="none" xmlns="http://www.w3.org/2000/svg">
<g clip-path="url(#clip0_5804_21166)">
<g clip-path="url(#clip1_5804_21166)">
<path d="M71.6105 36.4469C75.1999 40.0158 73.3494 46.2406 68.4084 47.2789C67.3251 47.5068 66.2788 47.198 65.3242 47.84C64.0455 48.6989 63.8849 50.4833 64.868 51.635C65.9701 52.9273 67.4504 52.4067 68.9096 52.7901C74.5096 54.2607 75.4317 61.9493 70.3239 64.6861C64.9944 67.5419 59.0248 62.1976 61.266 56.5965C61.45 56.1363 61.7621 55.7547 61.9449 55.3389C62.9548 53.0384 60.3655 50.833 58.2188 52.1254C57.4459 52.5907 57.1475 53.4804 56.6052 54.157C53.1024 58.5302 45.9042 56.5862 45.1632 51.0193C44.3066 44.5832 52.366 41.0587 56.5472 46.0145C57.078 46.6439 57.3178 47.4737 58.0115 47.9675C59.2463 48.8464 61.0126 48.405 61.7046 47.0676C62.5766 45.3823 61.3953 44.4812 60.9186 43.0106C58.8249 36.554 66.7857 31.65 71.6111 36.4469H71.6105Z" fill="white" fill-opacity="0.3"/>
<path d="M104.108 56.8629V64.7514L104.015 64.8226L99.9221 64.8403C99.8623 64.8562 99.7222 64.7987 99.7222 64.7514V43.1079L99.8076 43.0224H103.852L103.937 43.1079V44.3324L105.001 43.5459C112.012 40.0818 118.139 47.211 115.206 54.035C113.305 58.4583 107.898 59.8213 104.107 56.8624L104.108 56.8629ZM111.568 50.5447C111.568 48.4373 109.859 46.7286 107.752 46.7286C105.645 46.7286 103.936 48.4373 103.936 50.5447C103.936 52.6521 105.645 54.3608 107.752 54.3608C109.859 54.3608 111.568 52.6521 111.568 50.5447Z" fill="white" fill-opacity="0.3"/>
<path d="M90.4952 47.2373C89.3151 47.0043 88.0039 46.6318 86.8369 47.1387C86.0002 47.5027 84.9704 48.7147 84.9704 49.6579V57.9736L84.885 58.0591H80.5847V43.0225H84.885L84.9704 43.1079V44.2755L86.2058 43.3181C87.4941 42.6135 89.1493 42.4182 90.4952 43.0509V47.2373Z" fill="white" fill-opacity="0.3"/>
<path d="M96.9312 43.0225H92.5455V58.0591H96.9312V43.0225Z" fill="white" fill-opacity="0.3"/>
<path d="M94.2417 36.5454C95.6406 36.3694 97.0514 37.1019 97.0395 38.6591C97.0247 40.5375 94.6604 41.3588 93.2672 40.2789C91.8541 39.1837 92.4636 36.7693 94.2417 36.5454Z" fill="white" fill-opacity="0.3"/>
<path d="M146.398 52.1927L146.312 52.3323C146.858 54.4932 149.301 55.2075 151.226 54.4573C152.104 54.115 152.786 53.3296 153.404 52.649L156.562 55.1209C154.295 58.3617 149.828 59.252 146.292 57.6521C140.317 54.9489 140.331 46.0528 146.341 43.4208C150.051 41.7964 154.512 42.7163 156.25 46.6121C157.041 48.384 157.06 50.181 157.067 52.0606L156.992 52.1916H146.398V52.1927ZM146.398 48.7184H152.549C152.584 48.7184 152.629 48.6329 152.633 48.5811C152.654 48.2758 152.235 47.4397 152.032 47.1857C151.037 45.9389 148.471 45.8535 147.311 46.898C146.985 47.1908 146.347 48.1665 146.321 48.5879C146.318 48.6426 146.357 48.707 146.398 48.7184Z" fill="white" fill-opacity="0.3"/>
<path d="M140.105 35.1055H135.719V58.3438H140.105V35.1055Z" fill="white" fill-opacity="0.3"/>
<path d="M121.878 44.3325L123.022 43.5111C125.428 42.2205 128.511 42.4255 130.748 43.9782C134.906 46.8648 134.855 54.0875 130.815 57.0577C128.32 58.8923 124.503 58.9368 122.135 56.8641L122.044 64.8318L117.664 64.7805V43.1079L117.749 43.0225H121.878V44.3325ZM129.523 50.5459C129.523 48.439 127.815 46.7315 125.708 46.7315C123.601 46.7315 121.894 48.439 121.894 50.5459C121.894 52.6527 123.601 54.3603 125.708 54.3603C127.815 54.3603 129.523 52.6527 129.523 50.5459Z" fill="white" fill-opacity="0.3"/>
</g>
</g>
<defs>
<clipPath id="clip0_5804_21166">
<rect width="203" height="100" fill="white"/>
</clipPath>
<clipPath id="clip1_5804_21166">
<rect width="111.967" height="30.96" fill="white" transform="translate(45.1 34.52)"/>
</clipPath>
</defs>
</svg>
