<svg width="203" height="100" viewBox="0 0 203 100" fill="none" xmlns="http://www.w3.org/2000/svg">
<g clip-path="url(#clip0_5804_21214)">
<path d="M69.2144 58.067C66.8666 58.067 65.0262 57.4736 63.7104 56.2782C62.3774 55.0828 61.7152 53.423 61.7152 51.273H66.1356C66.1356 52.3136 66.4108 53.122 66.9698 53.6982C67.5288 54.2744 68.277 54.5668 69.2488 54.5668C70.0744 54.5668 70.6936 54.3776 71.1494 54.0164C71.5966 53.6552 71.8116 53.1392 71.8116 52.4598C71.8116 51.875 71.6482 51.4106 71.3042 51.0494C70.9688 50.6968 70.3668 50.3442 69.481 49.9916L66.0496 48.65C63.4696 47.6782 62.1796 45.9496 62.1796 43.4384C62.1796 41.7442 62.7988 40.394 64.02 39.3706C65.2498 38.3558 66.8924 37.8484 68.965 37.8484C71.0376 37.8484 72.7662 38.3988 74.039 39.4996C75.3118 40.5918 75.9482 42.071 75.9482 43.9114H71.5364C71.5364 43.0256 71.3128 42.3376 70.8484 41.8646C70.4012 41.3916 69.7476 41.1594 68.879 41.1594C68.1738 41.1594 67.6062 41.3228 67.2106 41.6668C66.8064 42.0108 66.5914 42.458 66.5914 43.0428C66.5828 43.5588 66.8064 44.049 67.1848 44.393C67.589 44.7628 68.2598 45.1498 69.1972 45.5282L72.3534 46.7838C74.9162 47.7814 76.1976 49.5702 76.1976 52.1502C76.1976 53.9304 75.5526 55.358 74.2712 56.433C73.007 57.5166 71.3042 58.0584 69.2058 58.0584L69.2144 58.067Z" fill="white" fill-opacity="0.3"/>
<path d="M85.5372 44.0144C88.7364 44.0144 90.336 45.8032 90.336 49.3808V57.5078H86.1392V50.7482C86.1392 49.6216 85.9672 48.8046 85.6146 48.2972C85.262 47.7898 84.6686 47.5318 83.8258 47.5318C82.1316 47.5318 81.2888 48.5724 81.2888 50.645V57.5078H77.1092V38.4158H81.2888V46.2676C82.0628 44.7626 83.4818 44.0058 85.5372 44.0058V44.0144Z" fill="white" fill-opacity="0.3"/>
<path d="M97.5084 57.8776C95.5992 57.8776 94.0856 57.2326 92.9848 55.9426C91.884 54.6526 91.325 52.9928 91.325 50.9546C91.325 48.9164 91.9012 47.2996 93.045 45.9838C94.1888 44.6766 95.6938 44.0144 97.5686 44.0144C98.4286 43.9972 99.2886 44.2122 100.054 44.6078C100.751 44.9776 101.327 45.5452 101.688 46.2418V44.367H105.833V57.5078H101.688V55.6588C101.327 56.3124 100.768 56.8456 100.002 57.2498C99.237 57.6712 98.377 57.8776 97.5084 57.869V57.8776ZM98.7124 54.4118C99.71 54.4118 100.484 54.085 101.034 53.4314C101.585 52.7778 101.86 51.9436 101.86 50.946C101.86 49.9484 101.585 49.1486 101.034 48.495C100.484 47.8414 99.71 47.5146 98.7124 47.5146C97.7148 47.5146 97.0096 47.8414 96.4334 48.4692C95.8572 49.1056 95.5734 49.9398 95.5734 50.9546C95.5734 51.9694 95.8572 52.8036 96.4334 53.4486C97.0096 54.085 97.7664 54.4032 98.7124 54.4032V54.4118Z" fill="white" fill-opacity="0.3"/>
<path d="M120.513 57.5078H115.422L111.243 51.806V57.5078H107.063V38.4158H111.243V49.8366L115.525 44.3498H120.436L115.19 50.5676L120.513 57.4992V57.5078Z" fill="white" fill-opacity="0.3"/>
<path d="M132.639 50.2666C132.639 50.8772 132.596 51.4878 132.528 52.0984H122.818C122.861 52.9498 123.154 53.612 123.687 54.0936C124.237 54.5666 124.968 54.7988 125.897 54.8074C127.17 54.8074 127.987 54.3946 128.348 53.5862H132.433C132.235 54.8762 131.53 55.9254 130.317 56.7338C129.105 57.5422 127.626 57.9464 125.888 57.9464C123.652 57.9464 121.889 57.3272 120.599 56.0888C119.309 54.859 118.664 53.1476 118.664 50.9632C118.664 48.7788 119.309 47.119 120.599 45.8806C121.889 44.6422 123.609 44.0144 125.751 44.0144C127.892 44.0144 129.449 44.5906 130.722 45.7516C131.986 46.904 132.622 48.409 132.631 50.2666H132.639ZM122.818 49.5012H128.52C128.503 48.6326 128.253 47.9532 127.789 47.4888C127.316 47.0158 126.637 46.7836 125.742 46.7836C124.848 46.7836 124.151 47.0416 123.627 47.5404C123.111 48.0392 122.835 48.6842 122.818 49.5098V49.5012Z" fill="white" fill-opacity="0.3"/>
<path d="M142.151 44.0145C143.948 44.0145 145.41 44.6509 146.528 45.9237C147.646 47.1965 148.214 48.8649 148.214 50.9375C148.214 53.0101 147.638 54.6613 146.494 55.9427C145.35 57.2241 143.862 57.8691 142.048 57.8691C141.162 57.8777 140.285 57.6627 139.511 57.2413C138.771 56.8199 138.221 56.2953 137.877 55.6589V62.9603H133.697V44.3585H137.877V46.2333C138.221 45.5797 138.788 45.0379 139.571 44.6165C140.354 44.2037 141.239 43.9887 142.151 43.9973V44.0145ZM140.844 54.4119C141.755 54.4119 142.495 54.0851 143.08 53.4401C143.665 52.7951 143.948 51.9609 143.948 50.9461C143.948 49.9313 143.656 49.0971 143.08 48.4607C142.504 47.8243 141.747 47.5147 140.844 47.5061C139.898 47.5061 139.132 47.8329 138.556 48.4607C137.98 49.0971 137.688 49.9313 137.688 50.9461C137.688 51.9609 137.98 52.8209 138.573 53.4573C139.15 54.0851 139.915 54.4033 140.844 54.4033V54.4119Z" fill="white" fill-opacity="0.3"/>
<path d="M155.223 57.8776C153.314 57.8776 151.8 57.2326 150.699 55.9426C149.599 54.6526 149.04 52.9928 149.04 50.9546C149.04 48.9164 149.616 47.2996 150.76 45.9838C151.903 44.6766 153.408 44.0144 155.283 44.0144C156.143 43.9972 157.003 44.2122 157.769 44.6078C158.465 44.9776 159.041 45.5452 159.403 46.2418V44.367H163.548V57.5078H159.403V55.6588C159.041 56.3124 158.482 56.8456 157.734 57.2498C156.96 57.6712 156.1 57.8776 155.232 57.869L155.223 57.8776ZM156.427 54.4118C157.425 54.4118 158.199 54.085 158.749 53.4314C159.299 52.7778 159.575 51.9436 159.575 50.946C159.575 49.9484 159.299 49.1486 158.749 48.495C158.199 47.8414 157.425 47.5146 156.427 47.5146C155.429 47.5146 154.724 47.8414 154.148 48.4692C153.572 49.1056 153.288 49.9398 153.288 50.9546C153.288 51.9694 153.572 52.8036 154.148 53.4486C154.724 54.085 155.481 54.4032 156.427 54.4032V54.4118Z" fill="white" fill-opacity="0.3"/>
<path d="M173.696 44.3669H177.875V57.1121C177.875 59.1589 177.248 60.7327 176.001 61.8593C174.814 62.8741 173.214 63.3815 171.167 63.3815C169.121 63.3815 167.418 62.9343 166.308 62.0227C165.233 61.1111 164.683 59.9587 164.674 58.5569H168.871C168.957 59.7437 169.723 60.3285 171.159 60.3285C172.853 60.3285 173.696 59.3481 173.696 57.3873V55.3405C172.93 56.7853 171.546 57.5249 169.533 57.5249C167.908 57.5249 166.695 57.0347 165.896 56.0457C165.096 55.0567 164.683 53.7151 164.683 52.0123V44.3669H168.863V51.3759C168.863 53.2593 169.637 54.2139 171.185 54.2139C172.01 54.2139 172.629 53.9215 173.059 53.3281C173.498 52.7433 173.713 51.9177 173.713 50.8857V44.3755L173.696 44.3669Z" fill="white" fill-opacity="0.3"/>
<path fill-rule="evenodd" clip-rule="evenodd" d="M40.2926 53.526C40.1808 53.5002 40.069 53.4744 39.9572 53.4486C39.1746 53.2938 38.3662 53.2852 37.5836 53.4314C37.489 53.4486 37.3858 53.4744 37.2998 53.4916C36.7064 53.6378 36.5602 53.9818 36.8268 54.5322C37.1278 55.16 37.6524 55.6674 38.2716 55.9512C38.5812 56.106 38.9596 56.106 39.2692 55.9426C39.9056 55.633 40.413 55.0998 40.714 54.4548C40.9376 53.9646 40.8258 53.6722 40.284 53.5346L40.2926 53.526Z" fill="white" fill-opacity="0.3"/>
<path fill-rule="evenodd" clip-rule="evenodd" d="M51.2318 37.2205C49.4086 35.3113 42.7866 38.5105 41.3676 39.2243C41.1956 39.3103 40.9892 39.3619 40.7914 39.3619H36.6634C36.457 39.3619 36.2592 39.3103 36.0872 39.2243C34.6682 38.5019 28.0376 35.3113 26.2316 37.2205C24.1934 39.3619 23.5398 53.4315 24.718 54.8075C25.3372 55.5299 29.5168 57.8949 32.8622 59.1591C34.092 59.6407 36.199 60.4233 38.736 60.4233C41.273 60.4233 43.4316 59.6665 44.5668 59.1677C49.8386 56.8457 52.0574 55.5729 52.6766 54.8419C53.8634 53.4745 53.27 39.3619 51.2404 37.2205H51.2318ZM44.1282 40.1961C45.1344 39.5253 46.261 39.0351 47.4392 38.7513C47.7058 38.6825 47.981 38.6567 48.2476 38.6653C49.2366 38.6653 50.002 39.3103 50.2428 40.3165C50.2428 40.3165 50.6814 42.2687 50.7158 44.0489C50.7244 44.5907 50.303 45.0465 49.7612 45.0551H49.7096C49.5634 45.0551 49.4086 45.0121 49.2796 44.9605L44.0766 41.9591C43.7928 41.7957 43.6208 41.5033 43.5864 41.1765V41.0991C43.5692 40.7121 43.7842 40.4111 44.1282 40.1961ZM27.1776 40.3079C27.4098 39.3017 28.1752 38.6567 29.1728 38.6567C29.448 38.6481 29.7232 38.6739 29.9812 38.7427C31.168 39.0265 32.2774 39.5167 33.2836 40.1875C33.619 40.4025 33.8426 40.6949 33.8426 41.0905V41.1679C33.8168 41.4947 33.6276 41.7871 33.3524 41.9505L28.1494 44.9519C28.0118 45.0207 27.8656 45.0465 27.7194 45.0465C27.1776 45.0551 26.7218 44.6337 26.7132 44.0919V44.0403C26.7304 42.2687 27.169 40.3165 27.169 40.3079H27.1776ZM31.2626 50.6193L29.0266 52.0985C28.3816 52.5285 28.1666 52.7435 28.0032 53.0445C27.8656 53.3025 27.7968 53.5949 27.8054 53.8787C27.8054 54.2055 27.685 54.4033 27.599 54.5065C27.384 54.7215 27.1174 54.7731 26.825 54.6785C26.696 54.6527 26.5842 54.5925 26.4724 54.5065C25.406 53.6379 25.277 51.9179 26.1972 50.7053C26.7734 49.9399 27.1862 49.7163 29.62 48.1081C32.0538 46.4913 32.4236 46.2247 33.3524 45.9839C34.8316 45.6227 36.3538 46.4053 36.7322 47.7383C36.7752 47.8673 36.7752 48.0049 36.7494 48.1253C36.7064 48.4263 36.5602 48.6499 36.2678 48.7617C36.1388 48.8133 35.9066 48.8305 35.6142 48.7015C35.3476 48.5811 35.0552 48.5295 34.7714 48.5553C34.4274 48.5983 34.1436 48.7015 33.4986 49.1315L31.2454 50.6279L31.2626 50.6193ZM44.6872 56.0889C44.2658 56.6135 43.7412 57.1123 43.165 57.4219C40.2238 58.9871 37.2396 58.9699 34.307 57.4133C33.7394 57.1123 33.2234 56.6221 32.802 56.1147C32.028 55.1687 32.071 53.9905 32.7762 52.9929C33.2062 52.3823 33.7824 51.9437 34.4102 51.6083C35.769 50.8687 37.2224 50.5591 38.7532 50.5419C40.327 50.5591 41.8406 50.8515 43.2166 51.7029C43.7842 52.0555 44.2916 52.5027 44.7044 53.0273C45.4612 53.9647 45.4612 55.1687 44.7044 56.0975L44.6872 56.0889ZM50.9394 54.5237C50.8448 54.6097 50.7158 54.6699 50.5868 54.6957C50.2944 54.7731 50.0278 54.7387 49.8128 54.5237C49.7268 54.4291 49.6064 54.2227 49.6064 53.8959C49.615 53.6035 49.5462 53.3197 49.4086 53.0617C49.2452 52.7607 49.0302 52.5457 48.3852 52.1157L46.1492 50.6365H46.132L43.896 49.1487C43.251 48.7187 42.9586 48.6069 42.6232 48.5725C42.3308 48.5553 42.047 48.5983 41.7804 48.7187C41.4794 48.8477 41.2386 48.8133 41.1268 48.7789C40.843 48.6671 40.6968 48.4435 40.6538 48.1425C40.6366 48.0135 40.6366 47.8759 40.671 47.7555C41.0494 46.4225 42.5802 45.6399 44.0508 46.0011C44.9796 46.2247 45.3494 46.5085 47.7832 48.1253C50.217 49.7249 50.6298 49.9571 51.206 50.7225C52.1176 51.9351 51.9972 53.6465 50.9308 54.5151L50.9394 54.5237Z" fill="white" fill-opacity="0.3"/>
</g>
<defs>
<clipPath id="clip0_5804_21214">
<rect width="203" height="100" fill="white"/>
</clipPath>
</defs>
</svg>
