<svg width="203" height="100" viewBox="0 0 203 100" fill="none" xmlns="http://www.w3.org/2000/svg">
<g clip-path="url(#clip0_5804_21240)">
<path d="M77.7904 40L69.842 58.5513C69.5018 59.3424 68.7255 59.86 67.8604 59.86H56.0228L64.4296 40H77.7978H77.7904ZM50.9506 40L42.5437 59.86H52.3628L60.7696 40H50.9506ZM39.8523 41.3161L32 59.86H38.6841L47.0909 40H41.8339C40.9688 40 40.185 40.5176 39.8449 41.3161H39.8523Z" fill="white" fill-opacity="0.3"/>
<path d="M91.898 43.586C93.4655 43.5342 94.9886 44.1627 96.0681 45.3014L96.5709 45.8041L99.0626 43.268L98.582 42.78C96.985 41.1016 94.7298 40.2218 92.4155 40.3622C88.7408 40.3622 85.554 42.61 84.8368 45.708C84.5041 46.8171 84.6372 48.0149 85.2213 49.0205C85.9828 50.2331 87.5134 51.0464 90.1826 51.6453C92.0236 52.0372 93.0884 52.4956 93.4285 53.0354C93.6059 53.3903 93.6281 53.7969 93.495 54.1666C93.1623 55.6232 91.5652 56.5992 89.5393 56.5992C87.6169 56.6658 85.7758 55.8303 84.5632 54.3367L84.09 53.8043L81.4504 56.2L81.931 56.7175C83.7425 58.7139 86.3377 59.8082 89.0365 59.7268C93.007 59.7268 96.1864 57.5013 96.948 54.1888C97.3694 52.8579 97.0441 51.3939 96.0977 50.3662C95.2474 49.4715 93.8795 48.8356 91.7944 48.355C87.8979 47.4382 88.0383 46.6249 88.1566 45.9298C88.4746 44.5546 90.0125 43.5934 91.898 43.5934V43.586Z" fill="white" fill-opacity="0.3"/>
<path d="M123.448 59.5198H126.908L131.285 40.4509H127.825L123.44 59.5198H123.448Z" fill="white" fill-opacity="0.3"/>
<path d="M115.788 48.3254H107.004L108.823 40.4509H105.362L100.955 59.5198H104.416L106.257 51.5492H115.041L113.2 59.5198H116.66L121.067 40.4509H117.606L115.788 48.3254Z" fill="white" fill-opacity="0.3"/>
<path d="M137.156 44.732L133.74 59.5198H137.2L138.975 51.8375H147.567L148.949 48.6138H139.714L140.461 45.3679C140.69 44.3771 141.57 43.6747 142.59 43.6747H153.001L154.384 40.451H142.531C139.958 40.4436 137.718 42.2181 137.149 44.732H137.156Z" fill="white" fill-opacity="0.3"/>
<path d="M158.288 40.4509L156.905 43.6821H161.792L158.132 59.5272H161.497L165.157 43.6821H171.138L171.885 40.4583H158.288V40.4509Z" fill="white" fill-opacity="0.3"/>
</g>
<defs>
<clipPath id="clip0_5804_21240">
<rect width="139.885" height="19.86" fill="white" transform="translate(32 40)"/>
</clipPath>
</defs>
</svg>
