<svg width="203" height="100" viewBox="0 0 203 100" fill="none" xmlns="http://www.w3.org/2000/svg">
<g clip-path="url(#clip0_5804_21261)">
<path fill-rule="evenodd" clip-rule="evenodd" d="M33 51.0208C33 53.1638 33.9849 56.8368 42.5204 56.8368L44.0338 56.836C52.2221 56.836 53.5792 54.0793 53.5792 51.3919V51.0859C53.5792 47.8506 51.1061 46.3639 44.9779 46.2547L42.2427 46.2104C38.9165 46.1446 38.4783 45.5109 38.4783 44.8113C38.4783 44.1117 38.7629 43.4121 42.7026 43.4121H43.0497C47.3209 43.4121 47.6455 44.7454 47.7548 45.3583H53.0482V45.1372C53.0482 42.6874 51.2979 40 43.5947 40H42.0839C34.6653 40 33.2204 42.5357 33.2204 44.963V45.1598C33.2204 47.698 35.0809 49.7543 41.1649 49.9277L43.966 49.9936C47.7305 50.1028 48.2338 50.6932 48.2338 51.6338C48.2338 52.5076 47.7505 53.3606 43.461 53.3606H43.1547C38.9529 53.3606 38.3837 51.7646 38.3186 50.7807H33V51.0208ZM54.7532 48.7036C54.7532 51.4369 55.9134 56.3592 64.7326 56.7927V59.9386H72.1304L69.5913 56.7251C77.5574 55.9379 78.6083 51.3884 78.6083 48.701V48.0457C78.6083 45.0939 77.3153 40 67.1624 40H66.2208C55.9568 40 54.7532 45.0939 54.7532 48.0457V48.7036ZM66.6808 43.9374C72.1955 43.9374 73.2681 46.2555 73.2681 48.2008V48.5043C73.2681 50.4288 72.1477 52.8769 66.6808 52.8769C61.1651 52.8769 60.0935 50.3845 60.0935 48.4609V48.2008C60.0935 46.233 61.0784 43.9374 66.6808 43.9374ZM90.4911 56.7929C81.7595 56.7929 80.3381 51.2448 80.3381 48.1794V40.2907H85.458V47.8726C85.458 49.9713 86.3987 52.5728 90.8382 52.5728C95.2153 52.5728 96.1784 49.9721 96.1784 47.8726V40.2872H101.284V48.176C101.284 51.237 99.6201 56.7894 91.2816 56.7894L90.4911 56.7929ZM107.211 53.5794H117.082L118.613 56.5528H124.106L115.396 40.2872H108.787L100.558 56.5528H105.745L107.211 53.5794ZM109.028 49.9062L112.048 43.8068L115.199 49.9062H109.028ZM125.112 40.2872H135.902C145.334 40.2872 147.391 44.3313 147.391 47.9826V48.6389C147.391 52.1368 145.443 56.5528 135.924 56.5528H125.112V40.2872ZM130.212 52.6405H135.505C141.283 52.6405 142.048 50.104 142.048 48.4421V48.3112C142.048 46.6502 141.371 44.1354 135.505 44.1354H130.212V52.6405ZM148.42 51.0208C148.42 53.1638 149.406 56.8368 157.94 56.8368L159.459 56.836C167.644 56.836 169 54.0793 169 51.3919V51.0859C169 47.8506 166.528 46.3639 160.399 46.2547L157.664 46.2104C154.334 46.1446 153.899 45.5109 153.899 44.8113C153.899 44.1117 154.184 43.4121 158.124 43.4121H158.47C162.741 43.4121 163.066 44.7454 163.176 45.3583H168.469V45.1372C168.469 42.6874 166.719 40 159.015 40H157.504C150.086 40 148.641 42.5357 148.641 44.963V45.1598C148.641 47.698 150.501 49.7543 156.586 49.9277L159.387 49.9936C163.151 50.1028 163.654 50.6932 163.654 51.6338C163.654 52.5076 163.171 53.3606 158.882 53.3606H158.575C154.374 53.3606 153.804 51.7646 153.738 50.7807H148.42V51.0208Z" fill="white" fill-opacity="0.3"/>
</g>
<defs>
<clipPath id="clip0_5804_21261">
<rect width="136" height="20" fill="white" transform="translate(33 40)"/>
</clipPath>
</defs>
</svg>
