<svg width="203" height="100" viewBox="0 0 203 100" fill="none" xmlns="http://www.w3.org/2000/svg">
<g clip-path="url(#clip0_5804_21272)">
<path d="M41.1569 52.9065C41.2099 55.3388 43.126 57.0655 46.0973 57.0655C48.752 57.0655 50.6504 55.4966 50.6504 53.3116C50.6681 50.8802 48.6813 50.2278 46.6422 49.8573C44.7085 49.5231 43.4426 49.2581 43.4426 47.9896C43.4426 46.8266 44.4095 46.2266 45.7983 46.2266C47.2748 46.2266 48.3124 47.0731 48.453 48.3238H50.4398C50.3345 46.1034 48.4884 44.5176 45.7992 44.5176C43.11 44.5176 41.4213 45.9979 41.4213 48.1297C41.4213 50.5797 43.3551 51.2313 45.3949 51.584C47.3463 51.9368 48.6299 52.2187 48.6299 53.5226C48.6299 54.7033 47.5746 55.3557 46.1159 55.3557C44.3927 55.3557 43.2498 54.3868 43.1445 52.9411L41.1577 52.9057L41.1569 52.9065Z" fill="white" fill-opacity="0.3"/>
<path d="M52.6414 54.51C52.6414 56.149 53.38 56.96 55.1023 56.96H56.9308V55.2856H55.4898C54.8042 55.2856 54.5574 55.0215 54.5574 54.3168V49.6117H56.7202V47.9373H54.5574V45.4172H52.6414V47.9373H51.0765V49.6117H52.6414V54.5109V54.51Z" fill="white" fill-opacity="0.3"/>
<path d="M64.67 47.9373L64.4417 49.2589C63.8614 48.431 62.9123 47.8318 61.5058 47.8318C59.0616 47.8318 57.2509 49.664 57.2509 52.4491C57.2509 55.2341 59.0616 57.0664 61.5058 57.0664C62.9123 57.0664 63.8614 56.3963 64.4417 55.5861L64.6523 56.9609H66.3224V47.9381H64.67V47.9373ZM61.8216 55.462C60.2399 55.462 59.2023 54.229 59.2023 52.4491C59.2023 50.6692 60.2399 49.453 61.8216 49.453C63.4033 49.453 64.4409 50.7046 64.4409 52.4845C64.4409 54.2644 63.4033 55.4628 61.8216 55.4628V55.462Z" fill="white" fill-opacity="0.3"/>
<path d="M76.2993 53.7175H74.3656C74.1374 54.775 73.3288 55.4443 72.1506 55.4443C70.6211 55.4443 69.6188 54.2113 69.6188 52.4314C69.6188 50.6514 70.6211 49.453 72.1506 49.453C73.2935 49.453 74.102 50.1231 74.3479 51.1452H76.2993C75.9481 49.118 74.4717 47.8318 72.2028 47.8318C69.4605 47.8318 67.6674 49.664 67.6674 52.4314C67.6674 55.1987 69.4428 57.0664 72.1497 57.0664C74.4523 57.0664 75.9473 55.7802 76.2985 53.7175H76.2993Z" fill="white" fill-opacity="0.3"/>
<path d="M77.6461 44.624V56.9601H79.5453V54.6519L81.1446 52.9598L83.817 56.9601H86.0666L82.4972 51.5673L85.856 47.9366H83.6587L79.5453 52.342V44.624H77.6461Z" fill="white" fill-opacity="0.3"/>
<path d="M86.2536 53.9818C86.3066 55.9381 87.9405 57.0656 90.3316 57.0656C92.4944 57.0656 94.1115 55.9727 94.1115 54.2459C94.1115 52.2373 92.4413 51.7791 90.42 51.5495C89.1365 51.3908 88.2749 51.3208 88.2749 50.4743C88.2749 49.7519 89.0135 49.2936 90.121 49.2936C91.2286 49.2936 92.0202 49.8928 92.1078 50.7038H93.9531C93.8302 48.8531 92.283 47.831 90.0857 47.831C87.9582 47.8133 86.4296 48.9231 86.4296 50.633C86.4296 52.5015 88.0466 52.9243 90.068 53.1707C91.4399 53.3471 92.2485 53.4357 92.2485 54.3869C92.2485 55.127 91.4568 55.5853 90.3147 55.5853C89.0144 55.5853 88.1528 54.9152 88.082 53.9818H86.2544H86.2536Z" fill="white" fill-opacity="0.3"/>
<path d="M99.9919 44.624V56.9601H102.014V51.7436H106.831V49.9992H102.014V46.4217H107.851V44.624H99.9919Z" fill="white" fill-opacity="0.3"/>
<path d="M112.633 57.0656C115.375 57.0656 117.221 55.2148 117.221 52.4483C117.221 49.6819 115.375 47.8311 112.633 47.8311C109.89 47.8311 108.044 49.6987 108.044 52.4483C108.044 55.198 109.89 57.0656 112.633 57.0656ZM112.633 55.4444C111.033 55.4444 109.996 54.1936 109.996 52.4492C109.996 50.7047 111.033 49.4531 112.633 49.4531C114.233 49.4531 115.287 50.7047 115.287 52.4492C115.287 54.1936 114.232 55.4444 112.633 55.4444Z" fill="white" fill-opacity="0.3"/>
<path d="M124.743 47.9374V52.4137C124.743 54.2814 123.864 55.4089 122.422 55.4089C120.98 55.4089 120.33 54.4747 120.33 52.7125V47.9365H118.431V52.9066C118.431 56.0258 120.067 57.0656 121.983 57.0656C123.372 57.0656 124.198 56.5018 124.761 55.814L124.972 56.9593H126.642V47.9365H124.743V47.9374Z" fill="white" fill-opacity="0.3"/>
<path d="M133.084 47.8318C131.625 47.8318 130.763 48.4133 130.201 49.118L129.989 47.9373H128.337V56.96H130.236V52.4136C130.236 50.5805 131.132 49.4699 132.644 49.4699C134.068 49.4699 134.788 50.3864 134.788 52.0954V56.9592H136.705V51.9891C136.705 48.8698 135.017 47.8301 133.083 47.8301L133.084 47.8318Z" fill="white" fill-opacity="0.3"/>
<path d="M145.094 44.624V49.1881C144.514 48.3948 143.547 47.8311 142.176 47.8311C139.732 47.8311 137.921 49.6633 137.921 52.4483C137.921 55.2334 139.732 57.0656 142.176 57.0656C143.6 57.0656 144.532 56.3955 145.112 55.6031L145.34 56.9601H146.994V44.624H145.094ZM142.493 55.4621C140.91 55.4621 139.874 54.2291 139.874 52.4492C139.874 50.6693 140.91 49.4531 142.493 49.4531C144.075 49.4531 145.112 50.687 145.112 52.4846C145.112 54.2823 144.075 55.463 142.493 55.463V55.4621Z" fill="white" fill-opacity="0.3"/>
<path d="M155.758 47.9373L155.529 49.2589C154.948 48.431 153.999 47.8318 152.593 47.8318C150.149 47.8318 148.338 49.664 148.338 52.4491C148.338 55.2341 150.149 57.0664 152.593 57.0664C153.999 57.0664 154.948 56.3963 155.529 55.5861L155.74 56.9609H157.409V47.9381H155.758V47.9373ZM152.909 55.462C151.327 55.462 150.29 54.229 150.29 52.4491C150.29 50.6692 151.328 49.453 152.909 49.453C154.491 49.453 155.529 50.7046 155.529 52.4845C155.529 54.2644 154.491 55.4628 152.909 55.4628V55.462Z" fill="white" fill-opacity="0.3"/>
<path d="M159.721 54.51C159.721 56.149 160.46 56.96 162.182 56.96H164.011V55.2856H162.57C161.884 55.2856 161.638 55.0215 161.638 54.3168V49.6117H163.801V47.9373H161.638V45.4172H159.721V47.9373H158.157V49.6117H159.721V54.5109V54.51Z" fill="white" fill-opacity="0.3"/>
<path d="M165.804 44.342C165.154 44.342 164.643 44.818 164.643 45.4873C164.643 46.1565 165.154 46.6325 165.804 46.6325C166.454 46.6325 166.964 46.1565 166.964 45.4873C166.964 44.818 166.455 44.342 165.804 44.342ZM164.855 47.9373V56.96H166.753V47.9373H164.855Z" fill="white" fill-opacity="0.3"/>
<path d="M172.692 57.0656C175.435 57.0656 177.281 55.2148 177.281 52.4483C177.281 49.6819 175.435 47.8311 172.692 47.8311C169.95 47.8311 168.105 49.6987 168.105 52.4483C168.105 55.198 169.95 57.0656 172.692 57.0656ZM172.692 55.4444C171.093 55.4444 170.055 54.1936 170.055 52.4492C170.055 50.7047 171.093 49.4531 172.692 49.4531C174.292 49.4531 175.348 50.7047 175.348 52.4492C175.348 54.1936 174.293 55.4444 172.692 55.4444Z" fill="white" fill-opacity="0.3"/>
<path d="M183.378 47.8318C181.919 47.8318 181.057 48.4133 180.496 49.118L180.284 47.9373H178.632V56.96H180.53V52.4136C180.53 50.5805 181.427 49.4699 182.938 49.4699C184.363 49.4699 185.083 50.3864 185.083 52.0954V56.9592H187V51.9891C187 48.8698 185.312 47.8301 183.378 47.8301V47.8318Z" fill="white" fill-opacity="0.3"/>
<path d="M33.9546 50.5006C33.9546 50.6558 33.9513 50.8111 33.9428 50.9664C33.9353 51.1217 33.9243 51.277 33.9083 51.4314C33.8923 51.5859 33.8738 51.7403 33.851 51.8939C33.8283 52.0475 33.8022 52.2011 33.7719 52.353C33.7415 52.505 33.7079 52.6569 33.67 52.8079C33.6321 52.959 33.5908 53.1084 33.5462 53.2569C33.5007 53.4063 33.4527 53.554 33.4004 53.7C33.3482 53.846 33.2926 53.9912 33.2337 54.1346C33.1739 54.2781 33.1116 54.4207 33.045 54.5608C32.9785 54.7009 32.9094 54.8402 32.8362 54.9777C32.7629 55.1153 32.6862 55.2495 32.6071 55.3837C32.5279 55.517 32.4445 55.6487 32.3586 55.7778C32.2727 55.9069 32.1834 56.0344 32.0908 56.1593C31.999 56.2842 31.903 56.4066 31.8044 56.5264C31.7059 56.6471 31.6048 56.7644 31.5004 56.88C31.3968 56.9948 31.289 57.1079 31.1795 57.2176C31.07 57.3273 30.9572 57.4345 30.8426 57.5392C30.7281 57.6438 30.6102 57.7451 30.4906 57.8438C30.371 57.9426 30.248 58.0379 30.1242 58.1308C30.0004 58.2236 29.8732 58.3131 29.7435 58.3991C29.6147 58.4852 29.4841 58.5688 29.3502 58.6481C29.2171 58.7283 29.0824 58.8042 28.9459 58.8777C28.8087 58.9511 28.6705 59.0211 28.5299 59.087C28.3901 59.1536 28.2486 59.2169 28.1046 59.276C27.9605 59.3351 27.8165 59.3908 27.6708 59.444C27.5251 59.4963 27.3777 59.5452 27.2295 59.59C27.0804 59.6355 26.9314 59.6769 26.7814 59.714C26.6315 59.7512 26.4799 59.7858 26.3275 59.8162C26.175 59.8465 26.0226 59.8727 25.8693 59.8955C25.716 59.9183 25.5619 59.9368 25.4078 59.9529C25.2536 59.9689 25.0987 59.9799 24.9437 59.9875C24.7887 59.9951 24.6338 59.9993 24.4788 59.9993C24.3238 59.9993 24.1689 59.9951 24.0139 59.9875C23.8589 59.9799 23.704 59.9689 23.5498 59.9529C23.3957 59.9377 23.2416 59.9183 23.0883 59.8955C22.935 59.8727 22.7817 59.8465 22.6301 59.8162C22.4785 59.7858 22.3269 59.7512 22.1762 59.714C22.0263 59.6761 21.8763 59.6347 21.7281 59.59C21.5799 59.5452 21.4325 59.4963 21.2868 59.444C21.1411 59.3908 20.9962 59.3351 20.8522 59.276C20.709 59.2169 20.5667 59.1536 20.4269 59.087C20.2862 59.0203 20.1481 58.9511 20.0117 58.8777C19.8744 58.8042 19.7396 58.7274 19.6066 58.6481C19.4735 58.5688 19.3421 58.4852 19.2132 58.3991C19.0844 58.3122 18.9572 58.2236 18.8326 58.1308C18.7079 58.0379 18.5858 57.9426 18.4662 57.8438C18.3466 57.7451 18.2287 57.6438 18.1141 57.5392C17.9996 57.4354 17.8867 57.3273 17.7773 57.2176C17.6678 57.1079 17.5608 56.9948 17.4564 56.88C17.3519 56.7652 17.2509 56.6471 17.1523 56.5264C17.0538 56.4066 16.9586 56.2833 16.866 56.1593C16.7733 56.0344 16.6841 55.9078 16.5981 55.7778C16.5122 55.6487 16.4289 55.517 16.3497 55.3837C16.2697 55.2503 16.1939 55.1153 16.1206 54.9777C16.0473 54.8402 15.9783 54.7018 15.9117 54.5608C15.8452 54.4199 15.7829 54.2781 15.7239 54.1346C15.6641 53.9912 15.6085 53.846 15.5563 53.7C15.5041 53.554 15.4553 53.4063 15.4106 53.2569C15.366 53.1084 15.3239 52.9582 15.2868 52.8079C15.2497 52.6569 15.2152 52.5058 15.1849 52.353C15.1546 52.2003 15.1285 52.0475 15.1057 51.8939C15.083 51.7403 15.0645 51.5859 15.0485 51.4314C15.0325 51.277 15.0215 51.1217 15.0139 50.9664C15.0063 50.8111 15.0021 50.6558 15.0021 50.5006C15.0021 50.3453 15.0063 50.1891 15.0139 50.0338C15.0215 49.8786 15.0325 49.7233 15.0485 49.5688C15.0645 49.4144 15.083 49.2599 15.1057 49.1063C15.1285 48.9527 15.1546 48.7991 15.1849 48.6472C15.2152 48.4945 15.2497 48.3434 15.2868 48.1923C15.3247 48.0413 15.366 47.8919 15.4106 47.7433C15.4561 47.594 15.5041 47.4471 15.5563 47.3011C15.6085 47.1543 15.6641 47.0099 15.7239 46.8656C15.7829 46.7222 15.846 46.5795 15.9117 46.4394C15.9783 46.2985 16.0473 46.1601 16.1206 46.0225C16.1939 45.8858 16.2705 45.7508 16.3497 45.6166C16.4297 45.4832 16.5122 45.3516 16.5981 45.2224C16.6849 45.0933 16.7733 44.9659 16.866 44.841C16.9578 44.7161 17.0538 44.5937 17.1523 44.4739C17.2509 44.3532 17.3519 44.2359 17.4564 44.1202C17.56 44.0055 17.6678 43.8924 17.7773 43.7827C17.8867 43.6729 17.9996 43.5658 18.1141 43.4611C18.2287 43.3565 18.3466 43.2552 18.4662 43.1564C18.5858 43.0577 18.7087 42.9623 18.8326 42.8695C18.9572 42.7775 19.0835 42.6872 19.2132 42.6011C19.3421 42.515 19.4735 42.4315 19.6066 42.3522C19.7396 42.2728 19.8744 42.196 20.0117 42.1226C20.1481 42.0492 20.2871 41.9791 20.4269 41.9133C20.5667 41.8466 20.709 41.7842 20.8522 41.7242C20.9954 41.6652 21.1402 41.6095 21.2868 41.5563C21.4325 41.504 21.5799 41.455 21.7281 41.4103C21.8772 41.3647 22.0263 41.3234 22.1762 41.2862C22.3261 41.2491 22.4777 41.2145 22.6301 41.1841C22.7826 41.1537 22.935 41.1276 23.0883 41.1048C23.2416 41.082 23.3957 41.0634 23.5498 41.0474C23.704 41.0322 23.8589 41.0204 24.0139 41.0128C24.1689 41.0052 24.3238 41.001 24.4788 41.001C24.6338 41.001 24.7887 41.0052 24.9437 41.0128C25.0987 41.0204 25.2536 41.0314 25.4078 41.0474C25.5619 41.0634 25.716 41.082 25.8693 41.1048C26.0226 41.1276 26.1759 41.1537 26.3275 41.1841C26.4791 41.2145 26.6307 41.2491 26.7814 41.2862C26.9322 41.3234 27.0813 41.3656 27.2295 41.4103C27.3777 41.455 27.5251 41.504 27.6708 41.5563C27.8165 41.6095 27.9614 41.6652 28.1046 41.7242C28.2477 41.7842 28.3901 41.8466 28.5299 41.9133C28.6705 41.98 28.8087 42.0492 28.9459 42.1226C29.0824 42.196 29.2171 42.2728 29.3502 42.3522C29.4833 42.4323 29.6147 42.515 29.7435 42.6011C29.8724 42.688 29.9996 42.7775 30.1242 42.8695C30.2489 42.9623 30.371 43.0577 30.4906 43.1564C30.611 43.2552 30.7281 43.3565 30.8426 43.4611C30.9572 43.5649 31.07 43.6729 31.1795 43.7827C31.289 43.8924 31.396 44.0055 31.5004 44.1202C31.6048 44.2359 31.7059 44.3532 31.8044 44.4739C31.903 44.5937 31.9981 44.7169 32.0908 44.841C32.1834 44.9659 32.2727 45.0925 32.3586 45.2224C32.4445 45.3524 32.5279 45.4832 32.6071 45.6166C32.6871 45.7499 32.7629 45.8858 32.8362 46.0225C32.9094 46.1601 32.9793 46.2985 33.045 46.4394C33.1107 46.5804 33.1739 46.7222 33.2337 46.8656C33.2926 47.0091 33.3482 47.1543 33.4004 47.3011C33.4527 47.4471 33.5015 47.5948 33.5462 47.7433C33.5916 47.8919 33.6329 48.0421 33.67 48.1923C33.707 48.3426 33.7415 48.4945 33.7719 48.6472C33.8022 48.8 33.8283 48.9527 33.851 49.1063C33.8738 49.2599 33.8923 49.4144 33.9083 49.5688C33.9243 49.7233 33.9353 49.8786 33.9428 50.0338C33.9504 50.1891 33.9546 50.3444 33.9546 50.5006Z" fill="white" fill-opacity="0.3"/>
<path d="M28.3408 55.2501L26.3279 52.195H29.2167V51.0464H19.7392V52.2026H22.628L20.6142 55.2493H22.11L24.4733 51.6599L26.8366 55.2493H28.3399L28.3408 55.2501Z" fill="#573BF3"/>
<path d="M26.3834 48.7652H29.2167V49.9299H19.7392V48.7652H22.5716L20.5822 45.7498H22.0864L24.4733 49.3872L26.8686 45.7498H28.3728L26.3834 48.7652Z" fill="#573BF3"/>
</g>
<defs>
<clipPath id="clip0_5804_21272">
<rect width="172" height="19" fill="white" transform="translate(15 41)"/>
</clipPath>
</defs>
</svg>
