<svg width="203" height="100" viewBox="0 0 203 100" fill="none" xmlns="http://www.w3.org/2000/svg">
<g clip-path="url(#clip0_5804_21296)">
<path d="M67.9812 43.3183C70.1894 43.6155 72.721 45.1591 71.8535 47.7178C71.3487 49.2063 70.1369 49.2063 69.1642 50.153C73.2704 50.124 74.5822 55.5413 70.8493 57.2322C70.5943 57.3479 69.1905 57.7818 69.0327 57.7818H61.0148L61.0569 56.772C61.559 56.701 62.5921 56.0383 62.5921 55.5466V44.8961H61.0122V43.3183C63.1941 43.5287 65.8624 43.0343 67.9786 43.3183H67.9812ZM65.4838 49.6297C67.5501 50.0504 69.1537 49.0774 69.1221 46.8632C69.0853 44.3123 65.4838 44.1966 65.4838 45.2906V49.6297ZM65.4838 56.467C71.5985 57.5846 71.6169 49.9715 65.4838 50.9445V56.467Z" fill="white" fill-opacity="0.3"/>
<path d="M46.4249 43.3183C51.8823 43.9626 52.4896 49.8716 47.5159 51.4705L47.3476 51.9912C48.9959 52.4593 49.5716 55.1127 50.7756 56.0594C51.6405 56.7405 52.3923 55.9463 52.0795 57.7819L48.3991 57.6477C47.203 56.609 45.9333 53.0036 44.866 52.241C44.4007 51.9097 43.9249 51.9754 43.4017 51.9964V56.467H45.2445V57.7819H39.1983L39.2377 56.5038C39.7924 56.588 40.7756 55.7254 40.7756 55.2836V44.8962H39.1956V43.3183C41.4906 43.5129 44.1825 43.0527 46.4249 43.3183ZM43.4017 50.6816C48.0022 52.3751 49.958 45.0829 45.3418 44.6463C44.5795 44.5753 43.4017 44.9935 43.4017 45.8166V50.6816Z" fill="white" fill-opacity="0.3"/>
<path d="M84.6742 43.3181V47.2627L83.6595 47.2259C83.4071 44.7145 81.4171 44.2517 79.2089 44.8065C78.9408 44.8854 78.6279 45.6665 78.6279 45.8164V49.6295H81.2594L81.2568 47.786H82.5738V52.7852H81.2594C81.5775 50.8839 80.1527 50.8549 78.6306 50.9443V56.4668C81.2541 56.664 84.0407 56.5799 84.1669 53.3269L85.2026 53.3111V57.7816H74.4245L74.4639 56.5036C75.1448 56.3826 75.5838 56.2985 75.7336 55.5411C76.333 52.5169 75.0895 48.0122 76.0018 44.9012H74.4245V43.3207H84.6769L84.6742 43.3181Z" fill="white" fill-opacity="0.3"/>
<path d="M124.369 56.4668H126.212V57.7816H120.166V56.4668L121.178 56.4326C121.982 55.9277 121.007 46.4133 121.743 44.8986H120.166V43.3181H127.395C127.64 43.3181 129.556 44.036 129.906 44.2254C132.979 45.8979 132.08 50.5078 129.078 51.8358C127.39 52.5827 125.789 51.8253 124.372 52.651V56.4642L124.369 56.4668ZM124.369 51.2073C127.608 51.8779 129.961 48.8905 128.423 45.9689C127.613 44.4305 124.369 44.0045 124.369 45.8164V51.2073Z" fill="white" fill-opacity="0.3"/>
<path d="M105.442 57.7817C105.126 56.3012 105.778 56.6168 106.375 55.9593C107.445 54.7812 110.316 46.4239 111.047 44.3175C111.189 43.9099 111.215 43.4891 111.238 43.0684C111.614 43.0657 112.051 42.9868 112.416 43.0368C112.926 43.1078 113.221 44.0834 113.457 44.6383C115.058 48.3699 116.428 52.4723 117.766 56.317L119.114 56.4669V57.7844H113.591C113.247 56.4064 113.954 56.6168 114.362 56.0435C114.769 55.4702 114.206 54.0422 113.865 53.4348L109.283 53.298L108.334 56.4695H109.651V57.7844H105.445L105.442 57.7817ZM109.648 51.9963H113.328L111.617 46.7342L109.648 51.9963Z" fill="white" fill-opacity="0.3"/>
<path d="M152.235 57.7816C151.838 56.1223 152.85 56.5378 153.47 55.8619C153.712 55.5963 154.112 54.5839 154.28 54.1736C155.708 50.7182 156.672 46.9761 158.063 43.4943C158.381 42.8132 159.472 42.8658 159.837 43.4733L164.617 56.4405L165.907 56.4668V57.7843H160.384C159.848 56.2196 161.509 56.4747 161.438 55.3097C161.428 55.1361 160.871 53.6871 160.779 53.5767C160.474 53.2085 157.188 53.2006 156.57 53.3137C155.642 53.4847 155.276 55.5858 155.124 56.4694H156.438V57.7869H152.232L152.235 57.7816ZM156.441 51.9962H160.121L158.41 46.7341L156.441 51.9962Z" fill="white" fill-opacity="0.3"/>
<path d="M104.39 47.7887L103.086 47.7782C102.477 42.8764 96.8536 43.3103 95.5733 47.7782C93.6517 54.484 99.0039 59.8828 104.522 54.1053C106.27 55.3439 103.271 57.0164 102.095 57.4609C97.8052 59.0834 92.7763 56.9744 92.282 52.1435C91.5907 45.3851 96.5434 41.2985 102.939 43.8494L103.089 43.0841L104.388 43.0552V47.7887H104.39Z" fill="white" fill-opacity="0.3"/>
<path d="M37.6183 43.3181V47.6572C37.6183 47.7124 38.0127 47.957 37.8812 48.049L36.58 48.0385C36.5169 46.8183 36.2698 45.5245 35.0605 44.9564C34.5663 44.725 32.6236 44.3227 32.6236 45.0274V56.0723L34.1877 56.4826L34.4638 57.7816H28.4175L28.428 56.4773C29.0195 56.643 29.9948 56.1275 29.9948 55.5464V44.633C27.6577 44.4331 26.0305 45.5665 26.3144 48.0543H25L25.2629 43.3181H37.6183Z" fill="white" fill-opacity="0.3"/>
<path d="M152.761 43.3181V47.6572C152.761 47.7124 153.155 47.957 153.024 48.049L151.722 48.0385C151.659 46.8183 151.412 45.5245 150.203 44.9564C149.709 44.725 147.766 44.3227 147.766 45.0274V56.0723L149.33 56.4826L149.606 57.7816H143.56L143.57 56.4773C144.162 56.643 145.137 56.1275 145.137 55.5464V44.633C142.8 44.4331 141.173 45.5665 141.457 48.0543H140.14L140.403 43.3181H152.758H152.761Z" fill="white" fill-opacity="0.3"/>
<path d="M172.74 43.3181L172.7 44.5962C172.146 44.512 171.162 45.3746 171.162 45.8164V56.4668C173.841 56.6851 176.885 56.5115 176.686 53.0508H178L177.737 57.7816H166.959V56.4668C167.682 56.8823 168.536 55.7962 168.536 55.2834V44.896H166.956V43.3181H172.74Z" fill="white" fill-opacity="0.3"/>
<path d="M58.9118 43.3181L58.8724 44.5962C58.5332 44.6014 57.5974 44.9985 57.5974 45.2904V56.4668H58.9144V57.7816H53.131L53.1415 56.4773C53.733 56.643 54.7083 56.1275 54.7083 55.5464V44.896H53.1284V43.3181H58.9118Z" fill="white" fill-opacity="0.3"/>
<path d="M139.091 43.3181C138.828 43.6626 138.928 44.3463 138.773 44.5751C138.657 44.7461 137.514 44.9722 137.514 45.2904V56.4668L138.817 56.4799L139.091 57.7816H133.307L133.347 56.5036C133.686 56.4983 134.622 56.1012 134.622 55.8093V44.896H133.305V43.3181H139.088H139.091Z" fill="white" fill-opacity="0.3"/>
</g>
<defs>
<clipPath id="clip0_5804_21296">
<rect width="153" height="15" fill="white" transform="translate(25 43)"/>
</clipPath>
</defs>
</svg>
