<svg width="203" height="100" viewBox="0 0 203 100" fill="none" xmlns="http://www.w3.org/2000/svg">
<g clip-path="url(#clip0_5804_21331)">
<path d="M104.526 60.6813H107.037V43.3523H104.526V53.4487C104.526 56.5791 102.496 58.4023 99.2541 58.4023C95.7539 58.4023 94.6789 55.9599 94.6789 53.4487V43.3523H92.1333V54.0335C92.1333 57.6455 93.6469 60.6985 98.3683 60.6985C101.43 60.6985 103.752 59.0559 104.491 55.7793H104.526V60.6813Z" fill="white" fill-opacity="0.3"/>
<path d="M111.681 55.3406C111.681 58.471 113.229 60.6984 116.66 60.6984C118.097 60.6984 119.06 60.5178 120.204 60.148L119.834 57.8518C118.836 58.1442 118.062 58.2904 117.108 58.2904C115.044 58.2904 114.227 57.2326 114.227 55.117V45.571H120.014V43.3522H114.227V37.96H111.681V43.3522H108.912V45.571H111.681V55.3406Z" fill="white" fill-opacity="0.3"/>
<path d="M125.346 40.4368V37.96H122.25V40.4368H125.346ZM125.088 60.6812V43.3522H122.543V60.6812H125.088Z" fill="white" fill-opacity="0.3"/>
<path d="M131.418 37.96H128.873V60.6812H131.418V37.96Z" fill="white" fill-opacity="0.3"/>
<path d="M140.311 58.5142C137.619 58.5142 136.656 57.0952 136.656 55.7106C136.656 53.9218 137.98 52.9758 140.379 52.9758H146.055V54.068C146.055 56.6222 143.88 58.5142 140.302 58.5142H140.311ZM146.064 60.6814H148.575V49.7336C148.575 45.3992 146.546 42.9912 141.936 42.9912C137.731 42.9912 135.297 45.1068 134.703 49.1832L137.137 49.5874C137.653 46.457 139.132 45.1756 141.859 45.1756C144.955 45.1756 146.064 46.8182 146.064 49.8024V50.929H140.13C136.114 50.929 134.153 53.1134 134.153 55.9256C134.153 59.099 136.294 60.6642 139.76 60.6642C142.787 60.6642 145.221 59.1334 146.03 55.9256H146.064V60.6814Z" fill="white" fill-opacity="0.3"/>
<path d="M63.1342 38.2439L67.89 43.0427L62.7902 48.1855C60.3736 50.6193 60.3736 54.5581 62.7902 56.9919C65.052 59.2709 68.6296 59.4171 71.0548 57.4305L69.5842 58.9183C66.0238 62.5045 60.2532 62.5045 56.6928 58.9183L56.108 58.3249C52.5476 54.7387 52.5476 48.9251 56.108 45.3389L63.1428 38.2525L63.1342 38.2439Z" fill="white" fill-opacity="0.3"/>
<path d="M75.9739 62.0401L71.2095 57.2413L76.3093 52.0985C78.7259 49.6647 78.7259 45.7259 76.3093 43.2921C74.0475 41.0131 70.4699 40.8669 68.0447 42.8535L69.5153 41.3657C73.0757 37.7795 78.8463 37.7795 82.4067 41.3657L82.9915 41.9591C86.5519 45.5453 86.5519 51.3589 82.9915 54.9451L75.9567 62.0315L75.9739 62.0401Z" fill="white" fill-opacity="0.3"/>
</g>
<defs>
<clipPath id="clip0_5804_21331">
<rect width="203" height="100" fill="white"/>
</clipPath>
</defs>
</svg>
