<svg width="203" height="100" viewBox="0 0 203 100" fill="none" xmlns="http://www.w3.org/2000/svg">
<g clip-path="url(#clip0_5804_21341)">
<path d="M51.7297 64.5987C51.5276 65.0858 51.366 65.3693 50.9626 65.3693C50.5592 65.3693 50.3976 65.0858 50.1946 64.5987L40.0597 40.0042C39.0083 37.4507 37.2322 38.5047 37.2322 37.6127C37.2322 37.3701 37.3937 37.1681 37.7168 37.1681C39.8566 37.1681 41.9973 37.2487 44.1371 37.2487C46.1975 37.2487 48.257 37.1681 50.3164 37.1681C50.922 37.1681 51.2045 37.2487 51.2045 37.5729C51.2045 38.3426 48.7416 37.8971 48.7416 39.8421C48.7416 40.6127 49.3878 42.2734 54.3957 54.9559H54.4751C57.9894 46.0013 59.3214 43.3265 59.3214 41.4629C59.3214 37.4117 55.8496 38.6676 55.8496 37.6136C55.8496 37.2895 56.0111 37.1681 56.5355 37.1681C57.9496 37.1681 59.6048 37.2496 60.6544 37.2496C62.5126 37.2496 63.7644 37.1681 65.1371 37.1681C65.5008 37.1681 65.7841 37.2496 65.7841 37.4923C65.7841 38.5463 62.8357 37.3302 60.5335 43.0032L51.7297 64.5987ZM70.2624 48.6346C70.2624 47.3379 69.8589 46.973 69.0512 46.973C67.7589 46.973 66.7905 47.6621 66.7905 48.8773C66.7905 49.8099 66.9511 50.8223 66.9511 51.7948C66.9511 53.6176 65.6994 54.9152 63.519 54.9152C61.2971 54.9152 60.409 53.9427 60.409 52.4431C60.409 49.2014 66.3456 46.0005 71.5953 46.0005C76.0374 46.0005 77.6122 47.8233 77.6122 51.1057V62.0062C77.6122 62.4916 77.855 62.7768 78.299 62.7768C79.3892 62.7768 79.5507 61.3171 80.1563 61.3171C80.3585 61.3171 80.52 61.5199 80.52 61.6811C80.52 62.0868 79.1473 65.0442 74.8262 65.0442C72.2009 65.0442 71.0304 64.0717 70.5457 62.4508C68.3653 64.1939 66.4674 65.0442 64.4476 65.0442C61.0552 65.0442 59.6825 63.1001 59.6825 61.357C59.6825 58.1967 62.0253 57.2242 70.2624 54.3067V48.6346ZM70.2624 55.1579C67.7589 56.1711 67.0315 57.3456 67.0315 59.1701C67.0315 61.8441 67.6379 62.5323 68.6875 62.5323C69.3743 62.5323 69.8995 62.0461 70.2624 61.682V55.1579ZM125.073 46.0005C130.242 46.0005 133.11 49.4849 133.11 52.119C133.11 54.428 131.737 55.482 129.96 55.482C128.304 55.482 126.89 54.3067 126.89 52.119C126.89 50.8223 127.133 49.4849 127.133 48.6744C127.133 47.3379 126.325 46.7294 125.113 46.7294C123.176 46.7294 121.642 49.3237 121.642 52.4024C121.642 57.8318 124.872 60.6679 127.941 60.6679C132.06 60.6679 131.858 58.0347 132.747 58.0347C133.029 58.0347 133.11 58.1967 133.11 58.4403C133.11 59.4943 130.687 65.0451 124.064 65.0451C119.702 65.0451 115.099 61.8441 115.099 55.9284C115.099 50.1332 120.026 46.0005 125.074 46.0005H125.073ZM143.045 62.3304C143.045 64.3153 145.387 63.5456 145.387 64.3967C145.387 64.5987 145.307 64.8015 144.943 64.8015C143.408 64.8015 141.672 64.72 139.612 64.72C137.553 64.72 135.816 64.8015 134.282 64.8015C133.918 64.8015 133.838 64.5987 133.838 64.3967C133.838 63.5456 136.18 64.3153 136.18 62.3304V39.9227C136.18 37.8971 133.675 38.4241 133.675 37.6535C133.675 36.7217 136.098 37.7757 143.045 35.1416V62.3304ZM144.418 54.8337C148.053 51.7133 148.942 50.9038 148.942 49.5256C148.942 46.7294 146.599 47.5 146.599 46.6081C146.599 46.3246 146.8 46.2431 147.164 46.2431C147.932 46.2431 149.587 46.3246 151.243 46.3246C153.222 46.3246 154.636 46.2431 155.443 46.2431C155.927 46.2431 156.089 46.4061 156.089 46.6488C156.089 47.4592 153.303 46.6081 149.345 51.0242L155.807 62.3702C156.977 64.3967 158.472 63.4641 158.472 64.3967C158.472 64.72 158.269 64.8015 157.462 64.8015C155.887 64.8015 154.272 64.72 152.374 64.72C150.718 64.72 149.102 64.8015 147.446 64.8015C147.043 64.8015 146.8 64.72 146.8 64.356C146.8 63.7077 148.174 64.1124 148.174 62.938C148.174 62.3304 147.769 61.6005 147.406 60.8707L144.418 54.8337ZM113.118 43.5382C113.203 43.7826 113.563 43.718 113.562 43.4585L113.508 37.301C113.508 37.2957 113.507 37.2709 113.495 37.2443C113.472 37.1982 113.424 37.1681 113.369 37.169C108.446 37.2089 103.482 37.2487 98.3208 37.2487C95.3724 37.2487 93.0711 37.1672 91.4962 37.1672C91.0513 37.1672 90.8907 37.2886 90.8907 37.6544C90.8907 38.9502 94.2831 37.4108 94.2831 40.2469V43.3717C94.2831 43.625 94.5329 43.8074 94.7686 43.7189C95.4748 43.4549 96.234 43.3097 97.0258 43.3097C98.8567 43.3097 100.515 44.0767 101.736 45.3202C101.966 45.5523 102.359 45.3831 102.359 45.0572V38.5197C102.359 38.3116 102.527 38.1424 102.735 38.1504C104.607 38.2141 107.192 38.5135 108.771 39.2894C110.244 40.0139 111.136 40.4515 111.971 41.4621C112.602 42.2255 112.919 42.9749 113.118 43.5382ZM93.4436 64.8015C93.079 64.8015 92.9987 64.5987 92.9987 64.3967C92.9987 63.5456 95.0176 64.3153 95.0176 62.3304V50.9445C95.0176 49.1616 94.0889 48.5132 93.1196 48.5132C92.0691 48.5132 90.9392 49.2829 90.0909 50.0933V62.3304C90.0909 64.3153 92.1098 63.5456 92.1098 64.3967C92.1098 64.5987 92.0294 64.8015 91.6666 64.8015C90.4546 64.8015 88.7182 64.72 86.6587 64.72C84.5992 64.72 82.8629 64.8015 81.3277 64.8015C80.964 64.8015 80.8837 64.5987 80.8837 64.3967C80.8837 63.5456 83.2257 64.3153 83.2257 62.3304V50.7417C83.2257 47.9871 80.5606 48.4725 80.5606 47.7028C80.5606 47.0545 83.1047 47.7843 90.0909 46.0013V48.7967C92.9184 46.6089 94.5338 46.0013 96.7548 46.0013C100.793 46.0013 101.884 48.5132 101.884 52.0384V62.3304C101.884 63.387 102.547 63.6616 103.167 63.8175C104.875 63.9335 107.051 63.3702 108.418 62.69C109.888 61.9584 110.777 61.5155 111.607 60.5023C112.234 59.7352 112.548 58.9841 112.744 58.4191C112.829 58.1746 113.189 58.2384 113.188 58.497L113.165 64.6545C113.165 64.6607 113.165 64.6846 113.152 64.7112C113.13 64.7572 113.082 64.7882 113.027 64.7882L93.4436 64.8015Z" fill="white" fill-opacity="0.3"/>
<path d="M108.492 54.8531C108.564 55.3456 108.564 55.8088 108.964 55.8088C109.181 55.8088 109.327 55.7468 109.327 55.4076V45.3051C109.327 44.9659 109.181 44.9048 108.964 44.9048C108.564 44.9048 108.564 45.3671 108.492 45.8596C108.211 47.7072 106.435 49.2829 104.034 49.6956C103.945 49.7116 103.903 49.7815 103.91 49.8604C103.94 50.1597 103.951 50.2766 103.984 50.5149C103.991 50.5716 104.04 50.6176 104.106 50.63C106.414 51.0729 108.156 52.6583 108.492 54.8531Z" fill="white" fill-opacity="0.3"/>
<path d="M158.471 40.3187C158.471 38.5632 159.862 37.1682 161.619 37.1682C163.378 37.1682 164.768 38.5632 164.768 40.3187C164.768 42.0742 163.377 43.4692 161.619 43.4692C159.862 43.4692 158.471 42.0742 158.471 40.3187ZM158.983 40.3187C158.983 41.8023 160.181 42.9564 161.619 42.9564C163.058 42.9564 164.257 41.8023 164.257 40.3187C164.257 38.828 163.058 37.681 161.619 37.681C160.181 37.681 158.982 38.828 158.982 40.3187H158.983ZM163.058 42.1149H162.475L161.571 40.479H160.916V42.1149H160.404V38.5712H161.891C162.531 38.5712 163.106 38.7634 163.106 39.5092C163.106 40.2071 162.634 40.4631 162.163 40.479L163.058 42.1149ZM160.916 39.084V39.9662H161.459C161.939 39.9662 162.595 40.0459 162.595 39.565C162.595 39.1159 162.219 39.084 161.795 39.084H160.916Z" fill="white" fill-opacity="0.3"/>
</g>
<defs>
<clipPath id="clip0_5804_21341">
<rect width="128" height="31" fill="white" transform="translate(37 35)"/>
</clipPath>
</defs>
</svg>
