<svg width="44" height="44" viewBox="0 0 44 44" fill="none" xmlns="http://www.w3.org/2000/svg">
<path d="M44 22C44 9.84974 34.1503 0 22 0C9.84974 0 0 9.84974 0 22C0 34.1503 9.84974 44 22 44C34.1503 44 44 34.1503 44 22Z" fill="white"/>
<path d="M27 17.9037C27 18.1566 26.9068 18.4095 26.6939 18.6092C26.3079 18.9952 25.6689 18.9952 25.2829 18.5958C24.8969 18.2098 24.9102 17.5842 25.2962 17.1849C25.6823 16.7989 26.3212 16.8122 26.7072 17.1982C26.9068 17.3979 27 17.6508 26.9867 17.9037H27Z" fill="#3939EF"/>
<path d="M24 14.9128C24 14.7799 23.9734 14.6469 23.9202 14.5273C23.8671 14.4076 23.7873 14.3013 23.7075 14.2082C23.5214 14.0221 23.2555 13.9025 22.9897 13.9025C22.7238 13.9025 22.4712 14.0088 22.2851 14.1816C22.2053 14.2747 22.1256 14.381 22.0724 14.5007C21.9261 14.8729 22.0059 15.3116 22.2718 15.5908C22.4579 15.7769 22.7238 15.8833 22.9764 15.8966C23.2422 15.8966 23.5081 15.7902 23.6942 15.6174C23.8804 15.4313 23.9867 15.1787 24 14.9128Z" fill="#3939EF"/>
<path d="M18 22.8928C17.7467 22.8928 17.48 22.7862 17.2933 22.5995C17.1067 22.4128 17 22.1462 17 21.8928C17 21.6262 17.1067 21.3595 17.2933 21.1862C17.6667 20.8128 18.3467 20.8128 18.7067 21.1862C18.8933 21.3595 19 21.6262 19 21.8928C19 22.1595 18.8933 22.4128 18.7067 22.5995C18.52 22.7862 18.2667 22.8928 18 22.8928Z" fill="#3939EF"/>
<path d="M14 22.8928C13.7467 22.8928 13.48 22.7862 13.2933 22.5995C13.1067 22.4128 13 22.1462 13 21.8928C13 21.6262 13.1067 21.3595 13.2933 21.1862C13.6667 20.8128 14.3467 20.8128 14.7067 21.1862C14.8933 21.3595 15 21.6262 15 21.8928C15 22.1595 14.8933 22.4128 14.7067 22.5995C14.52 22.7862 14.2667 22.8928 14 22.8928Z" fill="#3939EF"/>
<path d="M21 21.8995C21 21.3395 21.4533 20.8995 22 20.8995C22.56 20.8995 23 21.3395 23 21.8995C23 22.4462 22.56 22.8995 22 22.8995C21.4533 22.8995 21 22.4462 21 21.8995Z" fill="#3939EF"/>
<path d="M26 22.8928C25.7333 22.8928 25.48 22.7862 25.2933 22.5995C25.1067 22.4128 25 22.1462 25 21.8928C25 21.6262 25.1067 21.3595 25.2933 21.1862C25.6667 20.8128 26.3333 20.8128 26.7067 21.1862C26.8933 21.3595 27 21.6262 27 21.8928C27 22.1595 26.8933 22.4128 26.7067 22.5995C26.52 22.7862 26.2667 22.8928 26 22.8928Z" fill="#3939EF"/>
<path d="M30.9866 21.8933C30.9866 22.1475 30.8796 22.415 30.7057 22.6023C30.5184 22.7896 30.2509 22.8966 29.9967 22.91C29.8629 22.91 29.7292 22.8832 29.6088 22.8297C29.4884 22.7762 29.3813 22.7093 29.2877 22.6157C28.9131 22.2411 28.8998 21.5723 29.2743 21.1977C29.4616 21.0104 29.7158 20.9034 29.9833 20.89C30.2509 20.8766 30.505 20.997 30.6923 21.1709C30.8796 21.3582 30.9866 21.6124 31 21.8799L30.9866 21.8933Z" fill="#3939EF"/>
<path d="M26.7072 26.6008C26.3212 26.9868 25.6823 27.0001 25.2962 26.6141C24.9102 26.2148 24.8969 25.5892 25.2829 25.2032C25.6689 24.8038 26.3078 24.8038 26.6939 25.1899C26.8935 25.3895 26.9867 25.6424 27 25.8953C27 26.1482 26.9068 26.4011 26.7205 26.6008H26.7072Z" fill="#3939EF"/>
<path d="M24 28.8857C24 29.0187 23.9734 29.1516 23.9202 29.2712C23.8671 29.3909 23.7873 29.4972 23.7075 29.5903C23.5214 29.7764 23.2555 29.8828 22.9897 29.8961C22.7238 29.9093 22.4712 29.7897 22.2851 29.6169C22.2053 29.5238 22.1256 29.4175 22.0724 29.2978C21.9261 28.9256 22.0059 28.4869 22.2718 28.2077C22.4579 28.0216 22.7238 27.9153 22.9764 27.902C23.2422 27.902 23.5081 28.0083 23.6942 28.1811C23.8804 28.3673 23.9867 28.6198 24 28.8857Z" fill="#3939EF"/>
</svg>
