<svg width="45" height="44" viewBox="0 0 45 44" fill="none" xmlns="http://www.w3.org/2000/svg">
<path d="M44.8 22C44.8 9.84974 34.9503 0 22.8 0C10.6498 0 0.800049 9.84974 0.800049 22C0.800049 34.1503 10.6498 44 22.8 44C34.9503 44 44.8 34.1503 44.8 22Z" fill="white"/>
<path d="M27.8 17.9037C27.8 18.1566 27.7069 18.4095 27.4939 18.6092C27.1079 18.9952 26.469 18.9952 26.083 18.5958C25.697 18.2098 25.7103 17.5842 26.0963 17.1849C26.4823 16.7989 27.1212 16.8122 27.5072 17.1982C27.7069 17.3979 27.8 17.6508 27.7867 17.9037H27.8Z" fill="#1C1C77"/>
<path d="M24.8 14.9128C24.8 14.7799 24.7735 14.6469 24.7203 14.5273C24.6671 14.4076 24.5873 14.3013 24.5076 14.2082C24.3215 14.0221 24.0556 13.9025 23.7897 13.9025C23.5238 13.9025 23.2712 14.0088 23.0851 14.1816C23.0054 14.2747 22.9256 14.381 22.8724 14.5007C22.7262 14.8729 22.806 15.3116 23.0718 15.5908C23.258 15.7769 23.5238 15.8833 23.7764 15.8966C24.0423 15.8966 24.3082 15.7902 24.4943 15.6174C24.6804 15.4313 24.7868 15.1787 24.8 14.9128Z" fill="#1C1C77"/>
<path d="M18.8 22.8928C18.5467 22.8928 18.28 22.7862 18.0934 22.5995C17.9067 22.4128 17.8 22.1462 17.8 21.8928C17.8 21.6262 17.9067 21.3595 18.0934 21.1862C18.4667 20.8128 19.1467 20.8128 19.5067 21.1862C19.6934 21.3595 19.8 21.6262 19.8 21.8928C19.8 22.1595 19.6934 22.4128 19.5067 22.5995C19.32 22.7862 19.0667 22.8928 18.8 22.8928Z" fill="#1C1C77"/>
<path d="M14.8 22.8928C14.5467 22.8928 14.28 22.7862 14.0934 22.5995C13.9067 22.4128 13.8 22.1462 13.8 21.8928C13.8 21.6262 13.9067 21.3595 14.0934 21.1862C14.4667 20.8128 15.1467 20.8128 15.5067 21.1862C15.6934 21.3595 15.8 21.6262 15.8 21.8928C15.8 22.1595 15.6934 22.4128 15.5067 22.5995C15.32 22.7862 15.0667 22.8928 14.8 22.8928Z" fill="#1C1C77"/>
<path d="M21.8 21.8995C21.8 21.3395 22.2534 20.8995 22.8 20.8995C23.36 20.8995 23.8 21.3395 23.8 21.8995C23.8 22.4462 23.36 22.8995 22.8 22.8995C22.2534 22.8995 21.8 22.4462 21.8 21.8995Z" fill="#1C1C77"/>
<path d="M26.8 22.8928C26.5334 22.8928 26.28 22.7862 26.0934 22.5995C25.9067 22.4128 25.8 22.1462 25.8 21.8928C25.8 21.6262 25.9067 21.3595 26.0934 21.1862C26.4667 20.8128 27.1334 20.8128 27.5067 21.1862C27.6934 21.3595 27.8 21.6262 27.8 21.8928C27.8 22.1595 27.6934 22.4128 27.5067 22.5995C27.32 22.7862 27.0667 22.8928 26.8 22.8928Z" fill="#1C1C77"/>
<path d="M31.7867 21.8933C31.7867 22.1475 31.6797 22.415 31.5057 22.6023C31.3185 22.7896 31.0509 22.8966 30.7967 22.91C30.663 22.91 30.5292 22.8832 30.4088 22.8297C30.2884 22.7762 30.1814 22.7093 30.0878 22.6157C29.7132 22.2411 29.6998 21.5723 30.0744 21.1977C30.2617 21.0104 30.5158 20.9034 30.7834 20.89C31.0509 20.8766 31.3051 20.997 31.4924 21.1709C31.6797 21.3582 31.7867 21.6124 31.8 21.8799L31.7867 21.8933Z" fill="#1C1C77"/>
<path d="M27.5072 26.6008C27.1212 26.9868 26.4823 27.0001 26.0963 26.6141C25.7103 26.2148 25.697 25.5892 26.083 25.2032C26.469 24.8038 27.1079 24.8038 27.4939 25.1899C27.6936 25.3895 27.7867 25.6424 27.8 25.8953C27.8 26.1482 27.7069 26.4011 27.5205 26.6008H27.5072Z" fill="#1C1C77"/>
<path d="M24.8 28.8857C24.8 29.0187 24.7735 29.1516 24.7203 29.2712C24.6671 29.3909 24.5873 29.4972 24.5076 29.5903C24.3215 29.7764 24.0556 29.8828 23.7897 29.8961C23.5238 29.9093 23.2712 29.7897 23.0851 29.6169C23.0054 29.5238 22.9256 29.4175 22.8724 29.2978C22.7262 28.9256 22.806 28.4869 23.0718 28.2077C23.258 28.0216 23.5238 27.9153 23.7764 27.902C24.0423 27.902 24.3082 28.0083 24.4943 28.1811C24.6804 28.3673 24.7868 28.6198 24.8 28.8857Z" fill="#1C1C77"/>
</svg>
