<svg width="203" height="100" viewBox="0 0 203 100" fill="none" xmlns="http://www.w3.org/2000/svg">
<g clip-path="url(#clip0_5804_21358)">
<g clip-path="url(#clip1_5804_21358)">
<path d="M48.54 44.3311H53.719L52.4242 39.3831H57.3874L61.3795 54.0135L65.1773 39.4046L72.2681 39.3938L76.0531 54.0135L80.0452 39.3831H85.0083L78.6123 60.6512L72.9457 60.6598L68.822 44.1175L64.3012 60.5821L58.4879 60.6598L56.9342 54.8939L48.54 54.8724V51.4305L55.8812 51.3205L54.7677 47.8031L48.54 47.7729V44.3311Z" fill="white" fill-opacity="0.3"/>
<path d="M119.534 61.1109C109.043 59.8593 107.571 43.4896 116.367 39.7759C123.071 36.9447 131.619 40.5678 131.619 48.5261V51.7521L131.295 52.0758H116.298C116.66 58.1244 124.908 58.1438 127.842 54.0158L130.751 57.1317C129.368 58.707 127.926 59.842 125.887 60.4527C125.13 60.6793 123.729 61.0375 122.987 61.1109C122.137 61.1972 120.37 61.2101 119.534 61.1109ZM126.224 47.773C126.42 41.4633 116.395 41.4741 116.298 47.773H126.224Z" fill="white" fill-opacity="0.3"/>
<path d="M138.092 39.3831C139.357 41.3985 140.712 44.1175 142.227 45.9107C142.374 46.0833 142.427 46.3401 142.73 46.271L147.263 39.3852H152.982L145.654 49.8164L152.982 60.6814H147.048L142.084 53.1568L137.121 60.6814H131.619L138.966 49.6136L131.834 39.3831H138.092Z" fill="white" fill-opacity="0.3"/>
<path d="M109.824 39.3831V43.4701H102.163L101.84 43.7938V60.6814H97.0924V39.3831H109.824Z" fill="white" fill-opacity="0.3"/>
<path d="M93.2082 39.3831V60.3577L92.8845 60.6814H88.0293V39.3831H93.2082Z" fill="white" fill-opacity="0.3"/>
</g>
</g>
<defs>
<clipPath id="clip0_5804_21358">
<rect width="203" height="100" fill="white"/>
</clipPath>
<clipPath id="clip1_5804_21358">
<rect width="104.442" height="22.36" fill="white" transform="translate(48.54 38.8201)"/>
</clipPath>
</defs>
</svg>
