<svg width="203" height="100" viewBox="0 0 203 100" fill="none" xmlns="http://www.w3.org/2000/svg">
<g clip-path="url(#clip0_5804_20708)">
<path d="M102.958 38.9001V48.4479H114.35V38.9001H117.476V61.5947H114.454L114.35 61.4908V51.4238H102.958V61.5947H99.9377L99.8335 61.4908V38.9001H102.958Z" fill="white" fill-opacity="0.3"/>
<path d="M47.67 38.9001V40.872L35.5141 58.6189H45.8985L47.67 61.5947H31V59.5536L43.2948 41.8053H31.5558V38.9001H47.67Z" fill="white" fill-opacity="0.3"/>
<path d="M51.5603 54.1905C51.7485 55.9777 52.9309 57.6798 54.617 58.3751C56.5057 59.1541 58.9372 58.8901 60.8143 58.1862C61.6176 57.8847 62.3499 57.4491 63.088 57.0278C63.3022 57.7303 63.9868 58.4545 64.2314 59.1079C64.2618 59.1901 64.3067 59.2868 64.2574 59.369C59.2455 62.9074 50.8164 62.5929 48.8148 55.8508C47.0751 49.9929 50.7527 44.0845 57.1527 44.3614C62.5149 44.5937 65.2633 48.9687 64.6858 54.0174L64.5816 54.1905H51.5589H51.5603ZM61.6306 51.6315C61.4584 46.515 54.6691 45.3582 52.242 49.6481C51.9019 50.2482 51.6356 50.942 51.5589 51.6315H61.6306Z" fill="white" fill-opacity="0.3"/>
<path d="M78.2311 52.7378H81.2878C81.1025 57.5413 86.6023 60.7667 90.4882 57.5096C94.3742 54.2524 92.3147 47.1194 86.9134 47.0631V44.295C91.0614 44.2056 94.6478 47.0905 95.425 51.1424C96.7 57.7952 90.9369 63.017 84.398 61.2268C80.5612 60.1767 78.1558 56.6672 78.2311 52.7364V52.7378Z" fill="white" fill-opacity="0.3"/>
<path d="M81.2877 44.2965V47.03L81.1835 47.1338H74.6548C72.8905 47.1338 70.8687 49.5428 70.8687 51.2507V61.5947H68.0898V50.8352C68.0898 48.9254 69.8961 46.4717 71.4563 45.4707C74.3986 43.5839 77.9734 44.5143 81.2863 44.2965H81.2877Z" fill="white" fill-opacity="0.3"/>
<path d="M158.734 38V46.1644C162.595 43.004 168.432 43.9488 170.945 48.2878C171.336 48.9614 172 50.6361 172 51.3877V61.5932H169.221V51.9416C169.221 48.7393 165.59 46.5178 162.592 47.2766C160.876 47.7108 158.733 49.7476 158.733 51.5954V61.4894L158.628 61.5932H155.988L155.884 61.4894V38H158.733H158.734Z" fill="white" fill-opacity="0.3"/>
<path d="M141.88 59.633C141.646 59.3993 140.683 58.2381 140.74 57.9741L142.896 56.4061C143.853 58.2698 146.033 59.4512 148.122 58.8079C149.969 58.2395 150.476 56.2071 148.865 54.9939C146.473 53.1923 142.045 53.2529 141.718 49.2442C141.251 43.5262 149.801 42.6463 152.334 46.8353L150.535 48.5562C150.484 48.5951 150.453 48.5879 150.399 48.559C150.33 48.5215 149.79 47.8479 149.599 47.6907C148.338 46.6535 145.496 46.1184 144.739 47.9662C144.183 49.3264 145.05 50.1876 146.185 50.7458C148.593 51.9287 152.502 52.7494 152.763 56.0239C153.223 61.7996 145.449 63.1916 141.879 59.6344L141.88 59.633Z" fill="white" fill-opacity="0.3"/>
<path d="M134.841 47.2031V44.8504H137.758V61.5947H134.841V59.3113C133.5 60.7538 131.865 61.7101 129.874 61.9395C123.105 62.7199 118.886 55.7527 121.106 49.7447C123.216 44.0354 130.874 42.4631 134.841 47.2016V47.2031ZM128.228 47.2233C121.492 47.8753 121.656 58.6391 128.209 59.1714C136.838 59.8738 136.614 46.4112 128.228 47.2233Z" fill="white" fill-opacity="0.3"/>
</g>
<defs>
<clipPath id="clip0_5804_20708">
<rect width="141" height="24" fill="white" transform="translate(31 38)"/>
</clipPath>
</defs>
</svg>
